<?xml version="1.0" encoding="utf-8"?>
<!-- Generator: Fusion 360, Shaper Origin Export Add-In, Version 1.6.3  -->
<svg xmlns="http://www.w3.org/2000/svg" xmlns:xlink="http://www.w3.org/1999/xlink" xmlns:shaper="http://www.shapertools.com/namespaces/shaper" shaper:fusionaddin="version:1.6.3" width="9.8cm" height="9.8cm" version="1.1" x="0cm" y="0cm" viewBox="0 0 9.8 9.8" enable-background="new 0 0 9.8 9.8" xml:space="preserve"><path d="M-6.3093275,-0.0348763 A1.1,1.1 120.0268752 1,1 -4.8065109,-1.5376929 L-3.9177615,0 A2.2625336,2.2625336 149.9731248 0,0 0,-0 L0.8887494,-1.5376929 A1.1,1.1 210.0268752 1,1 2.391566,-0.0348763 L0.8538731,0.8538731 A2.2625336,2.2625336 239.9731248 0,0 0.8538731,4.7716346 L2.391566,5.660384 A1.1,1.1 300.0268752 1,1 0.8887494,7.1632006 L0,5.6255077 A2.2625336,2.2625336 329.9731248 0,0 -3.9177615,5.6255077 L-4.8065109,7.1632006 A1.1,1.1 30.0268752 1,1 -6.3093275,5.660384 L-4.7716346,4.7716346 A2.2625336,2.2625336 59.9731248 0,0 -4.7716346,0.8538731 L-6.3093275,-0.0348763z" transform="matrix(1,0,0,-1,6.8588808,7.7127539)" fill="rgb(0,0,0)" shaper:cutDepth="0" stroke-linecap="round" stroke-linejoin="round" /><path d="M1.5911192,-0.9872461 a0.25,0.25 0 1,1 0.5,0 a0.25,0.25 0 1,1 -0.5,0z" transform="matrix(1,0,0,-1,6.8588808,7.7127539)" fill="rgb(255,255,255)" stroke="rgb(0,0,0)" stroke-width="0.0010cm" stroke-linecap="round" stroke-linejoin="round" shaper:cutDepth="0" /><path d="M1.5911192,6.6127539 a0.25,0.25 0 1,1 0.5,0 a0.25,0.25 0 1,1 -0.5,0z" transform="matrix(1,0,0,-1,6.8588808,7.7127539)" fill="rgb(255,255,255)" stroke="rgb(0,0,0)" stroke-width="0.0010cm" stroke-linecap="round" stroke-linejoin="round" shaper:cutDepth="0" /><path d="M0.4911192,5.3127539 a0.05,0.05 0 1,1 0.1,0 a0.05,0.05 0 1,1 -0.1,0z" transform="matrix(1,0,0,-1,6.8588808,7.7127539)" fill="rgb(255,255,255)" stroke="rgb(0,0,0)" stroke-width="0.0010cm" stroke-linecap="round" stroke-linejoin="round" shaper:cutDepth="0" /><path d="M-6.0088808,-0.9872461 a0.25,0.25 0 1,1 0.5,0 a0.25,0.25 0 1,1 -0.5,0z" transform="matrix(1,0,0,-1,6.8588808,7.7127539)" fill="rgb(255,255,255)" stroke="rgb(0,0,0)" stroke-width="0.0010cm" stroke-linecap="round" stroke-linejoin="round" shaper:cutDepth="0" /><path d="M-6.0088808,6.6127539 a0.25,0.25 0 1,1 0.5,0 a0.25,0.25 0 1,1 -0.5,0z" transform="matrix(1,0,0,-1,6.8588808,7.7127539)" fill="rgb(255,255,255)" stroke="rgb(0,0,0)" stroke-width="0.0010cm" stroke-linecap="round" stroke-linejoin="round" shaper:cutDepth="0" /><path d="M0.4911192,0.3127539 a0.05,0.05 0 1,1 0.1,0 a0.05,0.05 0 1,1 -0.1,0z" transform="matrix(1,0,0,-1,6.8588808,7.7127539)" fill="rgb(255,255,255)" stroke="rgb(0,0,0)" stroke-width="0.0010cm" stroke-linecap="round" stroke-linejoin="round" shaper:cutDepth="0" /><path d="M-4.5088808,0.3127539 a0.05,0.05 0 1,1 0.1,0 a0.05,0.05 0 1,1 -0.1,0z" transform="matrix(1,0,0,-1,6.8588808,7.7127539)" fill="rgb(255,255,255)" stroke="rgb(0,0,0)" stroke-width="0.0010cm" stroke-linecap="round" stroke-linejoin="round" shaper:cutDepth="0" /><path d="M-4.5088808,5.3127539 a0.05,0.05 0 1,1 0.1,0 a0.05,0.05 0 1,1 -0.1,0z" transform="matrix(1,0,0,-1,6.8588808,7.7127539)" fill="rgb(255,255,255)" stroke="rgb(0,0,0)" stroke-width="0.0010cm" stroke-linecap="round" stroke-linejoin="round" shaper:cutDepth="0" /></svg>