<?xml version="1.0" encoding="utf-8"?>
<!-- Generator: Fusion 360, Shaper Origin Export Add-In, Version 1.6.3  -->
<svg xmlns="http://www.w3.org/2000/svg" xmlns:xlink="http://www.w3.org/1999/xlink" xmlns:shaper="http://www.shapertools.com/namespaces/shaper" shaper:fusionaddin="version:1.6.3" width="8.0925cm" height="8.1cm" version="1.1" x="0cm" y="0cm" viewBox="0 0 8.0925 8.1" enable-background="new 0 0 8.0925 8.1" xml:space="preserve"><path d="M0.7,3.6 L0,3.6 0,2.75 -0.3,2.75 -0.3,0.75 0,0.75 0,0 6.45,0 A1.3425,1.3425 270 0,1 6.45,2.685 L3.5,2.685 A1.065,1.065 270 0,0 3.5,4.815 L6.3,4.815 A1.3425,1.3425 270 0,1 6.3,7.5 L3.4123099,7.5 A0.05,0.05 270 0,0 3.4123099,7.6 L4.4123099,7.6 A0.25,0.25 270 0,1 4.4123099,8.1 L3.4123099,8.1 3.4123099,8.1 3.38659,8.0996262 3.3614479,8.0985064 3.3368803,8.0966444 3.3128824,8.0940467 3.2894475,8.0907221 3.266567,8.0866814 3.2442311,8.0819374 3.2224283,8.0765049 3.2011458,8.0704005 3.1803696,8.0636423 3.1600843,8.0562499 3.1402738,8.0482445 3.1209208,8.0396483 3.1020071,8.0304847 3.0835138,8.0207781 3.0654213,8.0105541 3.0303566,7.9886591 2.9966429,7.9650193 2.9641015,7.9398654 2.9325467,7.9134376 2.901787,7.8859828 2.8716268,7.8577539 2.8123099,7.8 2.752993,7.7422461 2.7228329,7.7140172 2.6920731,7.6865624 2.6605183,7.6601346 2.627977,7.6349807 2.5942633,7.6113409 2.5591985,7.5894459 2.541106,7.5792219 2.5226127,7.5695153 2.503699,7.5603517 2.484346,7.5517555 2.4645355,7.5437501 2.4442503,7.5363577 2.4234741,7.5295995 2.4021916,7.5234951 2.3803888,7.5180626 2.3580529,7.5133186 2.3351724,7.5092779 2.3117374,7.5059533 2.2877395,7.5033556 2.263172,7.5014936 2.2380298,7.5003738 2.2123099,7.5 0,7.5 0,6.75 -0.3,6.75 -0.3,4.75 0,4.75 0,3.9 0.7,3.9 0.7,3.6z" transform="matrix(1,0,0,-1,0.3,8.1)" fill="rgb(0,0,0)" shaper:cutDepth="0" stroke-linecap="round" stroke-linejoin="round" /><path d="M5,6.7 L5,7 7,7 7,6.7 5,6.7z" transform="matrix(1,0,0,-1,0.3,8.1)" fill="rgb(255,255,255)" stroke="rgb(0,0,0)" stroke-width="0.0010cm" stroke-linecap="round" stroke-linejoin="round" shaper:cutDepth="0" /><path d="M5,0.5 L5,0.8 7,0.8 7,0.5 5,0.5z" transform="matrix(1,0,0,-1,0.3,8.1)" fill="rgb(255,255,255)" stroke="rgb(0,0,0)" stroke-width="0.0010cm" stroke-linecap="round" stroke-linejoin="round" shaper:cutDepth="0" /><path d="M6.3,1.3425 a0.15,0.15 0 1,1 0.3,0 a0.15,0.15 0 1,1 -0.3,0z" transform="matrix(1,0,0,-1,0.3,8.1)" fill="rgb(255,255,255)" stroke="rgb(0,0,0)" stroke-width="0.0010cm" stroke-linecap="round" stroke-linejoin="round" shaper:cutDepth="0" /><path d="M1.1,4.6475 a0.15,0.15 0 1,1 0.3,0 a0.15,0.15 0 1,1 -0.3,0z" transform="matrix(1,0,0,-1,0.3,8.1)" fill="rgb(255,255,255)" stroke="rgb(0,0,0)" stroke-width="0.0010cm" stroke-linecap="round" stroke-linejoin="round" shaper:cutDepth="0" /><path d="M1.1,1.8575 a0.15,0.15 0 1,1 0.3,0 a0.15,0.15 0 1,1 -0.3,0z" transform="matrix(1,0,0,-1,0.3,8.1)" fill="rgb(255,255,255)" stroke="rgb(0,0,0)" stroke-width="0.0010cm" stroke-linecap="round" stroke-linejoin="round" shaper:cutDepth="0" /><path d="M6.15,6.1575 a0.15,0.15 0 1,1 0.3,0 a0.15,0.15 0 1,1 -0.3,0z" transform="matrix(1,0,0,-1,0.3,8.1)" fill="rgb(255,255,255)" stroke="rgb(0,0,0)" stroke-width="0.0010cm" stroke-linecap="round" stroke-linejoin="round" shaper:cutDepth="0" /><path d="M0.125,5.8225 a0.5,0.5 0 1,1 1,0 a0.5,0.5 0 1,1 -1,0z" transform="matrix(1,0,0,-1,0.3,8.1)" fill="rgb(255,255,255)" stroke="rgb(0,0,0)" stroke-width="0.0010cm" stroke-linecap="round" stroke-linejoin="round" shaper:cutDepth="0" /></svg>