<?xml version="1.0" encoding="utf-8"?>
<!-- Generator: Fusion 360, Shaper Origin Export Add-In, Version 1.6.3  -->
<svg xmlns="http://www.w3.org/2000/svg" xmlns:xlink="http://www.w3.org/1999/xlink" xmlns:shaper="http://www.shapertools.com/namespaces/shaper" shaper:fusionaddin="version:1.6.3" width="9.8cm" height="9.8cm" version="1.1" x="0cm" y="0cm" viewBox="0 0 9.8 9.8" enable-background="new 0 0 9.8 9.8" xml:space="preserve"><path d="M0.09,3.5045113 A0.1,0.1 95.7391705 0,1 -0,3.4050126 L0,0 5.4,0 A0.25,0.25 270 0,1 5.4,0.5 L4.4,0.5 A0.2,0.2 270 0,0 4.4,0.9 L5.4,0.9 A0.9,0.9 90 0,0 6.2954887,0.09 A0.1,0.1 185.7391705 0,1 6.3949874,-0 L9.7,0 A0.1,0.1 270 0,1 9.8,0.1 L9.8,5.4 A0.25,0.25 0 0,1 9.3,5.4 L9.3,4.4 A0.2,0.2 0 0,0 8.9,4.4 L8.9,5.4 A0.9,0.9 180 0,0 9.71,6.2954887 A0.1,0.1 275.7391705 0,1 9.8,6.3949874 L9.8,9.7 A0.1,0.1 0 0,1 9.7,9.8 L6.3949874,9.8 A0.1,0.1 90 0,1 6.2954887,9.71 A0.9,0.9 354.2608295 0,0 5.4,8.9 L4.4,8.9 A0.2,0.2 270 1,0 4.4,9.3 L5.4,9.3 A0.25,0.25 270 0,1 5.4,9.8 L0.1,9.8 A0.1,0.1 90 0,1 -0,9.7 L0,4.4 A0.25,0.25 180 0,1 0.5,4.4 L0.5,5.4 A0.2,0.2 180 0,0 0.9,5.4 L0.9,4.4 A0.9,0.9 0 0,0 0.09,3.5045113z" transform="matrix(1,0,0,-1,0,9.8)" fill="rgb(0,0,0)" shaper:cutDepth="0" stroke-linecap="round" stroke-linejoin="round" /><path d="M7.93,7.9 L8.23,7.9 8.23,5.9 7.93,5.9 7.93,7.9z" transform="matrix(1,0,0,-1,0,9.8)" fill="rgb(255,255,255)" stroke="rgb(0,0,0)" stroke-width="0.0010cm" stroke-linecap="round" stroke-linejoin="round" shaper:cutDepth="0" /><path d="M6.93,8.15 L6.93,7.85 4.93,7.85 4.93,8.15 6.93,8.15z" transform="matrix(1,0,0,-1,0,9.8)" fill="rgb(255,255,255)" stroke="rgb(0,0,0)" stroke-width="0.0010cm" stroke-linecap="round" stroke-linejoin="round" shaper:cutDepth="0" /><path d="M2.93,8.15 L2.93,7.85 0.93,7.85 0.93,8.15 2.93,8.15z" transform="matrix(1,0,0,-1,0,9.8)" fill="rgb(255,255,255)" stroke="rgb(0,0,0)" stroke-width="0.0010cm" stroke-linecap="round" stroke-linejoin="round" shaper:cutDepth="0" /><path d="M7.63,5.05 L8.63,5.05 8.63,4.75 7.63,4.75 7.63,5.05z" transform="matrix(1,0,0,-1,0,9.8)" fill="rgb(255,255,255)" stroke="rgb(0,0,0)" stroke-width="0.0010cm" stroke-linecap="round" stroke-linejoin="round" shaper:cutDepth="0" /><path d="M4.93,1.65 L4.93,1.95 6.93,1.95 6.93,1.65 4.93,1.65z" transform="matrix(1,0,0,-1,0,9.8)" fill="rgb(255,255,255)" stroke="rgb(0,0,0)" stroke-width="0.0010cm" stroke-linecap="round" stroke-linejoin="round" shaper:cutDepth="0" /><path d="M0.85,1.1 a0.25,0.25 0 1,1 0.5,0 a0.25,0.25 0 1,1 -0.5,0z" transform="matrix(1,0,0,-1,0,9.8)" fill="rgb(255,255,255)" stroke="rgb(0,0,0)" stroke-width="0.0010cm" stroke-linecap="round" stroke-linejoin="round" shaper:cutDepth="0" /><path d="M8.45,8.7 a0.25,0.25 0 1,1 0.5,0 a0.25,0.25 0 1,1 -0.5,0z" transform="matrix(1,0,0,-1,0,9.8)" fill="rgb(255,255,255)" stroke="rgb(0,0,0)" stroke-width="0.0010cm" stroke-linecap="round" stroke-linejoin="round" shaper:cutDepth="0" /><path d="M0.85,8.7 a0.25,0.25 0 1,1 0.5,0 a0.25,0.25 0 1,1 -0.5,0z" transform="matrix(1,0,0,-1,0,9.8)" fill="rgb(255,255,255)" stroke="rgb(0,0,0)" stroke-width="0.0010cm" stroke-linecap="round" stroke-linejoin="round" shaper:cutDepth="0" /><path d="M2.4,2.5 L2.4,7.3 A0.1,0.1 180 0,0 2.5,7.4 L7.3,7.4 A0.1,0.1 90 0,0 7.4,7.3 L7.4,2.5 A0.1,0.1 0 0,0 7.3,2.4 L2.5,2.4 A0.1,0.1 270 0,0 2.4,2.5z" transform="matrix(1,0,0,-1,0,9.8)" fill="rgb(255,255,255)" stroke="rgb(0,0,0)" stroke-width="0.0010cm" stroke-linecap="round" stroke-linejoin="round" shaper:cutDepth="0" /><path d="M8.45,1.1 a0.25,0.25 0 1,1 0.5,0 a0.25,0.25 0 1,1 -0.5,0z" transform="matrix(1,0,0,-1,0,9.8)" fill="rgb(255,255,255)" stroke="rgb(0,0,0)" stroke-width="0.0010cm" stroke-linecap="round" stroke-linejoin="round" shaper:cutDepth="0" /><path d="M7.93,1.9 L7.93,3.9 8.23,3.9 8.23,1.9 7.93,1.9z" transform="matrix(1,0,0,-1,0,9.8)" fill="rgb(255,255,255)" stroke="rgb(0,0,0)" stroke-width="0.0010cm" stroke-linecap="round" stroke-linejoin="round" shaper:cutDepth="0" /><path d="M2.93,1.65 L0.93,1.65 0.93,1.95 2.93,1.95 2.93,1.65z" transform="matrix(1,0,0,-1,0,9.8)" fill="rgb(255,255,255)" stroke="rgb(0,0,0)" stroke-width="0.0010cm" stroke-linecap="round" stroke-linejoin="round" shaper:cutDepth="0" /></svg>