<?xml version="1.0" encoding="utf-8"?>
<!-- Generator: Fusion 360, Shaper Origin Export Add-In, Version 1.6.3  -->
<svg xmlns="http://www.w3.org/2000/svg" xmlns:xlink="http://www.w3.org/1999/xlink" xmlns:shaper="http://www.shapertools.com/namespaces/shaper" shaper:fusionaddin="version:1.6.3" width="6.185cm" height="1.5cm" version="1.1" x="0cm" y="0cm" viewBox="0 0 6.185 1.5" enable-background="new 0 0 6.185 1.5" xml:space="preserve"><path d="M3.2,0 A0.25,0.25 270 0,1 3.2,0.5 L0,0.5 0,0.5 -0.0545758,0.500465 -0.1100339,0.5018563 -0.166336,0.5041642 -0.223421,0.5073741 -0.2812059,0.5114671 -0.3395883,0.516422 -0.3984473,0.5222157 -0.4576457,0.5288244 -0.5170305,0.5362245 -0.5764346,0.5443929 -0.6356772,0.5533077 -0.6945647,0.5629486 -0.7528919,0.5732972 -0.8104426,0.5843378 -0.8669905,0.5960574 -0.9223006,0.6084459 -0.97613,0.6214964 -1.0282291,0.6352048 -1.0783429,0.6495699 -1.1025743,0.6569993 -1.1262117,0.6645939 -1.1492222,0.6723544 -1.1715728,0.6802816 -1.1932305,0.6883768 -1.2141626,0.6966409 -1.2343363,0.7050755 -1.2537195,0.7136818 -1.2722801,0.7224616 -1.2899867,0.7314164 -1.3068084,0.740548 -1.3227149,0.7498583 -1.3376769,0.759349 -1.3516655,0.7690222 -1.3646532,0.7788798 -1.3766132,0.7889238 -1.3875202,0.7991561 -1.3973503,0.8095787 -1.4060814,0.8201934 -1.4136931,0.8310019 -1.4201671,0.8420059 -1.4254874,0.8532067 -1.4296404,0.8646056 -1.4326151,0.8762036 -1.4344033,0.8880016 -1.435,0.9 -1.735,0.9 -1.735,1.2 -1.435,1.2 -1.435,1.2 -1.4354126,1.2166605 -1.436649,1.2327156 -1.4387058,1.2481678 -1.4415773,1.2630209 -1.445256,1.2772802 -1.4497326,1.2909522 -1.454996,1.3040445 -1.4610338,1.3165657 -1.4678319,1.3285254 -1.475375,1.3399341 -1.4836469,1.3508031 -1.4926302,1.3611442 -1.5023064,1.3709699 -1.5126568,1.3802932 -1.5236615,1.3891273 -1.5353004,1.397486 -1.5475528,1.4053832 -1.5603975,1.4128332 -1.573813,1.4198503 -1.5877775,1.4264492 -1.6022687,1.4326446 -1.6172645,1.4384514 -1.6486797,1.4489581 -1.681843,1.4580877 -1.7165751,1.465957 -1.7526988,1.4726802 -1.7900405,1.4783681 -1.8284301,1.4831278 -1.8677028,1.4870625 -1.9076987,1.4902704 -1.9482646,1.4928448 -2.0305279,1.4964374 -2.1134158,1.4984705 -2.1959913,1.4994745 -2.2774758,1.4998749 -2.3572729,1.4999854 -2.435,1.5 -2.735,1.5 -2.735,0.5 -2.435,0.5 -2.435,0.5 -2.4186218,0.4996885 -2.4011705,0.4987553 -2.3826501,0.4972037 -2.3630676,0.495039 -2.3424319,0.4922684 -2.3207544,0.4889012 -2.2980483,0.4849478 -2.2743285,0.4804208 -2.2496119,0.4753338 -2.2239165,0.4697019 -2.1972617,0.4635416 -2.1696683,0.4568704 -2.1411578,0.4497069 -2.1117525,0.4420706 -2.0814755,0.4339818 -2.0503503,0.4254617 -2.018401,0.4165322 -1.9856521,0.4072159 -1.9521285,0.3975359 -1.9178551,0.3875161 -1.8828572,0.3771807 -1.8471603,0.3665545 -1.8107897,0.3556629 -1.7737707,0.3445313 -1.7361285,0.3331857 -1.6978881,0.3216524 -1.6197113,0.2981282 -1.5394337,0.2741723 -1.4572426,0.25 -1.3733182,0.2258277 -1.2878328,0.2018718 -1.2009503,0.1783476 -1.1128249,0.1554687 -1.023601,0.1334455 -0.9334123,0.1124839 -0.8423818,0.0927841 -0.7506218,0.0745383 -0.6582333,0.0579294 -0.5653062,0.0431296 -0.4719189,0.0302981 -0.3781381,0.0195792 -0.2840188,0.0110988 -0.2368462,0.0077316 -0.1896041,0.004961 -0.1422961,0.0027963 -0.0949249,0.0012447 -0.0474925,0.0003115 0,-0 3.2,0z" transform="matrix(1,0,0,-1,2.735,1.5)" fill="rgb(0,0,0)" shaper:cutDepth="0" stroke-linecap="round" stroke-linejoin="round" /></svg>