<?xml version="1.0" encoding="utf-8"?>
<!-- Generator: Fusion 360, Shaper Origin Export Add-In, Version 1.6.3  -->
<svg xmlns="http://www.w3.org/2000/svg" xmlns:xlink="http://www.w3.org/1999/xlink" xmlns:shaper="http://www.shapertools.com/namespaces/shaper" shaper:fusionaddin="version:1.6.3" width="8.0156852cm" height="8.23cm" version="1.1" x="0cm" y="0cm" viewBox="0 0 8.0156852 8.23" enable-background="new 0 0 8.0156852 8.23" xml:space="preserve"><path d="M3.4384581,7.4913335 A0.1,0.1 202.7471683 0,1 3.5306801,7.43 L4.5061014,7.43 A0.05,0.05 90 0,0 4.5061014,7.33 L3.6564631,7.33 A0.1,0.1 90 0,1 3.5642411,7.1913335 L3.976666,6.2076753 A0.3,0.3 22.7471683 0,0 3.423334,5.975676 L3.3324638,6.1924069 A0.1,0.1 22.7471683 0,1 3.2015752,6.2459624 L2.8326872,6.0912963 A0.1,0.1 112.7471683 0,1 2.7791317,5.9604077 L3.426666,4.4159996 A0.3,0.3 22.7471683 0,0 2.873334,4.1840004 L2.2257997,5.7284085 A0.1,0.1 22.7471683 0,1 2.0949111,5.781964 L0.210001,4.9916651 A0.75,0.75 112.7471683 0,1 0.0839749,4.9240377 L-2.2,3.4013878 A0.1,0.1 123.6900675 0,1 -2.227735,3.2627128 L-1.8671799,2.7218801 A0.4,0.4 33.6900675 0,0 -2.0503247,2.1290589 L-2.653104,1.8858365 A0.1,0.1 111.9741489 0,1 -2.7084205,1.7556824 L-2,0 -2,-0.3 0,-0.3 0,0 5,0 5,1 5.3,1 5.3,3 5,3 5,5 5.3,5 5.3,7 5,7 5,7.93 3.4048971,7.93 A0.1,0.1 90 0,1 3.3126751,7.7913335 L3.4384581,7.4913335z" transform="matrix(1,0,0,-1,2.7156852,7.93)" fill="rgb(0,0,0)" shaper:cutDepth="0" stroke-linecap="round" stroke-linejoin="round" /><path d="M0.8214131,3.3530609 L0.8214131,3.3530609 0.8630623,3.3668839 0.9043454,3.3799563 0.9452639,3.3922816 0.9858201,3.4038653 1.026017,3.4147151 1.0658585,3.4248403 1.1053491,3.4342519 1.144494,3.4429627 1.183299,3.450987 1.2217706,3.4583403 1.2599157,3.4650398 1.2977416,3.4711035 1.3352562,3.4765508 1.3724678,3.4814017 1.4093848,3.4856776 1.4460162,3.4894001 1.5184583,3.4952752 1.5898683,3.4992105 1.6603208,3.501392 1.729889,3.5020031 1.7986429,3.5012203 1.8666472,3.4992087 1.9339594,3.4961178 2.0006293,3.4920786 2.0666972,3.4872017 2.1321934,3.4815741 2.1971368,3.475257 2.2615344,3.4682834 2.3253791,3.4606545 2.3886477,3.4523339 2.4512972,3.4432389 2.5132613,3.4332334 2.5744471,3.422119 2.6347314,3.4096273 2.693958,3.3954135 2.7231177,3.3875337 2.7519421,3.3790643 2.7804054,3.3699473 2.8084819,3.3601236 2.836146,3.349534 2.8633727,3.3381205 2.8901382,3.3258265 2.9164203,3.3125984 2.9421984,3.298386 2.9674546,3.2831434 2.9921735,3.2668302 3.016343,3.2494121 3.0399539,3.2308605 3.0629996,3.2111527 3.085476,3.1902714 3.1073815,3.1682046 3.1287161,3.1449454 3.1494818,3.1204917 3.1696821,3.0948456 3.1893218,3.0680138 3.2084064,3.040007 3.2269427,3.0108397 3.2449376,2.9805298 3.2623985,2.9490986 3.2793329,2.9165706 3.2957482,2.8829732 3.3116517,2.8483365 3.3270504,2.8126936 3.3419509,2.7760799 3.3563594,2.7385334 3.3702815,2.7000944 3.3837221,2.6608052 3.3966851,2.6207106 3.4091737,2.5798568 3.4211901,2.5382922 3.432735,2.4960668 3.4438081,2.453232 3.4544077,2.4098408 3.4645301,2.3659472 3.47417,2.3216065 3.4833194,2.2768748 3.4919681,2.231809 3.5077079,2.1409049 3.5212462,2.0493573 3.5271293,2.0034874 3.5323817,1.9576304 3.5369676,1.9118437 3.5408468,1.866184 3.5439743,1.8207071 3.5463001,1.7754682 3.5477698,1.7305212 3.5483238,1.6859188 3.5478982,1.6417124 3.5464242,1.5979519 3.5438282,1.5546855 3.540032,1.5119596 3.5349529,1.4698186 3.5285033,1.428305 3.5205912,1.3874588 3.5111198,1.3473176 3.4999879,1.3079166 3.4870915,1.2692887 3.4723244,1.2314641 3.455581,1.1944715 3.4367572,1.1583372 3.4265334,1.1405998 3.4157522,1.1230862 3.4044016,1.1057992 3.3924704,1.0887417 3.3799477,1.0719164 3.366823,1.0553258 3.3530867,1.0389727 3.3387295,1.0228594 3.323743,1.0069884 3.3081195,0.9913623 3.2918519,0.9759832 3.2749343,0.9608536 3.2573612,0.9459757 3.2391285,0.9313519 3.2202329,0.9169844 3.2006721,0.9028755 3.1804448,0.8890273 3.1595508,0.8754421 3.1379907,0.862122 3.1157662,0.8490693 3.0928799,0.8362861 3.069335,0.8237745 3.0451359,0.8115367 3.0202876,0.7995746 2.9947959,0.7878904 2.9686674,0.7764861 2.9419095,0.7653635 2.9145301,0.7545248 2.886538,0.7439718 2.8579424,0.7337064 2.8287533,0.7237304 2.7989813,0.7140456 2.7686373,0.7046537 2.737733,0.6955566 2.7062805,0.6867558 2.6742923,0.6782529 2.6087613,0.6621472 2.5412486,0.6472515 2.4718685,0.6335767 2.4007403,0.621133 2.3279876,0.6099296 2.2537386,0.5999747 2.1781256,0.5912758 2.1012846,0.5838393 2.0233556,0.5776708 1.9444816,0.5727749 1.8648091,0.5691556 1.7844875,0.5668156 1.7036688,0.5657569 1.6225077,0.5659807 1.5411609,0.5674872 1.4597875,0.5702757 1.3785478,0.5743447 1.2976036,0.5796918 1.2171168,0.5863134 1.1372495,0.5942053 1.058163,0.6033619 0.9800173,0.6137769 0.9029707,0.6254426 0.8271789,0.6383505 0.7527947,0.6524906 0.6799673,0.6678521 0.6088417,0.6844228 0.5395582,0.7021892 0.4722515,0.7211366 0.4393802,0.7310483 0.407051,0.7412492 0.3752793,0.7517371 0.3440798,0.7625097 0.313467,0.7735646 0.2834548,0.7848995 0.2540569,0.7965118 0.2252865,0.8083989 0.1971562,0.8205582 0.1696784,0.832987 0.1428649,0.8456823 0.1167271,0.8586413 0.091276,0.871861 0.066522,0.8853383 0.042475,0.8990701 0.0191446,0.9130533 -0.0034602,0.9272844 -0.0253309,0.9417601 -0.0464597,0.956477 -0.066839,0.9714315 -0.0864619,0.9866201 -0.105322,1.002039 -0.1234135,1.0176845 -0.1407311,1.0335527 -0.1572702,1.0496397 -0.1730265,1.0659416 -0.1879966,1.0824542 -0.2021778,1.0991734 -0.2155678,1.1160949 -0.2281653,1.1332144 -0.2399696,1.1505274 -0.2509809,1.1680294 -0.2611999,1.1857158 -0.2706284,1.2035818 -0.2792691,1.2216226 -0.2871254,1.2398332 -0.2942017,1.2582087 -0.3005033,1.2767438 -0.3060365,1.2954333 -0.3108086,1.3142717 -0.3148279,1.3332537 -0.3181039,1.3523735 -0.3206469,1.3716255 -0.3224685,1.3910037 -0.3235815,1.4105022 -0.3239997,1.4301148 -0.3237382,1.4498353 -0.3228133,1.4696573 -0.3212425,1.4895743 -0.3190447,1.5095796 -0.3128488,1.5498279 -0.304398,1.5903468 -0.293879,1.6310794 -0.2814897,1.6719683 -0.2674363,1.7129555 -0.25193,1.753983 -0.2351842,1.7949938 -0.2174114,1.8359316 -0.1988196,1.8767417 -0.1599734,1.9577704 -0.1201136,2.0376902 -0.0804565,2.1161637 -0.0419383,2.19291 -0.0233271,2.230562 -0.0052354,2.2677002 0.0122886,2.3043034 0.0292097,2.3403532 0.0455049,2.3758334 0.0611627,2.4107307 0.0761819,2.4450335 0.0905715,2.4787327 0.104349,2.5118208 0.1175407,2.5442925 0.1301804,2.576144 0.1423097,2.6073732 0.1539772,2.6379796 0.165238,2.6679642 0.1761537,2.6973295 0.1867914,2.7260794 0.197224,2.7542188 0.207529,2.7817541 0.2280899,2.8350431 0.2385224,2.8608147 0.2491798,2.8860179 0.2601587,2.9106637 0.2715576,2.934764 0.2834769,2.9583312 0.2960183,2.9813782 0.309284,3.0039184 0.3233764,3.0259652 0.3383974,3.0475326 0.3544479,3.0686344 0.3716272,3.0892844 0.3900327,3.1094964 0.4097588,3.1292839 0.4308971,3.1486601 0.4535352,3.1676378 0.4777564,3.1862293 0.5036396,3.2044463 0.5312582,3.2222997 0.56068,3.2397997 0.5919668,3.2569558 0.6251737,3.2737763 0.6603486,3.2902685 0.697532,3.3064387 0.7367561,3.3222919 0.7780449,3.3378319 0.8214131,3.3530609z" transform="matrix(1,0,0,-1,2.7156852,7.93)" fill="rgb(255,255,255)" stroke="rgb(0,0,0)" stroke-width="0.0010cm" stroke-linecap="round" stroke-linejoin="round" shaper:cutDepth="0" /></svg>