<?xml version="1.0" encoding="utf-8"?>
<!-- Generator: Fusion 360, Shaper Origin Export Add-In, Version 1.6.3  -->
<svg xmlns="http://www.w3.org/2000/svg" xmlns:xlink="http://www.w3.org/1999/xlink" xmlns:shaper="http://www.shapertools.com/namespaces/shaper" shaper:fusionaddin="version:1.6.3" width="7.3cm" height="8.23cm" version="1.1" x="0cm" y="0cm" viewBox="0 0 7.3 8.23" enable-background="new 0 0 7.3 8.23" xml:space="preserve"><path d="M3.4384581,7.4913335 A0.1,0.1 202.7471683 0,1 3.5306801,7.43 L4.5061014,7.43 A0.05,0.05 90 0,0 4.5061014,7.33 L3.6564631,7.33 A0.1,0.1 90 0,1 3.5642411,7.1913335 L3.976666,6.2076753 A0.3,0.3 22.7471683 1,0 3.423334,5.975676 L3.3324638,6.1924069 A0.1,0.1 22.7471683 0,1 3.2015752,6.2459624 L2.8326872,6.0912963 A0.1,0.1 112.7471683 0,1 2.7791317,5.9604077 L3.426666,4.4159996 A0.3,0.3 22.7471683 1,0 2.873334,4.1840004 L2.1871331,5.8206305 A0.65,0.65 22.7471683 0,1 1.3363576,6.168741 L0.4141375,5.7820757 A0.25,0.25 112.7471683 0,1 0.6074702,5.3209656 L1.5296903,5.707631 A0.075,0.075 112.7471683 0,0 1.5876901,5.569298 L0.578889,5.1463312 A0.1,0.1 112.7471683 0,1 0.5253335,5.0154427 L0.776666,4.4159996 A0.3,0.3 22.7471683 0,0 0.2503849,4.1335899 L-0.0585701,4.5970225 A0.1,0.1 33.6900675 0,1 -0.2350801,4.5775273 L-2,0 -2,-0.3 0,-0.3 0,0 5,0 5,1 5.3,1 5.3,3 5,3 5,5 5.3,5 5.3,7 5,7 5,7.93 3.4048971,7.93 A0.1,0.1 90 0,1 3.3126751,7.7913335 L3.4384581,7.4913335z" transform="matrix(1,0,0,-1,2,7.93)" fill="rgb(0,0,0)" shaper:cutDepth="0" stroke-linecap="round" stroke-linejoin="round" /><path d="M3.875,0.8 a0.5,0.5 0 1,1 1,0 a0.5,0.5 0 1,1 -1,0z" transform="matrix(1,0,0,-1,2,7.93)" fill="rgb(255,255,255)" stroke="rgb(0,0,0)" stroke-width="0.0010cm" stroke-linecap="round" stroke-linejoin="round" shaper:cutDepth="0" /><path d="M0.8214131,3.3530609 L0.8214131,3.3530609 0.8682789,3.3685712 0.9146273,3.3831149 0.9605016,3.3967116 1.0059448,3.409381 1.0510005,3.4211426 1.0957117,3.4320161 1.1401217,3.442021 1.1842739,3.451177 1.2282115,3.4595037 1.2719777,3.4670206 1.3156158,3.4737474 1.3591691,3.4797037 1.4026808,3.484909 1.4461942,3.4893831 1.4897525,3.4931454 1.5333991,3.4962156 1.5771771,3.4986133 1.6211299,3.5003581 1.6653007,3.5014696 1.7097328,3.5019674 1.7544693,3.5018712 1.7995537,3.5012004 1.8450291,3.4999748 1.8909389,3.4982139 1.9142376,3.4971308 1.9383315,3.495886 1.9632026,3.4944765 1.9887921,3.4929013 2.0150415,3.4911592 2.0418918,3.4892491 2.0971607,3.4849202 2.1541291,3.4799059 2.2123272,3.474197 2.2712853,3.4677847 2.3305335,3.4606599 2.3896022,3.4528137 2.4480215,3.4442371 2.5053217,3.4349212 2.5610331,3.4248569 2.5881461,3.4195413 2.6146858,3.4140353 2.6405934,3.4083377 2.6658101,3.4024474 2.6902773,3.3963633 2.7140294,3.3900601 2.7601363,3.3765244 2.8044964,3.3615798 2.8472004,3.345035 2.8679597,3.3361026 2.888339,3.3266983 2.9083496,3.3167982 2.9280028,3.3063783 2.9473101,3.2954148 2.9662827,3.2838835 2.984932,3.2717607 3.0032703,3.2590217 3.0213818,3.2455867 3.0393137,3.2313894 3.0570649,3.216395 3.0746343,3.2005687 3.0920208,3.1838759 3.1092234,3.1662818 3.1262408,3.1477516 3.1430721,3.1282506 3.1597161,3.1077441 3.1761718,3.0861973 3.192438,3.0635755 3.2085207,3.0398352 3.2245501,3.0147548 3.2405652,2.9881822 3.2565516,2.9600269 3.2724949,2.9301984 3.2883807,2.8986061 3.3041947,2.8651593 3.3199224,2.8297675 3.3355495,2.7923402 3.3510615,2.7527867 3.3664441,2.7110164 3.3816828,2.6669388 3.3892437,2.6440065 3.3967603,2.6204714 3.411528,2.5719167 3.4258663,2.5216031 3.4397148,2.4697186 3.4530132,2.4164512 3.4657012,2.3619888 3.4777184,2.3065194 3.4890045,2.2502311 3.4994992,2.1933117 3.5091421,2.1359492 3.5178729,2.0783317 3.5256313,2.020647 3.532357,1.9630833 3.5379895,1.9058283 3.5424687,1.8490702 3.5457341,1.7929968 3.5477254,1.7377962 3.5483823,1.6836563 3.5476445,1.6307652 3.5454517,1.5793107 3.5437914,1.5541891 3.541759,1.529623 3.5393608,1.5056463 3.5366004,1.482246 3.5334815,1.4594093 3.5300078,1.4371233 3.5261827,1.415375 3.52201,1.3941517 3.5174934,1.3734404 3.5126364,1.3532282 3.5019159,1.3142497 3.4898776,1.277113 3.4765508,1.2417151 3.4619444,1.2079124 3.4459315,1.1753368 3.4284755,1.1438916 3.4095661,1.1135402 3.3891927,1.0842457 3.367345,1.0559716 3.3440126,1.0286811 3.3191851,1.0023375 3.2927477,0.9768038 3.2785985,0.9640435 3.2637236,0.9512359 3.2480908,0.9383922 3.2316678,0.9255239 3.2144223,0.9126422 3.1963221,0.8997586 3.1773349,0.8868843 3.1574284,0.8740307 3.1365704,0.8612091 3.1147287,0.8484309 3.0918709,0.8357074 3.0679647,0.82305 3.042978,0.8104699 3.0168785,0.7979786 2.9627023,0.7739574 2.9070127,0.7516341 2.8500448,0.7309486 2.7920336,0.711841 2.7332142,0.6942514 2.6738216,0.6781197 2.6140908,0.6633861 2.5542569,0.6499905 2.4945548,0.637873 2.4352196,0.6269736 2.3764864,0.6172324 2.3179173,0.6084931 2.2585859,0.6005769 2.1985468,0.5934782 2.1378671,0.5871935 2.076614,0.5817193 2.014855,0.577052 1.952657,0.5731881 1.8900876,0.5701241 1.8272138,0.5678565 1.7641029,0.5663817 1.7008222,0.5656962 1.6374388,0.5657965 1.5740202,0.566679 1.5106334,0.5683403 1.4473457,0.5707767 1.3842245,0.5739848 1.3213369,0.5779611 1.2587501,0.5827019 1.1965315,0.5882039 1.1347482,0.5944634 1.0734675,0.6014769 1.0127567,0.6092409 0.952683,0.6177519 0.8933136,0.6270064 0.8347158,0.6370008 0.7762122,0.6478753 0.7171757,0.6598069 0.6578061,0.6728369 0.5983033,0.6870066 0.5388673,0.7023574 0.479698,0.7189306 0.4209952,0.7367675 0.3629589,0.7559095 0.305789,0.7763978 0.2496854,0.7982738 0.1948481,0.8215788 0.1413323,0.8464258 0.1147391,0.8596518 0.088256,0.8734714 0.0619568,0.887895 0.0359155,0.9029333 0.0102061,0.9185967 -0.0150974,0.9348958 -0.0399212,0.9518413 -0.0641912,0.9694436 -0.0878336,0.9877134 -0.1107742,1.0066611 -0.1329393,1.0262974 -0.1542549,1.046633 -0.1746732,1.0677064 -0.1941346,1.0895527 -0.2125577,1.1121869 -0.2298611,1.135624 -0.2459636,1.1598793 -0.2607836,1.1849678 -0.2742399,1.2109046 -0.2862473,1.2376956 -0.2966082,1.2650012 -0.3052661,1.2926505 -0.3122489,1.320652 -0.3175847,1.3490143 -0.3213014,1.377746 -0.323427,1.4068557 -0.3239894,1.4362771 -0.3230473,1.4656726 -0.3207035,1.4949731 -0.3170627,1.5241473 -0.3122298,1.5531641 -0.3063099,1.5819921 -0.2994077,1.6106002 -0.2916283,1.6389569 -0.2830145,1.6672241 -0.2735524,1.6956607 -0.26329,1.7242808 -0.2522758,1.753097 -0.2405584,1.782122 -0.2281864,1.8113683 -0.2152083,1.8408486 -0.2016727,1.8705756 -0.1731229,1.9308199 -0.1429255,1.9922023 -0.079801,2.1174468 -0.0480495,2.1805822 -0.0162445,2.2449249 0.0156246,2.3112502 0.0315864,2.3453985 0.0475681,2.3803331 0.0635711,2.416151 0.0795967,2.452949 0.1112802,2.5287813 0.1259373,2.565348 0.1397137,2.6005671 0.1527104,2.6344926 0.1650282,2.6671788 0.1767682,2.6986799 0.1880313,2.7290499 0.1989183,2.7583431 0.2095302,2.7866137 0.219968,2.8139157 0.2303325,2.8403033 0.2407248,2.8658308 0.2512457,2.8905522 0.2619961,2.9145218 0.2730771,2.9377936 0.2845895,2.9604219 0.2966342,2.9824608 0.3093122,3.0039644 0.3227312,3.0249959 0.3370044,3.04561 0.3522257,3.0658223 0.3684884,3.0856471 0.3858857,3.1050986 0.4045107,3.1241909 0.4244568,3.1429383 0.4458172,3.1613551 0.468685,3.1794554 0.4931578,3.1972567 0.5195416,3.2149116 0.5480905,3.2324942 0.5789574,3.2499987 0.5953081,3.2587198 0.6122956,3.2674193 0.6299393,3.2760963 0.6482581,3.2847502 0.6672713,3.2933802 0.686998,3.3019856 0.7074573,3.3105657 0.7286684,3.3191197 0.7506504,3.327647 0.7734224,3.3361468 0.7970036,3.3446183 0.8214131,3.3530609z" transform="matrix(1,0,0,-1,2,7.93)" fill="rgb(255,255,255)" stroke="rgb(0,0,0)" stroke-width="0.0010cm" stroke-linecap="round" stroke-linejoin="round" shaper:cutDepth="0" /></svg>