<?xml version="1.0" encoding="UTF-8" standalone="no"?>
<!-- Created with Inkscape (http://www.inkscape.org/) -->

<svg
   xmlns:dc="http://purl.org/dc/elements/1.1/"
   xmlns:cc="http://creativecommons.org/ns#"
   xmlns:rdf="http://www.w3.org/1999/02/22-rdf-syntax-ns#"
   xmlns:svg="http://www.w3.org/2000/svg"
   xmlns="http://www.w3.org/2000/svg"
   xmlns:sodipodi="http://sodipodi.sourceforge.net/DTD/sodipodi-0.dtd"
   xmlns:inkscape="http://www.inkscape.org/namespaces/inkscape"
   width="210mm"
   height="297mm"
   viewBox="0 0 210 297"
   version="1.1"
   id="svg4870"
   inkscape:version="0.92.4 (5da689c313, 2019-01-14)">
  <defs
     id="defs4864" />
  <sodipodi:namedview
     id="base"
     pagecolor="#ffffff"
     bordercolor="#666666"
     borderopacity="1.0"
     inkscape:pageopacity="0.0"
     inkscape:pageshadow="2"
     inkscape:zoom="0.175"
     inkscape:cx="171.35147"
     inkscape:cy="219.82086"
     inkscape:document-units="mm"
     inkscape:current-layer="layer1"
     showgrid="false"
     inkscape:window-width="1920"
     inkscape:window-height="1017"
     inkscape:window-x="1912"
     inkscape:window-y="-8"
     inkscape:window-maximized="1" />
  <metadata
     id="metadata4867">
    <rdf:RDF>
      <cc:Work
         rdf:about="">
        <dc:format>image/svg+xml</dc:format>
        <dc:type
           rdf:resource="http://purl.org/dc/dcmitype/StillImage" />
        <dc:title></dc:title>
      </cc:Work>
    </rdf:RDF>
  </metadata>
  <g
     inkscape:label="Ebene 1"
     inkscape:groupmode="layer"
     id="layer1">
    <path
       inkscape:connector-curvature="0"
       d="m 352.34526,403.95238 v -44.99999 h -3.00003 v -30 h 3.00003 v -30.00002 h -3.00003 v -29.99999 h 3.00003 v -29.99999 h -3.00003 v -30 h 3.00003 v -30.00001 h -3.00003 v -30 h 3.00003 v -30 h -3.00003 v -30 h 3.00003 v -30 h -3.00003 v -30 h 3.00003 V -1.0476199 h -3.00003 V -31.04762 h 3.00003 v -29.999999 -15 h -50.00003 v 3 h -30 v -3 h -30.00002 v 3 h -29.99999 v -3 h -30 v 3 h -30 v -3 h -30.00001 v 3 H 92.345213 v -3 h -30 v 3 h -30 v -3 H 2.3452131 v 3 H -27.654784 v -3 h -30 v 3 h -29.99999 v -3 h -29.999996 -20 v 44.999999 h 3 v 30.0000001 h -3 V 28.95238 h 3 v 30 h -3 v 30 h 3 v 30 h -3 v 30 h 3 v 30 h -3 v 30.00001 h 3 v 30 h -3 v 29.99999 h 3 v 29.99999 h -3 v 30.00002 h 3 v 30 h -3 v 29.99999 15 z"
       id="front_outsideCutPath"
       style="font-size:12px;vector-effect:non-scaling-stroke;fill:none;fill-rule:evenodd;stroke:#0000ff;stroke-width:0.001;stroke-linecap:round;stroke-miterlimit:4;stroke-dasharray:none;stroke-opacity:1" />
  </g>
</svg>
