<?xml version="1.0" encoding="UTF-8" standalone="no"?>
<!-- Created with Inkscape (http://www.inkscape.org/) -->

<svg
   xmlns:shaper="http://www.shapertools.com/namespaces/shaper"
   xmlns:dc="http://purl.org/dc/elements/1.1/"
   xmlns:cc="http://creativecommons.org/ns#"
   xmlns:rdf="http://www.w3.org/1999/02/22-rdf-syntax-ns#"
   xmlns:svg="http://www.w3.org/2000/svg"
   xmlns="http://www.w3.org/2000/svg"
   xmlns:sodipodi="http://sodipodi.sourceforge.net/DTD/sodipodi-0.dtd"
   xmlns:inkscape="http://www.inkscape.org/namespaces/inkscape"
   width="210mm"
   height="297mm"
   viewBox="0 0 210 297"
   version="1.1"
   id="svg4870"
   inkscape:version="0.92.4 (5da689c313, 2019-01-14)">
  <defs
     id="defs4864" />
  <sodipodi:namedview
     id="base"
     pagecolor="#ffffff"
     bordercolor="#666666"
     borderopacity="1.0"
     inkscape:pageopacity="0.0"
     inkscape:pageshadow="2"
     inkscape:zoom="0.175"
     inkscape:cx="171.35147"
     inkscape:cy="219.82086"
     inkscape:document-units="mm"
     inkscape:current-layer="layer1"
     showgrid="false"
     inkscape:window-width="1920"
     inkscape:window-height="1017"
     inkscape:window-x="1912"
     inkscape:window-y="-8"
     inkscape:window-maximized="1" />
  <metadata
     id="metadata4867">
    <rdf:RDF>
      <cc:Work
         rdf:about="">
        <dc:format>image/svg+xml</dc:format>
        <dc:type
           rdf:resource="http://purl.org/dc/dcmitype/StillImage" />
        <dc:title></dc:title>
      </cc:Work>
    </rdf:RDF>
  </metadata>
  <g
     inkscape:label="Ebene 1"
     inkscape:groupmode="layer"
     id="layer1">
    <g
       id="g1860"
       transform="translate(-429.75,189.85714)"
       style="fill:none;stroke:#0000ff;stroke-width:0.001;stroke-miterlimit:4;stroke-dasharray:none;stroke-opacity:1">
      <path
         id="path1095"
         shaper:pathType="interior"
         shaper:cutDepth="0"
         d="m 722,-111.4772 30,-11.18942 v 13.58846 l -30,9.39359 z"
         inkscape:connector-curvature="0"
         style="vector-effect:non-scaling-stroke;fill:none;stroke:#0000ff;stroke-width:0.001;stroke-miterlimit:4;stroke-dasharray:none;stroke-opacity:1" />
      <path
         id="path1097"
         shaper:pathType="interior"
         shaper:cutDepth="0"
         d="m 722,-136.61116 30,-15.01693 v 14.8186 l -30,13.05852 z"
         inkscape:connector-curvature="0"
         style="vector-effect:non-scaling-stroke;fill:none;stroke:#0000ff;stroke-width:0.001;stroke-miterlimit:4;stroke-dasharray:none;stroke-opacity:1" />
      <path
         id="path1099"
         shaper:pathType="interior"
         shaper:cutDepth="0"
         d="m 722,-23.91028 30,2.14564 V -9.48788 L 722,-13.256 Z"
         inkscape:connector-curvature="0"
         style="vector-effect:non-scaling-stroke;fill:none;stroke:#0000ff;stroke-width:0.001;stroke-miterlimit:4;stroke-dasharray:none;stroke-opacity:1" />
      <path
         id="path1101"
         shaper:pathType="interior"
         shaper:cutDepth="0"
         d="m 514.86738,151.0374 -1.60803,30 h -11.80831 l 3.22533,-30 z"
         inkscape:connector-curvature="0"
         style="vector-effect:non-scaling-stroke;fill:none;stroke:#0000ff;stroke-width:0.001;stroke-miterlimit:4;stroke-dasharray:none;stroke-opacity:1" />
      <path
         id="path1103"
         shaper:pathType="interior"
         shaper:cutDepth="0"
         d="m 623.88366,151.0374 h 13.27742 l 17.79982,30 h -15.38453 z"
         inkscape:connector-curvature="0"
         style="vector-effect:non-scaling-stroke;fill:none;stroke:#0000ff;stroke-width:0.001;stroke-miterlimit:4;stroke-dasharray:none;stroke-opacity:1" />
      <path
         id="path1105"
         shaper:pathType="interior"
         shaper:cutDepth="0"
         d="m 722,-45.03587 30,-1.07146 v 12.1597 l -30,-0.5355 z"
         inkscape:connector-curvature="0"
         style="vector-effect:non-scaling-stroke;fill:none;stroke:#0000ff;stroke-width:0.001;stroke-miterlimit:4;stroke-dasharray:none;stroke-opacity:1" />
      <path
         id="path1107"
         shaper:pathType="interior"
         shaper:cutDepth="0"
         d="m 576.85988,151.0374 h 11.05781 l 9.98496,30 h -12.81267 z"
         inkscape:connector-curvature="0"
         style="vector-effect:non-scaling-stroke;fill:none;stroke:#0000ff;stroke-width:0.001;stroke-miterlimit:4;stroke-dasharray:none;stroke-opacity:1" />
      <path
         id="path1109"
         shaper:pathType="interior"
         shaper:cutDepth="0"
         d="m 450.62279,151.0374 -11.80357,30 h -13.85025 l 13.70054,-30 z"
         inkscape:connector-curvature="0"
         style="vector-effect:non-scaling-stroke;fill:none;stroke:#0000ff;stroke-width:0.001;stroke-miterlimit:4;stroke-dasharray:none;stroke-opacity:1" />
      <path
         id="path1111"
         shaper:pathType="interior"
         shaper:cutDepth="0"
         d="m 722,-88.28125 30,-7.65704 v 12.78518 l -30,5.96737 z"
         inkscape:connector-curvature="0"
         style="vector-effect:non-scaling-stroke;fill:none;stroke:#0000ff;stroke-width:0.001;stroke-miterlimit:4;stroke-dasharray:none;stroke-opacity:1" />
      <path
         id="path1113"
         shaper:pathType="interior"
         shaper:cutDepth="0"
         d="m 722,-2.45729 30,5.4126 v 12.6862 L 722,8.55233 Z"
         inkscape:connector-curvature="0"
         style="vector-effect:non-scaling-stroke;fill:none;stroke:#0000ff;stroke-width:0.001;stroke-miterlimit:4;stroke-dasharray:none;stroke-opacity:1" />
      <path
         id="path1115"
         shaper:pathType="interior"
         shaper:cutDepth="0"
         d="m 722,-66.32432 30,-4.31335 v 12.324 l -30,2.68463 z"
         inkscape:connector-curvature="0"
         style="vector-effect:non-scaling-stroke;fill:none;stroke:#0000ff;stroke-width:0.001;stroke-miterlimit:4;stroke-dasharray:none;stroke-opacity:1" />
      <path
         id="path1117"
         shaper:pathType="interior"
         shaper:cutDepth="0"
         d="m 722,19.84442 30,8.80879 v 13.42783 l -30,-10.5834 z"
         inkscape:connector-curvature="0"
         style="vector-effect:non-scaling-stroke;fill:none;stroke:#0000ff;stroke-width:0.001;stroke-miterlimit:4;stroke-dasharray:none;stroke-opacity:1" />
      <path
         id="path1119"
         shaper:pathType="interior"
         shaper:cutDepth="0"
         d="m 473.14012,151.0374 -8.2301,30 h -12.81267 l 9.98496,-30 z"
         inkscape:connector-curvature="0"
         style="vector-effect:non-scaling-stroke;fill:none;stroke:#0000ff;stroke-width:0.001;stroke-miterlimit:4;stroke-dasharray:none;stroke-opacity:1" />
      <path
         id="path1121"
         shaper:pathType="interior"
         shaper:cutDepth="0"
         d="m 599.37721,151.0374 h 11.95328 l 13.70054,30 h -13.85025 z"
         inkscape:connector-curvature="0"
         style="vector-effect:non-scaling-stroke;fill:none;stroke:#0000ff;stroke-width:0.001;stroke-miterlimit:4;stroke-dasharray:none;stroke-opacity:1" />
      <path
         id="path1123"
         shaper:pathType="interior"
         shaper:cutDepth="0"
         d="m 555.63277,151.0374 h 10.4898 l 6.5261,30 h -12.15452 z"
         inkscape:connector-curvature="0"
         style="vector-effect:non-scaling-stroke;fill:none;stroke:#0000ff;stroke-width:0.001;stroke-miterlimit:4;stroke-dasharray:none;stroke-opacity:1" />
      <path
         id="path1125"
         shaper:pathType="interior"
         shaper:cutDepth="0"
         d="m 722,69.57014 30,16.38124 v 16.27156 L 722,83.69127 Z"
         inkscape:connector-curvature="0"
         style="vector-effect:non-scaling-stroke;fill:none;stroke:#0000ff;stroke-width:0.001;stroke-miterlimit:4;stroke-dasharray:none;stroke-opacity:1" />
      <path
         id="path1127"
         shaper:pathType="interior"
         shaper:cutDepth="0"
         d="m 535.13262,151.0374 h 10.19101 l 3.22533,30 h -11.80831 z"
         inkscape:connector-curvature="0"
         style="vector-effect:non-scaling-stroke;fill:none;stroke:#0000ff;stroke-width:0.001;stroke-miterlimit:4;stroke-dasharray:none;stroke-opacity:1" />
      <path
         id="path1129"
         shaper:pathType="interior"
         shaper:cutDepth="0"
         d="m 651.31076,151.0374 h 15.20087 l 22.45772,30 h -17.61323 z"
         inkscape:connector-curvature="0"
         style="vector-effect:non-scaling-stroke;fill:none;stroke:#0000ff;stroke-width:0.001;stroke-miterlimit:4;stroke-dasharray:none;stroke-opacity:1" />
      <path
         id="path1131"
         shaper:pathType="interior"
         shaper:cutDepth="0"
         d="m 722,98.77954 30,20.82938 v 18.73007 l -30,-23.30471 z"
         inkscape:connector-curvature="0"
         style="vector-effect:non-scaling-stroke;fill:none;stroke:#0000ff;stroke-width:0.001;stroke-miterlimit:4;stroke-dasharray:none;stroke-opacity:1" />
      <path
         id="path1133"
         shaper:pathType="interior"
         shaper:cutDepth="0"
         d="m 494.36723,151.0374 -4.86138,30 h -12.15452 l 6.5261,-30 z"
         inkscape:connector-curvature="0"
         style="vector-effect:non-scaling-stroke;fill:none;stroke:#0000ff;stroke-width:0.001;stroke-miterlimit:4;stroke-dasharray:none;stroke-opacity:1" />
      <path
         id="path1135"
         shaper:pathType="interior"
         shaper:cutDepth="0"
         d="m 722,43.60007 30,12.42641 V 70.60522 L 722,56.25211 Z"
         inkscape:connector-curvature="0"
         style="vector-effect:non-scaling-stroke;fill:none;stroke:#0000ff;stroke-width:0.001;stroke-miterlimit:4;stroke-dasharray:none;stroke-opacity:1" />
      <path
         id="path1137"
         shaper:pathType="interior"
         shaper:cutDepth="0"
         d="m 398,-163 a 2,2 0 1 0 4,0 2,2 0 1 0 -4,0 z"
         inkscape:connector-curvature="0"
         style="vector-effect:non-scaling-stroke;fill:none;stroke:#0000ff;stroke-width:0.001;stroke-miterlimit:4;stroke-dasharray:none;stroke-opacity:1" />
      <path
         id="path1139"
         shaper:pathType="interior"
         shaper:cutDepth="0"
         d="m 583,-153 a 2,2 0 1 0 4,0 2,2 0 1 0 -4,0 z"
         inkscape:connector-curvature="0"
         style="vector-effect:non-scaling-stroke;fill:none;stroke:#0000ff;stroke-width:0.001;stroke-miterlimit:4;stroke-dasharray:none;stroke-opacity:1" />
      <path
         id="path1141"
         shaper:pathType="interior"
         shaper:cutDepth="0"
         d="m 328,-214.95556 -30,-26.94755 V -265 l 30,30 z"
         inkscape:connector-curvature="0"
         style="vector-effect:non-scaling-stroke;fill:none;stroke:#0000ff;stroke-width:0.001;stroke-miterlimit:4;stroke-dasharray:none;stroke-opacity:1" />
      <path
         id="path1143"
         shaper:pathType="interior"
         shaper:cutDepth="0"
         d="m 483,-153 a 2,2 0 1 0 4,0 2,2 0 1 0 -4,0 z"
         inkscape:connector-curvature="0"
         style="vector-effect:non-scaling-stroke;fill:none;stroke:#0000ff;stroke-width:0.001;stroke-miterlimit:4;stroke-dasharray:none;stroke-opacity:1" />
      <path
         id="path1145"
         shaper:pathType="interior"
         shaper:cutDepth="0"
         d="m 563,-53 a 2,2 0 1 0 4,0 2,2 0 1 0 -4,0 z"
         inkscape:connector-curvature="0"
         style="vector-effect:non-scaling-stroke;fill:none;stroke:#0000ff;stroke-width:0.001;stroke-miterlimit:4;stroke-dasharray:none;stroke-opacity:1" />
      <path
         id="path1147"
         shaper:pathType="interior"
         shaper:cutDepth="0"
         d="m 328,-123.75097 -30,-13.05852 v -14.8186 l 30,15.01693 z"
         inkscape:connector-curvature="0"
         style="vector-effect:non-scaling-stroke;fill:none;stroke:#0000ff;stroke-width:0.001;stroke-miterlimit:4;stroke-dasharray:none;stroke-opacity:1" />
      <path
         id="path1149"
         shaper:pathType="interior"
         shaper:cutDepth="0"
         d="m 395,-138 a 30,30 0 1 0 60,0 30,30 0 1 0 -60,0 z"
         inkscape:connector-curvature="0"
         style="vector-effect:non-scaling-stroke;fill:none;stroke:#0000ff;stroke-width:0.001;stroke-miterlimit:4;stroke-dasharray:none;stroke-opacity:1" />
      <path
         id="path1151"
         shaper:pathType="interior"
         shaper:cutDepth="0"
         d="M 328,56.25211 298,70.60522 V 56.02648 l 30,-12.42641 z"
         inkscape:connector-curvature="0"
         style="vector-effect:non-scaling-stroke;fill:none;stroke:#0000ff;stroke-width:0.001;stroke-miterlimit:4;stroke-dasharray:none;stroke-opacity:1" />
      <path
         id="path1153"
         shaper:pathType="interior"
         shaper:cutDepth="0"
         d="m 563,-153 a 2,2 0 1 0 4,0 2,2 0 1 0 -4,0 z"
         inkscape:connector-curvature="0"
         style="vector-effect:non-scaling-stroke;fill:none;stroke:#0000ff;stroke-width:0.001;stroke-miterlimit:4;stroke-dasharray:none;stroke-opacity:1" />
      <path
         id="path1155"
         shaper:pathType="interior"
         shaper:cutDepth="0"
         d="m 398.68924,151.0374 -20.04536,30 h -17.61323 l 22.45772,-30 z"
         inkscape:connector-curvature="0"
         style="vector-effect:non-scaling-stroke;fill:none;stroke:#0000ff;stroke-width:0.001;stroke-miterlimit:4;stroke-dasharray:none;stroke-opacity:1" />
      <path
         id="path1157"
         shaper:pathType="interior"
         shaper:cutDepth="0"
         d="m 328,-13.256 -30,3.76812 v -12.27676 l 30,-2.14564 z"
         inkscape:connector-curvature="0"
         style="vector-effect:non-scaling-stroke;fill:none;stroke:#0000ff;stroke-width:0.001;stroke-miterlimit:4;stroke-dasharray:none;stroke-opacity:1" />
      <path
         id="path1159"
         shaper:pathType="interior"
         shaper:cutDepth="0"
         d="m 328,115.03428 -30,23.30471 v -18.73007 l 30,-20.82938 z"
         inkscape:connector-curvature="0"
         style="vector-effect:non-scaling-stroke;fill:none;stroke:#0000ff;stroke-width:0.001;stroke-miterlimit:4;stroke-dasharray:none;stroke-opacity:1" />
      <path
         id="path1161"
         shaper:pathType="interior"
         shaper:cutDepth="0"
         d="m 328,-55.62904 -30,-2.68463 v -12.324 l 30,4.31335 z"
         inkscape:connector-curvature="0"
         style="vector-effect:non-scaling-stroke;fill:none;stroke:#0000ff;stroke-width:0.001;stroke-miterlimit:4;stroke-dasharray:none;stroke-opacity:1" />
      <path
         id="path1163"
         shaper:pathType="interior"
         shaper:cutDepth="0"
         d="m 328,-180.05712 -30,-21.63307 v -19.23797 l 30,24.17553 z"
         inkscape:connector-curvature="0"
         style="vector-effect:non-scaling-stroke;fill:none;stroke:#0000ff;stroke-width:0.001;stroke-miterlimit:4;stroke-dasharray:none;stroke-opacity:1" />
      <path
         id="path1165"
         shaper:pathType="interior"
         shaper:cutDepth="0"
         d="m 328,8.55233 -30,7.08918 V 2.95531 l 30,-5.4126 z"
         inkscape:connector-curvature="0"
         style="vector-effect:non-scaling-stroke;fill:none;stroke:#0000ff;stroke-width:0.001;stroke-miterlimit:4;stroke-dasharray:none;stroke-opacity:1" />
      <path
         id="path1167"
         shaper:pathType="interior"
         shaper:cutDepth="0"
         d="m 328,-150.18047 -30,-17.08332 v -16.62025 l 30,19.27983 z"
         inkscape:connector-curvature="0"
         style="vector-effect:non-scaling-stroke;fill:none;stroke:#0000ff;stroke-width:0.001;stroke-miterlimit:4;stroke-dasharray:none;stroke-opacity:1" />
      <path
         id="path1169"
         shaper:pathType="interior"
         shaper:cutDepth="0"
         d="m 463,-153 a 2,2 0 1 0 4,0 2,2 0 1 0 -4,0 z"
         inkscape:connector-curvature="0"
         style="vector-effect:non-scaling-stroke;fill:none;stroke:#0000ff;stroke-width:0.001;stroke-miterlimit:4;stroke-dasharray:none;stroke-opacity:1" />
      <path
         id="path1171"
         shaper:pathType="interior"
         shaper:cutDepth="0"
         d="m 328,-34.48318 -30,0.5355 v -12.1597 l 30,1.07146 z"
         inkscape:connector-curvature="0"
         style="vector-effect:non-scaling-stroke;fill:none;stroke:#0000ff;stroke-width:0.001;stroke-miterlimit:4;stroke-dasharray:none;stroke-opacity:1" />
      <path
         id="path1173"
         shaper:pathType="interior"
         shaper:cutDepth="0"
         d="m 426.11634,151.0374 -15.69272,30 H 395.0391 l 17.79982,-30 z"
         inkscape:connector-curvature="0"
         style="vector-effect:non-scaling-stroke;fill:none;stroke:#0000ff;stroke-width:0.001;stroke-miterlimit:4;stroke-dasharray:none;stroke-opacity:1" />
      <path
         id="path1175"
         shaper:pathType="interior"
         shaper:cutDepth="0"
         d="m 583,-53 a 2,2 0 1 0 4,0 2,2 0 1 0 -4,0 z"
         inkscape:connector-curvature="0"
         style="vector-effect:non-scaling-stroke;fill:none;stroke:#0000ff;stroke-width:0.001;stroke-miterlimit:4;stroke-dasharray:none;stroke-opacity:1" />
      <path
         id="path1177"
         shaper:pathType="interior"
         shaper:cutDepth="0"
         d="m 328,-99.68457 -30,-9.39359 v -13.58846 l 30,11.18942 z"
         inkscape:connector-curvature="0"
         style="vector-effect:non-scaling-stroke;fill:none;stroke:#0000ff;stroke-width:0.001;stroke-miterlimit:4;stroke-dasharray:none;stroke-opacity:1" />
      <path
         id="path1179"
         shaper:pathType="interior"
         shaper:cutDepth="0"
         d="m 328,31.49764 -30,10.5834 V 28.65321 l 30,-8.80879 z"
         inkscape:connector-curvature="0"
         style="vector-effect:non-scaling-stroke;fill:none;stroke:#0000ff;stroke-width:0.001;stroke-miterlimit:4;stroke-dasharray:none;stroke-opacity:1" />
      <path
         id="path1181"
         shaper:pathType="interior"
         shaper:cutDepth="0"
         d="m 328,83.69127 -30,18.53167 V 85.95138 l 30,-16.38124 z"
         inkscape:connector-curvature="0"
         style="vector-effect:non-scaling-stroke;fill:none;stroke:#0000ff;stroke-width:0.001;stroke-miterlimit:4;stroke-dasharray:none;stroke-opacity:1" />
      <path
         id="path1183"
         shaper:pathType="interior"
         shaper:cutDepth="0"
         d="m 328,-77.18574 -30,-5.96737 v -12.78518 l 30,7.65704 z"
         inkscape:connector-curvature="0"
         style="vector-effect:non-scaling-stroke;fill:none;stroke:#0000ff;stroke-width:0.001;stroke-miterlimit:4;stroke-dasharray:none;stroke-opacity:1" />
      <path
         id="path1185"
         shaper:pathType="interior"
         shaper:cutDepth="0"
         d="m 595,62 a 30,30 0 1 0 60,0 30,30 0 1 0 -60,0 z"
         inkscape:connector-curvature="0"
         style="vector-effect:non-scaling-stroke;fill:none;stroke:#0000ff;stroke-width:0.001;stroke-miterlimit:4;stroke-dasharray:none;stroke-opacity:1" />
      <path
         id="path1187"
         shaper:pathType="interior"
         shaper:cutDepth="0"
         d="m 367.01662,151.0374 -25.07176,30 h -20.87591 l 27.93099,-30 z"
         inkscape:connector-curvature="0"
         style="vector-effect:non-scaling-stroke;fill:none;stroke:#0000ff;stroke-width:0.001;stroke-miterlimit:4;stroke-dasharray:none;stroke-opacity:1" />
      <path
         id="path1189"
         shaper:pathType="interior"
         shaper:cutDepth="0"
         d="m 701.00006,151.0374 27.93099,30 h -20.87591 l -25.07176,-30 z"
         inkscape:connector-curvature="0"
         style="vector-effect:non-scaling-stroke;fill:none;stroke:#0000ff;stroke-width:0.001;stroke-miterlimit:4;stroke-dasharray:none;stroke-opacity:1" />
      <path
         id="path1191"
         shaper:pathType="interior"
         shaper:cutDepth="0"
         d="m 722,132.70147 30,25.99515 v 22.34078 l -31.09058,-30 H 722 Z"
         inkscape:connector-curvature="0"
         style="vector-effect:non-scaling-stroke;fill:none;stroke:#0000ff;stroke-width:0.001;stroke-miterlimit:4;stroke-dasharray:none;stroke-opacity:1" />
      <path
         id="path1193"
         shaper:pathType="interior"
         shaper:cutDepth="0"
         d="m 328,151.0374 h 1.09058 l -31.09058,30 v -22.34078 l 30,-25.99515 z"
         inkscape:connector-curvature="0"
         style="vector-effect:non-scaling-stroke;fill:none;stroke:#0000ff;stroke-width:0.001;stroke-miterlimit:4;stroke-dasharray:none;stroke-opacity:1" />
      <path
         id="path1195"
         shaper:pathType="interior"
         shaper:cutDepth="0"
         d="m 483,47 a 2,2 0 1 0 4,0 2,2 0 1 0 -4,0 z"
         inkscape:connector-curvature="0"
         style="vector-effect:non-scaling-stroke;fill:none;stroke:#0000ff;stroke-width:0.001;stroke-miterlimit:4;stroke-dasharray:none;stroke-opacity:1" />
      <path
         id="path1197"
         shaper:pathType="interior"
         shaper:cutDepth="0"
         d="m 492,-68 a 1.5,1.5 0 1 0 3,0 1.5,1.5 0 1 0 -3,0 z"
         inkscape:connector-curvature="0"
         style="vector-effect:non-scaling-stroke;fill:none;stroke:#0000ff;stroke-width:0.001;stroke-miterlimit:4;stroke-dasharray:none;stroke-opacity:1" />
      <path
         id="path1199"
         shaper:pathType="interior"
         shaper:cutDepth="0"
         d="m 648,-63 a 2,2 0 1 0 4,0 2,2 0 1 0 -4,0 z"
         inkscape:connector-curvature="0"
         style="vector-effect:non-scaling-stroke;fill:none;stroke:#0000ff;stroke-width:0.001;stroke-miterlimit:4;stroke-dasharray:none;stroke-opacity:1" />
      <path
         id="path1201"
         shaper:pathType="interior"
         shaper:cutDepth="0"
         d="m 555,-68 a 1.5,1.5 0 1 0 3,0 1.5,1.5 0 1 0 -3,0 z"
         inkscape:connector-curvature="0"
         style="vector-effect:non-scaling-stroke;fill:none;stroke:#0000ff;stroke-width:0.001;stroke-miterlimit:4;stroke-dasharray:none;stroke-opacity:1" />
      <path
         id="path1203"
         shaper:pathType="interior"
         shaper:cutDepth="0"
         d="m 598,-63 a 2,2 0 1 0 4,0 2,2 0 1 0 -4,0 z"
         inkscape:connector-curvature="0"
         style="vector-effect:non-scaling-stroke;fill:none;stroke:#0000ff;stroke-width:0.001;stroke-miterlimit:4;stroke-dasharray:none;stroke-opacity:1" />
      <path
         id="path1205"
         shaper:pathType="interior"
         shaper:cutDepth="0"
         d="m 648,-113 a 2,2 0 1 0 4,0 2,2 0 1 0 -4,0 z"
         inkscape:connector-curvature="0"
         style="vector-effect:non-scaling-stroke;fill:none;stroke:#0000ff;stroke-width:0.001;stroke-miterlimit:4;stroke-dasharray:none;stroke-opacity:1" />
      <path
         id="path1207"
         shaper:pathType="interior"
         shaper:cutDepth="0"
         d="m 448,-163 a 2,2 0 1 0 4,0 2,2 0 1 0 -4,0 z"
         inkscape:connector-curvature="0"
         style="vector-effect:non-scaling-stroke;fill:none;stroke:#0000ff;stroke-width:0.001;stroke-miterlimit:4;stroke-dasharray:none;stroke-opacity:1" />
      <path
         id="path1209"
         shaper:pathType="interior"
         shaper:cutDepth="0"
         d="m 483,-53 a 2,2 0 1 0 4,0 2,2 0 1 0 -4,0 z"
         inkscape:connector-curvature="0"
         style="vector-effect:non-scaling-stroke;fill:none;stroke:#0000ff;stroke-width:0.001;stroke-miterlimit:4;stroke-dasharray:none;stroke-opacity:1" />
      <path
         id="path1211"
         shaper:pathType="interior"
         shaper:cutDepth="0"
         d="m 548,-113 a 2,2 0 1 0 4,0 2,2 0 1 0 -4,0 z"
         inkscape:connector-curvature="0"
         style="vector-effect:non-scaling-stroke;fill:none;stroke:#0000ff;stroke-width:0.001;stroke-miterlimit:4;stroke-dasharray:none;stroke-opacity:1" />
      <path
         id="path1213"
         shaper:pathType="interior"
         shaper:cutDepth="0"
         d="m 598,-113 a 2,2 0 1 0 4,0 2,2 0 1 0 -4,0 z"
         inkscape:connector-curvature="0"
         style="vector-effect:non-scaling-stroke;fill:none;stroke:#0000ff;stroke-width:0.001;stroke-miterlimit:4;stroke-dasharray:none;stroke-opacity:1" />
      <path
         id="path1215"
         shaper:pathType="interior"
         shaper:cutDepth="0"
         d="m 555,-108 a 1.5,1.5 0 1 0 3,0 1.5,1.5 0 1 0 -3,0 z"
         inkscape:connector-curvature="0"
         style="vector-effect:non-scaling-stroke;fill:none;stroke:#0000ff;stroke-width:0.001;stroke-miterlimit:4;stroke-dasharray:none;stroke-opacity:1" />
      <path
         id="path1217"
         shaper:pathType="interior"
         shaper:cutDepth="0"
         d="m 598,-163 a 2,2 0 1 0 4,0 2,2 0 1 0 -4,0 z"
         inkscape:connector-curvature="0"
         style="vector-effect:non-scaling-stroke;fill:none;stroke:#0000ff;stroke-width:0.001;stroke-miterlimit:4;stroke-dasharray:none;stroke-opacity:1" />
      <path
         id="path1219"
         shaper:pathType="interior"
         shaper:cutDepth="0"
         d="m 548,-63 a 2,2 0 1 0 4,0 2,2 0 1 0 -4,0 z"
         inkscape:connector-curvature="0"
         style="vector-effect:non-scaling-stroke;fill:none;stroke:#0000ff;stroke-width:0.001;stroke-miterlimit:4;stroke-dasharray:none;stroke-opacity:1" />
      <path
         id="path1221"
         shaper:pathType="interior"
         shaper:cutDepth="0"
         d="m 548,-13 a 2,2 0 1 0 4,0 2,2 0 1 0 -4,0 z"
         inkscape:connector-curvature="0"
         style="vector-effect:non-scaling-stroke;fill:none;stroke:#0000ff;stroke-width:0.001;stroke-miterlimit:4;stroke-dasharray:none;stroke-opacity:1" />
      <path
         id="path1223"
         shaper:pathType="interior"
         shaper:cutDepth="0"
         d="m 495,-38 a 30,30 0 1 0 60,0 30,30 0 1 0 -60,0 z"
         inkscape:connector-curvature="0"
         style="vector-effect:non-scaling-stroke;fill:none;stroke:#0000ff;stroke-width:0.001;stroke-miterlimit:4;stroke-dasharray:none;stroke-opacity:1" />
      <path
         id="path1225"
         shaper:pathType="interior"
         shaper:cutDepth="0"
         d="m 498,-13 a 2,2 0 1 0 4,0 2,2 0 1 0 -4,0 z"
         inkscape:connector-curvature="0"
         style="vector-effect:non-scaling-stroke;fill:none;stroke:#0000ff;stroke-width:0.001;stroke-miterlimit:4;stroke-dasharray:none;stroke-opacity:1" />
      <path
         id="path1227"
         shaper:pathType="interior"
         shaper:cutDepth="0"
         d="m 648,-13 a 2,2 0 1 0 4,0 2,2 0 1 0 -4,0 z"
         inkscape:connector-curvature="0"
         style="vector-effect:non-scaling-stroke;fill:none;stroke:#0000ff;stroke-width:0.001;stroke-miterlimit:4;stroke-dasharray:none;stroke-opacity:1" />
      <path
         id="path1229"
         shaper:pathType="interior"
         shaper:cutDepth="0"
         d="m 463,47 a 2,2 0 1 0 4,0 2,2 0 1 0 -4,0 z"
         inkscape:connector-curvature="0"
         style="vector-effect:non-scaling-stroke;fill:none;stroke:#0000ff;stroke-width:0.001;stroke-miterlimit:4;stroke-dasharray:none;stroke-opacity:1" />
      <path
         id="path1231"
         shaper:pathType="interior"
         shaper:cutDepth="0"
         d="m 492,-108 a 1.5,1.5 0 1 0 3,0 1.5,1.5 0 1 0 -3,0 z"
         inkscape:connector-curvature="0"
         style="vector-effect:non-scaling-stroke;fill:none;stroke:#0000ff;stroke-width:0.001;stroke-miterlimit:4;stroke-dasharray:none;stroke-opacity:1" />
      <path
         id="path1233"
         shaper:pathType="interior"
         shaper:cutDepth="0"
         d="m 583,47 a 2,2 0 1 0 4,0 2,2 0 1 0 -4,0 z"
         inkscape:connector-curvature="0"
         style="vector-effect:non-scaling-stroke;fill:none;stroke:#0000ff;stroke-width:0.001;stroke-miterlimit:4;stroke-dasharray:none;stroke-opacity:1" />
      <path
         id="path1235"
         shaper:pathType="interior"
         shaper:cutDepth="0"
         d="m 595,-38 a 30,30 0 1 0 60,0 30,30 0 1 0 -60,0 z"
         inkscape:connector-curvature="0"
         style="vector-effect:non-scaling-stroke;fill:none;stroke:#0000ff;stroke-width:0.001;stroke-miterlimit:4;stroke-dasharray:none;stroke-opacity:1" />
      <path
         id="path1237"
         shaper:pathType="interior"
         shaper:cutDepth="0"
         d="m 563,47 a 2,2 0 1 0 4,0 2,2 0 1 0 -4,0 z"
         inkscape:connector-curvature="0"
         style="vector-effect:non-scaling-stroke;fill:none;stroke:#0000ff;stroke-width:0.001;stroke-miterlimit:4;stroke-dasharray:none;stroke-opacity:1" />
      <path
         id="path1239"
         shaper:pathType="interior"
         shaper:cutDepth="0"
         d="m 498,-63 a 2,2 0 1 0 4,0 2,2 0 1 0 -4,0 z"
         inkscape:connector-curvature="0"
         style="vector-effect:non-scaling-stroke;fill:none;stroke:#0000ff;stroke-width:0.001;stroke-miterlimit:4;stroke-dasharray:none;stroke-opacity:1" />
      <path
         id="path1241"
         shaper:pathType="interior"
         shaper:cutDepth="0"
         d="m 463,-53 a 2,2 0 1 0 4,0 2,2 0 1 0 -4,0 z"
         inkscape:connector-curvature="0"
         style="vector-effect:non-scaling-stroke;fill:none;stroke:#0000ff;stroke-width:0.001;stroke-miterlimit:4;stroke-dasharray:none;stroke-opacity:1" />
      <path
         id="path1243"
         shaper:pathType="interior"
         shaper:cutDepth="0"
         d="m 548,-163 a 2,2 0 1 0 4,0 2,2 0 1 0 -4,0 z"
         inkscape:connector-curvature="0"
         style="vector-effect:non-scaling-stroke;fill:none;stroke:#0000ff;stroke-width:0.001;stroke-miterlimit:4;stroke-dasharray:none;stroke-opacity:1" />
      <path
         id="path1245"
         shaper:pathType="interior"
         shaper:cutDepth="0"
         d="m 498,-113 a 2,2 0 1 0 4,0 2,2 0 1 0 -4,0 z"
         inkscape:connector-curvature="0"
         style="vector-effect:non-scaling-stroke;fill:none;stroke:#0000ff;stroke-width:0.001;stroke-miterlimit:4;stroke-dasharray:none;stroke-opacity:1" />
      <path
         id="path1247"
         shaper:pathType="interior"
         shaper:cutDepth="0"
         d="m 598,-13 a 2,2 0 1 0 4,0 2,2 0 1 0 -4,0 z"
         inkscape:connector-curvature="0"
         style="vector-effect:non-scaling-stroke;fill:none;stroke:#0000ff;stroke-width:0.001;stroke-miterlimit:4;stroke-dasharray:none;stroke-opacity:1" />
      <path
         id="path1249"
         shaper:pathType="interior"
         shaper:cutDepth="0"
         d="m 722,-164.60421 30,-19.27983 v 16.62025 l -30,17.08332 z"
         inkscape:connector-curvature="0"
         style="vector-effect:non-scaling-stroke;fill:none;stroke:#0000ff;stroke-width:0.001;stroke-miterlimit:4;stroke-dasharray:none;stroke-opacity:1" />
      <path
         id="path1251"
         shaper:pathType="interior"
         shaper:cutDepth="0"
         d="m 722,-196.75263 30,-24.17553 v 19.23797 l -30,21.63307 z"
         inkscape:connector-curvature="0"
         style="vector-effect:non-scaling-stroke;fill:none;stroke:#0000ff;stroke-width:0.001;stroke-miterlimit:4;stroke-dasharray:none;stroke-opacity:1" />
      <path
         id="path1253"
         shaper:pathType="interior"
         shaper:cutDepth="0"
         d="m 395,-38 a 30,30 0 1 0 60,0 30,30 0 1 0 -60,0 z"
         inkscape:connector-curvature="0"
         style="vector-effect:non-scaling-stroke;fill:none;stroke:#0000ff;stroke-width:0.001;stroke-miterlimit:4;stroke-dasharray:none;stroke-opacity:1" />
      <path
         id="path1255"
         shaper:pathType="interior"
         shaper:cutDepth="0"
         d="m 448,37 a 2,2 0 1 0 4,0 2,2 0 1 0 -4,0 z"
         inkscape:connector-curvature="0"
         style="vector-effect:non-scaling-stroke;fill:none;stroke:#0000ff;stroke-width:0.001;stroke-miterlimit:4;stroke-dasharray:none;stroke-opacity:1" />
      <path
         id="path1257"
         shaper:pathType="interior"
         shaper:cutDepth="0"
         d="m 448,87 a 2,2 0 1 0 4,0 2,2 0 1 0 -4,0 z"
         inkscape:connector-curvature="0"
         style="vector-effect:non-scaling-stroke;fill:none;stroke:#0000ff;stroke-width:0.001;stroke-miterlimit:4;stroke-dasharray:none;stroke-opacity:1" />
      <path
         id="path1259"
         shaper:pathType="interior"
         shaper:cutDepth="0"
         d="m 448,-113 a 2,2 0 1 0 4,0 2,2 0 1 0 -4,0 z"
         inkscape:connector-curvature="0"
         style="vector-effect:non-scaling-stroke;fill:none;stroke:#0000ff;stroke-width:0.001;stroke-miterlimit:4;stroke-dasharray:none;stroke-opacity:1" />
      <path
         id="path1261"
         shaper:pathType="interior"
         shaper:cutDepth="0"
         d="m 498,-163 a 2,2 0 1 0 4,0 2,2 0 1 0 -4,0 z"
         inkscape:connector-curvature="0"
         style="vector-effect:non-scaling-stroke;fill:none;stroke:#0000ff;stroke-width:0.001;stroke-miterlimit:4;stroke-dasharray:none;stroke-opacity:1" />
      <path
         id="path1263"
         shaper:pathType="interior"
         shaper:cutDepth="0"
         d="m 463,-253 a 2,2 0 1 0 4,0 2,2 0 1 0 -4,0 z"
         inkscape:connector-curvature="0"
         style="vector-effect:non-scaling-stroke;fill:none;stroke:#0000ff;stroke-width:0.001;stroke-miterlimit:4;stroke-dasharray:none;stroke-opacity:1" />
      <path
         id="path1265"
         shaper:pathType="interior"
         shaper:cutDepth="0"
         d="m 548,37 a 2,2 0 1 0 4,0 2,2 0 1 0 -4,0 z"
         inkscape:connector-curvature="0"
         style="vector-effect:non-scaling-stroke;fill:none;stroke:#0000ff;stroke-width:0.001;stroke-miterlimit:4;stroke-dasharray:none;stroke-opacity:1" />
      <path
         id="path1267"
         shaper:pathType="interior"
         shaper:cutDepth="0"
         d="m 398,-113 a 2,2 0 1 0 4,0 2,2 0 1 0 -4,0 z"
         inkscape:connector-curvature="0"
         style="vector-effect:non-scaling-stroke;fill:none;stroke:#0000ff;stroke-width:0.001;stroke-miterlimit:4;stroke-dasharray:none;stroke-opacity:1" />
      <path
         id="path1269"
         shaper:pathType="interior"
         shaper:cutDepth="0"
         d="m 398,87 a 2,2 0 1 0 4,0 2,2 0 1 0 -4,0 z"
         inkscape:connector-curvature="0"
         style="vector-effect:non-scaling-stroke;fill:none;stroke:#0000ff;stroke-width:0.001;stroke-miterlimit:4;stroke-dasharray:none;stroke-opacity:1" />
      <path
         id="path1271"
         shaper:pathType="interior"
         shaper:cutDepth="0"
         d="m 583,-253 a 2,2 0 1 0 4,0 2,2 0 1 0 -4,0 z"
         inkscape:connector-curvature="0"
         style="vector-effect:non-scaling-stroke;fill:none;stroke:#0000ff;stroke-width:0.001;stroke-miterlimit:4;stroke-dasharray:none;stroke-opacity:1" />
      <path
         id="path1273"
         shaper:pathType="interior"
         shaper:cutDepth="0"
         d="m 398,37 a 2,2 0 1 0 4,0 2,2 0 1 0 -4,0 z"
         inkscape:connector-curvature="0"
         style="vector-effect:non-scaling-stroke;fill:none;stroke:#0000ff;stroke-width:0.001;stroke-miterlimit:4;stroke-dasharray:none;stroke-opacity:1" />
      <path
         id="path1275"
         shaper:pathType="interior"
         shaper:cutDepth="0"
         d="m 483,-253 a 2,2 0 1 0 4,0 2,2 0 1 0 -4,0 z"
         inkscape:connector-curvature="0"
         style="vector-effect:non-scaling-stroke;fill:none;stroke:#0000ff;stroke-width:0.001;stroke-miterlimit:4;stroke-dasharray:none;stroke-opacity:1" />
      <path
         id="path1277"
         shaper:pathType="interior"
         shaper:cutDepth="0"
         d="m 563,-253 a 2,2 0 1 0 4,0 2,2 0 1 0 -4,0 z"
         inkscape:connector-curvature="0"
         style="vector-effect:non-scaling-stroke;fill:none;stroke:#0000ff;stroke-width:0.001;stroke-miterlimit:4;stroke-dasharray:none;stroke-opacity:1" />
      <path
         id="path1279"
         shaper:pathType="interior"
         shaper:cutDepth="0"
         d="m 495,-138 a 30,30 0 1 0 60,0 30,30 0 1 0 -60,0 z"
         inkscape:connector-curvature="0"
         style="vector-effect:non-scaling-stroke;fill:none;stroke:#0000ff;stroke-width:0.001;stroke-miterlimit:4;stroke-dasharray:none;stroke-opacity:1" />
      <path
         id="path1281"
         shaper:pathType="interior"
         shaper:cutDepth="0"
         d="m 498,87 a 2,2 0 1 0 4,0 2,2 0 1 0 -4,0 z"
         inkscape:connector-curvature="0"
         style="vector-effect:non-scaling-stroke;fill:none;stroke:#0000ff;stroke-width:0.001;stroke-miterlimit:4;stroke-dasharray:none;stroke-opacity:1" />
      <path
         id="path1283"
         shaper:pathType="interior"
         shaper:cutDepth="0"
         d="m 598,87 a 2,2 0 1 0 4,0 2,2 0 1 0 -4,0 z"
         inkscape:connector-curvature="0"
         style="vector-effect:non-scaling-stroke;fill:none;stroke:#0000ff;stroke-width:0.001;stroke-miterlimit:4;stroke-dasharray:none;stroke-opacity:1" />
      <path
         id="path1285"
         shaper:pathType="interior"
         shaper:cutDepth="0"
         d="m 548,87 a 2,2 0 1 0 4,0 2,2 0 1 0 -4,0 z"
         inkscape:connector-curvature="0"
         style="vector-effect:non-scaling-stroke;fill:none;stroke:#0000ff;stroke-width:0.001;stroke-miterlimit:4;stroke-dasharray:none;stroke-opacity:1" />
      <path
         id="path1287"
         shaper:pathType="interior"
         shaper:cutDepth="0"
         d="m 648,87 a 2,2 0 1 0 4,0 2,2 0 1 0 -4,0 z"
         inkscape:connector-curvature="0"
         style="vector-effect:non-scaling-stroke;fill:none;stroke:#0000ff;stroke-width:0.001;stroke-miterlimit:4;stroke-dasharray:none;stroke-opacity:1" />
      <path
         id="path1289"
         shaper:pathType="interior"
         shaper:cutDepth="0"
         d="m 398,-63 a 2,2 0 1 0 4,0 2,2 0 1 0 -4,0 z"
         inkscape:connector-curvature="0"
         style="vector-effect:non-scaling-stroke;fill:none;stroke:#0000ff;stroke-width:0.001;stroke-miterlimit:4;stroke-dasharray:none;stroke-opacity:1" />
      <path
         id="path1291"
         shaper:pathType="interior"
         shaper:cutDepth="0"
         d="m 495,62 a 30,30 0 1 0 60,0 30,30 0 1 0 -60,0 z"
         inkscape:connector-curvature="0"
         style="vector-effect:non-scaling-stroke;fill:none;stroke:#0000ff;stroke-width:0.001;stroke-miterlimit:4;stroke-dasharray:none;stroke-opacity:1" />
      <path
         id="path1293"
         shaper:pathType="interior"
         shaper:cutDepth="0"
         d="m 448,-63 a 2,2 0 1 0 4,0 2,2 0 1 0 -4,0 z"
         inkscape:connector-curvature="0"
         style="vector-effect:non-scaling-stroke;fill:none;stroke:#0000ff;stroke-width:0.001;stroke-miterlimit:4;stroke-dasharray:none;stroke-opacity:1" />
      <path
         id="path1295"
         shaper:pathType="interior"
         shaper:cutDepth="0"
         d="m 498,37 a 2,2 0 1 0 4,0 2,2 0 1 0 -4,0 z"
         inkscape:connector-curvature="0"
         style="vector-effect:non-scaling-stroke;fill:none;stroke:#0000ff;stroke-width:0.001;stroke-miterlimit:4;stroke-dasharray:none;stroke-opacity:1" />
      <path
         id="path1297"
         shaper:pathType="interior"
         shaper:cutDepth="0"
         d="m 648,37 a 2,2 0 1 0 4,0 2,2 0 1 0 -4,0 z"
         inkscape:connector-curvature="0"
         style="vector-effect:non-scaling-stroke;fill:none;stroke:#0000ff;stroke-width:0.001;stroke-miterlimit:4;stroke-dasharray:none;stroke-opacity:1" />
      <path
         id="path1299"
         shaper:pathType="interior"
         shaper:cutDepth="0"
         d="m 598,37 a 2,2 0 1 0 4,0 2,2 0 1 0 -4,0 z"
         inkscape:connector-curvature="0"
         style="vector-effect:non-scaling-stroke;fill:none;stroke:#0000ff;stroke-width:0.001;stroke-miterlimit:4;stroke-dasharray:none;stroke-opacity:1" />
      <path
         id="path1301"
         shaper:pathType="interior"
         shaper:cutDepth="0"
         d="m 398,-13 a 2,2 0 1 0 4,0 2,2 0 1 0 -4,0 z"
         inkscape:connector-curvature="0"
         style="vector-effect:non-scaling-stroke;fill:none;stroke:#0000ff;stroke-width:0.001;stroke-miterlimit:4;stroke-dasharray:none;stroke-opacity:1" />
      <path
         id="path1303"
         shaper:pathType="interior"
         shaper:cutDepth="0"
         d="m 448,-13 a 2,2 0 1 0 4,0 2,2 0 1 0 -4,0 z"
         inkscape:connector-curvature="0"
         style="vector-effect:non-scaling-stroke;fill:none;stroke:#0000ff;stroke-width:0.001;stroke-miterlimit:4;stroke-dasharray:none;stroke-opacity:1" />
      <path
         id="path1305"
         shaper:pathType="interior"
         shaper:cutDepth="0"
         d="m 648,-163 a 2,2 0 1 0 4,0 2,2 0 1 0 -4,0 z"
         inkscape:connector-curvature="0"
         style="vector-effect:non-scaling-stroke;fill:none;stroke:#0000ff;stroke-width:0.001;stroke-miterlimit:4;stroke-dasharray:none;stroke-opacity:1" />
      <path
         id="path1307"
         shaper:pathType="interior"
         shaper:cutDepth="0"
         d="m 722,-235 30,-30 v 23.09689 l -30,26.94755 z"
         inkscape:connector-curvature="0"
         style="vector-effect:non-scaling-stroke;fill:none;stroke:#0000ff;stroke-width:0.001;stroke-miterlimit:4;stroke-dasharray:none;stroke-opacity:1" />
      <path
         id="path1309"
         shaper:pathType="interior"
         shaper:cutDepth="0"
         d="m 395,62 a 30,30 0 1 0 60,0 30,30 0 1 0 -60,0 z"
         inkscape:connector-curvature="0"
         style="vector-effect:non-scaling-stroke;fill:none;stroke:#0000ff;stroke-width:0.001;stroke-miterlimit:4;stroke-dasharray:none;stroke-opacity:1" />
      <path
         id="path1311"
         shaper:pathType="interior"
         shaper:cutDepth="0"
         d="m 595,-138 a 30,30 0 1 0 60,0 30,30 0 1 0 -60,0 z"
         inkscape:connector-curvature="0"
         style="vector-effect:non-scaling-stroke;fill:none;stroke:#0000ff;stroke-width:0.001;stroke-miterlimit:4;stroke-dasharray:none;stroke-opacity:1" />
      <path
         sodipodi:nodetypes="ccccccccccccccccccccccccccccccccccccccccccccccccccccccccccccccccccccccccccccccccccccccccccc"
         style="font-size:12px;vector-effect:non-scaling-stroke;fill:none;fill-rule:evenodd;stroke:#0000ff;stroke-width:0.001;stroke-linecap:round;stroke-miterlimit:4;stroke-dasharray:none;stroke-opacity:1"
         id="bottom_outsideCutPath"
         d="m 283,-282.99999 v 50.00003 h -3 v 30 h 3 v 30 h -3 v 30 h 3 v 30.00001 h -3 v 29.999998 h 3 v 30 h -3 v 30 h 3 V 7.0000477 h -3 V 37.000048 h 3 v 30 h -3 v 29.999957 h 3 V 127 h -3 v 30 h 3 v 30 17 h 47 v 3 h 30 v -3 h 30 v 3 h 30 v -3 h 30 v 3 h 30.00001 v -3 h 30 v 3 h 30 v -3 h 30 v 3 h 30 v -3 h 30 v 3 h 30 v -3 h 30 v 3 h 30 v -3 h 30 17 v -47 h 3 v -30 h -3 V 97.000005 h 3 V 67.000048 h -3 v -30 h 3 V 7.0000477 h -3 V -22.999952 h 3 v -30 h -3 v -30 h 3 v -29.999998 h -3 v -30.00001 h 3 v -30 h -3 v -30 h 3 v -30 h -3 l -2e-5,-50.00003 z"
         inkscape:connector-curvature="0" />
    </g>
  </g>
</svg>
