<?xml version="1.0" encoding="utf-8"?>
<!-- Generator: Fusion 360, Shaper Origin Export Add-In, Version 1.6.3  -->
<svg xmlns="http://www.w3.org/2000/svg" xmlns:xlink="http://www.w3.org/1999/xlink" xmlns:shaper="http://www.shapertools.com/namespaces/shaper" shaper:fusionaddin="version:1.6.3" width="10.6499459cm" height="3cm" version="1.1" x="0cm" y="0cm" viewBox="0 0 10.6499459 3" enable-background="new 0 0 10.6499459 3" xml:space="preserve"><path d="M0.0000194,3 L0.0000194,3 -0.0415815,2.9996198 -0.0821383,2.9984794 -0.1216525,2.9965801 -0.1601269,2.9939235 -0.1975652,2.9905122 -0.2339722,2.9863493 -0.2693535,2.9814384 -0.3037157,2.9757838 -0.3370663,2.9693906 -0.3694135,2.9622641 -0.4007665,2.9544104 -0.4311352,2.9458361 -0.4605301,2.9365481 -0.4889625,2.9265541 -0.5164445,2.915862 -0.5429886,2.9044804 -0.568608,2.8924181 -0.5933165,2.8796844 -0.6171284,2.8662891 -0.6400584,2.8522423 -0.6621218,2.8375543 -0.6833343,2.8222359 -0.7037121,2.8062983 -0.7232716,2.7897527 -0.7420297,2.7726108 -0.7600035,2.7548844 -0.7772106,2.7365858 -0.7936687,2.7177272 -0.8093957,2.698321 -0.8244098,2.6783801 -0.8387294,2.6579171 -0.852373,2.6369452 -0.8653591,2.6154772 -0.8777066,2.5935265 -0.889434,2.5711064 -0.9005603,2.5482304 -0.9111044,2.5249118 -0.9210849,2.5011643 -0.9305206,2.4770017 -0.9394303,2.4524376 -0.9478325,2.4274859 -0.9557457,2.4021605 -0.9701783,2.350444 -0.9828722,2.2973998 -0.9939681,2.2431398 -1.0036021,2.1877752 -1.011905,2.1314155 -1.0190014,2.0741681 -1.0250093,2.0161368 -1.0300388,1.9574212 -1.0341916,1.8981162 -1.0375603,1.8383104 -1.0402272,1.7780873 -1.0422634,1.7175259 -1.0437282,1.6567013 -1.0451147,1.5345498 -1.044584,1.4121937 -1.0420887,1.2901909 -1.0400235,1.229502 -1.0373424,1.1691228 -1.0339766,1.1091339 -1.0298452,1.0496208 -1.0248567,0.9906743 -1.0189095,0.9323913 -1.0118928,0.8748735 -1.0036874,0.8182269 -0.994167,0.7625611 -0.9831984,0.7079879 -0.9706431,0.6546207 -0.9563577,0.6025738 -0.9485203,0.577081 -0.9401949,0.551961 -0.9313627,0.527228 -0.9220046,0.502896 -0.9121015,0.4789791 -0.9016343,0.4554914 -0.8905837,0.4324466 -0.8789305,0.4098587 -0.8666555,0.3877413 -0.8537393,0.366108 -0.840163,0.3449724 -0.8259073,0.3243479 -0.8109535,0.3042476 -0.7952825,0.2846847 -0.7788759,0.2656721 -0.7617152,0.2472227 -0.7437821,0.2293489 -0.7250588,0.2120632 -0.7055276,0.1953777 -0.6851712,0.1793043 -0.6639726,0.1638545 -0.6419152,0.1490397 -0.618983,0.1348709 -0.5951602,0.1213587 -0.5951602,1.0227089 -0.2951602,1.0227089 -0.2951602,0.0227089 -0.2951602,0.0227089 -0.2616576,0.0174052 -0.2271953,0.0127995 -0.1917676,0.0088957 -0.1553693,0.005697 -0.1179963,0.0032063 -0.0796452,0.0014256 -0.0403136,0.0003565 0,0 8.1048313,0 A1.5,1.5 270 0,1 8.1048313,3 L0.0000194,3z" transform="matrix(1,0,0,-1,1.0451147,3)" fill="rgb(0,0,0)" shaper:cutDepth="0" stroke-linecap="round" stroke-linejoin="round" /><path d="M3.1548313,1.5 a0.25,0.25 0 1,1 0.5,0 a0.25,0.25 0 1,1 -0.5,0z" transform="matrix(1,0,0,-1,1.0451147,3)" fill="rgb(255,255,255)" stroke="rgb(0,0,0)" stroke-width="0.0010cm" stroke-linecap="round" stroke-linejoin="round" shaper:cutDepth="0" /><path d="M7.8548313,1.5 a0.25,0.25 0 1,1 0.5,0 a0.25,0.25 0 1,1 -0.5,0z" transform="matrix(1,0,0,-1,1.0451147,3)" fill="rgb(255,255,255)" stroke="rgb(0,0,0)" stroke-width="0.0010cm" stroke-linecap="round" stroke-linejoin="round" shaper:cutDepth="0" /><path d="M-0.2451602,1.5076773 a0.2,0.2 0 1,1 0.4,0 a0.2,0.2 0 1,1 -0.4,0z" transform="matrix(1,0,0,-1,1.0451147,3)" fill="rgb(255,255,255)" stroke="rgb(0,0,0)" stroke-width="0.0010cm" stroke-linecap="round" stroke-linejoin="round" shaper:cutDepth="0" /></svg>