<?xml version="1.0" encoding="utf-8"?>
<!-- Generator: Fusion 360, Shaper Origin Export Add-In, Version 1.6.3  -->
<svg xmlns="http://www.w3.org/2000/svg" xmlns:xlink="http://www.w3.org/1999/xlink" xmlns:shaper="http://www.shapertools.com/namespaces/shaper" shaper:fusionaddin="version:1.6.3" width="10.6499459cm" height="3cm" version="1.1" x="0cm" y="0cm" viewBox="0 0 10.6499459 3" enable-background="new 0 0 10.6499459 3" xml:space="preserve"><path d="M8.6999915,0.1213587 L8.6999915,0.1213587 8.7238143,0.1348709 8.7467465,0.1490397 8.7688038,0.1638545 8.7900024,0.1793043 8.8103589,0.1953777 8.8298901,0.2120632 8.8486134,0.2293489 8.8665464,0.2472227 8.8837072,0.2656721 8.9001138,0.2846847 8.9157847,0.3042476 8.9307386,0.3243479 8.9449942,0.3449724 8.9585706,0.366108 8.9714867,0.3877413 8.9837618,0.4098587 8.995415,0.4324466 9.0064655,0.4554914 9.0169328,0.4789791 9.0268358,0.502896 9.0361939,0.527228 9.0450262,0.551961 9.0533516,0.577081 9.061189,0.6025738 9.0754744,0.6546207 9.0880297,0.7079879 9.0989982,0.7625611 9.1085187,0.8182269 9.116724,0.8748735 9.1237408,0.9323913 9.129688,0.9906743 9.1346764,1.0496208 9.1388078,1.1091339 9.1421737,1.1691228 9.1448548,1.229502 9.14692,1.2901909 9.1494153,1.4121937 9.1499459,1.5345498 9.1485595,1.6567013 9.1470947,1.7175259 9.1450584,1.7780873 9.1423916,1.8383104 9.1390229,1.8981162 9.13487,1.9574212 9.1298405,2.0161368 9.1238327,2.0741681 9.1167362,2.1314155 9.1084334,2.1877752 9.0987994,2.2431398 9.0877035,2.2973998 9.0750095,2.350444 9.060577,2.4021605 9.0526637,2.4274859 9.0442615,2.4524376 9.0353519,2.4770017 9.0259161,2.5011643 9.0159356,2.5249118 9.0053916,2.5482304 8.9942653,2.5711064 8.9825378,2.5935265 8.9701904,2.6154772 8.9572042,2.6369452 8.9435607,2.6579171 8.9292411,2.6783801 8.914227,2.698321 8.8984999,2.7177272 8.8820419,2.7365858 8.8648348,2.7548844 8.8468609,2.7726108 8.8281029,2.7897527 8.8085434,2.8062983 8.7881656,2.8222359 8.7669531,2.8375543 8.7448897,2.8522423 8.7219597,2.8662891 8.6981478,2.8796844 8.6734393,2.8924181 8.6478199,2.9044804 8.6212757,2.915862 8.5937938,2.9265541 8.5653613,2.9365481 8.5359664,2.9458361 8.5055978,2.9544104 8.4742448,2.9622641 8.4418976,2.9693906 8.408547,2.9757838 8.3741848,2.9814384 8.3388035,2.9863493 8.3023965,2.9905122 8.2649582,2.9939235 8.2264838,2.9965801 8.1869695,2.9984794 8.1464128,2.9996198 8.1048119,3 0,3 A1.5,1.5 90 0,1 -0,0 L8.1048313,0 8.1048313,0 8.1451448,0.0003565 8.1844764,0.0014256 8.2228275,0.0032063 8.2602006,0.005697 8.2965989,0.0088957 8.3320266,0.0127995 8.3664888,0.0174052 8.3999915,0.0227089 8.3999915,1.0227089 8.6999915,1.0227089 8.6999915,0.1213587z" transform="matrix(1,0,0,-1,1.5,3)" fill="rgb(0,0,0)" shaper:cutDepth="0" stroke-linecap="round" stroke-linejoin="round" /><path d="M4.45,1.5 a0.25,0.25 0 1,1 0.5,0 a0.25,0.25 0 1,1 -0.5,0z" transform="matrix(1,0,0,-1,1.5,3)" fill="rgb(255,255,255)" stroke="rgb(0,0,0)" stroke-width="0.0010cm" stroke-linecap="round" stroke-linejoin="round" shaper:cutDepth="0" /><path d="M-0.25,1.5 a0.25,0.25 0 1,1 0.5,0 a0.25,0.25 0 1,1 -0.5,0z" transform="matrix(1,0,0,-1,1.5,3)" fill="rgb(255,255,255)" stroke="rgb(0,0,0)" stroke-width="0.0010cm" stroke-linecap="round" stroke-linejoin="round" shaper:cutDepth="0" /><path d="M7.9499915,1.5076773 a0.2,0.2 0 1,1 0.4,0 a0.2,0.2 0 1,1 -0.4,0z" transform="matrix(1,0,0,-1,1.5,3)" fill="rgb(255,255,255)" stroke="rgb(0,0,0)" stroke-width="0.0010cm" stroke-linecap="round" stroke-linejoin="round" shaper:cutDepth="0" /></svg>