<?xml version="1.0" encoding="utf-8"?>
<!-- Generator: Fusion 360, Shaper Origin Export Add-In, Version 1.6.3  -->
<svg xmlns="http://www.w3.org/2000/svg" xmlns:xlink="http://www.w3.org/1999/xlink" xmlns:shaper="http://www.shapertools.com/namespaces/shaper" shaper:fusionaddin="version:1.6.3" width="7.9866314cm" height="3.6cm" version="1.1" x="0cm" y="0cm" viewBox="0 0 7.9866314 3.6" enable-background="new 0 0 7.9866314 3.6" xml:space="preserve"><path d="M-0,1.1548323 L-0,-0 5.9438725,0 5.9438725,0.55 6.5438725,0.55 6.5438725,3.05 5.9438725,3.05 5.9438725,3.6 0.6375093,2.5034068 0.7386992,2.0137532 A0.25,0.25 11.6761667 1,0 0.2490457,1.9125632 L0.1478557,2.4022168 -0.3,2.3096646 -0.3,2.1596646 -0.6,2.1596646 -0.6,2.2454366 A1.1427589,1.1427589 105.2197945 0,1 -0.2999999,-0 L-0.3,0.85 -0.6,0.85 -0.6,1 -0.3,1 -0.3,1.1548323 -0,1.1548323z" transform="matrix(1,0,0,-1,1.4427589,3.6)" fill="rgb(0,0,0)" shaper:cutDepth="0" stroke-linecap="round" stroke-linejoin="round" /><path d="M2.9438725,1.5 a0.25,0.25 0 1,1 0.5,0 a0.25,0.25 0 1,1 -0.5,0z" transform="matrix(1,0,0,-1,1.4427589,3.6)" fill="rgb(255,255,255)" stroke="rgb(0,0,0)" stroke-width="0.0010cm" stroke-linecap="round" stroke-linejoin="round" shaper:cutDepth="0" /></svg>