<?xml version="1.0" encoding="utf-8"?>
<!-- Generator: Fusion 360, Shaper Origin Export Add-In, Version 1.6.3  -->
<svg xmlns="http://www.w3.org/2000/svg" xmlns:xlink="http://www.w3.org/1999/xlink" xmlns:shaper="http://www.shapertools.com/namespaces/shaper" shaper:fusionaddin="version:1.6.3" width="8.2309991cm" height="3.5255055cm" version="1.1" x="0cm" y="0cm" viewBox="0 0 8.2309991 3.5255055" enable-background="new 0 0 8.2309991 3.5255055" xml:space="preserve"><path d="M-0.2337149,1.1309354 L-0.2650499,1.2825638 -0.558842,1.2218498 -0.589199,1.3687459 -0.2954068,1.4294599 -0.4674297,2.2618709 A1.1427589,1.1427589 101.6761597 0,1 -0.3067906,0.0021849 L-0.3241491,0.0861821 -0.030357,0.1468961 -0,-0 6.3758065,-0 6.2644976,0.5386189 6.8520818,0.6600469 6.3461319,3.1083146 5.7585477,2.9868866 5.6472387,3.5255055 -0.1736377,2.3225849 0.0600772,1.1916494 -0.2337149,1.1309354z" transform="matrix(1,0,0,-1,1.3789173,3.5255055)" fill="rgb(0,0,0)" shaper:cutDepth="0" stroke-linecap="round" stroke-linejoin="round" /><path d="M3.0077142,1.5 a0.25,0.25 0 1,1 0.5,0 a0.25,0.25 0 1,1 -0.5,0z" transform="matrix(1,0,0,-1,1.3789173,3.5255055)" fill="rgb(255,255,255)" stroke="rgb(0,0,0)" stroke-width="0.0010cm" stroke-linecap="round" stroke-linejoin="round" shaper:cutDepth="0" /></svg>