<?xml version="1.0" encoding="utf-8"?>
<!-- Generator: Fusion 360, Shaper Origin Export Add-In, Version 1.6.3  -->
<svg xmlns="http://www.w3.org/2000/svg" xmlns:xlink="http://www.w3.org/1999/xlink" xmlns:shaper="http://www.shapertools.com/namespaces/shaper" shaper:fusionaddin="version:1.6.3" width="9.8cm" height="9.8cm" version="1.1" x="0cm" y="0cm" viewBox="0 0 9.8 9.8" enable-background="new 0 0 9.8 9.8" xml:space="preserve"><path d="M3.4045113,9.71 A0.1,0.1 5.7391705 0,1 3.3050126,9.8 L0,9.8 A0.1,0.1 90 0,1 -0.1,9.7 L-0.1,8.0051586 A0.1,0.1 180 0,1 0.0183095,7.9068491 L1.0508714,8.0991572 1.0263453,8.2308452 1.3212739,8.2857738 1.4677501,7.4992976 1.1728215,7.4443691 1.2949748,6.78849 1.5899033,6.8434185 1.7363795,6.0569424 1.4414509,6.0020138 1.6001569,5.1498717 A0.5,0.5 10.5501117 0,0 1.200157,4.5667764 L-0.0183095,4.3398448 A0.1,0.1 100.550098 0,1 -0.1,4.2415353 L-0.1,2.8439425 A0.1,0.1 180 0,1 0.045447,2.7548663 L0.6771443,3.0771608 A0.25,0.25 117.0308603 0,0 0.9043795,2.6317799 L-0.045447,2.1471745 A0.1,0.1 117.0308603 0,1 -0.1,2.0580983 L-0.1,0.1 A0.1,0.1 180 0,1 -0,-0 L5.3,0 A0.25,0.25 270 0,1 5.3,0.5 L4.3,0.5 A0.2,0.2 270 0,0 4.3,0.9 L5.3,0.9 A0.9,0.9 90 0,0 6.1954887,0.09 A0.1,0.1 185.7391705 0,1 6.2949874,-0 L9.6,0 A0.1,0.1 270 0,1 9.7,0.1 L9.7,3.4050126 A0.1,0.1 0 0,1 9.61,3.5045113 A0.9,0.9 264.2608295 0,0 8.8,4.4 L8.8,5.4 A0.2,0.2 180 0,0 9.2,5.4 L9.2,4.4 A0.25,0.25 180 0,1 9.7,4.4 L9.7,9.7 A0.1,0.1 0 0,1 9.6,9.8 L4.3,9.8 A0.25,0.25 90 0,1 4.3,9.3 L5.3,9.3 A0.2,0.2 90 0,0 5.3,8.9 L4.3,8.9 A0.9,0.9 270 0,0 3.4045113,9.71z" transform="matrix(1,0,0,-1,0.1,9.8)" fill="rgb(0,0,0)" shaper:cutDepth="0" stroke-linecap="round" stroke-linejoin="round" /><path d="M2.78,8.0997142 L2.7250714,8.3946428 3.5115476,8.5411189 3.5664762,8.2461904 2.78,8.0997142z" transform="matrix(1,0,0,-1,0.1,9.8)" fill="rgb(255,255,255)" stroke="rgb(0,0,0)" stroke-width="0.0010cm" stroke-linecap="round" stroke-linejoin="round" shaper:cutDepth="0" /><path d="M7.724126,8.1050501 L7.5776498,8.8915263 7.8725784,8.9464548 8.0190545,8.1599787 7.724126,8.1050501z" transform="matrix(1,0,0,-1,0.1,9.8)" fill="rgb(255,255,255)" stroke="rgb(0,0,0)" stroke-width="0.0010cm" stroke-linecap="round" stroke-linejoin="round" shaper:cutDepth="0" /><path d="M6.8682513,8.5559662 L6.9231798,8.2610377 6.1367037,8.1145615 6.0817751,8.4094901 6.8682513,8.5559662z" transform="matrix(1,0,0,-1,0.1,9.8)" fill="rgb(255,255,255)" stroke="rgb(0,0,0)" stroke-width="0.0010cm" stroke-linecap="round" stroke-linejoin="round" shaper:cutDepth="0" /><path d="M8.073063,7.8699904 L8.3679915,7.924919 8.5144677,7.1384428 8.2195391,7.0835143 8.073063,7.8699904z" transform="matrix(1,0,0,-1,0.1,9.8)" fill="rgb(255,255,255)" stroke="rgb(0,0,0)" stroke-width="0.0010cm" stroke-linecap="round" stroke-linejoin="round" shaper:cutDepth="0" /><path d="M7.978619,6.7385975 L8.2735476,6.793526 8.4200238,6.0070499 8.1250952,5.9521213 7.978619,6.7385975z" transform="matrix(1,0,0,-1,0.1,9.8)" fill="rgb(255,255,255)" stroke="rgb(0,0,0)" stroke-width="0.0010cm" stroke-linecap="round" stroke-linejoin="round" shaper:cutDepth="0" /><path d="M2.1,4.9 a0.2,0.2 0 1,1 0.4,0 a0.2,0.2 0 1,1 -0.4,0z" transform="matrix(1,0,0,-1,0.1,9.8)" fill="rgb(255,255,255)" stroke="rgb(0,0,0)" stroke-width="0.0010cm" stroke-linecap="round" stroke-linejoin="round" shaper:cutDepth="0" /><path d="M4.6,8.1 a0.2,0.2 0 1,1 0.4,0 a0.2,0.2 0 1,1 -0.4,0z" transform="matrix(1,0,0,-1,0.1,9.8)" fill="rgb(255,255,255)" stroke="rgb(0,0,0)" stroke-width="0.0010cm" stroke-linecap="round" stroke-linejoin="round" shaper:cutDepth="0" /><path d="M7.8,4.9 a0.2,0.2 0 1,1 0.4,0 a0.2,0.2 0 1,1 -0.4,0z" transform="matrix(1,0,0,-1,0.1,9.8)" fill="rgb(255,255,255)" stroke="rgb(0,0,0)" stroke-width="0.0010cm" stroke-linecap="round" stroke-linejoin="round" shaper:cutDepth="0" /><path d="M4.6,1.7 a0.2,0.2 0 1,1 0.4,0 a0.2,0.2 0 1,1 -0.4,0z" transform="matrix(1,0,0,-1,0.1,9.8)" fill="rgb(255,255,255)" stroke="rgb(0,0,0)" stroke-width="0.0010cm" stroke-linecap="round" stroke-linejoin="round" shaper:cutDepth="0" /><path d="M6.65,2.95 L2.95,2.95 A0.1,0.1 270 0,0 2.85,3.05 L2.85,6.75 A0.1,0.1 180 0,0 2.95,6.85 L6.65,6.85 A0.1,0.1 90 0,0 6.75,6.75 L6.75,3.05 A0.1,0.1 0 0,0 6.65,2.95z" transform="matrix(1,0,0,-1,0.1,9.8)" fill="rgb(255,255,255)" stroke="rgb(0,0,0)" stroke-width="0.0010cm" stroke-linecap="round" stroke-linejoin="round" shaper:cutDepth="0" /><path d="M1.8,7.4 a0.5,0.5 0 1,1 1,0 a0.5,0.5 0 1,1 -1,0z" transform="matrix(1,0,0,-1,0.1,9.8)" fill="rgb(255,255,255)" stroke="rgb(0,0,0)" stroke-width="0.0010cm" stroke-linecap="round" stroke-linejoin="round" shaper:cutDepth="0" /><path d="M8.35,8.7 a0.25,0.25 0 1,1 0.5,0 a0.25,0.25 0 1,1 -0.5,0z" transform="matrix(1,0,0,-1,0.1,9.8)" fill="rgb(255,255,255)" stroke="rgb(0,0,0)" stroke-width="0.0010cm" stroke-linecap="round" stroke-linejoin="round" shaper:cutDepth="0" /><path d="M6.8,7.4 a0.5,0.5 0 1,1 1,0 a0.5,0.5 0 1,1 -1,0z" transform="matrix(1,0,0,-1,0.1,9.8)" fill="rgb(255,255,255)" stroke="rgb(0,0,0)" stroke-width="0.0010cm" stroke-linecap="round" stroke-linejoin="round" shaper:cutDepth="0" /><path d="M8.35,1.1 a0.25,0.25 0 1,1 0.5,0 a0.25,0.25 0 1,1 -0.5,0z" transform="matrix(1,0,0,-1,0.1,9.8)" fill="rgb(255,255,255)" stroke="rgb(0,0,0)" stroke-width="0.0010cm" stroke-linecap="round" stroke-linejoin="round" shaper:cutDepth="0" /><path d="M6.8,2.4 a0.5,0.5 0 1,1 1,0 a0.5,0.5 0 1,1 -1,0z" transform="matrix(1,0,0,-1,0.1,9.8)" fill="rgb(255,255,255)" stroke="rgb(0,0,0)" stroke-width="0.0010cm" stroke-linecap="round" stroke-linejoin="round" shaper:cutDepth="0" /><path d="M0.75,8.7 a0.25,0.25 0 1,1 0.5,0 a0.25,0.25 0 1,1 -0.5,0z" transform="matrix(1,0,0,-1,0.1,9.8)" fill="rgb(255,255,255)" stroke="rgb(0,0,0)" stroke-width="0.0010cm" stroke-linecap="round" stroke-linejoin="round" shaper:cutDepth="0" /><path d="M0.75,1.1 a0.25,0.25 0 1,1 0.5,0 a0.25,0.25 0 1,1 -0.5,0z" transform="matrix(1,0,0,-1,0.1,9.8)" fill="rgb(255,255,255)" stroke="rgb(0,0,0)" stroke-width="0.0010cm" stroke-linecap="round" stroke-linejoin="round" shaper:cutDepth="0" /><path d="M1.8,2.4 a0.5,0.5 0 1,1 1,0 a0.5,0.5 0 1,1 -1,0z" transform="matrix(1,0,0,-1,0.1,9.8)" fill="rgb(255,255,255)" stroke="rgb(0,0,0)" stroke-width="0.0010cm" stroke-linecap="round" stroke-linejoin="round" shaper:cutDepth="0" /></svg>