<?xml version="1.0" encoding="utf-8"?>
<!-- Generator: Fusion 360, Shaper Origin Export Add-In, Version 1.6.3  -->
<svg xmlns="http://www.w3.org/2000/svg" xmlns:xlink="http://www.w3.org/1999/xlink" xmlns:shaper="http://www.shapertools.com/namespaces/shaper" shaper:fusionaddin="version:1.6.3" width="3.4506097cm" height="2.3263456cm" version="1.1" x="0cm" y="0cm" viewBox="0 0 3.4506097 2.3263456" enable-background="new 0 0 3.4506097 2.3263456" xml:space="preserve"><path d="M2.7506097,0.212132 L2.1849242,0.7778175 1.9727922,0.5656854 0.9899495,1.5485281 1.2020815,1.7606602 0.6363961,2.3263456 -0.4949747,1.1949747 A0.7,0.7 135 0,1 0,0 L2.5384776,0 2.7506097,0.212132z" transform="matrix(1,0,0,-1,0.7,2.3263456)" fill="rgb(0,0,0)" shaper:cutDepth="0" stroke-linecap="round" stroke-linejoin="round" /><path d="M0.1414214,1.1242641 L-0.0707107,1.3363961 0.2828427,1.6899495 0.4949747,1.4778175 0.1414214,1.1242641z" transform="matrix(1,0,0,-1,0.7,2.3263456)" fill="rgb(255,255,255)" stroke="rgb(0,0,0)" stroke-width="0.0010cm" stroke-linecap="round" stroke-linejoin="round" shaper:cutDepth="0" /><path d="M-0.22,0.7 a0.22,0.22 0 1,1 0.44,0 a0.22,0.22 0 1,1 -0.44,0z" transform="matrix(1,0,0,-1,0.7,2.3263456)" fill="rgb(255,255,255)" stroke="rgb(0,0,0)" stroke-width="0.0010cm" stroke-linecap="round" stroke-linejoin="round" shaper:cutDepth="0" /></svg>