<?xml version="1.0" encoding="utf-8"?>
<!-- Generator: Fusion 360, Shaper Origin Export Add-In, Version 1.6.3  -->
<svg xmlns="http://www.w3.org/2000/svg" xmlns:xlink="http://www.w3.org/1999/xlink" xmlns:shaper="http://www.shapertools.com/namespaces/shaper" shaper:fusionaddin="version:1.6.3" width="6.0710678cm" height="6.0710678cm" version="1.1" x="0cm" y="0cm" viewBox="0 0 6.0710678 6.0710678" enable-background="new 0 0 6.0710678 6.0710678" xml:space="preserve"><path d="M-0,6.0710678 A0.7727922,0.7727922 90 0,1 -0.7727922,5.2982756 L-0.7727922,0.7727922 A0.7727922,0.7727922 180 0,1 -0,0 L4.5254834,0 A0.7727922,0.7727922 270 0,1 5.2982756,0.7727922 L5.2982756,3.0355339 5.2982756,3.0355339 5.297349,3.1226983 5.2945713,3.2085728 5.2899483,3.2931601 5.2834891,3.3764643 5.2752058,3.4584912 5.2651131,3.5392473 5.2532283,3.6187402 5.239571,3.6969784 5.2241625,3.7739706 5.2070256,3.8497263 5.1881849,3.9242549 5.1676657,3.9975661 5.1454941,4.0696693 5.121697,4.1405736 5.0963012,4.2102876 5.069334,4.2788194 5.0408225,4.3461764 5.0107939,4.4123653 4.9792749,4.4773921 4.9462921,4.5412618 4.9118716,4.6039786 4.8760388,4.6655455 4.8388186,4.7259645 4.8002348,4.7852365 4.7603105,4.843361 4.7190675,4.9003364 4.6765266,4.9561595 4.6327073,5.0108258 4.5876277,5.0643292 4.5413047,5.1166625 4.493754,5.1678167 4.4449896,5.2177818 4.3950245,5.2665462 4.3438703,5.314097 4.291537,5.3604199 4.2380336,5.4054995 4.1833673,5.4493188 4.1275442,5.4918597 4.0705688,5.5331027 4.0124443,5.573027 3.9531723,5.6116108 3.8927533,5.648831 3.8311864,5.6846638 3.7684696,5.7190843 3.7045999,5.7520671 3.6395731,5.7835861 3.5733842,5.8136147 3.5060272,5.8421262 3.4374954,5.8690934 3.3677814,5.8944892 3.2968771,5.9182863 3.2247739,5.9404579 3.1514627,5.9609771 3.0769341,5.9798179 3.0011784,5.9969547 2.9241862,6.0123632 2.845948,6.0260205 2.7664551,6.0379053 2.685699,6.047998 2.6036721,6.0562813 2.5203679,6.0627405 2.4357806,6.0673635 2.3499061,6.0701412 2.2627417,6.0710678 -0,6.0710678z" transform="matrix(1,0,0,-1,0.7727922,6.0710678)" fill="rgb(0,0,0)" shaper:cutDepth="0" stroke-linecap="round" stroke-linejoin="round" /><path d="M2.1527417,4.8598694 a0.11,0.11 0 1,1 0.22,0 a0.11,0.11 0 1,1 -0.22,0z" transform="matrix(1,0,0,-1,0.7727922,6.0710678)" fill="rgb(255,255,255)" stroke="rgb(0,0,0)" stroke-width="0.0010cm" stroke-linecap="round" stroke-linejoin="round" shaper:cutDepth="0" /><path d="M-0.16,5.2982756 a0.16,0.16 0 1,1 0.32,0 a0.16,0.16 0 1,1 -0.32,0z" transform="matrix(1,0,0,-1,0.7727922,6.0710678)" fill="rgb(255,255,255)" stroke="rgb(0,0,0)" stroke-width="0.0010cm" stroke-linecap="round" stroke-linejoin="round" shaper:cutDepth="0" /><path d="M-0.16,0.7727922 a0.16,0.16 0 1,1 0.32,0 a0.16,0.16 0 1,1 -0.32,0z" transform="matrix(1,0,0,-1,0.7727922,6.0710678)" fill="rgb(255,255,255)" stroke="rgb(0,0,0)" stroke-width="0.0010cm" stroke-linecap="round" stroke-linejoin="round" shaper:cutDepth="0" /><path d="M0.3284062,3.0355339 a0.11,0.11 0 1,1 0.22,0 a0.11,0.11 0 1,1 -0.22,0z" transform="matrix(1,0,0,-1,0.7727922,6.0710678)" fill="rgb(255,255,255)" stroke="rgb(0,0,0)" stroke-width="0.0010cm" stroke-linecap="round" stroke-linejoin="round" shaper:cutDepth="0" /><path d="M4.3654834,0.7727922 a0.16,0.16 0 1,1 0.32,0 a0.16,0.16 0 1,1 -0.32,0z" transform="matrix(1,0,0,-1,0.7727922,6.0710678)" fill="rgb(255,255,255)" stroke="rgb(0,0,0)" stroke-width="0.0010cm" stroke-linecap="round" stroke-linejoin="round" shaper:cutDepth="0" /><path d="M3.8705087,4.8033009 a0.16,0.16 0 1,1 0.32,0 a0.16,0.16 0 1,1 -0.32,0z" transform="matrix(1,0,0,-1,0.7727922,6.0710678)" fill="rgb(255,255,255)" stroke="rgb(0,0,0)" stroke-width="0.0010cm" stroke-linecap="round" stroke-linejoin="round" shaper:cutDepth="0" /><path d="M2.1527417,1.2111984 a0.11,0.11 0 1,1 0.22,0 a0.11,0.11 0 1,1 -0.22,0z" transform="matrix(1,0,0,-1,0.7727922,6.0710678)" fill="rgb(255,255,255)" stroke="rgb(0,0,0)" stroke-width="0.0010cm" stroke-linecap="round" stroke-linejoin="round" shaper:cutDepth="0" /><path d="M1.1627417,3.0355339 a1.1,1.1 0 1,1 2.2,0 a1.1,1.1 0 1,1 -2.2,0z" transform="matrix(1,0,0,-1,0.7727922,6.0710678)" fill="rgb(255,255,255)" stroke="rgb(0,0,0)" stroke-width="0.0010cm" stroke-linecap="round" stroke-linejoin="round" shaper:cutDepth="0" /><path d="M3.9770772,3.0355339 a0.11,0.11 0 1,1 0.22,0 a0.11,0.11 0 1,1 -0.22,0z" transform="matrix(1,0,0,-1,0.7727922,6.0710678)" fill="rgb(255,255,255)" stroke="rgb(0,0,0)" stroke-width="0.0010cm" stroke-linecap="round" stroke-linejoin="round" shaper:cutDepth="0" /></svg>