<?xml version="1.0" encoding="utf-8"?>
<!-- Generator: Fusion 360, Shaper Origin Export Add-In, Version 1.6.3  -->
<svg xmlns="http://www.w3.org/2000/svg" xmlns:xlink="http://www.w3.org/1999/xlink" xmlns:shaper="http://www.shapertools.com/namespaces/shaper" shaper:fusionaddin="version:1.6.3" width="3.0214341cm" height="1.8152543cm" version="1.1" x="0cm" y="0cm" viewBox="0 0 3.0214341 1.8152543" enable-background="new 0 0 3.0214341 1.8152543" xml:space="preserve"><path d="M2.5223611,0.6838835 L1.3909903,1.8152543 0.8253048,1.2495689 1.0374369,1.0374369 0.5656854,0.5656854 0.3535534,0.7778175 -0.212132,0.212132 0,-0 2.609302,-0 A0.2,0.2 270.0000061 0,1 2.794221,0.2761905 A1.25,1.25 22.3926883 0,1 2.5223611,0.6838835z" transform="matrix(1,0,0,-1,0.212132,1.8152543)" fill="rgb(0,0,0)" shaper:cutDepth="0" stroke-linecap="round" stroke-linejoin="round" /><path d="M1.6384776,0.9313708 L1.8506097,1.1435029 2.4162951,0.5778175 2.2041631,0.3656854 1.6384776,0.9313708z" transform="matrix(1,0,0,-1,0.212132,1.8152543)" fill="rgb(255,255,255)" stroke="rgb(0,0,0)" stroke-width="0.0010cm" stroke-linecap="round" stroke-linejoin="round" shaper:cutDepth="0" /><path d="M1.2663456,0.5071068 a0.16,0.16 0 1,1 0.32,0 a0.16,0.16 0 1,1 -0.32,0z" transform="matrix(1,0,0,-1,0.212132,1.8152543)" fill="rgb(255,255,255)" stroke="rgb(0,0,0)" stroke-width="0.0010cm" stroke-linecap="round" stroke-linejoin="round" shaper:cutDepth="0" /></svg>