<?xml version="1.0" encoding="utf-8"?>
<!-- Generator: Fusion 360, Shaper Origin Export Add-In, Version 1.6.3  -->
<svg xmlns="http://www.w3.org/2000/svg" xmlns:xlink="http://www.w3.org/1999/xlink" xmlns:shaper="http://www.shapertools.com/namespaces/shaper" shaper:fusionaddin="version:1.6.3" width="50cm" height="50cm" version="1.1" x="0cm" y="0cm" viewBox="0 0 50 50" enable-background="new 0 0 50 50" xml:space="preserve"><path d="M50,0 L50,50 0,50 0,0 50,0z" transform="matrix(1,0,0,-1,-0,50)" fill="rgb(0,0,0)" shaper:cutDepth="0" stroke-linecap="round" stroke-linejoin="round" /><path d="M39.75,29.015 a0.25,0.25 0 1,1 0.5,0 a0.25,0.25 0 1,1 -0.5,0z" transform="matrix(1,0,0,-1,-0,50)" fill="rgb(255,255,255)" stroke="rgb(0,0,0)" stroke-width="0.0010cm" stroke-linecap="round" stroke-linejoin="round" shaper:cutDepth="0" /><path d="M9.5554403,27.515 a0.4445597,0.4445597 0 1,1 0.8891194,0 a0.4445597,0.4445597 0 1,1 -0.8891194,0z" transform="matrix(1,0,0,-1,-0,50)" fill="rgb(255,255,255)" stroke="rgb(0,0,0)" stroke-width="0.0010cm" stroke-linecap="round" stroke-linejoin="round" shaper:cutDepth="0" /><path d="M9.75,20.985 a0.25,0.25 0 1,1 0.5,0 a0.25,0.25 0 1,1 -0.5,0z" transform="matrix(1,0,0,-1,-0,50)" fill="rgb(255,255,255)" stroke="rgb(0,0,0)" stroke-width="0.0010cm" stroke-linecap="round" stroke-linejoin="round" shaper:cutDepth="0" /><path d="M39.5554403,22.485 a0.4445597,0.4445597 0 1,1 0.8891194,0 a0.4445597,0.4445597 0 1,1 -0.8891194,0z" transform="matrix(1,0,0,-1,-0,50)" fill="rgb(255,255,255)" stroke="rgb(0,0,0)" stroke-width="0.0010cm" stroke-linecap="round" stroke-linejoin="round" shaper:cutDepth="0" /><path d="M39.5554403,27.515 a0.4445597,0.4445597 0 1,1 0.8891194,0 a0.4445597,0.4445597 0 1,1 -0.8891194,0z" transform="matrix(1,0,0,-1,-0,50)" fill="rgb(255,255,255)" stroke="rgb(0,0,0)" stroke-width="0.0010cm" stroke-linecap="round" stroke-linejoin="round" shaper:cutDepth="0" /><path d="M9.75,29.015 a0.25,0.25 0 1,1 0.5,0 a0.25,0.25 0 1,1 -0.5,0z" transform="matrix(1,0,0,-1,-0,50)" fill="rgb(255,255,255)" stroke="rgb(0,0,0)" stroke-width="0.0010cm" stroke-linecap="round" stroke-linejoin="round" shaper:cutDepth="0" /><path d="M9.65,22.485 a0.35,0.35 0 1,1 0.7,0 a0.35,0.35 0 1,1 -0.7,0z" transform="matrix(1,0,0,-1,-0,50)" fill="rgb(255,255,255)" stroke="rgb(0,0,0)" stroke-width="0.0010cm" stroke-linecap="round" stroke-linejoin="round" shaper:cutDepth="0" /><path d="M39.75,20.985 a0.25,0.25 0 1,1 0.5,0 a0.25,0.25 0 1,1 -0.5,0z" transform="matrix(1,0,0,-1,-0,50)" fill="rgb(255,255,255)" stroke="rgb(0,0,0)" stroke-width="0.0010cm" stroke-linecap="round" stroke-linejoin="round" shaper:cutDepth="0" /><path d="M6.75,7.5 a0.75,0.75 0 1,1 1.5,0 a0.75,0.75 0 1,1 -1.5,0z" transform="matrix(1,0,0,-1,-0,50)" fill="rgb(255,255,255)" stroke="rgb(0,0,0)" stroke-width="0.0010cm" stroke-linecap="round" stroke-linejoin="round" shaper:cutDepth="0" /><path d="M11.75,7.5 a0.75,0.75 0 1,1 1.5,0 a0.75,0.75 0 1,1 -1.5,0z" transform="matrix(1,0,0,-1,-0,50)" fill="rgb(255,255,255)" stroke="rgb(0,0,0)" stroke-width="0.0010cm" stroke-linecap="round" stroke-linejoin="round" shaper:cutDepth="0" /><path d="M16.75,7.5 a0.75,0.75 0 1,1 1.5,0 a0.75,0.75 0 1,1 -1.5,0z" transform="matrix(1,0,0,-1,-0,50)" fill="rgb(255,255,255)" stroke="rgb(0,0,0)" stroke-width="0.0010cm" stroke-linecap="round" stroke-linejoin="round" shaper:cutDepth="0" /><path d="M21.75,7.5 a0.75,0.75 0 1,1 1.5,0 a0.75,0.75 0 1,1 -1.5,0z" transform="matrix(1,0,0,-1,-0,50)" fill="rgb(255,255,255)" stroke="rgb(0,0,0)" stroke-width="0.0010cm" stroke-linecap="round" stroke-linejoin="round" shaper:cutDepth="0" /><path d="M26.75,7.5 a0.75,0.75 0 1,1 1.5,0 a0.75,0.75 0 1,1 -1.5,0z" transform="matrix(1,0,0,-1,-0,50)" fill="rgb(255,255,255)" stroke="rgb(0,0,0)" stroke-width="0.0010cm" stroke-linecap="round" stroke-linejoin="round" shaper:cutDepth="0" /><path d="M31.75,7.5 a0.75,0.75 0 1,1 1.5,0 a0.75,0.75 0 1,1 -1.5,0z" transform="matrix(1,0,0,-1,-0,50)" fill="rgb(255,255,255)" stroke="rgb(0,0,0)" stroke-width="0.0010cm" stroke-linecap="round" stroke-linejoin="round" shaper:cutDepth="0" /><path d="M36.75,7.5 a0.75,0.75 0 1,1 1.5,0 a0.75,0.75 0 1,1 -1.5,0z" transform="matrix(1,0,0,-1,-0,50)" fill="rgb(255,255,255)" stroke="rgb(0,0,0)" stroke-width="0.0010cm" stroke-linecap="round" stroke-linejoin="round" shaper:cutDepth="0" /><path d="M41.75,7.5 a0.75,0.75 0 1,1 1.5,0 a0.75,0.75 0 1,1 -1.5,0z" transform="matrix(1,0,0,-1,-0,50)" fill="rgb(255,255,255)" stroke="rgb(0,0,0)" stroke-width="0.0010cm" stroke-linecap="round" stroke-linejoin="round" shaper:cutDepth="0" /><path d="M6.75,12.5 a0.75,0.75 0 1,1 1.5,0 a0.75,0.75 0 1,1 -1.5,0z" transform="matrix(1,0,0,-1,-0,50)" fill="rgb(255,255,255)" stroke="rgb(0,0,0)" stroke-width="0.0010cm" stroke-linecap="round" stroke-linejoin="round" shaper:cutDepth="0" /><path d="M11.75,12.5 a0.75,0.75 0 1,1 1.5,0 a0.75,0.75 0 1,1 -1.5,0z" transform="matrix(1,0,0,-1,-0,50)" fill="rgb(255,255,255)" stroke="rgb(0,0,0)" stroke-width="0.0010cm" stroke-linecap="round" stroke-linejoin="round" shaper:cutDepth="0" /><path d="M16.75,12.5 a0.75,0.75 0 1,1 1.5,0 a0.75,0.75 0 1,1 -1.5,0z" transform="matrix(1,0,0,-1,-0,50)" fill="rgb(255,255,255)" stroke="rgb(0,0,0)" stroke-width="0.0010cm" stroke-linecap="round" stroke-linejoin="round" shaper:cutDepth="0" /><path d="M21.75,12.5 a0.75,0.75 0 1,1 1.5,0 a0.75,0.75 0 1,1 -1.5,0z" transform="matrix(1,0,0,-1,-0,50)" fill="rgb(255,255,255)" stroke="rgb(0,0,0)" stroke-width="0.0010cm" stroke-linecap="round" stroke-linejoin="round" shaper:cutDepth="0" /><path d="M26.75,12.5 a0.75,0.75 0 1,1 1.5,0 a0.75,0.75 0 1,1 -1.5,0z" transform="matrix(1,0,0,-1,-0,50)" fill="rgb(255,255,255)" stroke="rgb(0,0,0)" stroke-width="0.0010cm" stroke-linecap="round" stroke-linejoin="round" shaper:cutDepth="0" /><path d="M31.75,12.5 a0.75,0.75 0 1,1 1.5,0 a0.75,0.75 0 1,1 -1.5,0z" transform="matrix(1,0,0,-1,-0,50)" fill="rgb(255,255,255)" stroke="rgb(0,0,0)" stroke-width="0.0010cm" stroke-linecap="round" stroke-linejoin="round" shaper:cutDepth="0" /><path d="M36.75,12.5 a0.75,0.75 0 1,1 1.5,0 a0.75,0.75 0 1,1 -1.5,0z" transform="matrix(1,0,0,-1,-0,50)" fill="rgb(255,255,255)" stroke="rgb(0,0,0)" stroke-width="0.0010cm" stroke-linecap="round" stroke-linejoin="round" shaper:cutDepth="0" /><path d="M41.75,12.5 a0.75,0.75 0 1,1 1.5,0 a0.75,0.75 0 1,1 -1.5,0z" transform="matrix(1,0,0,-1,-0,50)" fill="rgb(255,255,255)" stroke="rgb(0,0,0)" stroke-width="0.0010cm" stroke-linecap="round" stroke-linejoin="round" shaper:cutDepth="0" /><path d="M6.75,17.5 a0.75,0.75 0 1,1 1.5,0 a0.75,0.75 0 1,1 -1.5,0z" transform="matrix(1,0,0,-1,-0,50)" fill="rgb(255,255,255)" stroke="rgb(0,0,0)" stroke-width="0.0010cm" stroke-linecap="round" stroke-linejoin="round" shaper:cutDepth="0" /><path d="M11.75,17.5 a0.75,0.75 0 1,1 1.5,0 a0.75,0.75 0 1,1 -1.5,0z" transform="matrix(1,0,0,-1,-0,50)" fill="rgb(255,255,255)" stroke="rgb(0,0,0)" stroke-width="0.0010cm" stroke-linecap="round" stroke-linejoin="round" shaper:cutDepth="0" /><path d="M16.75,17.5 a0.75,0.75 0 1,1 1.5,0 a0.75,0.75 0 1,1 -1.5,0z" transform="matrix(1,0,0,-1,-0,50)" fill="rgb(255,255,255)" stroke="rgb(0,0,0)" stroke-width="0.0010cm" stroke-linecap="round" stroke-linejoin="round" shaper:cutDepth="0" /><path d="M21.75,17.5 a0.75,0.75 0 1,1 1.5,0 a0.75,0.75 0 1,1 -1.5,0z" transform="matrix(1,0,0,-1,-0,50)" fill="rgb(255,255,255)" stroke="rgb(0,0,0)" stroke-width="0.0010cm" stroke-linecap="round" stroke-linejoin="round" shaper:cutDepth="0" /><path d="M26.75,17.5 a0.75,0.75 0 1,1 1.5,0 a0.75,0.75 0 1,1 -1.5,0z" transform="matrix(1,0,0,-1,-0,50)" fill="rgb(255,255,255)" stroke="rgb(0,0,0)" stroke-width="0.0010cm" stroke-linecap="round" stroke-linejoin="round" shaper:cutDepth="0" /><path d="M31.75,17.5 a0.75,0.75 0 1,1 1.5,0 a0.75,0.75 0 1,1 -1.5,0z" transform="matrix(1,0,0,-1,-0,50)" fill="rgb(255,255,255)" stroke="rgb(0,0,0)" stroke-width="0.0010cm" stroke-linecap="round" stroke-linejoin="round" shaper:cutDepth="0" /><path d="M36.75,17.5 a0.75,0.75 0 1,1 1.5,0 a0.75,0.75 0 1,1 -1.5,0z" transform="matrix(1,0,0,-1,-0,50)" fill="rgb(255,255,255)" stroke="rgb(0,0,0)" stroke-width="0.0010cm" stroke-linecap="round" stroke-linejoin="round" shaper:cutDepth="0" /><path d="M41.75,17.5 a0.75,0.75 0 1,1 1.5,0 a0.75,0.75 0 1,1 -1.5,0z" transform="matrix(1,0,0,-1,-0,50)" fill="rgb(255,255,255)" stroke="rgb(0,0,0)" stroke-width="0.0010cm" stroke-linecap="round" stroke-linejoin="round" shaper:cutDepth="0" /><path d="M6.75,22.5 a0.75,0.75 0 1,1 1.5,0 a0.75,0.75 0 1,1 -1.5,0z" transform="matrix(1,0,0,-1,-0,50)" fill="rgb(255,255,255)" stroke="rgb(0,0,0)" stroke-width="0.0010cm" stroke-linecap="round" stroke-linejoin="round" shaper:cutDepth="0" /><path d="M11.75,22.5 a0.75,0.75 0 1,1 1.5,0 a0.75,0.75 0 1,1 -1.5,0z" transform="matrix(1,0,0,-1,-0,50)" fill="rgb(255,255,255)" stroke="rgb(0,0,0)" stroke-width="0.0010cm" stroke-linecap="round" stroke-linejoin="round" shaper:cutDepth="0" /><path d="M16.75,22.5 a0.75,0.75 0 1,1 1.5,0 a0.75,0.75 0 1,1 -1.5,0z" transform="matrix(1,0,0,-1,-0,50)" fill="rgb(255,255,255)" stroke="rgb(0,0,0)" stroke-width="0.0010cm" stroke-linecap="round" stroke-linejoin="round" shaper:cutDepth="0" /><path d="M21.75,22.5 a0.75,0.75 0 1,1 1.5,0 a0.75,0.75 0 1,1 -1.5,0z" transform="matrix(1,0,0,-1,-0,50)" fill="rgb(255,255,255)" stroke="rgb(0,0,0)" stroke-width="0.0010cm" stroke-linecap="round" stroke-linejoin="round" shaper:cutDepth="0" /><path d="M26.75,22.5 a0.75,0.75 0 1,1 1.5,0 a0.75,0.75 0 1,1 -1.5,0z" transform="matrix(1,0,0,-1,-0,50)" fill="rgb(255,255,255)" stroke="rgb(0,0,0)" stroke-width="0.0010cm" stroke-linecap="round" stroke-linejoin="round" shaper:cutDepth="0" /><path d="M31.75,22.5 a0.75,0.75 0 1,1 1.5,0 a0.75,0.75 0 1,1 -1.5,0z" transform="matrix(1,0,0,-1,-0,50)" fill="rgb(255,255,255)" stroke="rgb(0,0,0)" stroke-width="0.0010cm" stroke-linecap="round" stroke-linejoin="round" shaper:cutDepth="0" /><path d="M36.75,22.5 a0.75,0.75 0 1,1 1.5,0 a0.75,0.75 0 1,1 -1.5,0z" transform="matrix(1,0,0,-1,-0,50)" fill="rgb(255,255,255)" stroke="rgb(0,0,0)" stroke-width="0.0010cm" stroke-linecap="round" stroke-linejoin="round" shaper:cutDepth="0" /><path d="M41.75,22.5 a0.75,0.75 0 1,1 1.5,0 a0.75,0.75 0 1,1 -1.5,0z" transform="matrix(1,0,0,-1,-0,50)" fill="rgb(255,255,255)" stroke="rgb(0,0,0)" stroke-width="0.0010cm" stroke-linecap="round" stroke-linejoin="round" shaper:cutDepth="0" /><path d="M6.75,27.5 a0.75,0.75 0 1,1 1.5,0 a0.75,0.75 0 1,1 -1.5,0z" transform="matrix(1,0,0,-1,-0,50)" fill="rgb(255,255,255)" stroke="rgb(0,0,0)" stroke-width="0.0010cm" stroke-linecap="round" stroke-linejoin="round" shaper:cutDepth="0" /><path d="M11.75,27.5 a0.75,0.75 0 1,1 1.5,0 a0.75,0.75 0 1,1 -1.5,0z" transform="matrix(1,0,0,-1,-0,50)" fill="rgb(255,255,255)" stroke="rgb(0,0,0)" stroke-width="0.0010cm" stroke-linecap="round" stroke-linejoin="round" shaper:cutDepth="0" /><path d="M16.75,27.5 a0.75,0.75 0 1,1 1.5,0 a0.75,0.75 0 1,1 -1.5,0z" transform="matrix(1,0,0,-1,-0,50)" fill="rgb(255,255,255)" stroke="rgb(0,0,0)" stroke-width="0.0010cm" stroke-linecap="round" stroke-linejoin="round" shaper:cutDepth="0" /><path d="M21.75,27.5 a0.75,0.75 0 1,1 1.5,0 a0.75,0.75 0 1,1 -1.5,0z" transform="matrix(1,0,0,-1,-0,50)" fill="rgb(255,255,255)" stroke="rgb(0,0,0)" stroke-width="0.0010cm" stroke-linecap="round" stroke-linejoin="round" shaper:cutDepth="0" /><path d="M26.75,27.5 a0.75,0.75 0 1,1 1.5,0 a0.75,0.75 0 1,1 -1.5,0z" transform="matrix(1,0,0,-1,-0,50)" fill="rgb(255,255,255)" stroke="rgb(0,0,0)" stroke-width="0.0010cm" stroke-linecap="round" stroke-linejoin="round" shaper:cutDepth="0" /><path d="M31.75,27.5 a0.75,0.75 0 1,1 1.5,0 a0.75,0.75 0 1,1 -1.5,0z" transform="matrix(1,0,0,-1,-0,50)" fill="rgb(255,255,255)" stroke="rgb(0,0,0)" stroke-width="0.0010cm" stroke-linecap="round" stroke-linejoin="round" shaper:cutDepth="0" /><path d="M36.75,27.5 a0.75,0.75 0 1,1 1.5,0 a0.75,0.75 0 1,1 -1.5,0z" transform="matrix(1,0,0,-1,-0,50)" fill="rgb(255,255,255)" stroke="rgb(0,0,0)" stroke-width="0.0010cm" stroke-linecap="round" stroke-linejoin="round" shaper:cutDepth="0" /><path d="M41.75,27.5 a0.75,0.75 0 1,1 1.5,0 a0.75,0.75 0 1,1 -1.5,0z" transform="matrix(1,0,0,-1,-0,50)" fill="rgb(255,255,255)" stroke="rgb(0,0,0)" stroke-width="0.0010cm" stroke-linecap="round" stroke-linejoin="round" shaper:cutDepth="0" /><path d="M6.75,32.5 a0.75,0.75 0 1,1 1.5,0 a0.75,0.75 0 1,1 -1.5,0z" transform="matrix(1,0,0,-1,-0,50)" fill="rgb(255,255,255)" stroke="rgb(0,0,0)" stroke-width="0.0010cm" stroke-linecap="round" stroke-linejoin="round" shaper:cutDepth="0" /><path d="M11.75,32.5 a0.75,0.75 0 1,1 1.5,0 a0.75,0.75 0 1,1 -1.5,0z" transform="matrix(1,0,0,-1,-0,50)" fill="rgb(255,255,255)" stroke="rgb(0,0,0)" stroke-width="0.0010cm" stroke-linecap="round" stroke-linejoin="round" shaper:cutDepth="0" /><path d="M16.75,32.5 a0.75,0.75 0 1,1 1.5,0 a0.75,0.75 0 1,1 -1.5,0z" transform="matrix(1,0,0,-1,-0,50)" fill="rgb(255,255,255)" stroke="rgb(0,0,0)" stroke-width="0.0010cm" stroke-linecap="round" stroke-linejoin="round" shaper:cutDepth="0" /><path d="M21.75,32.5 a0.75,0.75 0 1,1 1.5,0 a0.75,0.75 0 1,1 -1.5,0z" transform="matrix(1,0,0,-1,-0,50)" fill="rgb(255,255,255)" stroke="rgb(0,0,0)" stroke-width="0.0010cm" stroke-linecap="round" stroke-linejoin="round" shaper:cutDepth="0" /><path d="M26.75,32.5 a0.75,0.75 0 1,1 1.5,0 a0.75,0.75 0 1,1 -1.5,0z" transform="matrix(1,0,0,-1,-0,50)" fill="rgb(255,255,255)" stroke="rgb(0,0,0)" stroke-width="0.0010cm" stroke-linecap="round" stroke-linejoin="round" shaper:cutDepth="0" /><path d="M31.75,32.5 a0.75,0.75 0 1,1 1.5,0 a0.75,0.75 0 1,1 -1.5,0z" transform="matrix(1,0,0,-1,-0,50)" fill="rgb(255,255,255)" stroke="rgb(0,0,0)" stroke-width="0.0010cm" stroke-linecap="round" stroke-linejoin="round" shaper:cutDepth="0" /><path d="M36.75,32.5 a0.75,0.75 0 1,1 1.5,0 a0.75,0.75 0 1,1 -1.5,0z" transform="matrix(1,0,0,-1,-0,50)" fill="rgb(255,255,255)" stroke="rgb(0,0,0)" stroke-width="0.0010cm" stroke-linecap="round" stroke-linejoin="round" shaper:cutDepth="0" /><path d="M41.75,32.5 a0.75,0.75 0 1,1 1.5,0 a0.75,0.75 0 1,1 -1.5,0z" transform="matrix(1,0,0,-1,-0,50)" fill="rgb(255,255,255)" stroke="rgb(0,0,0)" stroke-width="0.0010cm" stroke-linecap="round" stroke-linejoin="round" shaper:cutDepth="0" /><path d="M6.75,37.5 a0.75,0.75 0 1,1 1.5,0 a0.75,0.75 0 1,1 -1.5,0z" transform="matrix(1,0,0,-1,-0,50)" fill="rgb(255,255,255)" stroke="rgb(0,0,0)" stroke-width="0.0010cm" stroke-linecap="round" stroke-linejoin="round" shaper:cutDepth="0" /><path d="M11.75,37.5 a0.75,0.75 0 1,1 1.5,0 a0.75,0.75 0 1,1 -1.5,0z" transform="matrix(1,0,0,-1,-0,50)" fill="rgb(255,255,255)" stroke="rgb(0,0,0)" stroke-width="0.0010cm" stroke-linecap="round" stroke-linejoin="round" shaper:cutDepth="0" /><path d="M16.75,37.5 a0.75,0.75 0 1,1 1.5,0 a0.75,0.75 0 1,1 -1.5,0z" transform="matrix(1,0,0,-1,-0,50)" fill="rgb(255,255,255)" stroke="rgb(0,0,0)" stroke-width="0.0010cm" stroke-linecap="round" stroke-linejoin="round" shaper:cutDepth="0" /><path d="M21.75,37.5 a0.75,0.75 0 1,1 1.5,0 a0.75,0.75 0 1,1 -1.5,0z" transform="matrix(1,0,0,-1,-0,50)" fill="rgb(255,255,255)" stroke="rgb(0,0,0)" stroke-width="0.0010cm" stroke-linecap="round" stroke-linejoin="round" shaper:cutDepth="0" /><path d="M26.75,37.5 a0.75,0.75 0 1,1 1.5,0 a0.75,0.75 0 1,1 -1.5,0z" transform="matrix(1,0,0,-1,-0,50)" fill="rgb(255,255,255)" stroke="rgb(0,0,0)" stroke-width="0.0010cm" stroke-linecap="round" stroke-linejoin="round" shaper:cutDepth="0" /><path d="M31.75,37.5 a0.75,0.75 0 1,1 1.5,0 a0.75,0.75 0 1,1 -1.5,0z" transform="matrix(1,0,0,-1,-0,50)" fill="rgb(255,255,255)" stroke="rgb(0,0,0)" stroke-width="0.0010cm" stroke-linecap="round" stroke-linejoin="round" shaper:cutDepth="0" /><path d="M36.75,37.5 a0.75,0.75 0 1,1 1.5,0 a0.75,0.75 0 1,1 -1.5,0z" transform="matrix(1,0,0,-1,-0,50)" fill="rgb(255,255,255)" stroke="rgb(0,0,0)" stroke-width="0.0010cm" stroke-linecap="round" stroke-linejoin="round" shaper:cutDepth="0" /><path d="M41.75,37.5 a0.75,0.75 0 1,1 1.5,0 a0.75,0.75 0 1,1 -1.5,0z" transform="matrix(1,0,0,-1,-0,50)" fill="rgb(255,255,255)" stroke="rgb(0,0,0)" stroke-width="0.0010cm" stroke-linecap="round" stroke-linejoin="round" shaper:cutDepth="0" /><path d="M6.75,42.5 a0.75,0.75 0 1,1 1.5,0 a0.75,0.75 0 1,1 -1.5,0z" transform="matrix(1,0,0,-1,-0,50)" fill="rgb(255,255,255)" stroke="rgb(0,0,0)" stroke-width="0.0010cm" stroke-linecap="round" stroke-linejoin="round" shaper:cutDepth="0" /><path d="M24.85,2.55 a0.15,0.15 0 1,1 0.3,0 a0.15,0.15 0 1,1 -0.3,0z" transform="matrix(1,0,0,-1,-0,50)" fill="rgb(255,255,255)" stroke="rgb(0,0,0)" stroke-width="0.0010cm" stroke-linecap="round" stroke-linejoin="round" shaper:cutDepth="0" /><path d="M47.3,25 a0.15,0.15 0 1,1 0.3,0 a0.15,0.15 0 1,1 -0.3,0z" transform="matrix(1,0,0,-1,-0,50)" fill="rgb(255,255,255)" stroke="rgb(0,0,0)" stroke-width="0.0010cm" stroke-linecap="round" stroke-linejoin="round" shaper:cutDepth="0" /><path d="M24.85,47.45 a0.15,0.15 0 1,1 0.3,0 a0.15,0.15 0 1,1 -0.3,0z" transform="matrix(1,0,0,-1,-0,50)" fill="rgb(255,255,255)" stroke="rgb(0,0,0)" stroke-width="0.0010cm" stroke-linecap="round" stroke-linejoin="round" shaper:cutDepth="0" /><path d="M2.4,25 a0.15,0.15 0 1,1 0.3,0 a0.15,0.15 0 1,1 -0.3,0z" transform="matrix(1,0,0,-1,-0,50)" fill="rgb(255,255,255)" stroke="rgb(0,0,0)" stroke-width="0.0010cm" stroke-linecap="round" stroke-linejoin="round" shaper:cutDepth="0" /><path d="M14.85,35 a0.15,0.15 0 1,1 0.3,0 a0.15,0.15 0 1,1 -0.3,0z" transform="matrix(1,0,0,-1,-0,50)" fill="rgb(255,255,255)" stroke="rgb(0,0,0)" stroke-width="0.0010cm" stroke-linecap="round" stroke-linejoin="round" shaper:cutDepth="0" /><path d="M34.85,35 a0.15,0.15 0 1,1 0.3,0 a0.15,0.15 0 1,1 -0.3,0z" transform="matrix(1,0,0,-1,-0,50)" fill="rgb(255,255,255)" stroke="rgb(0,0,0)" stroke-width="0.0010cm" stroke-linecap="round" stroke-linejoin="round" shaper:cutDepth="0" /><path d="M34.85,15 a0.15,0.15 0 1,1 0.3,0 a0.15,0.15 0 1,1 -0.3,0z" transform="matrix(1,0,0,-1,-0,50)" fill="rgb(255,255,255)" stroke="rgb(0,0,0)" stroke-width="0.0010cm" stroke-linecap="round" stroke-linejoin="round" shaper:cutDepth="0" /><path d="M14.85,15 a0.15,0.15 0 1,1 0.3,0 a0.15,0.15 0 1,1 -0.3,0z" transform="matrix(1,0,0,-1,-0,50)" fill="rgb(255,255,255)" stroke="rgb(0,0,0)" stroke-width="0.0010cm" stroke-linecap="round" stroke-linejoin="round" shaper:cutDepth="0" /><path d="M2.4,47.45 a0.15,0.15 0 1,1 0.3,0 a0.15,0.15 0 1,1 -0.3,0z" transform="matrix(1,0,0,-1,-0,50)" fill="rgb(255,255,255)" stroke="rgb(0,0,0)" stroke-width="0.0010cm" stroke-linecap="round" stroke-linejoin="round" shaper:cutDepth="0" /><path d="M47.3,47.45 a0.15,0.15 0 1,1 0.3,0 a0.15,0.15 0 1,1 -0.3,0z" transform="matrix(1,0,0,-1,-0,50)" fill="rgb(255,255,255)" stroke="rgb(0,0,0)" stroke-width="0.0010cm" stroke-linecap="round" stroke-linejoin="round" shaper:cutDepth="0" /><path d="M24.85,25 a0.15,0.15 0 1,1 0.3,0 a0.15,0.15 0 1,1 -0.3,0z" transform="matrix(1,0,0,-1,-0,50)" fill="rgb(255,255,255)" stroke="rgb(0,0,0)" stroke-width="0.0010cm" stroke-linecap="round" stroke-linejoin="round" shaper:cutDepth="0" /><path d="M47.3,2.55 a0.15,0.15 0 1,1 0.3,0 a0.15,0.15 0 1,1 -0.3,0z" transform="matrix(1,0,0,-1,-0,50)" fill="rgb(255,255,255)" stroke="rgb(0,0,0)" stroke-width="0.0010cm" stroke-linecap="round" stroke-linejoin="round" shaper:cutDepth="0" /><path d="M2.4,2.55 a0.15,0.15 0 1,1 0.3,0 a0.15,0.15 0 1,1 -0.3,0z" transform="matrix(1,0,0,-1,-0,50)" fill="rgb(255,255,255)" stroke="rgb(0,0,0)" stroke-width="0.0010cm" stroke-linecap="round" stroke-linejoin="round" shaper:cutDepth="0" /><path d="M41.75,42.5 a0.75,0.75 0 1,1 1.5,0 a0.75,0.75 0 1,1 -1.5,0z" transform="matrix(1,0,0,-1,-0,50)" fill="rgb(255,255,255)" stroke="rgb(0,0,0)" stroke-width="0.0010cm" stroke-linecap="round" stroke-linejoin="round" shaper:cutDepth="0" /><path d="M36.75,42.5 a0.75,0.75 0 1,1 1.5,0 a0.75,0.75 0 1,1 -1.5,0z" transform="matrix(1,0,0,-1,-0,50)" fill="rgb(255,255,255)" stroke="rgb(0,0,0)" stroke-width="0.0010cm" stroke-linecap="round" stroke-linejoin="round" shaper:cutDepth="0" /><path d="M31.75,42.5 a0.75,0.75 0 1,1 1.5,0 a0.75,0.75 0 1,1 -1.5,0z" transform="matrix(1,0,0,-1,-0,50)" fill="rgb(255,255,255)" stroke="rgb(0,0,0)" stroke-width="0.0010cm" stroke-linecap="round" stroke-linejoin="round" shaper:cutDepth="0" /><path d="M26.75,42.5 a0.75,0.75 0 1,1 1.5,0 a0.75,0.75 0 1,1 -1.5,0z" transform="matrix(1,0,0,-1,-0,50)" fill="rgb(255,255,255)" stroke="rgb(0,0,0)" stroke-width="0.0010cm" stroke-linecap="round" stroke-linejoin="round" shaper:cutDepth="0" /><path d="M21.75,42.5 a0.75,0.75 0 1,1 1.5,0 a0.75,0.75 0 1,1 -1.5,0z" transform="matrix(1,0,0,-1,-0,50)" fill="rgb(255,255,255)" stroke="rgb(0,0,0)" stroke-width="0.0010cm" stroke-linecap="round" stroke-linejoin="round" shaper:cutDepth="0" /><path d="M16.75,42.5 a0.75,0.75 0 1,1 1.5,0 a0.75,0.75 0 1,1 -1.5,0z" transform="matrix(1,0,0,-1,-0,50)" fill="rgb(255,255,255)" stroke="rgb(0,0,0)" stroke-width="0.0010cm" stroke-linecap="round" stroke-linejoin="round" shaper:cutDepth="0" /><path d="M11.75,42.5 a0.75,0.75 0 1,1 1.5,0 a0.75,0.75 0 1,1 -1.5,0z" transform="matrix(1,0,0,-1,-0,50)" fill="rgb(255,255,255)" stroke="rgb(0,0,0)" stroke-width="0.0010cm" stroke-linecap="round" stroke-linejoin="round" shaper:cutDepth="0" /></svg>