<?xml version="1.0" encoding="utf-8"?>
<!-- Generator: Fusion 360, Shaper Origin Export Add-In, Version 1.6.3  -->
<svg xmlns="http://www.w3.org/2000/svg" xmlns:xlink="http://www.w3.org/1999/xlink" xmlns:shaper="http://www.shapertools.com/namespaces/shaper" shaper:fusionaddin="version:1.6.3" width="52cm" height="52cm" version="1.1" x="0cm" y="0cm" viewBox="0 0 52 52" enable-background="new 0 0 52 52" xml:space="preserve"><path d="M-2,2 L0,0 48,0 50,2 50,50 48,52 0,52 -2,50 -2,2z" transform="matrix(1,0,0,-1,2,52)" fill="rgb(0,0,0)" shaper:cutDepth="0" stroke-linecap="round" stroke-linejoin="round" /><path d="M21.485,11.4445597 A0.4445597,0.4445597 90 1,0 21.485,10.5554403 L19.985,10.5554403 19.6,10.7777201 19.6,11.2222799 19.985,11.4445597 21.485,11.4445597z" transform="matrix(1,0,0,-1,2,52)" fill="rgb(255,255,255)" stroke="rgb(0,0,0)" stroke-width="0.0010cm" stroke-linecap="round" stroke-linejoin="round" shaper:cutDepth="0" /><path d="M26.515,10.5554403 A0.4445597,0.4445597 270.0000002 1,0 26.515,11.4445597 L28.015,11.4445597 28.4,11.2222799 28.4,10.7777201 28.015,10.5554403 26.515,10.5554403z" transform="matrix(1,0,0,-1,2,52)" fill="rgb(255,255,255)" stroke="rgb(0,0,0)" stroke-width="0.0010cm" stroke-linecap="round" stroke-linejoin="round" shaper:cutDepth="0" /><path d="M21.485,41.4445597 A0.4445597,0.4445597 90 0,0 21.485,40.5554403 L19.985,40.5554403 19.6,40.7777201 19.6,41.2222799 19.985,41.4445597 21.485,41.4445597z" transform="matrix(1,0,0,-1,2,52)" fill="rgb(255,255,255)" stroke="rgb(0,0,0)" stroke-width="0.0010cm" stroke-linecap="round" stroke-linejoin="round" shaper:cutDepth="0" /><path d="M26.515,41.4445597 L28.015,41.4445597 28.4,41.2222799 28.4,40.7777201 28.015,40.5554403 26.515,40.5554403 A0.4445597,0.4445597 270 0,0 26.515,41.4445597z" transform="matrix(1,0,0,-1,2,52)" fill="rgb(255,255,255)" stroke="rgb(0,0,0)" stroke-width="0.0010cm" stroke-linecap="round" stroke-linejoin="round" shaper:cutDepth="0" /><path d="M10.75,23.5 a0.75,0.75 0 1,1 1.5,0 a0.75,0.75 0 1,1 -1.5,0z" transform="matrix(1,0,0,-1,2,52)" fill="rgb(255,255,255)" stroke="rgb(0,0,0)" stroke-width="0.0010cm" stroke-linecap="round" stroke-linejoin="round" shaper:cutDepth="0" /><path d="M10.75,28.5 a0.75,0.75 0 1,1 1.5,0 a0.75,0.75 0 1,1 -1.5,0z" transform="matrix(1,0,0,-1,2,52)" fill="rgb(255,255,255)" stroke="rgb(0,0,0)" stroke-width="0.0010cm" stroke-linecap="round" stroke-linejoin="round" shaper:cutDepth="0" /><path d="M10.75,33.5 a0.75,0.75 0 1,1 1.5,0 a0.75,0.75 0 1,1 -1.5,0z" transform="matrix(1,0,0,-1,2,52)" fill="rgb(255,255,255)" stroke="rgb(0,0,0)" stroke-width="0.0010cm" stroke-linecap="round" stroke-linejoin="round" shaper:cutDepth="0" /><path d="M10.75,38.5 a0.75,0.75 0 1,1 1.5,0 a0.75,0.75 0 1,1 -1.5,0z" transform="matrix(1,0,0,-1,2,52)" fill="rgb(255,255,255)" stroke="rgb(0,0,0)" stroke-width="0.0010cm" stroke-linecap="round" stroke-linejoin="round" shaper:cutDepth="0" /><path d="M10.75,43.5 a0.75,0.75 0 1,1 1.5,0 a0.75,0.75 0 1,1 -1.5,0z" transform="matrix(1,0,0,-1,2,52)" fill="rgb(255,255,255)" stroke="rgb(0,0,0)" stroke-width="0.0010cm" stroke-linecap="round" stroke-linejoin="round" shaper:cutDepth="0" /><path d="M5.75,43.5 a0.75,0.75 0 1,1 1.5,0 a0.75,0.75 0 1,1 -1.5,0z" transform="matrix(1,0,0,-1,2,52)" fill="rgb(255,255,255)" stroke="rgb(0,0,0)" stroke-width="0.0010cm" stroke-linecap="round" stroke-linejoin="round" shaper:cutDepth="0" /><path d="M5.75,38.5 a0.75,0.75 0 1,1 1.5,0 a0.75,0.75 0 1,1 -1.5,0z" transform="matrix(1,0,0,-1,2,52)" fill="rgb(255,255,255)" stroke="rgb(0,0,0)" stroke-width="0.0010cm" stroke-linecap="round" stroke-linejoin="round" shaper:cutDepth="0" /><path d="M5.75,33.5 a0.75,0.75 0 1,1 1.5,0 a0.75,0.75 0 1,1 -1.5,0z" transform="matrix(1,0,0,-1,2,52)" fill="rgb(255,255,255)" stroke="rgb(0,0,0)" stroke-width="0.0010cm" stroke-linecap="round" stroke-linejoin="round" shaper:cutDepth="0" /><path d="M5.75,28.5 a0.75,0.75 0 1,1 1.5,0 a0.75,0.75 0 1,1 -1.5,0z" transform="matrix(1,0,0,-1,2,52)" fill="rgb(255,255,255)" stroke="rgb(0,0,0)" stroke-width="0.0010cm" stroke-linecap="round" stroke-linejoin="round" shaper:cutDepth="0" /><path d="M5.75,23.5 a0.75,0.75 0 1,1 1.5,0 a0.75,0.75 0 1,1 -1.5,0z" transform="matrix(1,0,0,-1,2,52)" fill="rgb(255,255,255)" stroke="rgb(0,0,0)" stroke-width="0.0010cm" stroke-linecap="round" stroke-linejoin="round" shaper:cutDepth="0" /><path d="M5.75,18.5 a0.75,0.75 0 1,1 1.5,0 a0.75,0.75 0 1,1 -1.5,0z" transform="matrix(1,0,0,-1,2,52)" fill="rgb(255,255,255)" stroke="rgb(0,0,0)" stroke-width="0.0010cm" stroke-linecap="round" stroke-linejoin="round" shaper:cutDepth="0" /><path d="M5.75,13.5 a0.75,0.75 0 1,1 1.5,0 a0.75,0.75 0 1,1 -1.5,0z" transform="matrix(1,0,0,-1,2,52)" fill="rgb(255,255,255)" stroke="rgb(0,0,0)" stroke-width="0.0010cm" stroke-linecap="round" stroke-linejoin="round" shaper:cutDepth="0" /><path d="M5.75,8.5 a0.75,0.75 0 1,1 1.5,0 a0.75,0.75 0 1,1 -1.5,0z" transform="matrix(1,0,0,-1,2,52)" fill="rgb(255,255,255)" stroke="rgb(0,0,0)" stroke-width="0.0010cm" stroke-linecap="round" stroke-linejoin="round" shaper:cutDepth="0" /><path d="M1.4,48.45 a0.15,0.15 0 1,1 0.3,0 a0.15,0.15 0 1,1 -0.3,0z" transform="matrix(1,0,0,-1,2,52)" fill="rgb(255,255,255)" stroke="rgb(0,0,0)" stroke-width="0.0010cm" stroke-linecap="round" stroke-linejoin="round" shaper:cutDepth="0" /><path d="M1.4,3.55 a0.15,0.15 0 1,1 0.3,0 a0.15,0.15 0 1,1 -0.3,0z" transform="matrix(1,0,0,-1,2,52)" fill="rgb(255,255,255)" stroke="rgb(0,0,0)" stroke-width="0.0010cm" stroke-linecap="round" stroke-linejoin="round" shaper:cutDepth="0" /><path d="M46.3,48.45 a0.15,0.15 0 1,1 0.3,0 a0.15,0.15 0 1,1 -0.3,0z" transform="matrix(1,0,0,-1,2,52)" fill="rgb(255,255,255)" stroke="rgb(0,0,0)" stroke-width="0.0010cm" stroke-linecap="round" stroke-linejoin="round" shaper:cutDepth="0" /><path d="M46.3,3.55 a0.15,0.15 0 1,1 0.3,0 a0.15,0.15 0 1,1 -0.3,0z" transform="matrix(1,0,0,-1,2,52)" fill="rgb(255,255,255)" stroke="rgb(0,0,0)" stroke-width="0.0010cm" stroke-linecap="round" stroke-linejoin="round" shaper:cutDepth="0" /><path d="M23.85,26 a0.15,0.15 0 1,1 0.3,0 a0.15,0.15 0 1,1 -0.3,0z" transform="matrix(1,0,0,-1,2,52)" fill="rgb(255,255,255)" stroke="rgb(0,0,0)" stroke-width="0.0010cm" stroke-linecap="round" stroke-linejoin="round" shaper:cutDepth="0" /><path d="M13.85,36 a0.15,0.15 0 1,1 0.3,0 a0.15,0.15 0 1,1 -0.3,0z" transform="matrix(1,0,0,-1,2,52)" fill="rgb(255,255,255)" stroke="rgb(0,0,0)" stroke-width="0.0010cm" stroke-linecap="round" stroke-linejoin="round" shaper:cutDepth="0" /><path d="M13.85,16 a0.15,0.15 0 1,1 0.3,0 a0.15,0.15 0 1,1 -0.3,0z" transform="matrix(1,0,0,-1,2,52)" fill="rgb(255,255,255)" stroke="rgb(0,0,0)" stroke-width="0.0010cm" stroke-linecap="round" stroke-linejoin="round" shaper:cutDepth="0" /><path d="M40.75,8.5 a0.75,0.75 0 1,1 1.5,0 a0.75,0.75 0 1,1 -1.5,0z" transform="matrix(1,0,0,-1,2,52)" fill="rgb(255,255,255)" stroke="rgb(0,0,0)" stroke-width="0.0010cm" stroke-linecap="round" stroke-linejoin="round" shaper:cutDepth="0" /><path d="M40.75,13.5 a0.75,0.75 0 1,1 1.5,0 a0.75,0.75 0 1,1 -1.5,0z" transform="matrix(1,0,0,-1,2,52)" fill="rgb(255,255,255)" stroke="rgb(0,0,0)" stroke-width="0.0010cm" stroke-linecap="round" stroke-linejoin="round" shaper:cutDepth="0" /><path d="M40.75,18.5 a0.75,0.75 0 1,1 1.5,0 a0.75,0.75 0 1,1 -1.5,0z" transform="matrix(1,0,0,-1,2,52)" fill="rgb(255,255,255)" stroke="rgb(0,0,0)" stroke-width="0.0010cm" stroke-linecap="round" stroke-linejoin="round" shaper:cutDepth="0" /><path d="M40.75,23.5 a0.75,0.75 0 1,1 1.5,0 a0.75,0.75 0 1,1 -1.5,0z" transform="matrix(1,0,0,-1,2,52)" fill="rgb(255,255,255)" stroke="rgb(0,0,0)" stroke-width="0.0010cm" stroke-linecap="round" stroke-linejoin="round" shaper:cutDepth="0" /><path d="M40.75,28.5 a0.75,0.75 0 1,1 1.5,0 a0.75,0.75 0 1,1 -1.5,0z" transform="matrix(1,0,0,-1,2,52)" fill="rgb(255,255,255)" stroke="rgb(0,0,0)" stroke-width="0.0010cm" stroke-linecap="round" stroke-linejoin="round" shaper:cutDepth="0" /><path d="M40.75,33.5 a0.75,0.75 0 1,1 1.5,0 a0.75,0.75 0 1,1 -1.5,0z" transform="matrix(1,0,0,-1,2,52)" fill="rgb(255,255,255)" stroke="rgb(0,0,0)" stroke-width="0.0010cm" stroke-linecap="round" stroke-linejoin="round" shaper:cutDepth="0" /><path d="M40.75,38.5 a0.75,0.75 0 1,1 1.5,0 a0.75,0.75 0 1,1 -1.5,0z" transform="matrix(1,0,0,-1,2,52)" fill="rgb(255,255,255)" stroke="rgb(0,0,0)" stroke-width="0.0010cm" stroke-linecap="round" stroke-linejoin="round" shaper:cutDepth="0" /><path d="M40.75,43.5 a0.75,0.75 0 1,1 1.5,0 a0.75,0.75 0 1,1 -1.5,0z" transform="matrix(1,0,0,-1,2,52)" fill="rgb(255,255,255)" stroke="rgb(0,0,0)" stroke-width="0.0010cm" stroke-linecap="round" stroke-linejoin="round" shaper:cutDepth="0" /><path d="M35.75,43.5 a0.75,0.75 0 1,1 1.5,0 a0.75,0.75 0 1,1 -1.5,0z" transform="matrix(1,0,0,-1,2,52)" fill="rgb(255,255,255)" stroke="rgb(0,0,0)" stroke-width="0.0010cm" stroke-linecap="round" stroke-linejoin="round" shaper:cutDepth="0" /><path d="M35.75,38.5 a0.75,0.75 0 1,1 1.5,0 a0.75,0.75 0 1,1 -1.5,0z" transform="matrix(1,0,0,-1,2,52)" fill="rgb(255,255,255)" stroke="rgb(0,0,0)" stroke-width="0.0010cm" stroke-linecap="round" stroke-linejoin="round" shaper:cutDepth="0" /><path d="M35.75,33.5 a0.75,0.75 0 1,1 1.5,0 a0.75,0.75 0 1,1 -1.5,0z" transform="matrix(1,0,0,-1,2,52)" fill="rgb(255,255,255)" stroke="rgb(0,0,0)" stroke-width="0.0010cm" stroke-linecap="round" stroke-linejoin="round" shaper:cutDepth="0" /><path d="M35.75,28.5 a0.75,0.75 0 1,1 1.5,0 a0.75,0.75 0 1,1 -1.5,0z" transform="matrix(1,0,0,-1,2,52)" fill="rgb(255,255,255)" stroke="rgb(0,0,0)" stroke-width="0.0010cm" stroke-linecap="round" stroke-linejoin="round" shaper:cutDepth="0" /><path d="M35.75,23.5 a0.75,0.75 0 1,1 1.5,0 a0.75,0.75 0 1,1 -1.5,0z" transform="matrix(1,0,0,-1,2,52)" fill="rgb(255,255,255)" stroke="rgb(0,0,0)" stroke-width="0.0010cm" stroke-linecap="round" stroke-linejoin="round" shaper:cutDepth="0" /><path d="M35.75,18.5 a0.75,0.75 0 1,1 1.5,0 a0.75,0.75 0 1,1 -1.5,0z" transform="matrix(1,0,0,-1,2,52)" fill="rgb(255,255,255)" stroke="rgb(0,0,0)" stroke-width="0.0010cm" stroke-linecap="round" stroke-linejoin="round" shaper:cutDepth="0" /><path d="M35.75,13.5 a0.75,0.75 0 1,1 1.5,0 a0.75,0.75 0 1,1 -1.5,0z" transform="matrix(1,0,0,-1,2,52)" fill="rgb(255,255,255)" stroke="rgb(0,0,0)" stroke-width="0.0010cm" stroke-linecap="round" stroke-linejoin="round" shaper:cutDepth="0" /><path d="M35.75,8.5 a0.75,0.75 0 1,1 1.5,0 a0.75,0.75 0 1,1 -1.5,0z" transform="matrix(1,0,0,-1,2,52)" fill="rgb(255,255,255)" stroke="rgb(0,0,0)" stroke-width="0.0010cm" stroke-linecap="round" stroke-linejoin="round" shaper:cutDepth="0" /><path d="M30.75,8.5 a0.75,0.75 0 1,1 1.5,0 a0.75,0.75 0 1,1 -1.5,0z" transform="matrix(1,0,0,-1,2,52)" fill="rgb(255,255,255)" stroke="rgb(0,0,0)" stroke-width="0.0010cm" stroke-linecap="round" stroke-linejoin="round" shaper:cutDepth="0" /><path d="M30.75,13.5 a0.75,0.75 0 1,1 1.5,0 a0.75,0.75 0 1,1 -1.5,0z" transform="matrix(1,0,0,-1,2,52)" fill="rgb(255,255,255)" stroke="rgb(0,0,0)" stroke-width="0.0010cm" stroke-linecap="round" stroke-linejoin="round" shaper:cutDepth="0" /><path d="M10.75,18.5 a0.75,0.75 0 1,1 1.5,0 a0.75,0.75 0 1,1 -1.5,0z" transform="matrix(1,0,0,-1,2,52)" fill="rgb(255,255,255)" stroke="rgb(0,0,0)" stroke-width="0.0010cm" stroke-linecap="round" stroke-linejoin="round" shaper:cutDepth="0" /><path d="M33.85,16 a0.15,0.15 0 1,1 0.3,0 a0.15,0.15 0 1,1 -0.3,0z" transform="matrix(1,0,0,-1,2,52)" fill="rgb(255,255,255)" stroke="rgb(0,0,0)" stroke-width="0.0010cm" stroke-linecap="round" stroke-linejoin="round" shaper:cutDepth="0" /><path d="M10.75,13.5 a0.75,0.75 0 1,1 1.5,0 a0.75,0.75 0 1,1 -1.5,0z" transform="matrix(1,0,0,-1,2,52)" fill="rgb(255,255,255)" stroke="rgb(0,0,0)" stroke-width="0.0010cm" stroke-linecap="round" stroke-linejoin="round" shaper:cutDepth="0" /><path d="M46.3,26 a0.15,0.15 0 1,1 0.3,0 a0.15,0.15 0 1,1 -0.3,0z" transform="matrix(1,0,0,-1,2,52)" fill="rgb(255,255,255)" stroke="rgb(0,0,0)" stroke-width="0.0010cm" stroke-linecap="round" stroke-linejoin="round" shaper:cutDepth="0" /><path d="M23.85,48.45 a0.15,0.15 0 1,1 0.3,0 a0.15,0.15 0 1,1 -0.3,0z" transform="matrix(1,0,0,-1,2,52)" fill="rgb(255,255,255)" stroke="rgb(0,0,0)" stroke-width="0.0010cm" stroke-linecap="round" stroke-linejoin="round" shaper:cutDepth="0" /><path d="M10.75,8.5 a0.75,0.75 0 1,1 1.5,0 a0.75,0.75 0 1,1 -1.5,0z" transform="matrix(1,0,0,-1,2,52)" fill="rgb(255,255,255)" stroke="rgb(0,0,0)" stroke-width="0.0010cm" stroke-linecap="round" stroke-linejoin="round" shaper:cutDepth="0" /><path d="M15.75,8.5 a0.75,0.75 0 1,1 1.5,0 a0.75,0.75 0 1,1 -1.5,0z" transform="matrix(1,0,0,-1,2,52)" fill="rgb(255,255,255)" stroke="rgb(0,0,0)" stroke-width="0.0010cm" stroke-linecap="round" stroke-linejoin="round" shaper:cutDepth="0" /><path d="M15.75,13.5 a0.75,0.75 0 1,1 1.5,0 a0.75,0.75 0 1,1 -1.5,0z" transform="matrix(1,0,0,-1,2,52)" fill="rgb(255,255,255)" stroke="rgb(0,0,0)" stroke-width="0.0010cm" stroke-linecap="round" stroke-linejoin="round" shaper:cutDepth="0" /><path d="M15.75,18.5 a0.75,0.75 0 1,1 1.5,0 a0.75,0.75 0 1,1 -1.5,0z" transform="matrix(1,0,0,-1,2,52)" fill="rgb(255,255,255)" stroke="rgb(0,0,0)" stroke-width="0.0010cm" stroke-linecap="round" stroke-linejoin="round" shaper:cutDepth="0" /><path d="M15.75,23.5 a0.75,0.75 0 1,1 1.5,0 a0.75,0.75 0 1,1 -1.5,0z" transform="matrix(1,0,0,-1,2,52)" fill="rgb(255,255,255)" stroke="rgb(0,0,0)" stroke-width="0.0010cm" stroke-linecap="round" stroke-linejoin="round" shaper:cutDepth="0" /><path d="M15.75,28.5 a0.75,0.75 0 1,1 1.5,0 a0.75,0.75 0 1,1 -1.5,0z" transform="matrix(1,0,0,-1,2,52)" fill="rgb(255,255,255)" stroke="rgb(0,0,0)" stroke-width="0.0010cm" stroke-linecap="round" stroke-linejoin="round" shaper:cutDepth="0" /><path d="M15.75,33.5 a0.75,0.75 0 1,1 1.5,0 a0.75,0.75 0 1,1 -1.5,0z" transform="matrix(1,0,0,-1,2,52)" fill="rgb(255,255,255)" stroke="rgb(0,0,0)" stroke-width="0.0010cm" stroke-linecap="round" stroke-linejoin="round" shaper:cutDepth="0" /><path d="M15.75,38.5 a0.75,0.75 0 1,1 1.5,0 a0.75,0.75 0 1,1 -1.5,0z" transform="matrix(1,0,0,-1,2,52)" fill="rgb(255,255,255)" stroke="rgb(0,0,0)" stroke-width="0.0010cm" stroke-linecap="round" stroke-linejoin="round" shaper:cutDepth="0" /><path d="M15.75,43.5 a0.75,0.75 0 1,1 1.5,0 a0.75,0.75 0 1,1 -1.5,0z" transform="matrix(1,0,0,-1,2,52)" fill="rgb(255,255,255)" stroke="rgb(0,0,0)" stroke-width="0.0010cm" stroke-linecap="round" stroke-linejoin="round" shaper:cutDepth="0" /><path d="M20.75,43.5 a0.75,0.75 0 1,1 1.5,0 a0.75,0.75 0 1,1 -1.5,0z" transform="matrix(1,0,0,-1,2,52)" fill="rgb(255,255,255)" stroke="rgb(0,0,0)" stroke-width="0.0010cm" stroke-linecap="round" stroke-linejoin="round" shaper:cutDepth="0" /><path d="M20.75,38.5 a0.75,0.75 0 1,1 1.5,0 a0.75,0.75 0 1,1 -1.5,0z" transform="matrix(1,0,0,-1,2,52)" fill="rgb(255,255,255)" stroke="rgb(0,0,0)" stroke-width="0.0010cm" stroke-linecap="round" stroke-linejoin="round" shaper:cutDepth="0" /><path d="M20.75,33.5 a0.75,0.75 0 1,1 1.5,0 a0.75,0.75 0 1,1 -1.5,0z" transform="matrix(1,0,0,-1,2,52)" fill="rgb(255,255,255)" stroke="rgb(0,0,0)" stroke-width="0.0010cm" stroke-linecap="round" stroke-linejoin="round" shaper:cutDepth="0" /><path d="M20.75,28.5 a0.75,0.75 0 1,1 1.5,0 a0.75,0.75 0 1,1 -1.5,0z" transform="matrix(1,0,0,-1,2,52)" fill="rgb(255,255,255)" stroke="rgb(0,0,0)" stroke-width="0.0010cm" stroke-linecap="round" stroke-linejoin="round" shaper:cutDepth="0" /><path d="M20.75,23.5 a0.75,0.75 0 1,1 1.5,0 a0.75,0.75 0 1,1 -1.5,0z" transform="matrix(1,0,0,-1,2,52)" fill="rgb(255,255,255)" stroke="rgb(0,0,0)" stroke-width="0.0010cm" stroke-linecap="round" stroke-linejoin="round" shaper:cutDepth="0" /><path d="M20.75,18.5 a0.75,0.75 0 1,1 1.5,0 a0.75,0.75 0 1,1 -1.5,0z" transform="matrix(1,0,0,-1,2,52)" fill="rgb(255,255,255)" stroke="rgb(0,0,0)" stroke-width="0.0010cm" stroke-linecap="round" stroke-linejoin="round" shaper:cutDepth="0" /><path d="M20.75,13.5 a0.75,0.75 0 1,1 1.5,0 a0.75,0.75 0 1,1 -1.5,0z" transform="matrix(1,0,0,-1,2,52)" fill="rgb(255,255,255)" stroke="rgb(0,0,0)" stroke-width="0.0010cm" stroke-linecap="round" stroke-linejoin="round" shaper:cutDepth="0" /><path d="M20.75,8.5 a0.75,0.75 0 1,1 1.5,0 a0.75,0.75 0 1,1 -1.5,0z" transform="matrix(1,0,0,-1,2,52)" fill="rgb(255,255,255)" stroke="rgb(0,0,0)" stroke-width="0.0010cm" stroke-linecap="round" stroke-linejoin="round" shaper:cutDepth="0" /><path d="M30.75,18.5 a0.75,0.75 0 1,1 1.5,0 a0.75,0.75 0 1,1 -1.5,0z" transform="matrix(1,0,0,-1,2,52)" fill="rgb(255,255,255)" stroke="rgb(0,0,0)" stroke-width="0.0010cm" stroke-linecap="round" stroke-linejoin="round" shaper:cutDepth="0" /><path d="M30.75,23.5 a0.75,0.75 0 1,1 1.5,0 a0.75,0.75 0 1,1 -1.5,0z" transform="matrix(1,0,0,-1,2,52)" fill="rgb(255,255,255)" stroke="rgb(0,0,0)" stroke-width="0.0010cm" stroke-linecap="round" stroke-linejoin="round" shaper:cutDepth="0" /><path d="M25.75,8.5 a0.75,0.75 0 1,1 1.5,0 a0.75,0.75 0 1,1 -1.5,0z" transform="matrix(1,0,0,-1,2,52)" fill="rgb(255,255,255)" stroke="rgb(0,0,0)" stroke-width="0.0010cm" stroke-linecap="round" stroke-linejoin="round" shaper:cutDepth="0" /><path d="M25.75,13.5 a0.75,0.75 0 1,1 1.5,0 a0.75,0.75 0 1,1 -1.5,0z" transform="matrix(1,0,0,-1,2,52)" fill="rgb(255,255,255)" stroke="rgb(0,0,0)" stroke-width="0.0010cm" stroke-linecap="round" stroke-linejoin="round" shaper:cutDepth="0" /><path d="M23.85,3.55 a0.15,0.15 0 1,1 0.3,0 a0.15,0.15 0 1,1 -0.3,0z" transform="matrix(1,0,0,-1,2,52)" fill="rgb(255,255,255)" stroke="rgb(0,0,0)" stroke-width="0.0010cm" stroke-linecap="round" stroke-linejoin="round" shaper:cutDepth="0" /><path d="M30.75,43.5 a0.75,0.75 0 1,1 1.5,0 a0.75,0.75 0 1,1 -1.5,0z" transform="matrix(1,0,0,-1,2,52)" fill="rgb(255,255,255)" stroke="rgb(0,0,0)" stroke-width="0.0010cm" stroke-linecap="round" stroke-linejoin="round" shaper:cutDepth="0" /><path d="M25.75,43.5 a0.75,0.75 0 1,1 1.5,0 a0.75,0.75 0 1,1 -1.5,0z" transform="matrix(1,0,0,-1,2,52)" fill="rgb(255,255,255)" stroke="rgb(0,0,0)" stroke-width="0.0010cm" stroke-linecap="round" stroke-linejoin="round" shaper:cutDepth="0" /><path d="M33.85,36 a0.15,0.15 0 1,1 0.3,0 a0.15,0.15 0 1,1 -0.3,0z" transform="matrix(1,0,0,-1,2,52)" fill="rgb(255,255,255)" stroke="rgb(0,0,0)" stroke-width="0.0010cm" stroke-linecap="round" stroke-linejoin="round" shaper:cutDepth="0" /><path d="M30.75,28.5 a0.75,0.75 0 1,1 1.5,0 a0.75,0.75 0 1,1 -1.5,0z" transform="matrix(1,0,0,-1,2,52)" fill="rgb(255,255,255)" stroke="rgb(0,0,0)" stroke-width="0.0010cm" stroke-linecap="round" stroke-linejoin="round" shaper:cutDepth="0" /><path d="M1.4,26 a0.15,0.15 0 1,1 0.3,0 a0.15,0.15 0 1,1 -0.3,0z" transform="matrix(1,0,0,-1,2,52)" fill="rgb(255,255,255)" stroke="rgb(0,0,0)" stroke-width="0.0010cm" stroke-linecap="round" stroke-linejoin="round" shaper:cutDepth="0" /><path d="M25.75,23.5 a0.75,0.75 0 1,1 1.5,0 a0.75,0.75 0 1,1 -1.5,0z" transform="matrix(1,0,0,-1,2,52)" fill="rgb(255,255,255)" stroke="rgb(0,0,0)" stroke-width="0.0010cm" stroke-linecap="round" stroke-linejoin="round" shaper:cutDepth="0" /><path d="M25.75,28.5 a0.75,0.75 0 1,1 1.5,0 a0.75,0.75 0 1,1 -1.5,0z" transform="matrix(1,0,0,-1,2,52)" fill="rgb(255,255,255)" stroke="rgb(0,0,0)" stroke-width="0.0010cm" stroke-linecap="round" stroke-linejoin="round" shaper:cutDepth="0" /><path d="M30.75,38.5 a0.75,0.75 0 1,1 1.5,0 a0.75,0.75 0 1,1 -1.5,0z" transform="matrix(1,0,0,-1,2,52)" fill="rgb(255,255,255)" stroke="rgb(0,0,0)" stroke-width="0.0010cm" stroke-linecap="round" stroke-linejoin="round" shaper:cutDepth="0" /><path d="M25.75,38.5 a0.75,0.75 0 1,1 1.5,0 a0.75,0.75 0 1,1 -1.5,0z" transform="matrix(1,0,0,-1,2,52)" fill="rgb(255,255,255)" stroke="rgb(0,0,0)" stroke-width="0.0010cm" stroke-linecap="round" stroke-linejoin="round" shaper:cutDepth="0" /><path d="M30.75,33.5 a0.75,0.75 0 1,1 1.5,0 a0.75,0.75 0 1,1 -1.5,0z" transform="matrix(1,0,0,-1,2,52)" fill="rgb(255,255,255)" stroke="rgb(0,0,0)" stroke-width="0.0010cm" stroke-linecap="round" stroke-linejoin="round" shaper:cutDepth="0" /><path d="M25.75,18.5 a0.75,0.75 0 1,1 1.5,0 a0.75,0.75 0 1,1 -1.5,0z" transform="matrix(1,0,0,-1,2,52)" fill="rgb(255,255,255)" stroke="rgb(0,0,0)" stroke-width="0.0010cm" stroke-linecap="round" stroke-linejoin="round" shaper:cutDepth="0" /><path d="M25.75,33.5 a0.75,0.75 0 1,1 1.5,0 a0.75,0.75 0 1,1 -1.5,0z" transform="matrix(1,0,0,-1,2,52)" fill="rgb(255,255,255)" stroke="rgb(0,0,0)" stroke-width="0.0010cm" stroke-linecap="round" stroke-linejoin="round" shaper:cutDepth="0" /></svg>