<?xml version="1.0" encoding="utf-8"?>
<!-- Generator: Fusion 360, Shaper Origin Export Add-In, Version 1.6.3  -->
<svg xmlns="http://www.w3.org/2000/svg" xmlns:xlink="http://www.w3.org/1999/xlink" xmlns:shaper="http://www.shapertools.com/namespaces/shaper" shaper:fusionaddin="version:1.6.3" width="48.4cm" height="48.4cm" version="1.1" x="0cm" y="0cm" viewBox="0 0 48.4 48.4" enable-background="new 0 0 48.4 48.4" xml:space="preserve"><path d="M0,0 L48.4,0 48.4,48.4 0,48.4 0,0z" transform="matrix(1,0,0,-1,-0,48.4)" fill="rgb(0,0,0)" shaper:cutDepth="0" stroke-linecap="round" stroke-linejoin="round" /><path d="M24.9554403,5.4 a0.4445597,0.4445597 0 1,1 0.8891194,0 a0.4445597,0.4445597 0 1,1 -0.8891194,0z" transform="matrix(1,0,0,-1,-0,48.4)" fill="rgb(255,255,255)" stroke="rgb(0,0,0)" stroke-width="0.0010cm" stroke-linecap="round" stroke-linejoin="round" shaper:cutDepth="0" /><path d="M14.9554403,13 a0.4445597,0.4445597 0 1,1 0.8891194,0 a0.4445597,0.4445597 0 1,1 -0.8891194,0z" transform="matrix(1,0,0,-1,-0,48.4)" fill="rgb(255,255,255)" stroke="rgb(0,0,0)" stroke-width="0.0010cm" stroke-linecap="round" stroke-linejoin="round" shaper:cutDepth="0" /><path d="M22.5554403,13 a0.4445597,0.4445597 0 1,1 0.8891194,0 a0.4445597,0.4445597 0 1,1 -0.8891194,0z" transform="matrix(1,0,0,-1,-0,48.4)" fill="rgb(255,255,255)" stroke="rgb(0,0,0)" stroke-width="0.0010cm" stroke-linecap="round" stroke-linejoin="round" shaper:cutDepth="0" /><path d="M22.5554403,5.4 a0.4445597,0.4445597 0 1,1 0.8891194,0 a0.4445597,0.4445597 0 1,1 -0.8891194,0z" transform="matrix(1,0,0,-1,-0,48.4)" fill="rgb(255,255,255)" stroke="rgb(0,0,0)" stroke-width="0.0010cm" stroke-linecap="round" stroke-linejoin="round" shaper:cutDepth="0" /><path d="M14.9554403,5.4 a0.4445597,0.4445597 0 1,1 0.8891194,0 a0.4445597,0.4445597 0 1,1 -0.8891194,0z" transform="matrix(1,0,0,-1,-0,48.4)" fill="rgb(255,255,255)" stroke="rgb(0,0,0)" stroke-width="0.0010cm" stroke-linecap="round" stroke-linejoin="round" shaper:cutDepth="0" /><path d="M4.9554403,13 a0.4445597,0.4445597 0 1,1 0.8891194,0 a0.4445597,0.4445597 0 1,1 -0.8891194,0z" transform="matrix(1,0,0,-1,-0,48.4)" fill="rgb(255,255,255)" stroke="rgb(0,0,0)" stroke-width="0.0010cm" stroke-linecap="round" stroke-linejoin="round" shaper:cutDepth="0" /><path d="M12.5554403,13 a0.4445597,0.4445597 0 1,1 0.8891194,0 a0.4445597,0.4445597 0 1,1 -0.8891194,0z" transform="matrix(1,0,0,-1,-0,48.4)" fill="rgb(255,255,255)" stroke="rgb(0,0,0)" stroke-width="0.0010cm" stroke-linecap="round" stroke-linejoin="round" shaper:cutDepth="0" /><path d="M12.5554403,5.4 a0.4445597,0.4445597 0 1,1 0.8891194,0 a0.4445597,0.4445597 0 1,1 -0.8891194,0z" transform="matrix(1,0,0,-1,-0,48.4)" fill="rgb(255,255,255)" stroke="rgb(0,0,0)" stroke-width="0.0010cm" stroke-linecap="round" stroke-linejoin="round" shaper:cutDepth="0" /><path d="M46.38,1.5941154 L46.38,1.9058846 46.65,2.0617691 46.92,1.9058846 46.92,1.5941154 46.65,1.4382309 46.38,1.5941154z" transform="matrix(1,0,0,-1,-0,48.4)" fill="rgb(255,255,255)" stroke="rgb(0,0,0)" stroke-width="0.0010cm" stroke-linecap="round" stroke-linejoin="round" shaper:cutDepth="0" /><path d="M4.9554403,5.4 a0.4445597,0.4445597 0 1,1 0.8891194,0 a0.4445597,0.4445597 0 1,1 -0.8891194,0z" transform="matrix(1,0,0,-1,-0,48.4)" fill="rgb(255,255,255)" stroke="rgb(0,0,0)" stroke-width="0.0010cm" stroke-linecap="round" stroke-linejoin="round" shaper:cutDepth="0" /><path d="M1.48,1.5941154 L1.48,1.9058846 1.75,2.0617691 2.02,1.9058846 2.02,1.5941154 1.75,1.4382309 1.48,1.5941154z" transform="matrix(1,0,0,-1,-0,48.4)" fill="rgb(255,255,255)" stroke="rgb(0,0,0)" stroke-width="0.0010cm" stroke-linecap="round" stroke-linejoin="round" shaper:cutDepth="0" /><path d="M23.93,24.0441154 L23.93,24.3558846 24.2,24.5117691 24.47,24.3558846 24.47,24.0441154 24.2,23.8882309 23.93,24.0441154z" transform="matrix(1,0,0,-1,-0,48.4)" fill="rgb(255,255,255)" stroke="rgb(0,0,0)" stroke-width="0.0010cm" stroke-linecap="round" stroke-linejoin="round" shaper:cutDepth="0" /><path d="M1.48,46.4941154 L1.48,46.8058846 1.75,46.9617691 2.02,46.8058846 2.02,46.4941154 1.75,46.3382309 1.48,46.4941154z" transform="matrix(1,0,0,-1,-0,48.4)" fill="rgb(255,255,255)" stroke="rgb(0,0,0)" stroke-width="0.0010cm" stroke-linecap="round" stroke-linejoin="round" shaper:cutDepth="0" /><path d="M46.38,46.4941154 L46.38,46.8058846 46.65,46.9617691 46.92,46.8058846 46.92,46.4941154 46.65,46.3382309 46.38,46.4941154z" transform="matrix(1,0,0,-1,-0,48.4)" fill="rgb(255,255,255)" stroke="rgb(0,0,0)" stroke-width="0.0010cm" stroke-linecap="round" stroke-linejoin="round" shaper:cutDepth="0" /><path d="M6.2,6.7 a0.5,0.5 0 1,1 1,0 a0.5,0.5 0 1,1 -1,0z" transform="matrix(1,0,0,-1,-0,48.4)" fill="rgb(255,255,255)" stroke="rgb(0,0,0)" stroke-width="0.0010cm" stroke-linecap="round" stroke-linejoin="round" shaper:cutDepth="0" /><path d="M11.2,6.7 a0.5,0.5 0 1,1 1,0 a0.5,0.5 0 1,1 -1,0z" transform="matrix(1,0,0,-1,-0,48.4)" fill="rgb(255,255,255)" stroke="rgb(0,0,0)" stroke-width="0.0010cm" stroke-linecap="round" stroke-linejoin="round" shaper:cutDepth="0" /><path d="M16.2,6.7 a0.5,0.5 0 1,1 1,0 a0.5,0.5 0 1,1 -1,0z" transform="matrix(1,0,0,-1,-0,48.4)" fill="rgb(255,255,255)" stroke="rgb(0,0,0)" stroke-width="0.0010cm" stroke-linecap="round" stroke-linejoin="round" shaper:cutDepth="0" /><path d="M21.2,6.7 a0.5,0.5 0 1,1 1,0 a0.5,0.5 0 1,1 -1,0z" transform="matrix(1,0,0,-1,-0,48.4)" fill="rgb(255,255,255)" stroke="rgb(0,0,0)" stroke-width="0.0010cm" stroke-linecap="round" stroke-linejoin="round" shaper:cutDepth="0" /><path d="M26.2,6.7 a0.5,0.5 0 1,1 1,0 a0.5,0.5 0 1,1 -1,0z" transform="matrix(1,0,0,-1,-0,48.4)" fill="rgb(255,255,255)" stroke="rgb(0,0,0)" stroke-width="0.0010cm" stroke-linecap="round" stroke-linejoin="round" shaper:cutDepth="0" /><path d="M31.2,6.7 a0.5,0.5 0 1,1 1,0 a0.5,0.5 0 1,1 -1,0z" transform="matrix(1,0,0,-1,-0,48.4)" fill="rgb(255,255,255)" stroke="rgb(0,0,0)" stroke-width="0.0010cm" stroke-linecap="round" stroke-linejoin="round" shaper:cutDepth="0" /><path d="M36.2,6.7 a0.5,0.5 0 1,1 1,0 a0.5,0.5 0 1,1 -1,0z" transform="matrix(1,0,0,-1,-0,48.4)" fill="rgb(255,255,255)" stroke="rgb(0,0,0)" stroke-width="0.0010cm" stroke-linecap="round" stroke-linejoin="round" shaper:cutDepth="0" /><path d="M41.2,6.7 a0.5,0.5 0 1,1 1,0 a0.5,0.5 0 1,1 -1,0z" transform="matrix(1,0,0,-1,-0,48.4)" fill="rgb(255,255,255)" stroke="rgb(0,0,0)" stroke-width="0.0010cm" stroke-linecap="round" stroke-linejoin="round" shaper:cutDepth="0" /><path d="M6.2,11.7 a0.5,0.5 0 1,1 1,0 a0.5,0.5 0 1,1 -1,0z" transform="matrix(1,0,0,-1,-0,48.4)" fill="rgb(255,255,255)" stroke="rgb(0,0,0)" stroke-width="0.0010cm" stroke-linecap="round" stroke-linejoin="round" shaper:cutDepth="0" /><path d="M11.2,11.7 a0.5,0.5 0 1,1 1,0 a0.5,0.5 0 1,1 -1,0z" transform="matrix(1,0,0,-1,-0,48.4)" fill="rgb(255,255,255)" stroke="rgb(0,0,0)" stroke-width="0.0010cm" stroke-linecap="round" stroke-linejoin="round" shaper:cutDepth="0" /><path d="M16.2,11.7 a0.5,0.5 0 1,1 1,0 a0.5,0.5 0 1,1 -1,0z" transform="matrix(1,0,0,-1,-0,48.4)" fill="rgb(255,255,255)" stroke="rgb(0,0,0)" stroke-width="0.0010cm" stroke-linecap="round" stroke-linejoin="round" shaper:cutDepth="0" /><path d="M21.2,11.7 a0.5,0.5 0 1,1 1,0 a0.5,0.5 0 1,1 -1,0z" transform="matrix(1,0,0,-1,-0,48.4)" fill="rgb(255,255,255)" stroke="rgb(0,0,0)" stroke-width="0.0010cm" stroke-linecap="round" stroke-linejoin="round" shaper:cutDepth="0" /><path d="M26.2,11.7 a0.5,0.5 0 1,1 1,0 a0.5,0.5 0 1,1 -1,0z" transform="matrix(1,0,0,-1,-0,48.4)" fill="rgb(255,255,255)" stroke="rgb(0,0,0)" stroke-width="0.0010cm" stroke-linecap="round" stroke-linejoin="round" shaper:cutDepth="0" /><path d="M31.2,11.7 a0.5,0.5 0 1,1 1,0 a0.5,0.5 0 1,1 -1,0z" transform="matrix(1,0,0,-1,-0,48.4)" fill="rgb(255,255,255)" stroke="rgb(0,0,0)" stroke-width="0.0010cm" stroke-linecap="round" stroke-linejoin="round" shaper:cutDepth="0" /><path d="M36.2,11.7 a0.5,0.5 0 1,1 1,0 a0.5,0.5 0 1,1 -1,0z" transform="matrix(1,0,0,-1,-0,48.4)" fill="rgb(255,255,255)" stroke="rgb(0,0,0)" stroke-width="0.0010cm" stroke-linecap="round" stroke-linejoin="round" shaper:cutDepth="0" /><path d="M41.2,11.7 a0.5,0.5 0 1,1 1,0 a0.5,0.5 0 1,1 -1,0z" transform="matrix(1,0,0,-1,-0,48.4)" fill="rgb(255,255,255)" stroke="rgb(0,0,0)" stroke-width="0.0010cm" stroke-linecap="round" stroke-linejoin="round" shaper:cutDepth="0" /><path d="M6.2,16.7 a0.5,0.5 0 1,1 1,0 a0.5,0.5 0 1,1 -1,0z" transform="matrix(1,0,0,-1,-0,48.4)" fill="rgb(255,255,255)" stroke="rgb(0,0,0)" stroke-width="0.0010cm" stroke-linecap="round" stroke-linejoin="round" shaper:cutDepth="0" /><path d="M11.2,16.7 a0.5,0.5 0 1,1 1,0 a0.5,0.5 0 1,1 -1,0z" transform="matrix(1,0,0,-1,-0,48.4)" fill="rgb(255,255,255)" stroke="rgb(0,0,0)" stroke-width="0.0010cm" stroke-linecap="round" stroke-linejoin="round" shaper:cutDepth="0" /><path d="M16.2,16.7 a0.5,0.5 0 1,1 1,0 a0.5,0.5 0 1,1 -1,0z" transform="matrix(1,0,0,-1,-0,48.4)" fill="rgb(255,255,255)" stroke="rgb(0,0,0)" stroke-width="0.0010cm" stroke-linecap="round" stroke-linejoin="round" shaper:cutDepth="0" /><path d="M21.2,16.7 a0.5,0.5 0 1,1 1,0 a0.5,0.5 0 1,1 -1,0z" transform="matrix(1,0,0,-1,-0,48.4)" fill="rgb(255,255,255)" stroke="rgb(0,0,0)" stroke-width="0.0010cm" stroke-linecap="round" stroke-linejoin="round" shaper:cutDepth="0" /><path d="M26.2,16.7 a0.5,0.5 0 1,1 1,0 a0.5,0.5 0 1,1 -1,0z" transform="matrix(1,0,0,-1,-0,48.4)" fill="rgb(255,255,255)" stroke="rgb(0,0,0)" stroke-width="0.0010cm" stroke-linecap="round" stroke-linejoin="round" shaper:cutDepth="0" /><path d="M31.2,16.7 a0.5,0.5 0 1,1 1,0 a0.5,0.5 0 1,1 -1,0z" transform="matrix(1,0,0,-1,-0,48.4)" fill="rgb(255,255,255)" stroke="rgb(0,0,0)" stroke-width="0.0010cm" stroke-linecap="round" stroke-linejoin="round" shaper:cutDepth="0" /><path d="M36.2,16.7 a0.5,0.5 0 1,1 1,0 a0.5,0.5 0 1,1 -1,0z" transform="matrix(1,0,0,-1,-0,48.4)" fill="rgb(255,255,255)" stroke="rgb(0,0,0)" stroke-width="0.0010cm" stroke-linecap="round" stroke-linejoin="round" shaper:cutDepth="0" /><path d="M41.2,16.7 a0.5,0.5 0 1,1 1,0 a0.5,0.5 0 1,1 -1,0z" transform="matrix(1,0,0,-1,-0,48.4)" fill="rgb(255,255,255)" stroke="rgb(0,0,0)" stroke-width="0.0010cm" stroke-linecap="round" stroke-linejoin="round" shaper:cutDepth="0" /><path d="M6.2,21.7 a0.5,0.5 0 1,1 1,0 a0.5,0.5 0 1,1 -1,0z" transform="matrix(1,0,0,-1,-0,48.4)" fill="rgb(255,255,255)" stroke="rgb(0,0,0)" stroke-width="0.0010cm" stroke-linecap="round" stroke-linejoin="round" shaper:cutDepth="0" /><path d="M11.2,21.7 a0.5,0.5 0 1,1 1,0 a0.5,0.5 0 1,1 -1,0z" transform="matrix(1,0,0,-1,-0,48.4)" fill="rgb(255,255,255)" stroke="rgb(0,0,0)" stroke-width="0.0010cm" stroke-linecap="round" stroke-linejoin="round" shaper:cutDepth="0" /><path d="M16.2,21.7 a0.5,0.5 0 1,1 1,0 a0.5,0.5 0 1,1 -1,0z" transform="matrix(1,0,0,-1,-0,48.4)" fill="rgb(255,255,255)" stroke="rgb(0,0,0)" stroke-width="0.0010cm" stroke-linecap="round" stroke-linejoin="round" shaper:cutDepth="0" /><path d="M21.2,21.7 a0.5,0.5 0 1,1 1,0 a0.5,0.5 0 1,1 -1,0z" transform="matrix(1,0,0,-1,-0,48.4)" fill="rgb(255,255,255)" stroke="rgb(0,0,0)" stroke-width="0.0010cm" stroke-linecap="round" stroke-linejoin="round" shaper:cutDepth="0" /><path d="M26.2,21.7 a0.5,0.5 0 1,1 1,0 a0.5,0.5 0 1,1 -1,0z" transform="matrix(1,0,0,-1,-0,48.4)" fill="rgb(255,255,255)" stroke="rgb(0,0,0)" stroke-width="0.0010cm" stroke-linecap="round" stroke-linejoin="round" shaper:cutDepth="0" /><path d="M31.2,21.7 a0.5,0.5 0 1,1 1,0 a0.5,0.5 0 1,1 -1,0z" transform="matrix(1,0,0,-1,-0,48.4)" fill="rgb(255,255,255)" stroke="rgb(0,0,0)" stroke-width="0.0010cm" stroke-linecap="round" stroke-linejoin="round" shaper:cutDepth="0" /><path d="M36.2,21.7 a0.5,0.5 0 1,1 1,0 a0.5,0.5 0 1,1 -1,0z" transform="matrix(1,0,0,-1,-0,48.4)" fill="rgb(255,255,255)" stroke="rgb(0,0,0)" stroke-width="0.0010cm" stroke-linecap="round" stroke-linejoin="round" shaper:cutDepth="0" /><path d="M41.2,21.7 a0.5,0.5 0 1,1 1,0 a0.5,0.5 0 1,1 -1,0z" transform="matrix(1,0,0,-1,-0,48.4)" fill="rgb(255,255,255)" stroke="rgb(0,0,0)" stroke-width="0.0010cm" stroke-linecap="round" stroke-linejoin="round" shaper:cutDepth="0" /><path d="M6.2,26.7 a0.5,0.5 0 1,1 1,0 a0.5,0.5 0 1,1 -1,0z" transform="matrix(1,0,0,-1,-0,48.4)" fill="rgb(255,255,255)" stroke="rgb(0,0,0)" stroke-width="0.0010cm" stroke-linecap="round" stroke-linejoin="round" shaper:cutDepth="0" /><path d="M11.2,26.7 a0.5,0.5 0 1,1 1,0 a0.5,0.5 0 1,1 -1,0z" transform="matrix(1,0,0,-1,-0,48.4)" fill="rgb(255,255,255)" stroke="rgb(0,0,0)" stroke-width="0.0010cm" stroke-linecap="round" stroke-linejoin="round" shaper:cutDepth="0" /><path d="M16.2,26.7 a0.5,0.5 0 1,1 1,0 a0.5,0.5 0 1,1 -1,0z" transform="matrix(1,0,0,-1,-0,48.4)" fill="rgb(255,255,255)" stroke="rgb(0,0,0)" stroke-width="0.0010cm" stroke-linecap="round" stroke-linejoin="round" shaper:cutDepth="0" /><path d="M21.2,26.7 a0.5,0.5 0 1,1 1,0 a0.5,0.5 0 1,1 -1,0z" transform="matrix(1,0,0,-1,-0,48.4)" fill="rgb(255,255,255)" stroke="rgb(0,0,0)" stroke-width="0.0010cm" stroke-linecap="round" stroke-linejoin="round" shaper:cutDepth="0" /><path d="M26.2,26.7 a0.5,0.5 0 1,1 1,0 a0.5,0.5 0 1,1 -1,0z" transform="matrix(1,0,0,-1,-0,48.4)" fill="rgb(255,255,255)" stroke="rgb(0,0,0)" stroke-width="0.0010cm" stroke-linecap="round" stroke-linejoin="round" shaper:cutDepth="0" /><path d="M31.2,26.7 a0.5,0.5 0 1,1 1,0 a0.5,0.5 0 1,1 -1,0z" transform="matrix(1,0,0,-1,-0,48.4)" fill="rgb(255,255,255)" stroke="rgb(0,0,0)" stroke-width="0.0010cm" stroke-linecap="round" stroke-linejoin="round" shaper:cutDepth="0" /><path d="M36.2,26.7 a0.5,0.5 0 1,1 1,0 a0.5,0.5 0 1,1 -1,0z" transform="matrix(1,0,0,-1,-0,48.4)" fill="rgb(255,255,255)" stroke="rgb(0,0,0)" stroke-width="0.0010cm" stroke-linecap="round" stroke-linejoin="round" shaper:cutDepth="0" /><path d="M41.2,26.7 a0.5,0.5 0 1,1 1,0 a0.5,0.5 0 1,1 -1,0z" transform="matrix(1,0,0,-1,-0,48.4)" fill="rgb(255,255,255)" stroke="rgb(0,0,0)" stroke-width="0.0010cm" stroke-linecap="round" stroke-linejoin="round" shaper:cutDepth="0" /><path d="M6.2,31.7 a0.5,0.5 0 1,1 1,0 a0.5,0.5 0 1,1 -1,0z" transform="matrix(1,0,0,-1,-0,48.4)" fill="rgb(255,255,255)" stroke="rgb(0,0,0)" stroke-width="0.0010cm" stroke-linecap="round" stroke-linejoin="round" shaper:cutDepth="0" /><path d="M11.2,31.7 a0.5,0.5 0 1,1 1,0 a0.5,0.5 0 1,1 -1,0z" transform="matrix(1,0,0,-1,-0,48.4)" fill="rgb(255,255,255)" stroke="rgb(0,0,0)" stroke-width="0.0010cm" stroke-linecap="round" stroke-linejoin="round" shaper:cutDepth="0" /><path d="M16.2,31.7 a0.5,0.5 0 1,1 1,0 a0.5,0.5 0 1,1 -1,0z" transform="matrix(1,0,0,-1,-0,48.4)" fill="rgb(255,255,255)" stroke="rgb(0,0,0)" stroke-width="0.0010cm" stroke-linecap="round" stroke-linejoin="round" shaper:cutDepth="0" /><path d="M21.2,31.7 a0.5,0.5 0 1,1 1,0 a0.5,0.5 0 1,1 -1,0z" transform="matrix(1,0,0,-1,-0,48.4)" fill="rgb(255,255,255)" stroke="rgb(0,0,0)" stroke-width="0.0010cm" stroke-linecap="round" stroke-linejoin="round" shaper:cutDepth="0" /><path d="M26.2,31.7 a0.5,0.5 0 1,1 1,0 a0.5,0.5 0 1,1 -1,0z" transform="matrix(1,0,0,-1,-0,48.4)" fill="rgb(255,255,255)" stroke="rgb(0,0,0)" stroke-width="0.0010cm" stroke-linecap="round" stroke-linejoin="round" shaper:cutDepth="0" /><path d="M31.2,31.7 a0.5,0.5 0 1,1 1,0 a0.5,0.5 0 1,1 -1,0z" transform="matrix(1,0,0,-1,-0,48.4)" fill="rgb(255,255,255)" stroke="rgb(0,0,0)" stroke-width="0.0010cm" stroke-linecap="round" stroke-linejoin="round" shaper:cutDepth="0" /><path d="M36.2,31.7 a0.5,0.5 0 1,1 1,0 a0.5,0.5 0 1,1 -1,0z" transform="matrix(1,0,0,-1,-0,48.4)" fill="rgb(255,255,255)" stroke="rgb(0,0,0)" stroke-width="0.0010cm" stroke-linecap="round" stroke-linejoin="round" shaper:cutDepth="0" /><path d="M41.2,31.7 a0.5,0.5 0 1,1 1,0 a0.5,0.5 0 1,1 -1,0z" transform="matrix(1,0,0,-1,-0,48.4)" fill="rgb(255,255,255)" stroke="rgb(0,0,0)" stroke-width="0.0010cm" stroke-linecap="round" stroke-linejoin="round" shaper:cutDepth="0" /><path d="M6.2,36.7 a0.5,0.5 0 1,1 1,0 a0.5,0.5 0 1,1 -1,0z" transform="matrix(1,0,0,-1,-0,48.4)" fill="rgb(255,255,255)" stroke="rgb(0,0,0)" stroke-width="0.0010cm" stroke-linecap="round" stroke-linejoin="round" shaper:cutDepth="0" /><path d="M11.2,36.7 a0.5,0.5 0 1,1 1,0 a0.5,0.5 0 1,1 -1,0z" transform="matrix(1,0,0,-1,-0,48.4)" fill="rgb(255,255,255)" stroke="rgb(0,0,0)" stroke-width="0.0010cm" stroke-linecap="round" stroke-linejoin="round" shaper:cutDepth="0" /><path d="M16.2,36.7 a0.5,0.5 0 1,1 1,0 a0.5,0.5 0 1,1 -1,0z" transform="matrix(1,0,0,-1,-0,48.4)" fill="rgb(255,255,255)" stroke="rgb(0,0,0)" stroke-width="0.0010cm" stroke-linecap="round" stroke-linejoin="round" shaper:cutDepth="0" /><path d="M21.2,36.7 a0.5,0.5 0 1,1 1,0 a0.5,0.5 0 1,1 -1,0z" transform="matrix(1,0,0,-1,-0,48.4)" fill="rgb(255,255,255)" stroke="rgb(0,0,0)" stroke-width="0.0010cm" stroke-linecap="round" stroke-linejoin="round" shaper:cutDepth="0" /><path d="M26.2,36.7 a0.5,0.5 0 1,1 1,0 a0.5,0.5 0 1,1 -1,0z" transform="matrix(1,0,0,-1,-0,48.4)" fill="rgb(255,255,255)" stroke="rgb(0,0,0)" stroke-width="0.0010cm" stroke-linecap="round" stroke-linejoin="round" shaper:cutDepth="0" /><path d="M31.2,36.7 a0.5,0.5 0 1,1 1,0 a0.5,0.5 0 1,1 -1,0z" transform="matrix(1,0,0,-1,-0,48.4)" fill="rgb(255,255,255)" stroke="rgb(0,0,0)" stroke-width="0.0010cm" stroke-linecap="round" stroke-linejoin="round" shaper:cutDepth="0" /><path d="M36.2,36.7 a0.5,0.5 0 1,1 1,0 a0.5,0.5 0 1,1 -1,0z" transform="matrix(1,0,0,-1,-0,48.4)" fill="rgb(255,255,255)" stroke="rgb(0,0,0)" stroke-width="0.0010cm" stroke-linecap="round" stroke-linejoin="round" shaper:cutDepth="0" /><path d="M41.2,36.7 a0.5,0.5 0 1,1 1,0 a0.5,0.5 0 1,1 -1,0z" transform="matrix(1,0,0,-1,-0,48.4)" fill="rgb(255,255,255)" stroke="rgb(0,0,0)" stroke-width="0.0010cm" stroke-linecap="round" stroke-linejoin="round" shaper:cutDepth="0" /><path d="M6.2,41.7 a0.5,0.5 0 1,1 1,0 a0.5,0.5 0 1,1 -1,0z" transform="matrix(1,0,0,-1,-0,48.4)" fill="rgb(255,255,255)" stroke="rgb(0,0,0)" stroke-width="0.0010cm" stroke-linecap="round" stroke-linejoin="round" shaper:cutDepth="0" /><path d="M33.93,34.0441154 L33.93,34.3558846 34.2,34.5117691 34.47,34.3558846 34.47,34.0441154 34.2,33.8882309 33.93,34.0441154z" transform="matrix(1,0,0,-1,-0,48.4)" fill="rgb(255,255,255)" stroke="rgb(0,0,0)" stroke-width="0.0010cm" stroke-linecap="round" stroke-linejoin="round" shaper:cutDepth="0" /><path d="M11.2,41.7 a0.5,0.5 0 1,1 1,0 a0.5,0.5 0 1,1 -1,0z" transform="matrix(1,0,0,-1,-0,48.4)" fill="rgb(255,255,255)" stroke="rgb(0,0,0)" stroke-width="0.0010cm" stroke-linecap="round" stroke-linejoin="round" shaper:cutDepth="0" /><path d="M33.93,14.0441154 L33.93,14.3558846 34.2,14.5117691 34.47,14.3558846 34.47,14.0441154 34.2,13.8882309 33.93,14.0441154z" transform="matrix(1,0,0,-1,-0,48.4)" fill="rgb(255,255,255)" stroke="rgb(0,0,0)" stroke-width="0.0010cm" stroke-linecap="round" stroke-linejoin="round" shaper:cutDepth="0" /><path d="M13.93,14.0441154 L13.93,14.3558846 14.2,14.5117691 14.47,14.3558846 14.47,14.0441154 14.2,13.8882309 13.93,14.0441154z" transform="matrix(1,0,0,-1,-0,48.4)" fill="rgb(255,255,255)" stroke="rgb(0,0,0)" stroke-width="0.0010cm" stroke-linecap="round" stroke-linejoin="round" shaper:cutDepth="0" /><path d="M13.93,34.0441154 L13.93,34.3558846 14.2,34.5117691 14.47,34.3558846 14.47,34.0441154 14.2,33.8882309 13.93,34.0441154z" transform="matrix(1,0,0,-1,-0,48.4)" fill="rgb(255,255,255)" stroke="rgb(0,0,0)" stroke-width="0.0010cm" stroke-linecap="round" stroke-linejoin="round" shaper:cutDepth="0" /><path d="M46.38,24.3558846 L46.65,24.5117691 46.92,24.3558846 46.92,24.0441154 46.65,23.8882309 46.38,24.0441154 46.38,24.3558846z" transform="matrix(1,0,0,-1,-0,48.4)" fill="rgb(255,255,255)" stroke="rgb(0,0,0)" stroke-width="0.0010cm" stroke-linecap="round" stroke-linejoin="round" shaper:cutDepth="0" /><path d="M23.93,1.5941154 L23.93,1.9058846 24.2,2.0617691 24.47,1.9058846 24.47,1.5941154 24.2,1.4382309 23.93,1.5941154z" transform="matrix(1,0,0,-1,-0,48.4)" fill="rgb(255,255,255)" stroke="rgb(0,0,0)" stroke-width="0.0010cm" stroke-linecap="round" stroke-linejoin="round" shaper:cutDepth="0" /><path d="M1.48,24.3558846 L1.75,24.5117691 2.02,24.3558846 2.02,24.0441154 1.75,23.8882309 1.48,24.0441154 1.48,24.3558846z" transform="matrix(1,0,0,-1,-0,48.4)" fill="rgb(255,255,255)" stroke="rgb(0,0,0)" stroke-width="0.0010cm" stroke-linecap="round" stroke-linejoin="round" shaper:cutDepth="0" /><path d="M23.93,46.8058846 L24.2,46.9617691 24.47,46.8058846 24.47,46.4941154 24.2,46.3382309 23.93,46.4941154 23.93,46.8058846z" transform="matrix(1,0,0,-1,-0,48.4)" fill="rgb(255,255,255)" stroke="rgb(0,0,0)" stroke-width="0.0010cm" stroke-linecap="round" stroke-linejoin="round" shaper:cutDepth="0" /><path d="M42.5554403,43 a0.4445597,0.4445597 0 1,1 0.8891194,0 a0.4445597,0.4445597 0 1,1 -0.8891194,0z" transform="matrix(1,0,0,-1,-0,48.4)" fill="rgb(255,255,255)" stroke="rgb(0,0,0)" stroke-width="0.0010cm" stroke-linecap="round" stroke-linejoin="round" shaper:cutDepth="0" /><path d="M34.9554403,43 a0.4445597,0.4445597 0 1,1 0.8891194,0 a0.4445597,0.4445597 0 1,1 -0.8891194,0z" transform="matrix(1,0,0,-1,-0,48.4)" fill="rgb(255,255,255)" stroke="rgb(0,0,0)" stroke-width="0.0010cm" stroke-linecap="round" stroke-linejoin="round" shaper:cutDepth="0" /><path d="M34.9554403,35.4 a0.4445597,0.4445597 0 1,1 0.8891194,0 a0.4445597,0.4445597 0 1,1 -0.8891194,0z" transform="matrix(1,0,0,-1,-0,48.4)" fill="rgb(255,255,255)" stroke="rgb(0,0,0)" stroke-width="0.0010cm" stroke-linecap="round" stroke-linejoin="round" shaper:cutDepth="0" /><path d="M42.5554403,35.4 a0.4445597,0.4445597 0 1,1 0.8891194,0 a0.4445597,0.4445597 0 1,1 -0.8891194,0z" transform="matrix(1,0,0,-1,-0,48.4)" fill="rgb(255,255,255)" stroke="rgb(0,0,0)" stroke-width="0.0010cm" stroke-linecap="round" stroke-linejoin="round" shaper:cutDepth="0" /><path d="M24.9554403,43 a0.4445597,0.4445597 0 1,1 0.8891194,0 a0.4445597,0.4445597 0 1,1 -0.8891194,0z" transform="matrix(1,0,0,-1,-0,48.4)" fill="rgb(255,255,255)" stroke="rgb(0,0,0)" stroke-width="0.0010cm" stroke-linecap="round" stroke-linejoin="round" shaper:cutDepth="0" /><path d="M32.5554403,43 a0.4445597,0.4445597 0 1,1 0.8891194,0 a0.4445597,0.4445597 0 1,1 -0.8891194,0z" transform="matrix(1,0,0,-1,-0,48.4)" fill="rgb(255,255,255)" stroke="rgb(0,0,0)" stroke-width="0.0010cm" stroke-linecap="round" stroke-linejoin="round" shaper:cutDepth="0" /><path d="M32.5554403,35.4 a0.4445597,0.4445597 0 1,1 0.8891194,0 a0.4445597,0.4445597 0 1,1 -0.8891194,0z" transform="matrix(1,0,0,-1,-0,48.4)" fill="rgb(255,255,255)" stroke="rgb(0,0,0)" stroke-width="0.0010cm" stroke-linecap="round" stroke-linejoin="round" shaper:cutDepth="0" /><path d="M24.9554403,35.4 a0.4445597,0.4445597 0 1,1 0.8891194,0 a0.4445597,0.4445597 0 1,1 -0.8891194,0z" transform="matrix(1,0,0,-1,-0,48.4)" fill="rgb(255,255,255)" stroke="rgb(0,0,0)" stroke-width="0.0010cm" stroke-linecap="round" stroke-linejoin="round" shaper:cutDepth="0" /><path d="M14.9554403,43 a0.4445597,0.4445597 0 1,1 0.8891194,0 a0.4445597,0.4445597 0 1,1 -0.8891194,0z" transform="matrix(1,0,0,-1,-0,48.4)" fill="rgb(255,255,255)" stroke="rgb(0,0,0)" stroke-width="0.0010cm" stroke-linecap="round" stroke-linejoin="round" shaper:cutDepth="0" /><path d="M22.5554403,43 a0.4445597,0.4445597 0 1,1 0.8891194,0 a0.4445597,0.4445597 0 1,1 -0.8891194,0z" transform="matrix(1,0,0,-1,-0,48.4)" fill="rgb(255,255,255)" stroke="rgb(0,0,0)" stroke-width="0.0010cm" stroke-linecap="round" stroke-linejoin="round" shaper:cutDepth="0" /><path d="M22.5554403,35.4 a0.4445597,0.4445597 0 1,1 0.8891194,0 a0.4445597,0.4445597 0 1,1 -0.8891194,0z" transform="matrix(1,0,0,-1,-0,48.4)" fill="rgb(255,255,255)" stroke="rgb(0,0,0)" stroke-width="0.0010cm" stroke-linecap="round" stroke-linejoin="round" shaper:cutDepth="0" /><path d="M14.9554403,35.4 a0.4445597,0.4445597 0 1,1 0.8891194,0 a0.4445597,0.4445597 0 1,1 -0.8891194,0z" transform="matrix(1,0,0,-1,-0,48.4)" fill="rgb(255,255,255)" stroke="rgb(0,0,0)" stroke-width="0.0010cm" stroke-linecap="round" stroke-linejoin="round" shaper:cutDepth="0" /><path d="M4.9554403,43 a0.4445597,0.4445597 0 1,1 0.8891194,0 a0.4445597,0.4445597 0 1,1 -0.8891194,0z" transform="matrix(1,0,0,-1,-0,48.4)" fill="rgb(255,255,255)" stroke="rgb(0,0,0)" stroke-width="0.0010cm" stroke-linecap="round" stroke-linejoin="round" shaper:cutDepth="0" /><path d="M12.5554403,43 a0.4445597,0.4445597 0 1,1 0.8891194,0 a0.4445597,0.4445597 0 1,1 -0.8891194,0z" transform="matrix(1,0,0,-1,-0,48.4)" fill="rgb(255,255,255)" stroke="rgb(0,0,0)" stroke-width="0.0010cm" stroke-linecap="round" stroke-linejoin="round" shaper:cutDepth="0" /><path d="M12.5554403,35.4 a0.4445597,0.4445597 0 1,1 0.8891194,0 a0.4445597,0.4445597 0 1,1 -0.8891194,0z" transform="matrix(1,0,0,-1,-0,48.4)" fill="rgb(255,255,255)" stroke="rgb(0,0,0)" stroke-width="0.0010cm" stroke-linecap="round" stroke-linejoin="round" shaper:cutDepth="0" /><path d="M4.9554403,35.4 a0.4445597,0.4445597 0 1,1 0.8891194,0 a0.4445597,0.4445597 0 1,1 -0.8891194,0z" transform="matrix(1,0,0,-1,-0,48.4)" fill="rgb(255,255,255)" stroke="rgb(0,0,0)" stroke-width="0.0010cm" stroke-linecap="round" stroke-linejoin="round" shaper:cutDepth="0" /><path d="M34.9554403,33 a0.4445597,0.4445597 0 1,1 0.8891194,0 a0.4445597,0.4445597 0 1,1 -0.8891194,0z" transform="matrix(1,0,0,-1,-0,48.4)" fill="rgb(255,255,255)" stroke="rgb(0,0,0)" stroke-width="0.0010cm" stroke-linecap="round" stroke-linejoin="round" shaper:cutDepth="0" /><path d="M42.5554403,33 a0.4445597,0.4445597 0 1,1 0.8891194,0 a0.4445597,0.4445597 0 1,1 -0.8891194,0z" transform="matrix(1,0,0,-1,-0,48.4)" fill="rgb(255,255,255)" stroke="rgb(0,0,0)" stroke-width="0.0010cm" stroke-linecap="round" stroke-linejoin="round" shaper:cutDepth="0" /><path d="M42.5554403,25.4 a0.4445597,0.4445597 0 1,1 0.8891194,0 a0.4445597,0.4445597 0 1,1 -0.8891194,0z" transform="matrix(1,0,0,-1,-0,48.4)" fill="rgb(255,255,255)" stroke="rgb(0,0,0)" stroke-width="0.0010cm" stroke-linecap="round" stroke-linejoin="round" shaper:cutDepth="0" /><path d="M34.9554403,25.4 a0.4445597,0.4445597 0 1,1 0.8891194,0 a0.4445597,0.4445597 0 1,1 -0.8891194,0z" transform="matrix(1,0,0,-1,-0,48.4)" fill="rgb(255,255,255)" stroke="rgb(0,0,0)" stroke-width="0.0010cm" stroke-linecap="round" stroke-linejoin="round" shaper:cutDepth="0" /><path d="M24.9554403,33 a0.4445597,0.4445597 0 1,1 0.8891194,0 a0.4445597,0.4445597 0 1,1 -0.8891194,0z" transform="matrix(1,0,0,-1,-0,48.4)" fill="rgb(255,255,255)" stroke="rgb(0,0,0)" stroke-width="0.0010cm" stroke-linecap="round" stroke-linejoin="round" shaper:cutDepth="0" /><path d="M32.5554403,33 a0.4445597,0.4445597 0 1,1 0.8891194,0 a0.4445597,0.4445597 0 1,1 -0.8891194,0z" transform="matrix(1,0,0,-1,-0,48.4)" fill="rgb(255,255,255)" stroke="rgb(0,0,0)" stroke-width="0.0010cm" stroke-linecap="round" stroke-linejoin="round" shaper:cutDepth="0" /><path d="M32.5554403,25.4 a0.4445597,0.4445597 0 1,1 0.8891194,0 a0.4445597,0.4445597 0 1,1 -0.8891194,0z" transform="matrix(1,0,0,-1,-0,48.4)" fill="rgb(255,255,255)" stroke="rgb(0,0,0)" stroke-width="0.0010cm" stroke-linecap="round" stroke-linejoin="round" shaper:cutDepth="0" /><path d="M24.9554403,25.4 a0.4445597,0.4445597 0 1,1 0.8891194,0 a0.4445597,0.4445597 0 1,1 -0.8891194,0z" transform="matrix(1,0,0,-1,-0,48.4)" fill="rgb(255,255,255)" stroke="rgb(0,0,0)" stroke-width="0.0010cm" stroke-linecap="round" stroke-linejoin="round" shaper:cutDepth="0" /><path d="M14.9554403,33 a0.4445597,0.4445597 0 1,1 0.8891194,0 a0.4445597,0.4445597 0 1,1 -0.8891194,0z" transform="matrix(1,0,0,-1,-0,48.4)" fill="rgb(255,255,255)" stroke="rgb(0,0,0)" stroke-width="0.0010cm" stroke-linecap="round" stroke-linejoin="round" shaper:cutDepth="0" /><path d="M22.5554403,33 a0.4445597,0.4445597 0 1,1 0.8891194,0 a0.4445597,0.4445597 0 1,1 -0.8891194,0z" transform="matrix(1,0,0,-1,-0,48.4)" fill="rgb(255,255,255)" stroke="rgb(0,0,0)" stroke-width="0.0010cm" stroke-linecap="round" stroke-linejoin="round" shaper:cutDepth="0" /><path d="M22.5554403,25.4 a0.4445597,0.4445597 0 1,1 0.8891194,0 a0.4445597,0.4445597 0 1,1 -0.8891194,0z" transform="matrix(1,0,0,-1,-0,48.4)" fill="rgb(255,255,255)" stroke="rgb(0,0,0)" stroke-width="0.0010cm" stroke-linecap="round" stroke-linejoin="round" shaper:cutDepth="0" /><path d="M14.9554403,25.4 a0.4445597,0.4445597 0 1,1 0.8891194,0 a0.4445597,0.4445597 0 1,1 -0.8891194,0z" transform="matrix(1,0,0,-1,-0,48.4)" fill="rgb(255,255,255)" stroke="rgb(0,0,0)" stroke-width="0.0010cm" stroke-linecap="round" stroke-linejoin="round" shaper:cutDepth="0" /><path d="M4.9554403,33 a0.4445597,0.4445597 0 1,1 0.8891194,0 a0.4445597,0.4445597 0 1,1 -0.8891194,0z" transform="matrix(1,0,0,-1,-0,48.4)" fill="rgb(255,255,255)" stroke="rgb(0,0,0)" stroke-width="0.0010cm" stroke-linecap="round" stroke-linejoin="round" shaper:cutDepth="0" /><path d="M12.5554403,33 a0.4445597,0.4445597 0 1,1 0.8891194,0 a0.4445597,0.4445597 0 1,1 -0.8891194,0z" transform="matrix(1,0,0,-1,-0,48.4)" fill="rgb(255,255,255)" stroke="rgb(0,0,0)" stroke-width="0.0010cm" stroke-linecap="round" stroke-linejoin="round" shaper:cutDepth="0" /><path d="M12.5554403,25.4 a0.4445597,0.4445597 0 1,1 0.8891194,0 a0.4445597,0.4445597 0 1,1 -0.8891194,0z" transform="matrix(1,0,0,-1,-0,48.4)" fill="rgb(255,255,255)" stroke="rgb(0,0,0)" stroke-width="0.0010cm" stroke-linecap="round" stroke-linejoin="round" shaper:cutDepth="0" /><path d="M4.9554403,25.4 a0.4445597,0.4445597 0 1,1 0.8891194,0 a0.4445597,0.4445597 0 1,1 -0.8891194,0z" transform="matrix(1,0,0,-1,-0,48.4)" fill="rgb(255,255,255)" stroke="rgb(0,0,0)" stroke-width="0.0010cm" stroke-linecap="round" stroke-linejoin="round" shaper:cutDepth="0" /><path d="M34.9554403,23 a0.4445597,0.4445597 0 1,1 0.8891194,0 a0.4445597,0.4445597 0 1,1 -0.8891194,0z" transform="matrix(1,0,0,-1,-0,48.4)" fill="rgb(255,255,255)" stroke="rgb(0,0,0)" stroke-width="0.0010cm" stroke-linecap="round" stroke-linejoin="round" shaper:cutDepth="0" /><path d="M42.5554403,23 a0.4445597,0.4445597 0 1,1 0.8891194,0 a0.4445597,0.4445597 0 1,1 -0.8891194,0z" transform="matrix(1,0,0,-1,-0,48.4)" fill="rgb(255,255,255)" stroke="rgb(0,0,0)" stroke-width="0.0010cm" stroke-linecap="round" stroke-linejoin="round" shaper:cutDepth="0" /><path d="M42.5554403,15.4 a0.4445597,0.4445597 0 1,1 0.8891194,0 a0.4445597,0.4445597 0 1,1 -0.8891194,0z" transform="matrix(1,0,0,-1,-0,48.4)" fill="rgb(255,255,255)" stroke="rgb(0,0,0)" stroke-width="0.0010cm" stroke-linecap="round" stroke-linejoin="round" shaper:cutDepth="0" /><path d="M34.9554403,15.4 a0.4445597,0.4445597 0 1,1 0.8891194,0 a0.4445597,0.4445597 0 1,1 -0.8891194,0z" transform="matrix(1,0,0,-1,-0,48.4)" fill="rgb(255,255,255)" stroke="rgb(0,0,0)" stroke-width="0.0010cm" stroke-linecap="round" stroke-linejoin="round" shaper:cutDepth="0" /><path d="M24.9554403,23 a0.4445597,0.4445597 0 1,1 0.8891194,0 a0.4445597,0.4445597 0 1,1 -0.8891194,0z" transform="matrix(1,0,0,-1,-0,48.4)" fill="rgb(255,255,255)" stroke="rgb(0,0,0)" stroke-width="0.0010cm" stroke-linecap="round" stroke-linejoin="round" shaper:cutDepth="0" /><path d="M32.5554403,23 a0.4445597,0.4445597 0 1,1 0.8891194,0 a0.4445597,0.4445597 0 1,1 -0.8891194,0z" transform="matrix(1,0,0,-1,-0,48.4)" fill="rgb(255,255,255)" stroke="rgb(0,0,0)" stroke-width="0.0010cm" stroke-linecap="round" stroke-linejoin="round" shaper:cutDepth="0" /><path d="M32.5554403,15.4 a0.4445597,0.4445597 0 1,1 0.8891194,0 a0.4445597,0.4445597 0 1,1 -0.8891194,0z" transform="matrix(1,0,0,-1,-0,48.4)" fill="rgb(255,255,255)" stroke="rgb(0,0,0)" stroke-width="0.0010cm" stroke-linecap="round" stroke-linejoin="round" shaper:cutDepth="0" /><path d="M24.9554403,15.4 a0.4445597,0.4445597 0 1,1 0.8891194,0 a0.4445597,0.4445597 0 1,1 -0.8891194,0z" transform="matrix(1,0,0,-1,-0,48.4)" fill="rgb(255,255,255)" stroke="rgb(0,0,0)" stroke-width="0.0010cm" stroke-linecap="round" stroke-linejoin="round" shaper:cutDepth="0" /><path d="M14.9554403,23 a0.4445597,0.4445597 0 1,1 0.8891194,0 a0.4445597,0.4445597 0 1,1 -0.8891194,0z" transform="matrix(1,0,0,-1,-0,48.4)" fill="rgb(255,255,255)" stroke="rgb(0,0,0)" stroke-width="0.0010cm" stroke-linecap="round" stroke-linejoin="round" shaper:cutDepth="0" /><path d="M22.5554403,23 a0.4445597,0.4445597 0 1,1 0.8891194,0 a0.4445597,0.4445597 0 1,1 -0.8891194,0z" transform="matrix(1,0,0,-1,-0,48.4)" fill="rgb(255,255,255)" stroke="rgb(0,0,0)" stroke-width="0.0010cm" stroke-linecap="round" stroke-linejoin="round" shaper:cutDepth="0" /><path d="M22.5554403,15.4 a0.4445597,0.4445597 0 1,1 0.8891194,0 a0.4445597,0.4445597 0 1,1 -0.8891194,0z" transform="matrix(1,0,0,-1,-0,48.4)" fill="rgb(255,255,255)" stroke="rgb(0,0,0)" stroke-width="0.0010cm" stroke-linecap="round" stroke-linejoin="round" shaper:cutDepth="0" /><path d="M14.9554403,15.4 a0.4445597,0.4445597 0 1,1 0.8891194,0 a0.4445597,0.4445597 0 1,1 -0.8891194,0z" transform="matrix(1,0,0,-1,-0,48.4)" fill="rgb(255,255,255)" stroke="rgb(0,0,0)" stroke-width="0.0010cm" stroke-linecap="round" stroke-linejoin="round" shaper:cutDepth="0" /><path d="M4.9554403,23 a0.4445597,0.4445597 0 1,1 0.8891194,0 a0.4445597,0.4445597 0 1,1 -0.8891194,0z" transform="matrix(1,0,0,-1,-0,48.4)" fill="rgb(255,255,255)" stroke="rgb(0,0,0)" stroke-width="0.0010cm" stroke-linecap="round" stroke-linejoin="round" shaper:cutDepth="0" /><path d="M12.5554403,23 a0.4445597,0.4445597 0 1,1 0.8891194,0 a0.4445597,0.4445597 0 1,1 -0.8891194,0z" transform="matrix(1,0,0,-1,-0,48.4)" fill="rgb(255,255,255)" stroke="rgb(0,0,0)" stroke-width="0.0010cm" stroke-linecap="round" stroke-linejoin="round" shaper:cutDepth="0" /><path d="M12.5554403,15.4 a0.4445597,0.4445597 0 1,1 0.8891194,0 a0.4445597,0.4445597 0 1,1 -0.8891194,0z" transform="matrix(1,0,0,-1,-0,48.4)" fill="rgb(255,255,255)" stroke="rgb(0,0,0)" stroke-width="0.0010cm" stroke-linecap="round" stroke-linejoin="round" shaper:cutDepth="0" /><path d="M4.9554403,15.4 a0.4445597,0.4445597 0 1,1 0.8891194,0 a0.4445597,0.4445597 0 1,1 -0.8891194,0z" transform="matrix(1,0,0,-1,-0,48.4)" fill="rgb(255,255,255)" stroke="rgb(0,0,0)" stroke-width="0.0010cm" stroke-linecap="round" stroke-linejoin="round" shaper:cutDepth="0" /><path d="M34.9554403,13 a0.4445597,0.4445597 0 1,1 0.8891194,0 a0.4445597,0.4445597 0 1,1 -0.8891194,0z" transform="matrix(1,0,0,-1,-0,48.4)" fill="rgb(255,255,255)" stroke="rgb(0,0,0)" stroke-width="0.0010cm" stroke-linecap="round" stroke-linejoin="round" shaper:cutDepth="0" /><path d="M42.5554403,13 a0.4445597,0.4445597 0 1,1 0.8891194,0 a0.4445597,0.4445597 0 1,1 -0.8891194,0z" transform="matrix(1,0,0,-1,-0,48.4)" fill="rgb(255,255,255)" stroke="rgb(0,0,0)" stroke-width="0.0010cm" stroke-linecap="round" stroke-linejoin="round" shaper:cutDepth="0" /><path d="M42.5554403,5.4 a0.4445597,0.4445597 0 1,1 0.8891194,0 a0.4445597,0.4445597 0 1,1 -0.8891194,0z" transform="matrix(1,0,0,-1,-0,48.4)" fill="rgb(255,255,255)" stroke="rgb(0,0,0)" stroke-width="0.0010cm" stroke-linecap="round" stroke-linejoin="round" shaper:cutDepth="0" /><path d="M34.9554403,5.4 a0.4445597,0.4445597 0 1,1 0.8891194,0 a0.4445597,0.4445597 0 1,1 -0.8891194,0z" transform="matrix(1,0,0,-1,-0,48.4)" fill="rgb(255,255,255)" stroke="rgb(0,0,0)" stroke-width="0.0010cm" stroke-linecap="round" stroke-linejoin="round" shaper:cutDepth="0" /><path d="M24.9554403,13 a0.4445597,0.4445597 0 1,1 0.8891194,0 a0.4445597,0.4445597 0 1,1 -0.8891194,0z" transform="matrix(1,0,0,-1,-0,48.4)" fill="rgb(255,255,255)" stroke="rgb(0,0,0)" stroke-width="0.0010cm" stroke-linecap="round" stroke-linejoin="round" shaper:cutDepth="0" /><path d="M32.5554403,13 a0.4445597,0.4445597 0 1,1 0.8891194,0 a0.4445597,0.4445597 0 1,1 -0.8891194,0z" transform="matrix(1,0,0,-1,-0,48.4)" fill="rgb(255,255,255)" stroke="rgb(0,0,0)" stroke-width="0.0010cm" stroke-linecap="round" stroke-linejoin="round" shaper:cutDepth="0" /><path d="M32.5554403,5.4 a0.4445597,0.4445597 0 1,1 0.8891194,0 a0.4445597,0.4445597 0 1,1 -0.8891194,0z" transform="matrix(1,0,0,-1,-0,48.4)" fill="rgb(255,255,255)" stroke="rgb(0,0,0)" stroke-width="0.0010cm" stroke-linecap="round" stroke-linejoin="round" shaper:cutDepth="0" /><path d="M16.2,41.7 a0.5,0.5 0 1,1 1,0 a0.5,0.5 0 1,1 -1,0z" transform="matrix(1,0,0,-1,-0,48.4)" fill="rgb(255,255,255)" stroke="rgb(0,0,0)" stroke-width="0.0010cm" stroke-linecap="round" stroke-linejoin="round" shaper:cutDepth="0" /><path d="M21.2,41.7 a0.5,0.5 0 1,1 1,0 a0.5,0.5 0 1,1 -1,0z" transform="matrix(1,0,0,-1,-0,48.4)" fill="rgb(255,255,255)" stroke="rgb(0,0,0)" stroke-width="0.0010cm" stroke-linecap="round" stroke-linejoin="round" shaper:cutDepth="0" /><path d="M36.2,41.7 a0.5,0.5 0 1,1 1,0 a0.5,0.5 0 1,1 -1,0z" transform="matrix(1,0,0,-1,-0,48.4)" fill="rgb(255,255,255)" stroke="rgb(0,0,0)" stroke-width="0.0010cm" stroke-linecap="round" stroke-linejoin="round" shaper:cutDepth="0" /><path d="M31.2,41.7 a0.5,0.5 0 1,1 1,0 a0.5,0.5 0 1,1 -1,0z" transform="matrix(1,0,0,-1,-0,48.4)" fill="rgb(255,255,255)" stroke="rgb(0,0,0)" stroke-width="0.0010cm" stroke-linecap="round" stroke-linejoin="round" shaper:cutDepth="0" /><path d="M41.2,41.7 a0.5,0.5 0 1,1 1,0 a0.5,0.5 0 1,1 -1,0z" transform="matrix(1,0,0,-1,-0,48.4)" fill="rgb(255,255,255)" stroke="rgb(0,0,0)" stroke-width="0.0010cm" stroke-linecap="round" stroke-linejoin="round" shaper:cutDepth="0" /><path d="M26.2,41.7 a0.5,0.5 0 1,1 1,0 a0.5,0.5 0 1,1 -1,0z" transform="matrix(1,0,0,-1,-0,48.4)" fill="rgb(255,255,255)" stroke="rgb(0,0,0)" stroke-width="0.0010cm" stroke-linecap="round" stroke-linejoin="round" shaper:cutDepth="0" /></svg>