<?xml version="1.0" encoding="utf-8"?>
<!-- Generator: Fusion 360, Shaper Origin Export Add-In, Version 1.6.3  -->
<svg xmlns="http://www.w3.org/2000/svg" xmlns:xlink="http://www.w3.org/1999/xlink" xmlns:shaper="http://www.shapertools.com/namespaces/shaper" shaper:fusionaddin="version:1.6.3" width="54cm" height="50cm" version="1.1" x="0cm" y="0cm" viewBox="0 0 54 50" enable-background="new 0 0 54 50" xml:space="preserve"><path d="M54,0 L54,50 0,50 0,0 54,0z" transform="matrix(1,0,0,-1,-0,50)" fill="rgb(0,0,0)" shaper:cutDepth="0" stroke-linecap="round" stroke-linejoin="round" /><path d="M15.8473088,4.1 L5.8473088,4.1 5.8473088,4.4 15.8473088,4.4 15.8473088,4.1z" transform="matrix(1,0,0,-1,-0,50)" fill="rgb(255,255,255)" stroke="rgb(0,0,0)" stroke-width="0.0010cm" stroke-linecap="round" stroke-linejoin="round" shaper:cutDepth="0" /><path d="M5.8473088,49.1526912 L15.8473088,49.1526912 15.8473088,48.8526912 5.8473088,48.8526912 5.8473088,49.1526912z" transform="matrix(1,0,0,-1,-0,50)" fill="rgb(255,255,255)" stroke="rgb(0,0,0)" stroke-width="0.0010cm" stroke-linecap="round" stroke-linejoin="round" shaper:cutDepth="0" /><path d="M40.9,4.1 L30.9,4.1 30.9,4.4 40.9,4.4 40.9,4.1z" transform="matrix(1,0,0,-1,-0,50)" fill="rgb(255,255,255)" stroke="rgb(0,0,0)" stroke-width="0.0010cm" stroke-linecap="round" stroke-linejoin="round" shaper:cutDepth="0" /><path d="M0.8473088,9.1 L0.8473088,19.1 1.1473088,19.1 1.1473088,9.1 0.8473088,9.1z" transform="matrix(1,0,0,-1,-0,50)" fill="rgb(255,255,255)" stroke="rgb(0,0,0)" stroke-width="0.0010cm" stroke-linecap="round" stroke-linejoin="round" shaper:cutDepth="0" /><path d="M0.8473088,34.1526912 L0.8473088,44.1526912 1.1473088,44.1526912 1.1473088,34.1526912 0.8473088,34.1526912z" transform="matrix(1,0,0,-1,-0,50)" fill="rgb(255,255,255)" stroke="rgb(0,0,0)" stroke-width="0.0010cm" stroke-linecap="round" stroke-linejoin="round" shaper:cutDepth="0" /><path d="M30.9,49.1526912 L40.9,49.1526912 40.9,48.8526912 30.9,48.8526912 30.9,49.1526912z" transform="matrix(1,0,0,-1,-0,50)" fill="rgb(255,255,255)" stroke="rgb(0,0,0)" stroke-width="0.0010cm" stroke-linecap="round" stroke-linejoin="round" shaper:cutDepth="0" /><path d="M17.35,47.5 a0.15,0.15 0 1,1 0.3,0 a0.15,0.15 0 1,1 -0.3,0z" transform="matrix(1,0,0,-1,-0,50)" fill="rgb(255,255,255)" stroke="rgb(0,0,0)" stroke-width="0.0010cm" stroke-linecap="round" stroke-linejoin="round" shaper:cutDepth="0" /><path d="M47.35,2.5 a0.15,0.15 0 1,1 0.3,0 a0.15,0.15 0 1,1 -0.3,0z" transform="matrix(1,0,0,-1,-0,50)" fill="rgb(255,255,255)" stroke="rgb(0,0,0)" stroke-width="0.0010cm" stroke-linecap="round" stroke-linejoin="round" shaper:cutDepth="0" /><path d="M47.35,47.5 a0.15,0.15 0 1,1 0.3,0 a0.15,0.15 0 1,1 -0.3,0z" transform="matrix(1,0,0,-1,-0,50)" fill="rgb(255,255,255)" stroke="rgb(0,0,0)" stroke-width="0.0010cm" stroke-linecap="round" stroke-linejoin="round" shaper:cutDepth="0" /><path d="M32.35,47.5 a0.15,0.15 0 1,1 0.3,0 a0.15,0.15 0 1,1 -0.3,0z" transform="matrix(1,0,0,-1,-0,50)" fill="rgb(255,255,255)" stroke="rgb(0,0,0)" stroke-width="0.0010cm" stroke-linecap="round" stroke-linejoin="round" shaper:cutDepth="0" /><path d="M2.35,17.5 a0.15,0.15 0 1,1 0.3,0 a0.15,0.15 0 1,1 -0.3,0z" transform="matrix(1,0,0,-1,-0,50)" fill="rgb(255,255,255)" stroke="rgb(0,0,0)" stroke-width="0.0010cm" stroke-linecap="round" stroke-linejoin="round" shaper:cutDepth="0" /><path d="M2.35,2.5 a0.15,0.15 0 1,1 0.3,0 a0.15,0.15 0 1,1 -0.3,0z" transform="matrix(1,0,0,-1,-0,50)" fill="rgb(255,255,255)" stroke="rgb(0,0,0)" stroke-width="0.0010cm" stroke-linecap="round" stroke-linejoin="round" shaper:cutDepth="0" /><path d="M2.35,32.5 a0.15,0.15 0 1,1 0.3,0 a0.15,0.15 0 1,1 -0.3,0z" transform="matrix(1,0,0,-1,-0,50)" fill="rgb(255,255,255)" stroke="rgb(0,0,0)" stroke-width="0.0010cm" stroke-linecap="round" stroke-linejoin="round" shaper:cutDepth="0" /><path d="M32.35,2.5 a0.15,0.15 0 1,1 0.3,0 a0.15,0.15 0 1,1 -0.3,0z" transform="matrix(1,0,0,-1,-0,50)" fill="rgb(255,255,255)" stroke="rgb(0,0,0)" stroke-width="0.0010cm" stroke-linecap="round" stroke-linejoin="round" shaper:cutDepth="0" /><path d="M2.35,47.5 a0.15,0.15 0 1,1 0.3,0 a0.15,0.15 0 1,1 -0.3,0z" transform="matrix(1,0,0,-1,-0,50)" fill="rgb(255,255,255)" stroke="rgb(0,0,0)" stroke-width="0.0010cm" stroke-linecap="round" stroke-linejoin="round" shaper:cutDepth="0" /><path d="M17.35,2.5 a0.15,0.15 0 1,1 0.3,0 a0.15,0.15 0 1,1 -0.3,0z" transform="matrix(1,0,0,-1,-0,50)" fill="rgb(255,255,255)" stroke="rgb(0,0,0)" stroke-width="0.0010cm" stroke-linecap="round" stroke-linejoin="round" shaper:cutDepth="0" /><path d="M53.25,46.55 L53.55,46.55 53.55,45.55 53.25,45.55 53.25,46.55z" transform="matrix(1,0,0,-1,-0,50)" fill="rgb(255,255,255)" stroke="rgb(0,0,0)" stroke-width="0.0010cm" stroke-linecap="round" stroke-linejoin="round" shaper:cutDepth="0" /><path d="M52.55,49.25 L52.55,49.55 53.55,49.55 53.55,49.25 52.55,49.25z" transform="matrix(1,0,0,-1,-0,50)" fill="rgb(255,255,255)" stroke="rgb(0,0,0)" stroke-width="0.0010cm" stroke-linecap="round" stroke-linejoin="round" shaper:cutDepth="0" /><path d="M50.55,49.55 L50.55,49.25 49.55,49.25 49.55,49.55 50.55,49.55z" transform="matrix(1,0,0,-1,-0,50)" fill="rgb(255,255,255)" stroke="rgb(0,0,0)" stroke-width="0.0010cm" stroke-linecap="round" stroke-linejoin="round" shaper:cutDepth="0" /><path d="M1.45,49.55 L1.45,49.25 0.45,49.25 0.45,49.55 1.45,49.55z" transform="matrix(1,0,0,-1,-0,50)" fill="rgb(255,255,255)" stroke="rgb(0,0,0)" stroke-width="0.0010cm" stroke-linecap="round" stroke-linejoin="round" shaper:cutDepth="0" /><path d="M3.45,49.25 L3.45,49.55 4.45,49.55 4.45,49.25 3.45,49.25z" transform="matrix(1,0,0,-1,-0,50)" fill="rgb(255,255,255)" stroke="rgb(0,0,0)" stroke-width="0.0010cm" stroke-linecap="round" stroke-linejoin="round" shaper:cutDepth="0" /><path d="M0.75,45.55 L0.45,45.55 0.45,46.55 0.75,46.55 0.75,45.55z" transform="matrix(1,0,0,-1,-0,50)" fill="rgb(255,255,255)" stroke="rgb(0,0,0)" stroke-width="0.0010cm" stroke-linecap="round" stroke-linejoin="round" shaper:cutDepth="0" /><path d="M3.45,0.45 L3.45,0.75 4.45,0.75 4.45,0.45 3.45,0.45z" transform="matrix(1,0,0,-1,-0,50)" fill="rgb(255,255,255)" stroke="rgb(0,0,0)" stroke-width="0.0010cm" stroke-linecap="round" stroke-linejoin="round" shaper:cutDepth="0" /><path d="M1.45,0.75 L1.45,0.45 0.45,0.45 0.45,0.75 1.45,0.75z" transform="matrix(1,0,0,-1,-0,50)" fill="rgb(255,255,255)" stroke="rgb(0,0,0)" stroke-width="0.0010cm" stroke-linecap="round" stroke-linejoin="round" shaper:cutDepth="0" /><path d="M0.75,3.45 L0.45,3.45 0.45,4.45 0.75,4.45 0.75,3.45z" transform="matrix(1,0,0,-1,-0,50)" fill="rgb(255,255,255)" stroke="rgb(0,0,0)" stroke-width="0.0010cm" stroke-linecap="round" stroke-linejoin="round" shaper:cutDepth="0" /><path d="M50.55,0.75 L50.55,0.45 49.55,0.45 49.55,0.75 50.55,0.75z" transform="matrix(1,0,0,-1,-0,50)" fill="rgb(255,255,255)" stroke="rgb(0,0,0)" stroke-width="0.0010cm" stroke-linecap="round" stroke-linejoin="round" shaper:cutDepth="0" /><path d="M52.55,0.45 L52.55,0.75 53.55,0.75 53.55,0.45 52.55,0.45z" transform="matrix(1,0,0,-1,-0,50)" fill="rgb(255,255,255)" stroke="rgb(0,0,0)" stroke-width="0.0010cm" stroke-linecap="round" stroke-linejoin="round" shaper:cutDepth="0" /><path d="M53.25,4.45 L53.55,4.45 53.55,3.45 53.25,3.45 53.25,4.45z" transform="matrix(1,0,0,-1,-0,50)" fill="rgb(255,255,255)" stroke="rgb(0,0,0)" stroke-width="0.0010cm" stroke-linecap="round" stroke-linejoin="round" shaper:cutDepth="0" /><path d="M45.5,28.5 L45.8,28.5 45.8,26.5 45.5,26.5 45.5,28.5z" transform="matrix(1,0,0,-1,-0,50)" fill="rgb(255,255,255)" stroke="rgb(0,0,0)" stroke-width="0.0010cm" stroke-linecap="round" stroke-linejoin="round" shaper:cutDepth="0" /><path d="M45.5,34 L45.5,36 45.8,36 45.8,34 45.5,34z" transform="matrix(1,0,0,-1,-0,50)" fill="rgb(255,255,255)" stroke="rgb(0,0,0)" stroke-width="0.0010cm" stroke-linecap="round" stroke-linejoin="round" shaper:cutDepth="0" /><path d="M45.5,21 L45.8,21 45.8,19 45.5,19 45.5,21z" transform="matrix(1,0,0,-1,-0,50)" fill="rgb(255,255,255)" stroke="rgb(0,0,0)" stroke-width="0.0010cm" stroke-linecap="round" stroke-linejoin="round" shaper:cutDepth="0" /><path d="M48.95,41.2 L46.95,41.2 46.95,41.5 48.95,41.5 48.95,41.2z" transform="matrix(1,0,0,-1,-0,50)" fill="rgb(255,255,255)" stroke="rgb(0,0,0)" stroke-width="0.0010cm" stroke-linecap="round" stroke-linejoin="round" shaper:cutDepth="0" /><path d="M46.95,13.5 L46.95,13.8 48.95,13.8 48.95,13.5 46.95,13.5z" transform="matrix(1,0,0,-1,-0,50)" fill="rgb(255,255,255)" stroke="rgb(0,0,0)" stroke-width="0.0010cm" stroke-linecap="round" stroke-linejoin="round" shaper:cutDepth="0" /><path d="M39.6186113,31.8828606 a0.15,0.15 0 1,1 0.3,0 a0.15,0.15 0 1,1 -0.3,0z" transform="matrix(1,0,0,-1,-0,50)" fill="rgb(255,255,255)" stroke="rgb(0,0,0)" stroke-width="0.0010cm" stroke-linecap="round" stroke-linejoin="round" shaper:cutDepth="0" /><path d="M39.6186113,11.8828606 a0.15,0.15 0 1,1 0.3,0 a0.15,0.15 0 1,1 -0.3,0z" transform="matrix(1,0,0,-1,-0,50)" fill="rgb(255,255,255)" stroke="rgb(0,0,0)" stroke-width="0.0010cm" stroke-linecap="round" stroke-linejoin="round" shaper:cutDepth="0" /><path d="M39.6186113,26.8828606 a0.15,0.15 0 1,1 0.3,0 a0.15,0.15 0 1,1 -0.3,0z" transform="matrix(1,0,0,-1,-0,50)" fill="rgb(255,255,255)" stroke="rgb(0,0,0)" stroke-width="0.0010cm" stroke-linecap="round" stroke-linejoin="round" shaper:cutDepth="0" /><path d="M39.6186113,36.8828606 a0.15,0.15 0 1,1 0.3,0 a0.15,0.15 0 1,1 -0.3,0z" transform="matrix(1,0,0,-1,-0,50)" fill="rgb(255,255,255)" stroke="rgb(0,0,0)" stroke-width="0.0010cm" stroke-linecap="round" stroke-linejoin="round" shaper:cutDepth="0" /><path d="M39.6186113,16.8828606 a0.15,0.15 0 1,1 0.3,0 a0.15,0.15 0 1,1 -0.3,0z" transform="matrix(1,0,0,-1,-0,50)" fill="rgb(255,255,255)" stroke="rgb(0,0,0)" stroke-width="0.0010cm" stroke-linecap="round" stroke-linejoin="round" shaper:cutDepth="0" /><path d="M39.6186113,21.8828606 a0.15,0.15 0 1,1 0.3,0 a0.15,0.15 0 1,1 -0.3,0z" transform="matrix(1,0,0,-1,-0,50)" fill="rgb(255,255,255)" stroke="rgb(0,0,0)" stroke-width="0.0010cm" stroke-linecap="round" stroke-linejoin="round" shaper:cutDepth="0" /><path d="M39.6186113,41.8828606 a0.15,0.15 0 1,1 0.3,0 a0.15,0.15 0 1,1 -0.3,0z" transform="matrix(1,0,0,-1,-0,50)" fill="rgb(255,255,255)" stroke="rgb(0,0,0)" stroke-width="0.0010cm" stroke-linecap="round" stroke-linejoin="round" shaper:cutDepth="0" /><path d="M46.1,14.1 L46.1,40.9 48.95,40.9 48.95,14.1 46.1,14.1z" transform="matrix(1,0,0,-1,-0,50)" fill="rgb(255,255,255)" stroke="rgb(0,0,0)" stroke-width="0.0010cm" stroke-linecap="round" stroke-linejoin="round" shaper:cutDepth="0" /><path d="M32.8439083,24.2546198 L32.6317763,24.0424878 31.7832481,24.8910159 31.9953802,25.103148 32.8439083,24.2546198z" transform="matrix(1,0,0,-1,-0,50)" fill="rgb(255,255,255)" stroke="rgb(0,0,0)" stroke-width="0.0010cm" stroke-linecap="round" stroke-linejoin="round" shaper:cutDepth="0" /><path d="M7.8439083,39.2546198 L7.6317763,39.0424878 6.7832481,39.8910159 6.9953802,40.103148 7.8439083,39.2546198z" transform="matrix(1,0,0,-1,-0,50)" fill="rgb(255,255,255)" stroke="rgb(0,0,0)" stroke-width="0.0010cm" stroke-linecap="round" stroke-linejoin="round" shaper:cutDepth="0" /><path d="M12.8439083,44.2546198 L12.6317763,44.0424878 11.7832481,44.8910159 11.9953802,45.103148 12.8439083,44.2546198z" transform="matrix(1,0,0,-1,-0,50)" fill="rgb(255,255,255)" stroke="rgb(0,0,0)" stroke-width="0.0010cm" stroke-linecap="round" stroke-linejoin="round" shaper:cutDepth="0" /><path d="M22.8439083,39.2546198 L22.6317763,39.0424878 21.7832481,39.8910159 21.9953802,40.103148 22.8439083,39.2546198z" transform="matrix(1,0,0,-1,-0,50)" fill="rgb(255,255,255)" stroke="rgb(0,0,0)" stroke-width="0.0010cm" stroke-linecap="round" stroke-linejoin="round" shaper:cutDepth="0" /><path d="M7.8439083,34.2546198 L7.6317763,34.0424878 6.7832481,34.8910159 6.9953802,35.103148 7.8439083,34.2546198z" transform="matrix(1,0,0,-1,-0,50)" fill="rgb(255,255,255)" stroke="rgb(0,0,0)" stroke-width="0.0010cm" stroke-linecap="round" stroke-linejoin="round" shaper:cutDepth="0" /><path d="M17.8439083,34.2546198 L17.6317763,34.0424878 16.7832481,34.8910159 16.9953802,35.103148 17.8439083,34.2546198z" transform="matrix(1,0,0,-1,-0,50)" fill="rgb(255,255,255)" stroke="rgb(0,0,0)" stroke-width="0.0010cm" stroke-linecap="round" stroke-linejoin="round" shaper:cutDepth="0" /><path d="M22.8439083,29.2546198 L22.6317763,29.0424878 21.7832481,29.8910159 21.9953802,30.103148 22.8439083,29.2546198z" transform="matrix(1,0,0,-1,-0,50)" fill="rgb(255,255,255)" stroke="rgb(0,0,0)" stroke-width="0.0010cm" stroke-linecap="round" stroke-linejoin="round" shaper:cutDepth="0" /><path d="M17.8439083,24.2546198 L17.6317763,24.0424878 16.7832481,24.8910159 16.9953802,25.103148 17.8439083,24.2546198z" transform="matrix(1,0,0,-1,-0,50)" fill="rgb(255,255,255)" stroke="rgb(0,0,0)" stroke-width="0.0010cm" stroke-linecap="round" stroke-linejoin="round" shaper:cutDepth="0" /><path d="M12.8439083,24.2546198 L12.6317763,24.0424878 11.7832481,24.8910159 11.9953802,25.103148 12.8439083,24.2546198z" transform="matrix(1,0,0,-1,-0,50)" fill="rgb(255,255,255)" stroke="rgb(0,0,0)" stroke-width="0.0010cm" stroke-linecap="round" stroke-linejoin="round" shaper:cutDepth="0" /><path d="M17.8439083,19.2546198 L17.6317763,19.0424878 16.7832481,19.8910159 16.9953802,20.103148 17.8439083,19.2546198z" transform="matrix(1,0,0,-1,-0,50)" fill="rgb(255,255,255)" stroke="rgb(0,0,0)" stroke-width="0.0010cm" stroke-linecap="round" stroke-linejoin="round" shaper:cutDepth="0" /><path d="M7.8439083,14.2546198 L7.6317763,14.0424878 6.7832481,14.8910159 6.9953802,15.103148 7.8439083,14.2546198z" transform="matrix(1,0,0,-1,-0,50)" fill="rgb(255,255,255)" stroke="rgb(0,0,0)" stroke-width="0.0010cm" stroke-linecap="round" stroke-linejoin="round" shaper:cutDepth="0" /><path d="M12.8439083,9.2546198 L12.6317763,9.0424878 11.7832481,9.8910159 11.9953802,10.103148 12.8439083,9.2546198z" transform="matrix(1,0,0,-1,-0,50)" fill="rgb(255,255,255)" stroke="rgb(0,0,0)" stroke-width="0.0010cm" stroke-linecap="round" stroke-linejoin="round" shaper:cutDepth="0" /><path d="M17.8439083,9.2546198 L17.6317763,9.0424878 16.7832481,9.8910159 16.9953802,10.103148 17.8439083,9.2546198z" transform="matrix(1,0,0,-1,-0,50)" fill="rgb(255,255,255)" stroke="rgb(0,0,0)" stroke-width="0.0010cm" stroke-linecap="round" stroke-linejoin="round" shaper:cutDepth="0" /><path d="M37.8439083,29.2546198 L37.6317763,29.0424878 36.7832481,29.8910159 36.9953802,30.103148 37.8439083,29.2546198z" transform="matrix(1,0,0,-1,-0,50)" fill="rgb(255,255,255)" stroke="rgb(0,0,0)" stroke-width="0.0010cm" stroke-linecap="round" stroke-linejoin="round" shaper:cutDepth="0" /><path d="M42.8439083,34.2546198 L42.6317763,34.0424878 41.7832481,34.8910159 41.9953802,35.103148 42.8439083,34.2546198z" transform="matrix(1,0,0,-1,-0,50)" fill="rgb(255,255,255)" stroke="rgb(0,0,0)" stroke-width="0.0010cm" stroke-linecap="round" stroke-linejoin="round" shaper:cutDepth="0" /><path d="M37.8439083,39.2546198 L37.6317763,39.0424878 36.7832481,39.8910159 36.9953802,40.103148 37.8439083,39.2546198z" transform="matrix(1,0,0,-1,-0,50)" fill="rgb(255,255,255)" stroke="rgb(0,0,0)" stroke-width="0.0010cm" stroke-linecap="round" stroke-linejoin="round" shaper:cutDepth="0" /><path d="M42.8439083,39.2546198 L42.6317763,39.0424878 41.7832481,39.8910159 41.9953802,40.103148 42.8439083,39.2546198z" transform="matrix(1,0,0,-1,-0,50)" fill="rgb(255,255,255)" stroke="rgb(0,0,0)" stroke-width="0.0010cm" stroke-linecap="round" stroke-linejoin="round" shaper:cutDepth="0" /><path d="M27.8439083,34.2546198 L27.6317763,34.0424878 26.7832481,34.8910159 26.9953802,35.103148 27.8439083,34.2546198z" transform="matrix(1,0,0,-1,-0,50)" fill="rgb(255,255,255)" stroke="rgb(0,0,0)" stroke-width="0.0010cm" stroke-linecap="round" stroke-linejoin="round" shaper:cutDepth="0" /><path d="M42.8439083,29.2546198 L42.6317763,29.0424878 41.7832481,29.8910159 41.9953802,30.103148 42.8439083,29.2546198z" transform="matrix(1,0,0,-1,-0,50)" fill="rgb(255,255,255)" stroke="rgb(0,0,0)" stroke-width="0.0010cm" stroke-linecap="round" stroke-linejoin="round" shaper:cutDepth="0" /><path d="M22.8439083,14.2546198 L22.6317763,14.0424878 21.7832481,14.8910159 21.9953802,15.103148 22.8439083,14.2546198z" transform="matrix(1,0,0,-1,-0,50)" fill="rgb(255,255,255)" stroke="rgb(0,0,0)" stroke-width="0.0010cm" stroke-linecap="round" stroke-linejoin="round" shaper:cutDepth="0" /><path d="M17.8439083,14.2546198 L17.6317763,14.0424878 16.7832481,14.8910159 16.9953802,15.103148 17.8439083,14.2546198z" transform="matrix(1,0,0,-1,-0,50)" fill="rgb(255,255,255)" stroke="rgb(0,0,0)" stroke-width="0.0010cm" stroke-linecap="round" stroke-linejoin="round" shaper:cutDepth="0" /><path d="M42.8439083,9.2546198 L42.6317763,9.0424878 41.7832481,9.8910159 41.9953802,10.103148 42.8439083,9.2546198z" transform="matrix(1,0,0,-1,-0,50)" fill="rgb(255,255,255)" stroke="rgb(0,0,0)" stroke-width="0.0010cm" stroke-linecap="round" stroke-linejoin="round" shaper:cutDepth="0" /><path d="M12.8439083,19.2546198 L12.6317763,19.0424878 11.7832481,19.8910159 11.9953802,20.103148 12.8439083,19.2546198z" transform="matrix(1,0,0,-1,-0,50)" fill="rgb(255,255,255)" stroke="rgb(0,0,0)" stroke-width="0.0010cm" stroke-linecap="round" stroke-linejoin="round" shaper:cutDepth="0" /><path d="M32.8439083,14.2546198 L32.6317763,14.0424878 31.7832481,14.8910159 31.9953802,15.103148 32.8439083,14.2546198z" transform="matrix(1,0,0,-1,-0,50)" fill="rgb(255,255,255)" stroke="rgb(0,0,0)" stroke-width="0.0010cm" stroke-linecap="round" stroke-linejoin="round" shaper:cutDepth="0" /><path d="M22.8439083,34.2546198 L22.6317763,34.0424878 21.7832481,34.8910159 21.9953802,35.103148 22.8439083,34.2546198z" transform="matrix(1,0,0,-1,-0,50)" fill="rgb(255,255,255)" stroke="rgb(0,0,0)" stroke-width="0.0010cm" stroke-linecap="round" stroke-linejoin="round" shaper:cutDepth="0" /><path d="M27.8439083,44.2546198 L27.6317763,44.0424878 26.7832481,44.8910159 26.9953802,45.103148 27.8439083,44.2546198z" transform="matrix(1,0,0,-1,-0,50)" fill="rgb(255,255,255)" stroke="rgb(0,0,0)" stroke-width="0.0010cm" stroke-linecap="round" stroke-linejoin="round" shaper:cutDepth="0" /><path d="M12.8439083,34.2546198 L12.6317763,34.0424878 11.7832481,34.8910159 11.9953802,35.103148 12.8439083,34.2546198z" transform="matrix(1,0,0,-1,-0,50)" fill="rgb(255,255,255)" stroke="rgb(0,0,0)" stroke-width="0.0010cm" stroke-linecap="round" stroke-linejoin="round" shaper:cutDepth="0" /><path d="M22.8439083,44.2546198 L22.6317763,44.0424878 21.7832481,44.8910159 21.9953802,45.103148 22.8439083,44.2546198z" transform="matrix(1,0,0,-1,-0,50)" fill="rgb(255,255,255)" stroke="rgb(0,0,0)" stroke-width="0.0010cm" stroke-linecap="round" stroke-linejoin="round" shaper:cutDepth="0" /><path d="M37.8439083,19.2546198 L37.6317763,19.0424878 36.7832481,19.8910159 36.9953802,20.103148 37.8439083,19.2546198z" transform="matrix(1,0,0,-1,-0,50)" fill="rgb(255,255,255)" stroke="rgb(0,0,0)" stroke-width="0.0010cm" stroke-linecap="round" stroke-linejoin="round" shaper:cutDepth="0" /><path d="M17.8439083,39.2546198 L17.6317763,39.0424878 16.7832481,39.8910159 16.9953802,40.103148 17.8439083,39.2546198z" transform="matrix(1,0,0,-1,-0,50)" fill="rgb(255,255,255)" stroke="rgb(0,0,0)" stroke-width="0.0010cm" stroke-linecap="round" stroke-linejoin="round" shaper:cutDepth="0" /><path d="M42.8439083,24.2546198 L42.6317763,24.0424878 41.7832481,24.8910159 41.9953802,25.103148 42.8439083,24.2546198z" transform="matrix(1,0,0,-1,-0,50)" fill="rgb(255,255,255)" stroke="rgb(0,0,0)" stroke-width="0.0010cm" stroke-linecap="round" stroke-linejoin="round" shaper:cutDepth="0" /><path d="M32.8439083,19.2546198 L32.6317763,19.0424878 31.7832481,19.8910159 31.9953802,20.103148 32.8439083,19.2546198z" transform="matrix(1,0,0,-1,-0,50)" fill="rgb(255,255,255)" stroke="rgb(0,0,0)" stroke-width="0.0010cm" stroke-linecap="round" stroke-linejoin="round" shaper:cutDepth="0" /><path d="M37.8439083,14.2546198 L37.6317763,14.0424878 36.7832481,14.8910159 36.9953802,15.103148 37.8439083,14.2546198z" transform="matrix(1,0,0,-1,-0,50)" fill="rgb(255,255,255)" stroke="rgb(0,0,0)" stroke-width="0.0010cm" stroke-linecap="round" stroke-linejoin="round" shaper:cutDepth="0" /><path d="M12.8439083,39.2546198 L12.6317763,39.0424878 11.7832481,39.8910159 11.9953802,40.103148 12.8439083,39.2546198z" transform="matrix(1,0,0,-1,-0,50)" fill="rgb(255,255,255)" stroke="rgb(0,0,0)" stroke-width="0.0010cm" stroke-linecap="round" stroke-linejoin="round" shaper:cutDepth="0" /><path d="M27.8439083,24.2546198 L27.6317763,24.0424878 26.7832481,24.8910159 26.9953802,25.103148 27.8439083,24.2546198z" transform="matrix(1,0,0,-1,-0,50)" fill="rgb(255,255,255)" stroke="rgb(0,0,0)" stroke-width="0.0010cm" stroke-linecap="round" stroke-linejoin="round" shaper:cutDepth="0" /><path d="M17.8439083,44.2546198 L17.6317763,44.0424878 16.7832481,44.8910159 16.9953802,45.103148 17.8439083,44.2546198z" transform="matrix(1,0,0,-1,-0,50)" fill="rgb(255,255,255)" stroke="rgb(0,0,0)" stroke-width="0.0010cm" stroke-linecap="round" stroke-linejoin="round" shaper:cutDepth="0" /><path d="M27.8439083,39.2546198 L27.6317763,39.0424878 26.7832481,39.8910159 26.9953802,40.103148 27.8439083,39.2546198z" transform="matrix(1,0,0,-1,-0,50)" fill="rgb(255,255,255)" stroke="rgb(0,0,0)" stroke-width="0.0010cm" stroke-linecap="round" stroke-linejoin="round" shaper:cutDepth="0" /><path d="M32.8439083,39.2546198 L32.6317763,39.0424878 31.7832481,39.8910159 31.9953802,40.103148 32.8439083,39.2546198z" transform="matrix(1,0,0,-1,-0,50)" fill="rgb(255,255,255)" stroke="rgb(0,0,0)" stroke-width="0.0010cm" stroke-linecap="round" stroke-linejoin="round" shaper:cutDepth="0" /><path d="M7.8439083,29.2546198 L7.6317763,29.0424878 6.7832481,29.8910159 6.9953802,30.103148 7.8439083,29.2546198z" transform="matrix(1,0,0,-1,-0,50)" fill="rgb(255,255,255)" stroke="rgb(0,0,0)" stroke-width="0.0010cm" stroke-linecap="round" stroke-linejoin="round" shaper:cutDepth="0" /><path d="M22.8439083,24.2546198 L22.6317763,24.0424878 21.7832481,24.8910159 21.9953802,25.103148 22.8439083,24.2546198z" transform="matrix(1,0,0,-1,-0,50)" fill="rgb(255,255,255)" stroke="rgb(0,0,0)" stroke-width="0.0010cm" stroke-linecap="round" stroke-linejoin="round" shaper:cutDepth="0" /><path d="M27.8439083,14.2546198 L27.6317763,14.0424878 26.7832481,14.8910159 26.9953802,15.103148 27.8439083,14.2546198z" transform="matrix(1,0,0,-1,-0,50)" fill="rgb(255,255,255)" stroke="rgb(0,0,0)" stroke-width="0.0010cm" stroke-linecap="round" stroke-linejoin="round" shaper:cutDepth="0" /><path d="M42.8439083,14.2546198 L42.6317763,14.0424878 41.7832481,14.8910159 41.9953802,15.103148 42.8439083,14.2546198z" transform="matrix(1,0,0,-1,-0,50)" fill="rgb(255,255,255)" stroke="rgb(0,0,0)" stroke-width="0.0010cm" stroke-linecap="round" stroke-linejoin="round" shaper:cutDepth="0" /><path d="M12.8439083,14.2546198 L12.6317763,14.0424878 11.7832481,14.8910159 11.9953802,15.103148 12.8439083,14.2546198z" transform="matrix(1,0,0,-1,-0,50)" fill="rgb(255,255,255)" stroke="rgb(0,0,0)" stroke-width="0.0010cm" stroke-linecap="round" stroke-linejoin="round" shaper:cutDepth="0" /><path d="M7.6317763,9.0424878 L6.7832481,9.8910159 6.9953802,10.103148 7.8439083,9.2546198 7.6317763,9.0424878z" transform="matrix(1,0,0,-1,-0,50)" fill="rgb(255,255,255)" stroke="rgb(0,0,0)" stroke-width="0.0010cm" stroke-linecap="round" stroke-linejoin="round" shaper:cutDepth="0" /><path d="M7.8439083,24.2546198 L7.6317763,24.0424878 6.7832481,24.8910159 6.9953802,25.103148 7.8439083,24.2546198z" transform="matrix(1,0,0,-1,-0,50)" fill="rgb(255,255,255)" stroke="rgb(0,0,0)" stroke-width="0.0010cm" stroke-linecap="round" stroke-linejoin="round" shaper:cutDepth="0" /><path d="M32.8439083,34.2546198 L32.6317763,34.0424878 31.7832481,34.8910159 31.9953802,35.103148 32.8439083,34.2546198z" transform="matrix(1,0,0,-1,-0,50)" fill="rgb(255,255,255)" stroke="rgb(0,0,0)" stroke-width="0.0010cm" stroke-linecap="round" stroke-linejoin="round" shaper:cutDepth="0" /><path d="M27.8439083,29.2546198 L27.6317763,29.0424878 26.7832481,29.8910159 26.9953802,30.103148 27.8439083,29.2546198z" transform="matrix(1,0,0,-1,-0,50)" fill="rgb(255,255,255)" stroke="rgb(0,0,0)" stroke-width="0.0010cm" stroke-linecap="round" stroke-linejoin="round" shaper:cutDepth="0" /><path d="M37.8439083,44.2546198 L37.6317763,44.0424878 36.7832481,44.8910159 36.9953802,45.103148 37.8439083,44.2546198z" transform="matrix(1,0,0,-1,-0,50)" fill="rgb(255,255,255)" stroke="rgb(0,0,0)" stroke-width="0.0010cm" stroke-linecap="round" stroke-linejoin="round" shaper:cutDepth="0" /><path d="M42.8439083,44.2546198 L42.6317763,44.0424878 41.7832481,44.8910159 41.9953802,45.103148 42.8439083,44.2546198z" transform="matrix(1,0,0,-1,-0,50)" fill="rgb(255,255,255)" stroke="rgb(0,0,0)" stroke-width="0.0010cm" stroke-linecap="round" stroke-linejoin="round" shaper:cutDepth="0" /><path d="M32.8439083,29.2546198 L32.6317763,29.0424878 31.7832481,29.8910159 31.9953802,30.103148 32.8439083,29.2546198z" transform="matrix(1,0,0,-1,-0,50)" fill="rgb(255,255,255)" stroke="rgb(0,0,0)" stroke-width="0.0010cm" stroke-linecap="round" stroke-linejoin="round" shaper:cutDepth="0" /><path d="M37.8439083,34.2546198 L37.6317763,34.0424878 36.7832481,34.8910159 36.9953802,35.103148 37.8439083,34.2546198z" transform="matrix(1,0,0,-1,-0,50)" fill="rgb(255,255,255)" stroke="rgb(0,0,0)" stroke-width="0.0010cm" stroke-linecap="round" stroke-linejoin="round" shaper:cutDepth="0" /><path d="M22.8439083,9.2546198 L22.6317763,9.0424878 21.7832481,9.8910159 21.9953802,10.103148 22.8439083,9.2546198z" transform="matrix(1,0,0,-1,-0,50)" fill="rgb(255,255,255)" stroke="rgb(0,0,0)" stroke-width="0.0010cm" stroke-linecap="round" stroke-linejoin="round" shaper:cutDepth="0" /><path d="M7.8439083,19.2546198 L7.6317763,19.0424878 6.7832481,19.8910159 6.9953802,20.103148 7.8439083,19.2546198z" transform="matrix(1,0,0,-1,-0,50)" fill="rgb(255,255,255)" stroke="rgb(0,0,0)" stroke-width="0.0010cm" stroke-linecap="round" stroke-linejoin="round" shaper:cutDepth="0" /><path d="M22.8439083,19.2546198 L22.6317763,19.0424878 21.7832481,19.8910159 21.9953802,20.103148 22.8439083,19.2546198z" transform="matrix(1,0,0,-1,-0,50)" fill="rgb(255,255,255)" stroke="rgb(0,0,0)" stroke-width="0.0010cm" stroke-linecap="round" stroke-linejoin="round" shaper:cutDepth="0" /><path d="M32.8439083,9.2546198 L32.6317763,9.0424878 31.7832481,9.8910159 31.9953802,10.103148 32.8439083,9.2546198z" transform="matrix(1,0,0,-1,-0,50)" fill="rgb(255,255,255)" stroke="rgb(0,0,0)" stroke-width="0.0010cm" stroke-linecap="round" stroke-linejoin="round" shaper:cutDepth="0" /><path d="M27.8439083,9.2546198 L27.6317763,9.0424878 26.7832481,9.8910159 26.9953802,10.103148 27.8439083,9.2546198z" transform="matrix(1,0,0,-1,-0,50)" fill="rgb(255,255,255)" stroke="rgb(0,0,0)" stroke-width="0.0010cm" stroke-linecap="round" stroke-linejoin="round" shaper:cutDepth="0" /><path d="M17.8439083,29.2546198 L17.6317763,29.0424878 16.7832481,29.8910159 16.9953802,30.103148 17.8439083,29.2546198z" transform="matrix(1,0,0,-1,-0,50)" fill="rgb(255,255,255)" stroke="rgb(0,0,0)" stroke-width="0.0010cm" stroke-linecap="round" stroke-linejoin="round" shaper:cutDepth="0" /><path d="M32.8439083,44.2546198 L32.6317763,44.0424878 31.7832481,44.8910159 31.9953802,45.103148 32.8439083,44.2546198z" transform="matrix(1,0,0,-1,-0,50)" fill="rgb(255,255,255)" stroke="rgb(0,0,0)" stroke-width="0.0010cm" stroke-linecap="round" stroke-linejoin="round" shaper:cutDepth="0" /><path d="M12.8439083,29.2546198 L12.6317763,29.0424878 11.7832481,29.8910159 11.9953802,30.103148 12.8439083,29.2546198z" transform="matrix(1,0,0,-1,-0,50)" fill="rgb(255,255,255)" stroke="rgb(0,0,0)" stroke-width="0.0010cm" stroke-linecap="round" stroke-linejoin="round" shaper:cutDepth="0" /><path d="M37.8439083,24.2546198 L37.6317763,24.0424878 36.7832481,24.8910159 36.9953802,25.103148 37.8439083,24.2546198z" transform="matrix(1,0,0,-1,-0,50)" fill="rgb(255,255,255)" stroke="rgb(0,0,0)" stroke-width="0.0010cm" stroke-linecap="round" stroke-linejoin="round" shaper:cutDepth="0" /><path d="M42.8439083,19.2546198 L42.6317763,19.0424878 41.7832481,19.8910159 41.9953802,20.103148 42.8439083,19.2546198z" transform="matrix(1,0,0,-1,-0,50)" fill="rgb(255,255,255)" stroke="rgb(0,0,0)" stroke-width="0.0010cm" stroke-linecap="round" stroke-linejoin="round" shaper:cutDepth="0" /><path d="M7.8439083,44.2546198 L7.6317763,44.0424878 6.7832481,44.8910159 6.9953802,45.103148 7.8439083,44.2546198z" transform="matrix(1,0,0,-1,-0,50)" fill="rgb(255,255,255)" stroke="rgb(0,0,0)" stroke-width="0.0010cm" stroke-linecap="round" stroke-linejoin="round" shaper:cutDepth="0" /><path d="M27.8439083,19.2546198 L27.6317763,19.0424878 26.7832481,19.8910159 26.9953802,20.103148 27.8439083,19.2546198z" transform="matrix(1,0,0,-1,-0,50)" fill="rgb(255,255,255)" stroke="rgb(0,0,0)" stroke-width="0.0010cm" stroke-linecap="round" stroke-linejoin="round" shaper:cutDepth="0" /><path d="M37.8439083,9.2546198 L37.6317763,9.0424878 36.7832481,9.8910159 36.9953802,10.103148 37.8439083,9.2546198z" transform="matrix(1,0,0,-1,-0,50)" fill="rgb(255,255,255)" stroke="rgb(0,0,0)" stroke-width="0.0010cm" stroke-linecap="round" stroke-linejoin="round" shaper:cutDepth="0" /><path d="M40.520101,40.5405592 L40.732233,40.7526912 42.5,38.9849242 42.287868,38.7727922 40.520101,40.5405592z" transform="matrix(1,0,0,-1,-0,50)" fill="rgb(255,255,255)" stroke="rgb(0,0,0)" stroke-width="0.0010cm" stroke-linecap="round" stroke-linejoin="round" shaper:cutDepth="0" /><path d="M24.4594408,24.479899 L26.2272078,22.712132 26.0150758,22.5 24.2473088,24.267767 24.4594408,24.479899z" transform="matrix(1,0,0,-1,-0,50)" fill="rgb(255,255,255)" stroke="rgb(0,0,0)" stroke-width="0.0010cm" stroke-linecap="round" stroke-linejoin="round" shaper:cutDepth="0" /><path d="M29.4594408,24.479899 L31.2272078,22.712132 31.0150758,22.5 29.2473088,24.267767 29.4594408,24.479899z" transform="matrix(1,0,0,-1,-0,50)" fill="rgb(255,255,255)" stroke="rgb(0,0,0)" stroke-width="0.0010cm" stroke-linecap="round" stroke-linejoin="round" shaper:cutDepth="0" /><path d="M30.520101,20.5405592 L30.732233,20.7526912 32.5,18.9849242 32.287868,18.7727922 30.520101,20.5405592z" transform="matrix(1,0,0,-1,-0,50)" fill="rgb(255,255,255)" stroke="rgb(0,0,0)" stroke-width="0.0010cm" stroke-linecap="round" stroke-linejoin="round" shaper:cutDepth="0" /><path d="M14.4594408,29.479899 L16.2272078,27.712132 16.0150758,27.5 14.2473088,29.267767 14.4594408,29.479899z" transform="matrix(1,0,0,-1,-0,50)" fill="rgb(255,255,255)" stroke="rgb(0,0,0)" stroke-width="0.0010cm" stroke-linecap="round" stroke-linejoin="round" shaper:cutDepth="0" /><path d="M25.520101,25.5405592 L25.732233,25.7526912 27.5,23.9849242 27.287868,23.7727922 25.520101,25.5405592z" transform="matrix(1,0,0,-1,-0,50)" fill="rgb(255,255,255)" stroke="rgb(0,0,0)" stroke-width="0.0010cm" stroke-linecap="round" stroke-linejoin="round" shaper:cutDepth="0" /><path d="M25.520101,20.5405592 L25.732233,20.7526912 27.5,18.9849242 27.287868,18.7727922 25.520101,20.5405592z" transform="matrix(1,0,0,-1,-0,50)" fill="rgb(255,255,255)" stroke="rgb(0,0,0)" stroke-width="0.0010cm" stroke-linecap="round" stroke-linejoin="round" shaper:cutDepth="0" /><path d="M19.4594408,19.479899 L21.2272078,17.712132 21.0150758,17.5 19.2473088,19.267767 19.4594408,19.479899z" transform="matrix(1,0,0,-1,-0,50)" fill="rgb(255,255,255)" stroke="rgb(0,0,0)" stroke-width="0.0010cm" stroke-linecap="round" stroke-linejoin="round" shaper:cutDepth="0" /><path d="M10.520101,25.5405592 L10.732233,25.7526912 12.5,23.9849242 12.287868,23.7727922 10.520101,25.5405592z" transform="matrix(1,0,0,-1,-0,50)" fill="rgb(255,255,255)" stroke="rgb(0,0,0)" stroke-width="0.0010cm" stroke-linecap="round" stroke-linejoin="round" shaper:cutDepth="0" /><path d="M29.4594408,34.479899 L31.2272078,32.712132 31.0150758,32.5 29.2473088,34.267767 29.4594408,34.479899z" transform="matrix(1,0,0,-1,-0,50)" fill="rgb(255,255,255)" stroke="rgb(0,0,0)" stroke-width="0.0010cm" stroke-linecap="round" stroke-linejoin="round" shaper:cutDepth="0" /><path d="M25.520101,30.5405592 L25.732233,30.7526912 27.5,28.9849242 27.287868,28.7727922 25.520101,30.5405592z" transform="matrix(1,0,0,-1,-0,50)" fill="rgb(255,255,255)" stroke="rgb(0,0,0)" stroke-width="0.0010cm" stroke-linecap="round" stroke-linejoin="round" shaper:cutDepth="0" /><path d="M30.520101,25.5405592 L30.732233,25.7526912 32.5,23.9849242 32.287868,23.7727922 30.520101,25.5405592z" transform="matrix(1,0,0,-1,-0,50)" fill="rgb(255,255,255)" stroke="rgb(0,0,0)" stroke-width="0.0010cm" stroke-linecap="round" stroke-linejoin="round" shaper:cutDepth="0" /><path d="M20.520101,15.5405592 L20.732233,15.7526912 22.5,13.9849242 22.287868,13.7727922 20.520101,15.5405592z" transform="matrix(1,0,0,-1,-0,50)" fill="rgb(255,255,255)" stroke="rgb(0,0,0)" stroke-width="0.0010cm" stroke-linecap="round" stroke-linejoin="round" shaper:cutDepth="0" /><path d="M34.4594408,34.479899 L36.2272078,32.712132 36.0150758,32.5 34.2473088,34.267767 34.4594408,34.479899z" transform="matrix(1,0,0,-1,-0,50)" fill="rgb(255,255,255)" stroke="rgb(0,0,0)" stroke-width="0.0010cm" stroke-linecap="round" stroke-linejoin="round" shaper:cutDepth="0" /><path d="M20.520101,30.5405592 L20.732233,30.7526912 22.5,28.9849242 22.287868,28.7727922 20.520101,30.5405592z" transform="matrix(1,0,0,-1,-0,50)" fill="rgb(255,255,255)" stroke="rgb(0,0,0)" stroke-width="0.0010cm" stroke-linecap="round" stroke-linejoin="round" shaper:cutDepth="0" /><path d="M35.520101,15.5405592 L35.732233,15.7526912 37.5,13.9849242 37.287868,13.7727922 35.520101,15.5405592z" transform="matrix(1,0,0,-1,-0,50)" fill="rgb(255,255,255)" stroke="rgb(0,0,0)" stroke-width="0.0010cm" stroke-linecap="round" stroke-linejoin="round" shaper:cutDepth="0" /><path d="M24.4594408,19.479899 L26.2272078,17.712132 26.0150758,17.5 24.2473088,19.267767 24.4594408,19.479899z" transform="matrix(1,0,0,-1,-0,50)" fill="rgb(255,255,255)" stroke="rgb(0,0,0)" stroke-width="0.0010cm" stroke-linecap="round" stroke-linejoin="round" shaper:cutDepth="0" /><path d="M35.520101,30.5405592 L35.732233,30.7526912 37.5,28.9849242 37.287868,28.7727922 35.520101,30.5405592z" transform="matrix(1,0,0,-1,-0,50)" fill="rgb(255,255,255)" stroke="rgb(0,0,0)" stroke-width="0.0010cm" stroke-linecap="round" stroke-linejoin="round" shaper:cutDepth="0" /><path d="M29.4594408,19.479899 L31.2272078,17.712132 31.0150758,17.5 29.2473088,19.267767 29.4594408,19.479899z" transform="matrix(1,0,0,-1,-0,50)" fill="rgb(255,255,255)" stroke="rgb(0,0,0)" stroke-width="0.0010cm" stroke-linecap="round" stroke-linejoin="round" shaper:cutDepth="0" /><path d="M15.520101,20.5405592 L15.732233,20.7526912 17.5,18.9849242 17.287868,18.7727922 15.520101,20.5405592z" transform="matrix(1,0,0,-1,-0,50)" fill="rgb(255,255,255)" stroke="rgb(0,0,0)" stroke-width="0.0010cm" stroke-linecap="round" stroke-linejoin="round" shaper:cutDepth="0" /><path d="M15.520101,25.5405592 L15.732233,25.7526912 17.5,23.9849242 17.287868,23.7727922 15.520101,25.5405592z" transform="matrix(1,0,0,-1,-0,50)" fill="rgb(255,255,255)" stroke="rgb(0,0,0)" stroke-width="0.0010cm" stroke-linecap="round" stroke-linejoin="round" shaper:cutDepth="0" /><path d="M9.4594408,29.479899 L11.2272078,27.712132 11.0150758,27.5 9.2473088,29.267767 9.4594408,29.479899z" transform="matrix(1,0,0,-1,-0,50)" fill="rgb(255,255,255)" stroke="rgb(0,0,0)" stroke-width="0.0010cm" stroke-linecap="round" stroke-linejoin="round" shaper:cutDepth="0" /><path d="M4.4594408,24.479899 L6.2272078,22.712132 6.0150758,22.5 4.2473088,24.267767 4.4594408,24.479899z" transform="matrix(1,0,0,-1,-0,50)" fill="rgb(255,255,255)" stroke="rgb(0,0,0)" stroke-width="0.0010cm" stroke-linecap="round" stroke-linejoin="round" shaper:cutDepth="0" /><path d="M25.520101,10.5405592 L25.732233,10.7526912 27.5,8.9849242 27.287868,8.7727922 25.520101,10.5405592z" transform="matrix(1,0,0,-1,-0,50)" fill="rgb(255,255,255)" stroke="rgb(0,0,0)" stroke-width="0.0010cm" stroke-linecap="round" stroke-linejoin="round" shaper:cutDepth="0" /><path d="M30.520101,35.5405592 L30.732233,35.7526912 32.5,33.9849242 32.287868,33.7727922 30.520101,35.5405592z" transform="matrix(1,0,0,-1,-0,50)" fill="rgb(255,255,255)" stroke="rgb(0,0,0)" stroke-width="0.0010cm" stroke-linecap="round" stroke-linejoin="round" shaper:cutDepth="0" /><path d="M24.4594408,14.479899 L26.2272078,12.712132 26.0150758,12.5 24.2473088,14.267767 24.4594408,14.479899z" transform="matrix(1,0,0,-1,-0,50)" fill="rgb(255,255,255)" stroke="rgb(0,0,0)" stroke-width="0.0010cm" stroke-linecap="round" stroke-linejoin="round" shaper:cutDepth="0" /><path d="M29.4594408,9.479899 L31.2272078,7.712132 31.0150758,7.5 29.2473088,9.267767 29.4594408,9.479899z" transform="matrix(1,0,0,-1,-0,50)" fill="rgb(255,255,255)" stroke="rgb(0,0,0)" stroke-width="0.0010cm" stroke-linecap="round" stroke-linejoin="round" shaper:cutDepth="0" /><path d="M25.520101,35.5405592 L25.732233,35.7526912 27.5,33.9849242 27.287868,33.7727922 25.520101,35.5405592z" transform="matrix(1,0,0,-1,-0,50)" fill="rgb(255,255,255)" stroke="rgb(0,0,0)" stroke-width="0.0010cm" stroke-linecap="round" stroke-linejoin="round" shaper:cutDepth="0" /><path d="M24.4594408,9.479899 L26.2272078,7.712132 26.0150758,7.5 24.2473088,9.267767 24.4594408,9.479899z" transform="matrix(1,0,0,-1,-0,50)" fill="rgb(255,255,255)" stroke="rgb(0,0,0)" stroke-width="0.0010cm" stroke-linecap="round" stroke-linejoin="round" shaper:cutDepth="0" /><path d="M30.520101,30.5405592 L30.732233,30.7526912 32.5,28.9849242 32.287868,28.7727922 30.520101,30.5405592z" transform="matrix(1,0,0,-1,-0,50)" fill="rgb(255,255,255)" stroke="rgb(0,0,0)" stroke-width="0.0010cm" stroke-linecap="round" stroke-linejoin="round" shaper:cutDepth="0" /><path d="M10.520101,10.5405592 L10.732233,10.7526912 12.5,8.9849242 12.287868,8.7727922 10.520101,10.5405592z" transform="matrix(1,0,0,-1,-0,50)" fill="rgb(255,255,255)" stroke="rgb(0,0,0)" stroke-width="0.0010cm" stroke-linecap="round" stroke-linejoin="round" shaper:cutDepth="0" /><path d="M14.4594408,9.479899 L16.2272078,7.712132 16.0150758,7.5 14.2473088,9.267767 14.4594408,9.479899z" transform="matrix(1,0,0,-1,-0,50)" fill="rgb(255,255,255)" stroke="rgb(0,0,0)" stroke-width="0.0010cm" stroke-linecap="round" stroke-linejoin="round" shaper:cutDepth="0" /><path d="M35.520101,40.5405592 L35.732233,40.7526912 37.5,38.9849242 37.287868,38.7727922 35.520101,40.5405592z" transform="matrix(1,0,0,-1,-0,50)" fill="rgb(255,255,255)" stroke="rgb(0,0,0)" stroke-width="0.0010cm" stroke-linecap="round" stroke-linejoin="round" shaper:cutDepth="0" /><path d="M14.4594408,14.479899 L16.2272078,12.712132 16.0150758,12.5 14.2473088,14.267767 14.4594408,14.479899z" transform="matrix(1,0,0,-1,-0,50)" fill="rgb(255,255,255)" stroke="rgb(0,0,0)" stroke-width="0.0010cm" stroke-linecap="round" stroke-linejoin="round" shaper:cutDepth="0" /><path d="M30.520101,45.5405592 L30.732233,45.7526912 32.5,43.9849242 32.287868,43.7727922 30.520101,45.5405592z" transform="matrix(1,0,0,-1,-0,50)" fill="rgb(255,255,255)" stroke="rgb(0,0,0)" stroke-width="0.0010cm" stroke-linecap="round" stroke-linejoin="round" shaper:cutDepth="0" /><path d="M30.520101,40.5405592 L30.732233,40.7526912 32.5,38.9849242 32.287868,38.7727922 30.520101,40.5405592z" transform="matrix(1,0,0,-1,-0,50)" fill="rgb(255,255,255)" stroke="rgb(0,0,0)" stroke-width="0.0010cm" stroke-linecap="round" stroke-linejoin="round" shaper:cutDepth="0" /><path d="M9.4594408,9.479899 L11.2272078,7.712132 11.0150758,7.5 9.2473088,9.267767 9.4594408,9.479899z" transform="matrix(1,0,0,-1,-0,50)" fill="rgb(255,255,255)" stroke="rgb(0,0,0)" stroke-width="0.0010cm" stroke-linecap="round" stroke-linejoin="round" shaper:cutDepth="0" /><path d="M24.4594408,39.479899 L26.2272078,37.712132 26.0150758,37.5 24.2473088,39.267767 24.4594408,39.479899z" transform="matrix(1,0,0,-1,-0,50)" fill="rgb(255,255,255)" stroke="rgb(0,0,0)" stroke-width="0.0010cm" stroke-linecap="round" stroke-linejoin="round" shaper:cutDepth="0" /><path d="M5.520101,10.5405592 L5.732233,10.7526912 7.5,8.9849242 7.287868,8.7727922 5.520101,10.5405592z" transform="matrix(1,0,0,-1,-0,50)" fill="rgb(255,255,255)" stroke="rgb(0,0,0)" stroke-width="0.0010cm" stroke-linecap="round" stroke-linejoin="round" shaper:cutDepth="0" /><path d="M15.520101,15.5405592 L15.732233,15.7526912 17.5,13.9849242 17.287868,13.7727922 15.520101,15.5405592z" transform="matrix(1,0,0,-1,-0,50)" fill="rgb(255,255,255)" stroke="rgb(0,0,0)" stroke-width="0.0010cm" stroke-linecap="round" stroke-linejoin="round" shaper:cutDepth="0" /><path d="M34.4594408,44.479899 L36.2272078,42.712132 36.0150758,42.5 34.2473088,44.267767 34.4594408,44.479899z" transform="matrix(1,0,0,-1,-0,50)" fill="rgb(255,255,255)" stroke="rgb(0,0,0)" stroke-width="0.0010cm" stroke-linecap="round" stroke-linejoin="round" shaper:cutDepth="0" /><path d="M19.4594408,14.479899 L21.2272078,12.712132 21.0150758,12.5 19.2473088,14.267767 19.4594408,14.479899z" transform="matrix(1,0,0,-1,-0,50)" fill="rgb(255,255,255)" stroke="rgb(0,0,0)" stroke-width="0.0010cm" stroke-linecap="round" stroke-linejoin="round" shaper:cutDepth="0" /><path d="M15.520101,10.5405592 L15.732233,10.7526912 17.5,8.9849242 17.287868,8.7727922 15.520101,10.5405592z" transform="matrix(1,0,0,-1,-0,50)" fill="rgb(255,255,255)" stroke="rgb(0,0,0)" stroke-width="0.0010cm" stroke-linecap="round" stroke-linejoin="round" shaper:cutDepth="0" /><path d="M9.4594408,19.479899 L11.2272078,17.712132 11.0150758,17.5 9.2473088,19.267767 9.4594408,19.479899z" transform="matrix(1,0,0,-1,-0,50)" fill="rgb(255,255,255)" stroke="rgb(0,0,0)" stroke-width="0.0010cm" stroke-linecap="round" stroke-linejoin="round" shaper:cutDepth="0" /><path d="M39.4594408,39.479899 L41.2272078,37.712132 41.0150758,37.5 39.2473088,39.267767 39.4594408,39.479899z" transform="matrix(1,0,0,-1,-0,50)" fill="rgb(255,255,255)" stroke="rgb(0,0,0)" stroke-width="0.0010cm" stroke-linecap="round" stroke-linejoin="round" shaper:cutDepth="0" /><path d="M34.4594408,39.479899 L36.2272078,37.712132 36.0150758,37.5 34.2473088,39.267767 34.4594408,39.479899z" transform="matrix(1,0,0,-1,-0,50)" fill="rgb(255,255,255)" stroke="rgb(0,0,0)" stroke-width="0.0010cm" stroke-linecap="round" stroke-linejoin="round" shaper:cutDepth="0" /><path d="M39.4594408,44.479899 L41.2272078,42.712132 41.0150758,42.5 39.2473088,44.267767 39.4594408,44.479899z" transform="matrix(1,0,0,-1,-0,50)" fill="rgb(255,255,255)" stroke="rgb(0,0,0)" stroke-width="0.0010cm" stroke-linecap="round" stroke-linejoin="round" shaper:cutDepth="0" /><path d="M4.4594408,39.479899 L6.2272078,37.712132 6.0150758,37.5 4.2473088,39.267767 4.4594408,39.479899z" transform="matrix(1,0,0,-1,-0,50)" fill="rgb(255,255,255)" stroke="rgb(0,0,0)" stroke-width="0.0010cm" stroke-linecap="round" stroke-linejoin="round" shaper:cutDepth="0" /><path d="M10.520101,45.5405592 L10.732233,45.7526912 12.5,43.9849242 12.287868,43.7727922 10.520101,45.5405592z" transform="matrix(1,0,0,-1,-0,50)" fill="rgb(255,255,255)" stroke="rgb(0,0,0)" stroke-width="0.0010cm" stroke-linecap="round" stroke-linejoin="round" shaper:cutDepth="0" /><path d="M9.4594408,39.479899 L11.2272078,37.712132 11.0150758,37.5 9.2473088,39.267767 9.4594408,39.479899z" transform="matrix(1,0,0,-1,-0,50)" fill="rgb(255,255,255)" stroke="rgb(0,0,0)" stroke-width="0.0010cm" stroke-linecap="round" stroke-linejoin="round" shaper:cutDepth="0" /><path d="M5.520101,40.5405592 L5.732233,40.7526912 7.5,38.9849242 7.287868,38.7727922 5.520101,40.5405592z" transform="matrix(1,0,0,-1,-0,50)" fill="rgb(255,255,255)" stroke="rgb(0,0,0)" stroke-width="0.0010cm" stroke-linecap="round" stroke-linejoin="round" shaper:cutDepth="0" /><path d="M14.4594408,44.479899 L16.2272078,42.712132 16.0150758,42.5 14.2473088,44.267767 14.4594408,44.479899z" transform="matrix(1,0,0,-1,-0,50)" fill="rgb(255,255,255)" stroke="rgb(0,0,0)" stroke-width="0.0010cm" stroke-linecap="round" stroke-linejoin="round" shaper:cutDepth="0" /><path d="M9.4594408,44.479899 L11.2272078,42.712132 11.0150758,42.5 9.2473088,44.267767 9.4594408,44.479899z" transform="matrix(1,0,0,-1,-0,50)" fill="rgb(255,255,255)" stroke="rgb(0,0,0)" stroke-width="0.0010cm" stroke-linecap="round" stroke-linejoin="round" shaper:cutDepth="0" /><path d="M19.4594408,39.479899 L21.2272078,37.712132 21.0150758,37.5 19.2473088,39.267767 19.4594408,39.479899z" transform="matrix(1,0,0,-1,-0,50)" fill="rgb(255,255,255)" stroke="rgb(0,0,0)" stroke-width="0.0010cm" stroke-linecap="round" stroke-linejoin="round" shaper:cutDepth="0" /><path d="M4.4594408,44.479899 L6.2272078,42.712132 6.0150758,42.5 4.2473088,44.267767 4.4594408,44.479899z" transform="matrix(1,0,0,-1,-0,50)" fill="rgb(255,255,255)" stroke="rgb(0,0,0)" stroke-width="0.0010cm" stroke-linecap="round" stroke-linejoin="round" shaper:cutDepth="0" /><path d="M19.4594408,44.479899 L21.2272078,42.712132 21.0150758,42.5 19.2473088,44.267767 19.4594408,44.479899z" transform="matrix(1,0,0,-1,-0,50)" fill="rgb(255,255,255)" stroke="rgb(0,0,0)" stroke-width="0.0010cm" stroke-linecap="round" stroke-linejoin="round" shaper:cutDepth="0" /><path d="M15.520101,45.5405592 L15.732233,45.7526912 17.5,43.9849242 17.287868,43.7727922 15.520101,45.5405592z" transform="matrix(1,0,0,-1,-0,50)" fill="rgb(255,255,255)" stroke="rgb(0,0,0)" stroke-width="0.0010cm" stroke-linecap="round" stroke-linejoin="round" shaper:cutDepth="0" /><path d="M10.520101,40.5405592 L10.732233,40.7526912 12.5,38.9849242 12.287868,38.7727922 10.520101,40.5405592z" transform="matrix(1,0,0,-1,-0,50)" fill="rgb(255,255,255)" stroke="rgb(0,0,0)" stroke-width="0.0010cm" stroke-linecap="round" stroke-linejoin="round" shaper:cutDepth="0" /><path d="M10.520101,35.5405592 L10.732233,35.7526912 12.5,33.9849242 12.287868,33.7727922 10.520101,35.5405592z" transform="matrix(1,0,0,-1,-0,50)" fill="rgb(255,255,255)" stroke="rgb(0,0,0)" stroke-width="0.0010cm" stroke-linecap="round" stroke-linejoin="round" shaper:cutDepth="0" /><path d="M14.4594408,34.479899 L16.2272078,32.712132 16.0150758,32.5 14.2473088,34.267767 14.4594408,34.479899z" transform="matrix(1,0,0,-1,-0,50)" fill="rgb(255,255,255)" stroke="rgb(0,0,0)" stroke-width="0.0010cm" stroke-linecap="round" stroke-linejoin="round" shaper:cutDepth="0" /><path d="M15.520101,30.5405592 L15.732233,30.7526912 17.5,28.9849242 17.287868,28.7727922 15.520101,30.5405592z" transform="matrix(1,0,0,-1,-0,50)" fill="rgb(255,255,255)" stroke="rgb(0,0,0)" stroke-width="0.0010cm" stroke-linecap="round" stroke-linejoin="round" shaper:cutDepth="0" /><path d="M14.4594408,39.479899 L16.2272078,37.712132 16.0150758,37.5 14.2473088,39.267767 14.4594408,39.479899z" transform="matrix(1,0,0,-1,-0,50)" fill="rgb(255,255,255)" stroke="rgb(0,0,0)" stroke-width="0.0010cm" stroke-linecap="round" stroke-linejoin="round" shaper:cutDepth="0" /><path d="M20.520101,45.5405592 L20.732233,45.7526912 22.5,43.9849242 22.287868,43.7727922 20.520101,45.5405592z" transform="matrix(1,0,0,-1,-0,50)" fill="rgb(255,255,255)" stroke="rgb(0,0,0)" stroke-width="0.0010cm" stroke-linecap="round" stroke-linejoin="round" shaper:cutDepth="0" /><path d="M10.520101,30.5405592 L10.732233,30.7526912 12.5,28.9849242 12.287868,28.7727922 10.520101,30.5405592z" transform="matrix(1,0,0,-1,-0,50)" fill="rgb(255,255,255)" stroke="rgb(0,0,0)" stroke-width="0.0010cm" stroke-linecap="round" stroke-linejoin="round" shaper:cutDepth="0" /><path d="M20.520101,25.5405592 L20.732233,25.7526912 22.5,23.9849242 22.287868,23.7727922 20.520101,25.5405592z" transform="matrix(1,0,0,-1,-0,50)" fill="rgb(255,255,255)" stroke="rgb(0,0,0)" stroke-width="0.0010cm" stroke-linecap="round" stroke-linejoin="round" shaper:cutDepth="0" /><path d="M20.520101,35.5405592 L20.732233,35.7526912 22.5,33.9849242 22.287868,33.7727922 20.520101,35.5405592z" transform="matrix(1,0,0,-1,-0,50)" fill="rgb(255,255,255)" stroke="rgb(0,0,0)" stroke-width="0.0010cm" stroke-linecap="round" stroke-linejoin="round" shaper:cutDepth="0" /><path d="M5.520101,30.5405592 L5.732233,30.7526912 7.5,28.9849242 7.287868,28.7727922 5.520101,30.5405592z" transform="matrix(1,0,0,-1,-0,50)" fill="rgb(255,255,255)" stroke="rgb(0,0,0)" stroke-width="0.0010cm" stroke-linecap="round" stroke-linejoin="round" shaper:cutDepth="0" /><path d="M5.520101,35.5405592 L5.732233,35.7526912 7.5,33.9849242 7.287868,33.7727922 5.520101,35.5405592z" transform="matrix(1,0,0,-1,-0,50)" fill="rgb(255,255,255)" stroke="rgb(0,0,0)" stroke-width="0.0010cm" stroke-linecap="round" stroke-linejoin="round" shaper:cutDepth="0" /><path d="M4.4594408,34.479899 L6.2272078,32.712132 6.0150758,32.5 4.2473088,34.267767 4.4594408,34.479899z" transform="matrix(1,0,0,-1,-0,50)" fill="rgb(255,255,255)" stroke="rgb(0,0,0)" stroke-width="0.0010cm" stroke-linecap="round" stroke-linejoin="round" shaper:cutDepth="0" /><path d="M9.4594408,34.479899 L11.2272078,32.712132 11.0150758,32.5 9.2473088,34.267767 9.4594408,34.479899z" transform="matrix(1,0,0,-1,-0,50)" fill="rgb(255,255,255)" stroke="rgb(0,0,0)" stroke-width="0.0010cm" stroke-linecap="round" stroke-linejoin="round" shaper:cutDepth="0" /><path d="M15.520101,40.5405592 L15.732233,40.7526912 17.5,38.9849242 17.287868,38.7727922 15.520101,40.5405592z" transform="matrix(1,0,0,-1,-0,50)" fill="rgb(255,255,255)" stroke="rgb(0,0,0)" stroke-width="0.0010cm" stroke-linecap="round" stroke-linejoin="round" shaper:cutDepth="0" /><path d="M15.520101,35.5405592 L15.732233,35.7526912 17.5,33.9849242 17.287868,33.7727922 15.520101,35.5405592z" transform="matrix(1,0,0,-1,-0,50)" fill="rgb(255,255,255)" stroke="rgb(0,0,0)" stroke-width="0.0010cm" stroke-linecap="round" stroke-linejoin="round" shaper:cutDepth="0" /><path d="M24.4594408,44.479899 L26.2272078,42.712132 26.0150758,42.5 24.2473088,44.267767 24.4594408,44.479899z" transform="matrix(1,0,0,-1,-0,50)" fill="rgb(255,255,255)" stroke="rgb(0,0,0)" stroke-width="0.0010cm" stroke-linecap="round" stroke-linejoin="round" shaper:cutDepth="0" /><path d="M19.4594408,34.479899 L21.2272078,32.712132 21.0150758,32.5 19.2473088,34.267767 19.4594408,34.479899z" transform="matrix(1,0,0,-1,-0,50)" fill="rgb(255,255,255)" stroke="rgb(0,0,0)" stroke-width="0.0010cm" stroke-linecap="round" stroke-linejoin="round" shaper:cutDepth="0" /><path d="M4.4594408,9.479899 L6.2272078,7.712132 6.0150758,7.5 4.2473088,9.267767 4.4594408,9.479899z" transform="matrix(1,0,0,-1,-0,50)" fill="rgb(255,255,255)" stroke="rgb(0,0,0)" stroke-width="0.0010cm" stroke-linecap="round" stroke-linejoin="round" shaper:cutDepth="0" /><path d="M9.4594408,14.479899 L11.2272078,12.712132 11.0150758,12.5 9.2473088,14.267767 9.4594408,14.479899z" transform="matrix(1,0,0,-1,-0,50)" fill="rgb(255,255,255)" stroke="rgb(0,0,0)" stroke-width="0.0010cm" stroke-linecap="round" stroke-linejoin="round" shaper:cutDepth="0" /><path d="M4.4594408,14.479899 L6.2272078,12.712132 6.0150758,12.5 4.2473088,14.267767 4.4594408,14.479899z" transform="matrix(1,0,0,-1,-0,50)" fill="rgb(255,255,255)" stroke="rgb(0,0,0)" stroke-width="0.0010cm" stroke-linecap="round" stroke-linejoin="round" shaper:cutDepth="0" /><path d="M29.4594408,39.479899 L31.2272078,37.712132 31.0150758,37.5 29.2473088,39.267767 29.4594408,39.479899z" transform="matrix(1,0,0,-1,-0,50)" fill="rgb(255,255,255)" stroke="rgb(0,0,0)" stroke-width="0.0010cm" stroke-linecap="round" stroke-linejoin="round" shaper:cutDepth="0" /><path d="M5.520101,15.5405592 L5.732233,15.7526912 7.5,13.9849242 7.287868,13.7727922 5.520101,15.5405592z" transform="matrix(1,0,0,-1,-0,50)" fill="rgb(255,255,255)" stroke="rgb(0,0,0)" stroke-width="0.0010cm" stroke-linecap="round" stroke-linejoin="round" shaper:cutDepth="0" /><path d="M10.520101,15.5405592 L10.732233,15.7526912 12.5,13.9849242 12.287868,13.7727922 10.520101,15.5405592z" transform="matrix(1,0,0,-1,-0,50)" fill="rgb(255,255,255)" stroke="rgb(0,0,0)" stroke-width="0.0010cm" stroke-linecap="round" stroke-linejoin="round" shaper:cutDepth="0" /><path d="M29.4594408,44.479899 L31.2272078,42.712132 31.0150758,42.5 29.2473088,44.267767 29.4594408,44.479899z" transform="matrix(1,0,0,-1,-0,50)" fill="rgb(255,255,255)" stroke="rgb(0,0,0)" stroke-width="0.0010cm" stroke-linecap="round" stroke-linejoin="round" shaper:cutDepth="0" /><path d="M25.520101,45.5405592 L25.732233,45.7526912 27.5,43.9849242 27.287868,43.7727922 25.520101,45.5405592z" transform="matrix(1,0,0,-1,-0,50)" fill="rgb(255,255,255)" stroke="rgb(0,0,0)" stroke-width="0.0010cm" stroke-linecap="round" stroke-linejoin="round" shaper:cutDepth="0" /><path d="M25.520101,40.5405592 L25.732233,40.7526912 27.5,38.9849242 27.287868,38.7727922 25.520101,40.5405592z" transform="matrix(1,0,0,-1,-0,50)" fill="rgb(255,255,255)" stroke="rgb(0,0,0)" stroke-width="0.0010cm" stroke-linecap="round" stroke-linejoin="round" shaper:cutDepth="0" /><path d="M19.4594408,24.479899 L21.2272078,22.712132 21.0150758,22.5 19.2473088,24.267767 19.4594408,24.479899z" transform="matrix(1,0,0,-1,-0,50)" fill="rgb(255,255,255)" stroke="rgb(0,0,0)" stroke-width="0.0010cm" stroke-linecap="round" stroke-linejoin="round" shaper:cutDepth="0" /><path d="M30.520101,10.5405592 L30.732233,10.7526912 32.5,8.9849242 32.287868,8.7727922 30.520101,10.5405592z" transform="matrix(1,0,0,-1,-0,50)" fill="rgb(255,255,255)" stroke="rgb(0,0,0)" stroke-width="0.0010cm" stroke-linecap="round" stroke-linejoin="round" shaper:cutDepth="0" /><path d="M30.520101,15.5405592 L30.732233,15.7526912 32.5,13.9849242 32.287868,13.7727922 30.520101,15.5405592z" transform="matrix(1,0,0,-1,-0,50)" fill="rgb(255,255,255)" stroke="rgb(0,0,0)" stroke-width="0.0010cm" stroke-linecap="round" stroke-linejoin="round" shaper:cutDepth="0" /><path d="M35.520101,45.5405592 L35.732233,45.7526912 37.5,43.9849242 37.287868,43.7727922 35.520101,45.5405592z" transform="matrix(1,0,0,-1,-0,50)" fill="rgb(255,255,255)" stroke="rgb(0,0,0)" stroke-width="0.0010cm" stroke-linecap="round" stroke-linejoin="round" shaper:cutDepth="0" /><path d="M5.520101,25.5405592 L5.732233,25.7526912 7.5,23.9849242 7.287868,23.7727922 5.520101,25.5405592z" transform="matrix(1,0,0,-1,-0,50)" fill="rgb(255,255,255)" stroke="rgb(0,0,0)" stroke-width="0.0010cm" stroke-linecap="round" stroke-linejoin="round" shaper:cutDepth="0" /><path d="M19.4594408,9.479899 L21.2272078,7.712132 21.0150758,7.5 19.2473088,9.267767 19.4594408,9.479899z" transform="matrix(1,0,0,-1,-0,50)" fill="rgb(255,255,255)" stroke="rgb(0,0,0)" stroke-width="0.0010cm" stroke-linecap="round" stroke-linejoin="round" shaper:cutDepth="0" /><path d="M5.520101,20.5405592 L5.732233,20.7526912 7.5,18.9849242 7.287868,18.7727922 5.520101,20.5405592z" transform="matrix(1,0,0,-1,-0,50)" fill="rgb(255,255,255)" stroke="rgb(0,0,0)" stroke-width="0.0010cm" stroke-linecap="round" stroke-linejoin="round" shaper:cutDepth="0" /><path d="M4.4594408,19.479899 L6.2272078,17.712132 6.0150758,17.5 4.2473088,19.267767 4.4594408,19.479899z" transform="matrix(1,0,0,-1,-0,50)" fill="rgb(255,255,255)" stroke="rgb(0,0,0)" stroke-width="0.0010cm" stroke-linecap="round" stroke-linejoin="round" shaper:cutDepth="0" /><path d="M40.520101,45.5405592 L40.732233,45.7526912 42.5,43.9849242 42.287868,43.7727922 40.520101,45.5405592z" transform="matrix(1,0,0,-1,-0,50)" fill="rgb(255,255,255)" stroke="rgb(0,0,0)" stroke-width="0.0010cm" stroke-linecap="round" stroke-linejoin="round" shaper:cutDepth="0" /><path d="M10.520101,20.5405592 L10.732233,20.7526912 12.5,18.9849242 12.287868,18.7727922 10.520101,20.5405592z" transform="matrix(1,0,0,-1,-0,50)" fill="rgb(255,255,255)" stroke="rgb(0,0,0)" stroke-width="0.0010cm" stroke-linecap="round" stroke-linejoin="round" shaper:cutDepth="0" /><path d="M9.4594408,24.479899 L11.2272078,22.712132 11.0150758,22.5 9.2473088,24.267767 9.4594408,24.479899z" transform="matrix(1,0,0,-1,-0,50)" fill="rgb(255,255,255)" stroke="rgb(0,0,0)" stroke-width="0.0010cm" stroke-linecap="round" stroke-linejoin="round" shaper:cutDepth="0" /><path d="M35.520101,10.5405592 L35.732233,10.7526912 37.5,8.9849242 37.287868,8.7727922 35.520101,10.5405592z" transform="matrix(1,0,0,-1,-0,50)" fill="rgb(255,255,255)" stroke="rgb(0,0,0)" stroke-width="0.0010cm" stroke-linecap="round" stroke-linejoin="round" shaper:cutDepth="0" /><path d="M40.520101,35.5405592 L40.732233,35.7526912 42.5,33.9849242 42.287868,33.7727922 40.520101,35.5405592z" transform="matrix(1,0,0,-1,-0,50)" fill="rgb(255,255,255)" stroke="rgb(0,0,0)" stroke-width="0.0010cm" stroke-linecap="round" stroke-linejoin="round" shaper:cutDepth="0" /><path d="M20.520101,20.5405592 L20.732233,20.7526912 22.5,18.9849242 22.287868,18.7727922 20.520101,20.5405592z" transform="matrix(1,0,0,-1,-0,50)" fill="rgb(255,255,255)" stroke="rgb(0,0,0)" stroke-width="0.0010cm" stroke-linecap="round" stroke-linejoin="round" shaper:cutDepth="0" /><path d="M34.4594408,14.479899 L36.2272078,12.712132 36.0150758,12.5 34.2473088,14.267767 34.4594408,14.479899z" transform="matrix(1,0,0,-1,-0,50)" fill="rgb(255,255,255)" stroke="rgb(0,0,0)" stroke-width="0.0010cm" stroke-linecap="round" stroke-linejoin="round" shaper:cutDepth="0" /><path d="M20.520101,40.5405592 L20.732233,40.7526912 22.5,38.9849242 22.287868,38.7727922 20.520101,40.5405592z" transform="matrix(1,0,0,-1,-0,50)" fill="rgb(255,255,255)" stroke="rgb(0,0,0)" stroke-width="0.0010cm" stroke-linecap="round" stroke-linejoin="round" shaper:cutDepth="0" /><path d="M5.520101,45.5405592 L5.732233,45.7526912 7.5,43.9849242 7.287868,43.7727922 5.520101,45.5405592z" transform="matrix(1,0,0,-1,-0,50)" fill="rgb(255,255,255)" stroke="rgb(0,0,0)" stroke-width="0.0010cm" stroke-linecap="round" stroke-linejoin="round" shaper:cutDepth="0" /><path d="M35.520101,25.5405592 L35.732233,25.7526912 37.5,23.9849242 37.287868,23.7727922 35.520101,25.5405592z" transform="matrix(1,0,0,-1,-0,50)" fill="rgb(255,255,255)" stroke="rgb(0,0,0)" stroke-width="0.0010cm" stroke-linecap="round" stroke-linejoin="round" shaper:cutDepth="0" /><path d="M39.4594408,24.479899 L41.2272078,22.712132 41.0150758,22.5 39.2473088,24.267767 39.4594408,24.479899z" transform="matrix(1,0,0,-1,-0,50)" fill="rgb(255,255,255)" stroke="rgb(0,0,0)" stroke-width="0.0010cm" stroke-linecap="round" stroke-linejoin="round" shaper:cutDepth="0" /><path d="M39.4594408,19.479899 L41.2272078,17.712132 41.0150758,17.5 39.2473088,19.267767 39.4594408,19.479899z" transform="matrix(1,0,0,-1,-0,50)" fill="rgb(255,255,255)" stroke="rgb(0,0,0)" stroke-width="0.0010cm" stroke-linecap="round" stroke-linejoin="round" shaper:cutDepth="0" /><path d="M40.520101,20.5405592 L40.732233,20.7526912 42.5,18.9849242 42.287868,18.7727922 40.520101,20.5405592z" transform="matrix(1,0,0,-1,-0,50)" fill="rgb(255,255,255)" stroke="rgb(0,0,0)" stroke-width="0.0010cm" stroke-linecap="round" stroke-linejoin="round" shaper:cutDepth="0" /><path d="M24.4594408,34.479899 L26.2272078,32.712132 26.0150758,32.5 24.2473088,34.267767 24.4594408,34.479899z" transform="matrix(1,0,0,-1,-0,50)" fill="rgb(255,255,255)" stroke="rgb(0,0,0)" stroke-width="0.0010cm" stroke-linecap="round" stroke-linejoin="round" shaper:cutDepth="0" /><path d="M14.4594408,19.479899 L16.2272078,17.712132 16.0150758,17.5 14.2473088,19.267767 14.4594408,19.479899z" transform="matrix(1,0,0,-1,-0,50)" fill="rgb(255,255,255)" stroke="rgb(0,0,0)" stroke-width="0.0010cm" stroke-linecap="round" stroke-linejoin="round" shaper:cutDepth="0" /><path d="M14.4594408,24.479899 L16.2272078,22.712132 16.0150758,22.5 14.2473088,24.267767 14.4594408,24.479899z" transform="matrix(1,0,0,-1,-0,50)" fill="rgb(255,255,255)" stroke="rgb(0,0,0)" stroke-width="0.0010cm" stroke-linecap="round" stroke-linejoin="round" shaper:cutDepth="0" /><path d="M29.4594408,29.479899 L31.2272078,27.712132 31.0150758,27.5 29.2473088,29.267767 29.4594408,29.479899z" transform="matrix(1,0,0,-1,-0,50)" fill="rgb(255,255,255)" stroke="rgb(0,0,0)" stroke-width="0.0010cm" stroke-linecap="round" stroke-linejoin="round" shaper:cutDepth="0" /><path d="M24.4594408,29.479899 L26.2272078,27.712132 26.0150758,27.5 24.2473088,29.267767 24.4594408,29.479899z" transform="matrix(1,0,0,-1,-0,50)" fill="rgb(255,255,255)" stroke="rgb(0,0,0)" stroke-width="0.0010cm" stroke-linecap="round" stroke-linejoin="round" shaper:cutDepth="0" /><path d="M35.520101,20.5405592 L35.732233,20.7526912 37.5,18.9849242 37.287868,18.7727922 35.520101,20.5405592z" transform="matrix(1,0,0,-1,-0,50)" fill="rgb(255,255,255)" stroke="rgb(0,0,0)" stroke-width="0.0010cm" stroke-linecap="round" stroke-linejoin="round" shaper:cutDepth="0" /><path d="M39.4594408,14.479899 L41.2272078,12.712132 41.0150758,12.5 39.2473088,14.267767 39.4594408,14.479899z" transform="matrix(1,0,0,-1,-0,50)" fill="rgb(255,255,255)" stroke="rgb(0,0,0)" stroke-width="0.0010cm" stroke-linecap="round" stroke-linejoin="round" shaper:cutDepth="0" /><path d="M40.520101,10.5405592 L40.732233,10.7526912 42.5,8.9849242 42.287868,8.7727922 40.520101,10.5405592z" transform="matrix(1,0,0,-1,-0,50)" fill="rgb(255,255,255)" stroke="rgb(0,0,0)" stroke-width="0.0010cm" stroke-linecap="round" stroke-linejoin="round" shaper:cutDepth="0" /><path d="M39.4594408,34.479899 L41.2272078,32.712132 41.0150758,32.5 39.2473088,34.267767 39.4594408,34.479899z" transform="matrix(1,0,0,-1,-0,50)" fill="rgb(255,255,255)" stroke="rgb(0,0,0)" stroke-width="0.0010cm" stroke-linecap="round" stroke-linejoin="round" shaper:cutDepth="0" /><path d="M39.4594408,9.479899 L41.2272078,7.712132 41.0150758,7.5 39.2473088,9.267767 39.4594408,9.479899z" transform="matrix(1,0,0,-1,-0,50)" fill="rgb(255,255,255)" stroke="rgb(0,0,0)" stroke-width="0.0010cm" stroke-linecap="round" stroke-linejoin="round" shaper:cutDepth="0" /><path d="M40.520101,30.5405592 L40.732233,30.7526912 42.5,28.9849242 42.287868,28.7727922 40.520101,30.5405592z" transform="matrix(1,0,0,-1,-0,50)" fill="rgb(255,255,255)" stroke="rgb(0,0,0)" stroke-width="0.0010cm" stroke-linecap="round" stroke-linejoin="round" shaper:cutDepth="0" /><path d="M34.4594408,9.479899 L36.2272078,7.712132 36.0150758,7.5 34.2473088,9.267767 34.4594408,9.479899z" transform="matrix(1,0,0,-1,-0,50)" fill="rgb(255,255,255)" stroke="rgb(0,0,0)" stroke-width="0.0010cm" stroke-linecap="round" stroke-linejoin="round" shaper:cutDepth="0" /><path d="M25.520101,15.5405592 L25.732233,15.7526912 27.5,13.9849242 27.287868,13.7727922 25.520101,15.5405592z" transform="matrix(1,0,0,-1,-0,50)" fill="rgb(255,255,255)" stroke="rgb(0,0,0)" stroke-width="0.0010cm" stroke-linecap="round" stroke-linejoin="round" shaper:cutDepth="0" /><path d="M35.520101,35.5405592 L35.732233,35.7526912 37.5,33.9849242 37.287868,33.7727922 35.520101,35.5405592z" transform="matrix(1,0,0,-1,-0,50)" fill="rgb(255,255,255)" stroke="rgb(0,0,0)" stroke-width="0.0010cm" stroke-linecap="round" stroke-linejoin="round" shaper:cutDepth="0" /><path d="M20.520101,10.5405592 L20.732233,10.7526912 22.5,8.9849242 22.287868,8.7727922 20.520101,10.5405592z" transform="matrix(1,0,0,-1,-0,50)" fill="rgb(255,255,255)" stroke="rgb(0,0,0)" stroke-width="0.0010cm" stroke-linecap="round" stroke-linejoin="round" shaper:cutDepth="0" /><path d="M29.4594408,14.479899 L31.2272078,12.712132 31.0150758,12.5 29.2473088,14.267767 29.4594408,14.479899z" transform="matrix(1,0,0,-1,-0,50)" fill="rgb(255,255,255)" stroke="rgb(0,0,0)" stroke-width="0.0010cm" stroke-linecap="round" stroke-linejoin="round" shaper:cutDepth="0" /><path d="M40.520101,15.5405592 L40.732233,15.7526912 42.5,13.9849242 42.287868,13.7727922 40.520101,15.5405592z" transform="matrix(1,0,0,-1,-0,50)" fill="rgb(255,255,255)" stroke="rgb(0,0,0)" stroke-width="0.0010cm" stroke-linecap="round" stroke-linejoin="round" shaper:cutDepth="0" /><path d="M34.4594408,19.479899 L36.2272078,17.712132 36.0150758,17.5 34.2473088,19.267767 34.4594408,19.479899z" transform="matrix(1,0,0,-1,-0,50)" fill="rgb(255,255,255)" stroke="rgb(0,0,0)" stroke-width="0.0010cm" stroke-linecap="round" stroke-linejoin="round" shaper:cutDepth="0" /><path d="M19.4594408,29.479899 L21.2272078,27.712132 21.0150758,27.5 19.2473088,29.267767 19.4594408,29.479899z" transform="matrix(1,0,0,-1,-0,50)" fill="rgb(255,255,255)" stroke="rgb(0,0,0)" stroke-width="0.0010cm" stroke-linecap="round" stroke-linejoin="round" shaper:cutDepth="0" /><path d="M4.4594408,29.479899 L6.2272078,27.712132 6.0150758,27.5 4.2473088,29.267767 4.4594408,29.479899z" transform="matrix(1,0,0,-1,-0,50)" fill="rgb(255,255,255)" stroke="rgb(0,0,0)" stroke-width="0.0010cm" stroke-linecap="round" stroke-linejoin="round" shaper:cutDepth="0" /><path d="M34.4594408,29.479899 L36.2272078,27.712132 36.0150758,27.5 34.2473088,29.267767 34.4594408,29.479899z" transform="matrix(1,0,0,-1,-0,50)" fill="rgb(255,255,255)" stroke="rgb(0,0,0)" stroke-width="0.0010cm" stroke-linecap="round" stroke-linejoin="round" shaper:cutDepth="0" /><path d="M39.4594408,29.479899 L41.2272078,27.712132 41.0150758,27.5 39.2473088,29.267767 39.4594408,29.479899z" transform="matrix(1,0,0,-1,-0,50)" fill="rgb(255,255,255)" stroke="rgb(0,0,0)" stroke-width="0.0010cm" stroke-linecap="round" stroke-linejoin="round" shaper:cutDepth="0" /><path d="M34.4594408,24.479899 L36.2272078,22.712132 36.0150758,22.5 34.2473088,24.267767 34.4594408,24.479899z" transform="matrix(1,0,0,-1,-0,50)" fill="rgb(255,255,255)" stroke="rgb(0,0,0)" stroke-width="0.0010cm" stroke-linecap="round" stroke-linejoin="round" shaper:cutDepth="0" /><path d="M40.520101,25.5405592 L40.732233,25.7526912 42.5,23.9849242 42.287868,23.7727922 40.520101,25.5405592z" transform="matrix(1,0,0,-1,-0,50)" fill="rgb(255,255,255)" stroke="rgb(0,0,0)" stroke-width="0.0010cm" stroke-linecap="round" stroke-linejoin="round" shaper:cutDepth="0" /><path d="M11.4,7.5 a1.1,1.1 0 1,1 2.2,0 a1.1,1.1 0 1,1 -2.2,0z" transform="matrix(1,0,0,-1,-0,50)" fill="rgb(255,255,255)" stroke="rgb(0,0,0)" stroke-width="0.0010cm" stroke-linecap="round" stroke-linejoin="round" shaper:cutDepth="0" /><path d="M11.4,17.5 a1.1,1.1 0 1,1 2.2,0 a1.1,1.1 0 1,1 -2.2,0z" transform="matrix(1,0,0,-1,-0,50)" fill="rgb(255,255,255)" stroke="rgb(0,0,0)" stroke-width="0.0010cm" stroke-linecap="round" stroke-linejoin="round" shaper:cutDepth="0" /><path d="M11.4,27.5 a1.1,1.1 0 1,1 2.2,0 a1.1,1.1 0 1,1 -2.2,0z" transform="matrix(1,0,0,-1,-0,50)" fill="rgb(255,255,255)" stroke="rgb(0,0,0)" stroke-width="0.0010cm" stroke-linecap="round" stroke-linejoin="round" shaper:cutDepth="0" /><path d="M6.4,42.5 a1.1,1.1 0 1,1 2.2,0 a1.1,1.1 0 1,1 -2.2,0z" transform="matrix(1,0,0,-1,-0,50)" fill="rgb(255,255,255)" stroke="rgb(0,0,0)" stroke-width="0.0010cm" stroke-linecap="round" stroke-linejoin="round" shaper:cutDepth="0" /><path d="M6.4,27.5 a1.1,1.1 0 1,1 2.2,0 a1.1,1.1 0 1,1 -2.2,0z" transform="matrix(1,0,0,-1,-0,50)" fill="rgb(255,255,255)" stroke="rgb(0,0,0)" stroke-width="0.0010cm" stroke-linecap="round" stroke-linejoin="round" shaper:cutDepth="0" /><path d="M11.4,22.5 a1.1,1.1 0 1,1 2.2,0 a1.1,1.1 0 1,1 -2.2,0z" transform="matrix(1,0,0,-1,-0,50)" fill="rgb(255,255,255)" stroke="rgb(0,0,0)" stroke-width="0.0010cm" stroke-linecap="round" stroke-linejoin="round" shaper:cutDepth="0" /><path d="M6.4,37.5 a1.1,1.1 0 1,1 2.2,0 a1.1,1.1 0 1,1 -2.2,0z" transform="matrix(1,0,0,-1,-0,50)" fill="rgb(255,255,255)" stroke="rgb(0,0,0)" stroke-width="0.0010cm" stroke-linecap="round" stroke-linejoin="round" shaper:cutDepth="0" /><path d="M11.4,12.5 a1.1,1.1 0 1,1 2.2,0 a1.1,1.1 0 1,1 -2.2,0z" transform="matrix(1,0,0,-1,-0,50)" fill="rgb(255,255,255)" stroke="rgb(0,0,0)" stroke-width="0.0010cm" stroke-linecap="round" stroke-linejoin="round" shaper:cutDepth="0" /><path d="M6.4,22.5 a1.1,1.1 0 1,1 2.2,0 a1.1,1.1 0 1,1 -2.2,0z" transform="matrix(1,0,0,-1,-0,50)" fill="rgb(255,255,255)" stroke="rgb(0,0,0)" stroke-width="0.0010cm" stroke-linecap="round" stroke-linejoin="round" shaper:cutDepth="0" /><path d="M6.4,32.5 a1.1,1.1 0 1,1 2.2,0 a1.1,1.1 0 1,1 -2.2,0z" transform="matrix(1,0,0,-1,-0,50)" fill="rgb(255,255,255)" stroke="rgb(0,0,0)" stroke-width="0.0010cm" stroke-linecap="round" stroke-linejoin="round" shaper:cutDepth="0" /><path d="M6.4,17.5 a1.1,1.1 0 1,1 2.2,0 a1.1,1.1 0 1,1 -2.2,0z" transform="matrix(1,0,0,-1,-0,50)" fill="rgb(255,255,255)" stroke="rgb(0,0,0)" stroke-width="0.0010cm" stroke-linecap="round" stroke-linejoin="round" shaper:cutDepth="0" /><path d="M11.4,32.5 a1.1,1.1 0 1,1 2.2,0 a1.1,1.1 0 1,1 -2.2,0z" transform="matrix(1,0,0,-1,-0,50)" fill="rgb(255,255,255)" stroke="rgb(0,0,0)" stroke-width="0.0010cm" stroke-linecap="round" stroke-linejoin="round" shaper:cutDepth="0" /><path d="M11.4,37.5 a1.1,1.1 0 1,1 2.2,0 a1.1,1.1 0 1,1 -2.2,0z" transform="matrix(1,0,0,-1,-0,50)" fill="rgb(255,255,255)" stroke="rgb(0,0,0)" stroke-width="0.0010cm" stroke-linecap="round" stroke-linejoin="round" shaper:cutDepth="0" /><path d="M11.4,42.5 a1.1,1.1 0 1,1 2.2,0 a1.1,1.1 0 1,1 -2.2,0z" transform="matrix(1,0,0,-1,-0,50)" fill="rgb(255,255,255)" stroke="rgb(0,0,0)" stroke-width="0.0010cm" stroke-linecap="round" stroke-linejoin="round" shaper:cutDepth="0" /><path d="M6.4,12.5 a1.1,1.1 0 1,1 2.2,0 a1.1,1.1 0 1,1 -2.2,0z" transform="matrix(1,0,0,-1,-0,50)" fill="rgb(255,255,255)" stroke="rgb(0,0,0)" stroke-width="0.0010cm" stroke-linecap="round" stroke-linejoin="round" shaper:cutDepth="0" /><path d="M16.4,7.5 a1.1,1.1 0 1,1 2.2,0 a1.1,1.1 0 1,1 -2.2,0z" transform="matrix(1,0,0,-1,-0,50)" fill="rgb(255,255,255)" stroke="rgb(0,0,0)" stroke-width="0.0010cm" stroke-linecap="round" stroke-linejoin="round" shaper:cutDepth="0" /><path d="M16.4,12.5 a1.1,1.1 0 1,1 2.2,0 a1.1,1.1 0 1,1 -2.2,0z" transform="matrix(1,0,0,-1,-0,50)" fill="rgb(255,255,255)" stroke="rgb(0,0,0)" stroke-width="0.0010cm" stroke-linecap="round" stroke-linejoin="round" shaper:cutDepth="0" /><path d="M16.4,17.5 a1.1,1.1 0 1,1 2.2,0 a1.1,1.1 0 1,1 -2.2,0z" transform="matrix(1,0,0,-1,-0,50)" fill="rgb(255,255,255)" stroke="rgb(0,0,0)" stroke-width="0.0010cm" stroke-linecap="round" stroke-linejoin="round" shaper:cutDepth="0" /><path d="M16.4,37.5 a1.1,1.1 0 1,1 2.2,0 a1.1,1.1 0 1,1 -2.2,0z" transform="matrix(1,0,0,-1,-0,50)" fill="rgb(255,255,255)" stroke="rgb(0,0,0)" stroke-width="0.0010cm" stroke-linecap="round" stroke-linejoin="round" shaper:cutDepth="0" /><path d="M16.4,32.5 a1.1,1.1 0 1,1 2.2,0 a1.1,1.1 0 1,1 -2.2,0z" transform="matrix(1,0,0,-1,-0,50)" fill="rgb(255,255,255)" stroke="rgb(0,0,0)" stroke-width="0.0010cm" stroke-linecap="round" stroke-linejoin="round" shaper:cutDepth="0" /><path d="M16.4,27.5 a1.1,1.1 0 1,1 2.2,0 a1.1,1.1 0 1,1 -2.2,0z" transform="matrix(1,0,0,-1,-0,50)" fill="rgb(255,255,255)" stroke="rgb(0,0,0)" stroke-width="0.0010cm" stroke-linecap="round" stroke-linejoin="round" shaper:cutDepth="0" /><path d="M16.4,22.5 a1.1,1.1 0 1,1 2.2,0 a1.1,1.1 0 1,1 -2.2,0z" transform="matrix(1,0,0,-1,-0,50)" fill="rgb(255,255,255)" stroke="rgb(0,0,0)" stroke-width="0.0010cm" stroke-linecap="round" stroke-linejoin="round" shaper:cutDepth="0" /><path d="M16.4,42.5 a1.1,1.1 0 1,1 2.2,0 a1.1,1.1 0 1,1 -2.2,0z" transform="matrix(1,0,0,-1,-0,50)" fill="rgb(255,255,255)" stroke="rgb(0,0,0)" stroke-width="0.0010cm" stroke-linecap="round" stroke-linejoin="round" shaper:cutDepth="0" /><path d="M21.4,7.5 a1.1,1.1 0 1,1 2.2,0 a1.1,1.1 0 1,1 -2.2,0z" transform="matrix(1,0,0,-1,-0,50)" fill="rgb(255,255,255)" stroke="rgb(0,0,0)" stroke-width="0.0010cm" stroke-linecap="round" stroke-linejoin="round" shaper:cutDepth="0" /><path d="M21.4,12.5 a1.1,1.1 0 1,1 2.2,0 a1.1,1.1 0 1,1 -2.2,0z" transform="matrix(1,0,0,-1,-0,50)" fill="rgb(255,255,255)" stroke="rgb(0,0,0)" stroke-width="0.0010cm" stroke-linecap="round" stroke-linejoin="round" shaper:cutDepth="0" /><path d="M21.4,17.5 a1.1,1.1 0 1,1 2.2,0 a1.1,1.1 0 1,1 -2.2,0z" transform="matrix(1,0,0,-1,-0,50)" fill="rgb(255,255,255)" stroke="rgb(0,0,0)" stroke-width="0.0010cm" stroke-linecap="round" stroke-linejoin="round" shaper:cutDepth="0" /><path d="M21.4,22.5 a1.1,1.1 0 1,1 2.2,0 a1.1,1.1 0 1,1 -2.2,0z" transform="matrix(1,0,0,-1,-0,50)" fill="rgb(255,255,255)" stroke="rgb(0,0,0)" stroke-width="0.0010cm" stroke-linecap="round" stroke-linejoin="round" shaper:cutDepth="0" /><path d="M21.4,27.5 a1.1,1.1 0 1,1 2.2,0 a1.1,1.1 0 1,1 -2.2,0z" transform="matrix(1,0,0,-1,-0,50)" fill="rgb(255,255,255)" stroke="rgb(0,0,0)" stroke-width="0.0010cm" stroke-linecap="round" stroke-linejoin="round" shaper:cutDepth="0" /><path d="M21.4,32.5 a1.1,1.1 0 1,1 2.2,0 a1.1,1.1 0 1,1 -2.2,0z" transform="matrix(1,0,0,-1,-0,50)" fill="rgb(255,255,255)" stroke="rgb(0,0,0)" stroke-width="0.0010cm" stroke-linecap="round" stroke-linejoin="round" shaper:cutDepth="0" /><path d="M21.4,37.5 a1.1,1.1 0 1,1 2.2,0 a1.1,1.1 0 1,1 -2.2,0z" transform="matrix(1,0,0,-1,-0,50)" fill="rgb(255,255,255)" stroke="rgb(0,0,0)" stroke-width="0.0010cm" stroke-linecap="round" stroke-linejoin="round" shaper:cutDepth="0" /><path d="M41.4,42.5 a1.1,1.1 0 1,1 2.2,0 a1.1,1.1 0 1,1 -2.2,0z" transform="matrix(1,0,0,-1,-0,50)" fill="rgb(255,255,255)" stroke="rgb(0,0,0)" stroke-width="0.0010cm" stroke-linecap="round" stroke-linejoin="round" shaper:cutDepth="0" /><path d="M41.4,37.5 a1.1,1.1 0 1,1 2.2,0 a1.1,1.1 0 1,1 -2.2,0z" transform="matrix(1,0,0,-1,-0,50)" fill="rgb(255,255,255)" stroke="rgb(0,0,0)" stroke-width="0.0010cm" stroke-linecap="round" stroke-linejoin="round" shaper:cutDepth="0" /><path d="M41.4,32.5 a1.1,1.1 0 1,1 2.2,0 a1.1,1.1 0 1,1 -2.2,0z" transform="matrix(1,0,0,-1,-0,50)" fill="rgb(255,255,255)" stroke="rgb(0,0,0)" stroke-width="0.0010cm" stroke-linecap="round" stroke-linejoin="round" shaper:cutDepth="0" /><path d="M41.4,27.5 a1.1,1.1 0 1,1 2.2,0 a1.1,1.1 0 1,1 -2.2,0z" transform="matrix(1,0,0,-1,-0,50)" fill="rgb(255,255,255)" stroke="rgb(0,0,0)" stroke-width="0.0010cm" stroke-linecap="round" stroke-linejoin="round" shaper:cutDepth="0" /><path d="M41.4,22.5 a1.1,1.1 0 1,1 2.2,0 a1.1,1.1 0 1,1 -2.2,0z" transform="matrix(1,0,0,-1,-0,50)" fill="rgb(255,255,255)" stroke="rgb(0,0,0)" stroke-width="0.0010cm" stroke-linecap="round" stroke-linejoin="round" shaper:cutDepth="0" /><path d="M41.4,17.5 a1.1,1.1 0 1,1 2.2,0 a1.1,1.1 0 1,1 -2.2,0z" transform="matrix(1,0,0,-1,-0,50)" fill="rgb(255,255,255)" stroke="rgb(0,0,0)" stroke-width="0.0010cm" stroke-linecap="round" stroke-linejoin="round" shaper:cutDepth="0" /><path d="M41.4,12.5 a1.1,1.1 0 1,1 2.2,0 a1.1,1.1 0 1,1 -2.2,0z" transform="matrix(1,0,0,-1,-0,50)" fill="rgb(255,255,255)" stroke="rgb(0,0,0)" stroke-width="0.0010cm" stroke-linecap="round" stroke-linejoin="round" shaper:cutDepth="0" /><path d="M41.4,7.5 a1.1,1.1 0 1,1 2.2,0 a1.1,1.1 0 1,1 -2.2,0z" transform="matrix(1,0,0,-1,-0,50)" fill="rgb(255,255,255)" stroke="rgb(0,0,0)" stroke-width="0.0010cm" stroke-linecap="round" stroke-linejoin="round" shaper:cutDepth="0" /><path d="M36.4,42.5 a1.1,1.1 0 1,1 2.2,0 a1.1,1.1 0 1,1 -2.2,0z" transform="matrix(1,0,0,-1,-0,50)" fill="rgb(255,255,255)" stroke="rgb(0,0,0)" stroke-width="0.0010cm" stroke-linecap="round" stroke-linejoin="round" shaper:cutDepth="0" /><path d="M36.4,37.5 a1.1,1.1 0 1,1 2.2,0 a1.1,1.1 0 1,1 -2.2,0z" transform="matrix(1,0,0,-1,-0,50)" fill="rgb(255,255,255)" stroke="rgb(0,0,0)" stroke-width="0.0010cm" stroke-linecap="round" stroke-linejoin="round" shaper:cutDepth="0" /><path d="M36.4,32.5 a1.1,1.1 0 1,1 2.2,0 a1.1,1.1 0 1,1 -2.2,0z" transform="matrix(1,0,0,-1,-0,50)" fill="rgb(255,255,255)" stroke="rgb(0,0,0)" stroke-width="0.0010cm" stroke-linecap="round" stroke-linejoin="round" shaper:cutDepth="0" /><path d="M36.4,27.5 a1.1,1.1 0 1,1 2.2,0 a1.1,1.1 0 1,1 -2.2,0z" transform="matrix(1,0,0,-1,-0,50)" fill="rgb(255,255,255)" stroke="rgb(0,0,0)" stroke-width="0.0010cm" stroke-linecap="round" stroke-linejoin="round" shaper:cutDepth="0" /><path d="M36.4,22.5 a1.1,1.1 0 1,1 2.2,0 a1.1,1.1 0 1,1 -2.2,0z" transform="matrix(1,0,0,-1,-0,50)" fill="rgb(255,255,255)" stroke="rgb(0,0,0)" stroke-width="0.0010cm" stroke-linecap="round" stroke-linejoin="round" shaper:cutDepth="0" /><path d="M36.4,17.5 a1.1,1.1 0 1,1 2.2,0 a1.1,1.1 0 1,1 -2.2,0z" transform="matrix(1,0,0,-1,-0,50)" fill="rgb(255,255,255)" stroke="rgb(0,0,0)" stroke-width="0.0010cm" stroke-linecap="round" stroke-linejoin="round" shaper:cutDepth="0" /><path d="M36.4,12.5 a1.1,1.1 0 1,1 2.2,0 a1.1,1.1 0 1,1 -2.2,0z" transform="matrix(1,0,0,-1,-0,50)" fill="rgb(255,255,255)" stroke="rgb(0,0,0)" stroke-width="0.0010cm" stroke-linecap="round" stroke-linejoin="round" shaper:cutDepth="0" /><path d="M36.4,7.5 a1.1,1.1 0 1,1 2.2,0 a1.1,1.1 0 1,1 -2.2,0z" transform="matrix(1,0,0,-1,-0,50)" fill="rgb(255,255,255)" stroke="rgb(0,0,0)" stroke-width="0.0010cm" stroke-linecap="round" stroke-linejoin="round" shaper:cutDepth="0" /><path d="M31.4,42.5 a1.1,1.1 0 1,1 2.2,0 a1.1,1.1 0 1,1 -2.2,0z" transform="matrix(1,0,0,-1,-0,50)" fill="rgb(255,255,255)" stroke="rgb(0,0,0)" stroke-width="0.0010cm" stroke-linecap="round" stroke-linejoin="round" shaper:cutDepth="0" /><path d="M31.4,37.5 a1.1,1.1 0 1,1 2.2,0 a1.1,1.1 0 1,1 -2.2,0z" transform="matrix(1,0,0,-1,-0,50)" fill="rgb(255,255,255)" stroke="rgb(0,0,0)" stroke-width="0.0010cm" stroke-linecap="round" stroke-linejoin="round" shaper:cutDepth="0" /><path d="M31.4,32.5 a1.1,1.1 0 1,1 2.2,0 a1.1,1.1 0 1,1 -2.2,0z" transform="matrix(1,0,0,-1,-0,50)" fill="rgb(255,255,255)" stroke="rgb(0,0,0)" stroke-width="0.0010cm" stroke-linecap="round" stroke-linejoin="round" shaper:cutDepth="0" /><path d="M31.4,27.5 a1.1,1.1 0 1,1 2.2,0 a1.1,1.1 0 1,1 -2.2,0z" transform="matrix(1,0,0,-1,-0,50)" fill="rgb(255,255,255)" stroke="rgb(0,0,0)" stroke-width="0.0010cm" stroke-linecap="round" stroke-linejoin="round" shaper:cutDepth="0" /><path d="M31.4,22.5 a1.1,1.1 0 1,1 2.2,0 a1.1,1.1 0 1,1 -2.2,0z" transform="matrix(1,0,0,-1,-0,50)" fill="rgb(255,255,255)" stroke="rgb(0,0,0)" stroke-width="0.0010cm" stroke-linecap="round" stroke-linejoin="round" shaper:cutDepth="0" /><path d="M31.4,17.5 a1.1,1.1 0 1,1 2.2,0 a1.1,1.1 0 1,1 -2.2,0z" transform="matrix(1,0,0,-1,-0,50)" fill="rgb(255,255,255)" stroke="rgb(0,0,0)" stroke-width="0.0010cm" stroke-linecap="round" stroke-linejoin="round" shaper:cutDepth="0" /><path d="M31.4,12.5 a1.1,1.1 0 1,1 2.2,0 a1.1,1.1 0 1,1 -2.2,0z" transform="matrix(1,0,0,-1,-0,50)" fill="rgb(255,255,255)" stroke="rgb(0,0,0)" stroke-width="0.0010cm" stroke-linecap="round" stroke-linejoin="round" shaper:cutDepth="0" /><path d="M31.4,7.5 a1.1,1.1 0 1,1 2.2,0 a1.1,1.1 0 1,1 -2.2,0z" transform="matrix(1,0,0,-1,-0,50)" fill="rgb(255,255,255)" stroke="rgb(0,0,0)" stroke-width="0.0010cm" stroke-linecap="round" stroke-linejoin="round" shaper:cutDepth="0" /><path d="M26.4,42.5 a1.1,1.1 0 1,1 2.2,0 a1.1,1.1 0 1,1 -2.2,0z" transform="matrix(1,0,0,-1,-0,50)" fill="rgb(255,255,255)" stroke="rgb(0,0,0)" stroke-width="0.0010cm" stroke-linecap="round" stroke-linejoin="round" shaper:cutDepth="0" /><path d="M26.4,37.5 a1.1,1.1 0 1,1 2.2,0 a1.1,1.1 0 1,1 -2.2,0z" transform="matrix(1,0,0,-1,-0,50)" fill="rgb(255,255,255)" stroke="rgb(0,0,0)" stroke-width="0.0010cm" stroke-linecap="round" stroke-linejoin="round" shaper:cutDepth="0" /><path d="M26.4,32.5 a1.1,1.1 0 1,1 2.2,0 a1.1,1.1 0 1,1 -2.2,0z" transform="matrix(1,0,0,-1,-0,50)" fill="rgb(255,255,255)" stroke="rgb(0,0,0)" stroke-width="0.0010cm" stroke-linecap="round" stroke-linejoin="round" shaper:cutDepth="0" /><path d="M26.4,27.5 a1.1,1.1 0 1,1 2.2,0 a1.1,1.1 0 1,1 -2.2,0z" transform="matrix(1,0,0,-1,-0,50)" fill="rgb(255,255,255)" stroke="rgb(0,0,0)" stroke-width="0.0010cm" stroke-linecap="round" stroke-linejoin="round" shaper:cutDepth="0" /><path d="M26.4,22.5 a1.1,1.1 0 1,1 2.2,0 a1.1,1.1 0 1,1 -2.2,0z" transform="matrix(1,0,0,-1,-0,50)" fill="rgb(255,255,255)" stroke="rgb(0,0,0)" stroke-width="0.0010cm" stroke-linecap="round" stroke-linejoin="round" shaper:cutDepth="0" /><path d="M26.4,17.5 a1.1,1.1 0 1,1 2.2,0 a1.1,1.1 0 1,1 -2.2,0z" transform="matrix(1,0,0,-1,-0,50)" fill="rgb(255,255,255)" stroke="rgb(0,0,0)" stroke-width="0.0010cm" stroke-linecap="round" stroke-linejoin="round" shaper:cutDepth="0" /><path d="M26.4,12.5 a1.1,1.1 0 1,1 2.2,0 a1.1,1.1 0 1,1 -2.2,0z" transform="matrix(1,0,0,-1,-0,50)" fill="rgb(255,255,255)" stroke="rgb(0,0,0)" stroke-width="0.0010cm" stroke-linecap="round" stroke-linejoin="round" shaper:cutDepth="0" /><path d="M26.4,7.5 a1.1,1.1 0 1,1 2.2,0 a1.1,1.1 0 1,1 -2.2,0z" transform="matrix(1,0,0,-1,-0,50)" fill="rgb(255,255,255)" stroke="rgb(0,0,0)" stroke-width="0.0010cm" stroke-linecap="round" stroke-linejoin="round" shaper:cutDepth="0" /><path d="M21.4,42.5 a1.1,1.1 0 1,1 2.2,0 a1.1,1.1 0 1,1 -2.2,0z" transform="matrix(1,0,0,-1,-0,50)" fill="rgb(255,255,255)" stroke="rgb(0,0,0)" stroke-width="0.0010cm" stroke-linecap="round" stroke-linejoin="round" shaper:cutDepth="0" /><path d="M6.4,7.5 a1.1,1.1 0 1,1 2.2,0 a1.1,1.1 0 1,1 -2.2,0z" transform="matrix(1,0,0,-1,-0,50)" fill="rgb(255,255,255)" stroke="rgb(0,0,0)" stroke-width="0.0010cm" stroke-linecap="round" stroke-linejoin="round" shaper:cutDepth="0" /></svg>