<?xml version="1.0" encoding="utf-8"?>
<!-- Generator: Fusion 360, Shaper Origin Export Add-In, Version 1.6.3  -->
<svg xmlns="http://www.w3.org/2000/svg" xmlns:xlink="http://www.w3.org/1999/xlink" xmlns:shaper="http://www.shapertools.com/namespaces/shaper" shaper:fusionaddin="version:1.6.3" width="54cm" height="50cm" version="1.1" x="0cm" y="0cm" viewBox="0 0 54 50" enable-background="new 0 0 54 50" xml:space="preserve"><path d="M54,0 L54,50 0,50 0,0 54,0z" transform="matrix(1,0,0,-1,-0,50)" fill="rgb(0,0,0)" shaper:cutDepth="0" stroke-linecap="round" stroke-linejoin="round" /><path d="M17.35,47.5 a0.15,0.15 0 1,1 0.3,0 a0.15,0.15 0 1,1 -0.3,0z" transform="matrix(1,0,0,-1,-0,50)" fill="rgb(255,255,255)" stroke="rgb(0,0,0)" stroke-width="0.0010cm" stroke-linecap="round" stroke-linejoin="round" shaper:cutDepth="0" /><path d="M47.35,2.5 a0.15,0.15 0 1,1 0.3,0 a0.15,0.15 0 1,1 -0.3,0z" transform="matrix(1,0,0,-1,-0,50)" fill="rgb(255,255,255)" stroke="rgb(0,0,0)" stroke-width="0.0010cm" stroke-linecap="round" stroke-linejoin="round" shaper:cutDepth="0" /><path d="M47.35,47.5 a0.15,0.15 0 1,1 0.3,0 a0.15,0.15 0 1,1 -0.3,0z" transform="matrix(1,0,0,-1,-0,50)" fill="rgb(255,255,255)" stroke="rgb(0,0,0)" stroke-width="0.0010cm" stroke-linecap="round" stroke-linejoin="round" shaper:cutDepth="0" /><path d="M32.35,47.5 a0.15,0.15 0 1,1 0.3,0 a0.15,0.15 0 1,1 -0.3,0z" transform="matrix(1,0,0,-1,-0,50)" fill="rgb(255,255,255)" stroke="rgb(0,0,0)" stroke-width="0.0010cm" stroke-linecap="round" stroke-linejoin="round" shaper:cutDepth="0" /><path d="M2.35,17.5 a0.15,0.15 0 1,1 0.3,0 a0.15,0.15 0 1,1 -0.3,0z" transform="matrix(1,0,0,-1,-0,50)" fill="rgb(255,255,255)" stroke="rgb(0,0,0)" stroke-width="0.0010cm" stroke-linecap="round" stroke-linejoin="round" shaper:cutDepth="0" /><path d="M2.35,2.5 a0.15,0.15 0 1,1 0.3,0 a0.15,0.15 0 1,1 -0.3,0z" transform="matrix(1,0,0,-1,-0,50)" fill="rgb(255,255,255)" stroke="rgb(0,0,0)" stroke-width="0.0010cm" stroke-linecap="round" stroke-linejoin="round" shaper:cutDepth="0" /><path d="M2.35,32.5 a0.15,0.15 0 1,1 0.3,0 a0.15,0.15 0 1,1 -0.3,0z" transform="matrix(1,0,0,-1,-0,50)" fill="rgb(255,255,255)" stroke="rgb(0,0,0)" stroke-width="0.0010cm" stroke-linecap="round" stroke-linejoin="round" shaper:cutDepth="0" /><path d="M32.35,2.5 a0.15,0.15 0 1,1 0.3,0 a0.15,0.15 0 1,1 -0.3,0z" transform="matrix(1,0,0,-1,-0,50)" fill="rgb(255,255,255)" stroke="rgb(0,0,0)" stroke-width="0.0010cm" stroke-linecap="round" stroke-linejoin="round" shaper:cutDepth="0" /><path d="M2.35,47.5 a0.15,0.15 0 1,1 0.3,0 a0.15,0.15 0 1,1 -0.3,0z" transform="matrix(1,0,0,-1,-0,50)" fill="rgb(255,255,255)" stroke="rgb(0,0,0)" stroke-width="0.0010cm" stroke-linecap="round" stroke-linejoin="round" shaper:cutDepth="0" /><path d="M17.35,2.5 a0.15,0.15 0 1,1 0.3,0 a0.15,0.15 0 1,1 -0.3,0z" transform="matrix(1,0,0,-1,-0,50)" fill="rgb(255,255,255)" stroke="rgb(0,0,0)" stroke-width="0.0010cm" stroke-linecap="round" stroke-linejoin="round" shaper:cutDepth="0" /><path d="M39.6186113,31.8828606 a0.15,0.15 0 1,1 0.3,0 a0.15,0.15 0 1,1 -0.3,0z" transform="matrix(1,0,0,-1,-0,50)" fill="rgb(255,255,255)" stroke="rgb(0,0,0)" stroke-width="0.0010cm" stroke-linecap="round" stroke-linejoin="round" shaper:cutDepth="0" /><path d="M39.6186113,11.8828606 a0.15,0.15 0 1,1 0.3,0 a0.15,0.15 0 1,1 -0.3,0z" transform="matrix(1,0,0,-1,-0,50)" fill="rgb(255,255,255)" stroke="rgb(0,0,0)" stroke-width="0.0010cm" stroke-linecap="round" stroke-linejoin="round" shaper:cutDepth="0" /><path d="M39.6186113,26.8828606 a0.15,0.15 0 1,1 0.3,0 a0.15,0.15 0 1,1 -0.3,0z" transform="matrix(1,0,0,-1,-0,50)" fill="rgb(255,255,255)" stroke="rgb(0,0,0)" stroke-width="0.0010cm" stroke-linecap="round" stroke-linejoin="round" shaper:cutDepth="0" /><path d="M39.6186113,36.8828606 a0.15,0.15 0 1,1 0.3,0 a0.15,0.15 0 1,1 -0.3,0z" transform="matrix(1,0,0,-1,-0,50)" fill="rgb(255,255,255)" stroke="rgb(0,0,0)" stroke-width="0.0010cm" stroke-linecap="round" stroke-linejoin="round" shaper:cutDepth="0" /><path d="M39.6186113,16.8828606 a0.15,0.15 0 1,1 0.3,0 a0.15,0.15 0 1,1 -0.3,0z" transform="matrix(1,0,0,-1,-0,50)" fill="rgb(255,255,255)" stroke="rgb(0,0,0)" stroke-width="0.0010cm" stroke-linecap="round" stroke-linejoin="round" shaper:cutDepth="0" /><path d="M39.6186113,21.8828606 a0.15,0.15 0 1,1 0.3,0 a0.15,0.15 0 1,1 -0.3,0z" transform="matrix(1,0,0,-1,-0,50)" fill="rgb(255,255,255)" stroke="rgb(0,0,0)" stroke-width="0.0010cm" stroke-linecap="round" stroke-linejoin="round" shaper:cutDepth="0" /><path d="M39.6186113,41.8828606 a0.15,0.15 0 1,1 0.3,0 a0.15,0.15 0 1,1 -0.3,0z" transform="matrix(1,0,0,-1,-0,50)" fill="rgb(255,255,255)" stroke="rgb(0,0,0)" stroke-width="0.0010cm" stroke-linecap="round" stroke-linejoin="round" shaper:cutDepth="0" /><path d="M11.1,7.5 a1.4,1.4 0 1,1 2.8,0 a1.4,1.4 0 1,1 -2.8,0z" transform="matrix(1,0,0,-1,-0,50)" fill="rgb(255,255,255)" stroke="rgb(0,0,0)" stroke-width="0.0010cm" stroke-linecap="round" stroke-linejoin="round" shaper:cutDepth="0" /><path d="M31.1,7.5 a1.4,1.4 0 1,1 2.8,0 a1.4,1.4 0 1,1 -2.8,0z" transform="matrix(1,0,0,-1,-0,50)" fill="rgb(255,255,255)" stroke="rgb(0,0,0)" stroke-width="0.0010cm" stroke-linecap="round" stroke-linejoin="round" shaper:cutDepth="0" /><path d="M31.1,17.5 a1.4,1.4 0 1,1 2.8,0 a1.4,1.4 0 1,1 -2.8,0z" transform="matrix(1,0,0,-1,-0,50)" fill="rgb(255,255,255)" stroke="rgb(0,0,0)" stroke-width="0.0010cm" stroke-linecap="round" stroke-linejoin="round" shaper:cutDepth="0" /><path d="M21.1,22.5 a1.4,1.4 0 1,1 2.8,0 a1.4,1.4 0 1,1 -2.8,0z" transform="matrix(1,0,0,-1,-0,50)" fill="rgb(255,255,255)" stroke="rgb(0,0,0)" stroke-width="0.0010cm" stroke-linecap="round" stroke-linejoin="round" shaper:cutDepth="0" /><path d="M11.1,17.5 a1.4,1.4 0 1,1 2.8,0 a1.4,1.4 0 1,1 -2.8,0z" transform="matrix(1,0,0,-1,-0,50)" fill="rgb(255,255,255)" stroke="rgb(0,0,0)" stroke-width="0.0010cm" stroke-linecap="round" stroke-linejoin="round" shaper:cutDepth="0" /><path d="M16.1,17.5 a1.4,1.4 0 1,1 2.8,0 a1.4,1.4 0 1,1 -2.8,0z" transform="matrix(1,0,0,-1,-0,50)" fill="rgb(255,255,255)" stroke="rgb(0,0,0)" stroke-width="0.0010cm" stroke-linecap="round" stroke-linejoin="round" shaper:cutDepth="0" /><path d="M31.1,12.5 a1.4,1.4 0 1,1 2.8,0 a1.4,1.4 0 1,1 -2.8,0z" transform="matrix(1,0,0,-1,-0,50)" fill="rgb(255,255,255)" stroke="rgb(0,0,0)" stroke-width="0.0010cm" stroke-linecap="round" stroke-linejoin="round" shaper:cutDepth="0" /><path d="M31.1,37.5 a1.4,1.4 0 1,1 2.8,0 a1.4,1.4 0 1,1 -2.8,0z" transform="matrix(1,0,0,-1,-0,50)" fill="rgb(255,255,255)" stroke="rgb(0,0,0)" stroke-width="0.0010cm" stroke-linecap="round" stroke-linejoin="round" shaper:cutDepth="0" /><path d="M21.1,27.5 a1.4,1.4 0 1,1 2.8,0 a1.4,1.4 0 1,1 -2.8,0z" transform="matrix(1,0,0,-1,-0,50)" fill="rgb(255,255,255)" stroke="rgb(0,0,0)" stroke-width="0.0010cm" stroke-linecap="round" stroke-linejoin="round" shaper:cutDepth="0" /><path d="M11.1,32.5 a1.4,1.4 0 1,1 2.8,0 a1.4,1.4 0 1,1 -2.8,0z" transform="matrix(1,0,0,-1,-0,50)" fill="rgb(255,255,255)" stroke="rgb(0,0,0)" stroke-width="0.0010cm" stroke-linecap="round" stroke-linejoin="round" shaper:cutDepth="0" /><path d="M11.1,12.5 a1.4,1.4 0 1,1 2.8,0 a1.4,1.4 0 1,1 -2.8,0z" transform="matrix(1,0,0,-1,-0,50)" fill="rgb(255,255,255)" stroke="rgb(0,0,0)" stroke-width="0.0010cm" stroke-linecap="round" stroke-linejoin="round" shaper:cutDepth="0" /><path d="M26.1,7.5 a1.4,1.4 0 1,1 2.8,0 a1.4,1.4 0 1,1 -2.8,0z" transform="matrix(1,0,0,-1,-0,50)" fill="rgb(255,255,255)" stroke="rgb(0,0,0)" stroke-width="0.0010cm" stroke-linecap="round" stroke-linejoin="round" shaper:cutDepth="0" /><path d="M6.1,7.5 a1.4,1.4 0 1,1 2.8,0 a1.4,1.4 0 1,1 -2.8,0z" transform="matrix(1,0,0,-1,-0,50)" fill="rgb(255,255,255)" stroke="rgb(0,0,0)" stroke-width="0.0010cm" stroke-linecap="round" stroke-linejoin="round" shaper:cutDepth="0" /><path d="M31.1,32.5 a1.4,1.4 0 1,1 2.8,0 a1.4,1.4 0 1,1 -2.8,0z" transform="matrix(1,0,0,-1,-0,50)" fill="rgb(255,255,255)" stroke="rgb(0,0,0)" stroke-width="0.0010cm" stroke-linecap="round" stroke-linejoin="round" shaper:cutDepth="0" /><path d="M36.1,7.5 a1.4,1.4 0 1,1 2.8,0 a1.4,1.4 0 1,1 -2.8,0z" transform="matrix(1,0,0,-1,-0,50)" fill="rgb(255,255,255)" stroke="rgb(0,0,0)" stroke-width="0.0010cm" stroke-linecap="round" stroke-linejoin="round" shaper:cutDepth="0" /><path d="M21.1,17.5 a1.4,1.4 0 1,1 2.8,0 a1.4,1.4 0 1,1 -2.8,0z" transform="matrix(1,0,0,-1,-0,50)" fill="rgb(255,255,255)" stroke="rgb(0,0,0)" stroke-width="0.0010cm" stroke-linecap="round" stroke-linejoin="round" shaper:cutDepth="0" /><path d="M26.1,32.5 a1.4,1.4 0 1,1 2.8,0 a1.4,1.4 0 1,1 -2.8,0z" transform="matrix(1,0,0,-1,-0,50)" fill="rgb(255,255,255)" stroke="rgb(0,0,0)" stroke-width="0.0010cm" stroke-linecap="round" stroke-linejoin="round" shaper:cutDepth="0" /><path d="M31.1,27.5 a1.4,1.4 0 1,1 2.8,0 a1.4,1.4 0 1,1 -2.8,0z" transform="matrix(1,0,0,-1,-0,50)" fill="rgb(255,255,255)" stroke="rgb(0,0,0)" stroke-width="0.0010cm" stroke-linecap="round" stroke-linejoin="round" shaper:cutDepth="0" /><path d="M36.1,17.5 a1.4,1.4 0 1,1 2.8,0 a1.4,1.4 0 1,1 -2.8,0z" transform="matrix(1,0,0,-1,-0,50)" fill="rgb(255,255,255)" stroke="rgb(0,0,0)" stroke-width="0.0010cm" stroke-linecap="round" stroke-linejoin="round" shaper:cutDepth="0" /><path d="M21.1,42.5 a1.4,1.4 0 1,1 2.8,0 a1.4,1.4 0 1,1 -2.8,0z" transform="matrix(1,0,0,-1,-0,50)" fill="rgb(255,255,255)" stroke="rgb(0,0,0)" stroke-width="0.0010cm" stroke-linecap="round" stroke-linejoin="round" shaper:cutDepth="0" /><path d="M36.1,12.5 a1.4,1.4 0 1,1 2.8,0 a1.4,1.4 0 1,1 -2.8,0z" transform="matrix(1,0,0,-1,-0,50)" fill="rgb(255,255,255)" stroke="rgb(0,0,0)" stroke-width="0.0010cm" stroke-linecap="round" stroke-linejoin="round" shaper:cutDepth="0" /><path d="M26.1,42.5 a1.4,1.4 0 1,1 2.8,0 a1.4,1.4 0 1,1 -2.8,0z" transform="matrix(1,0,0,-1,-0,50)" fill="rgb(255,255,255)" stroke="rgb(0,0,0)" stroke-width="0.0010cm" stroke-linecap="round" stroke-linejoin="round" shaper:cutDepth="0" /><path d="M11.1,37.5 a1.4,1.4 0 1,1 2.8,0 a1.4,1.4 0 1,1 -2.8,0z" transform="matrix(1,0,0,-1,-0,50)" fill="rgb(255,255,255)" stroke="rgb(0,0,0)" stroke-width="0.0010cm" stroke-linecap="round" stroke-linejoin="round" shaper:cutDepth="0" /><path d="M21.1,7.5 a1.4,1.4 0 1,1 2.8,0 a1.4,1.4 0 1,1 -2.8,0z" transform="matrix(1,0,0,-1,-0,50)" fill="rgb(255,255,255)" stroke="rgb(0,0,0)" stroke-width="0.0010cm" stroke-linecap="round" stroke-linejoin="round" shaper:cutDepth="0" /><path d="M21.1,12.5 a1.4,1.4 0 1,1 2.8,0 a1.4,1.4 0 1,1 -2.8,0z" transform="matrix(1,0,0,-1,-0,50)" fill="rgb(255,255,255)" stroke="rgb(0,0,0)" stroke-width="0.0010cm" stroke-linecap="round" stroke-linejoin="round" shaper:cutDepth="0" /><path d="M26.1,27.5 a1.4,1.4 0 1,1 2.8,0 a1.4,1.4 0 1,1 -2.8,0z" transform="matrix(1,0,0,-1,-0,50)" fill="rgb(255,255,255)" stroke="rgb(0,0,0)" stroke-width="0.0010cm" stroke-linecap="round" stroke-linejoin="round" shaper:cutDepth="0" /><path d="M21.1,37.5 a1.4,1.4 0 1,1 2.8,0 a1.4,1.4 0 1,1 -2.8,0z" transform="matrix(1,0,0,-1,-0,50)" fill="rgb(255,255,255)" stroke="rgb(0,0,0)" stroke-width="0.0010cm" stroke-linecap="round" stroke-linejoin="round" shaper:cutDepth="0" /><path d="M16.1,42.5 a1.4,1.4 0 1,1 2.8,0 a1.4,1.4 0 1,1 -2.8,0z" transform="matrix(1,0,0,-1,-0,50)" fill="rgb(255,255,255)" stroke="rgb(0,0,0)" stroke-width="0.0010cm" stroke-linecap="round" stroke-linejoin="round" shaper:cutDepth="0" /><path d="M16.1,37.5 a1.4,1.4 0 1,1 2.8,0 a1.4,1.4 0 1,1 -2.8,0z" transform="matrix(1,0,0,-1,-0,50)" fill="rgb(255,255,255)" stroke="rgb(0,0,0)" stroke-width="0.0010cm" stroke-linecap="round" stroke-linejoin="round" shaper:cutDepth="0" /><path d="M26.1,22.5 a1.4,1.4 0 1,1 2.8,0 a1.4,1.4 0 1,1 -2.8,0z" transform="matrix(1,0,0,-1,-0,50)" fill="rgb(255,255,255)" stroke="rgb(0,0,0)" stroke-width="0.0010cm" stroke-linecap="round" stroke-linejoin="round" shaper:cutDepth="0" /><path d="M16.1,12.5 a1.4,1.4 0 1,1 2.8,0 a1.4,1.4 0 1,1 -2.8,0z" transform="matrix(1,0,0,-1,-0,50)" fill="rgb(255,255,255)" stroke="rgb(0,0,0)" stroke-width="0.0010cm" stroke-linecap="round" stroke-linejoin="round" shaper:cutDepth="0" /><path d="M11.1,22.5 a1.4,1.4 0 1,1 2.8,0 a1.4,1.4 0 1,1 -2.8,0z" transform="matrix(1,0,0,-1,-0,50)" fill="rgb(255,255,255)" stroke="rgb(0,0,0)" stroke-width="0.0010cm" stroke-linecap="round" stroke-linejoin="round" shaper:cutDepth="0" /><path d="M11.1,27.5 a1.4,1.4 0 1,1 2.8,0 a1.4,1.4 0 1,1 -2.8,0z" transform="matrix(1,0,0,-1,-0,50)" fill="rgb(255,255,255)" stroke="rgb(0,0,0)" stroke-width="0.0010cm" stroke-linecap="round" stroke-linejoin="round" shaper:cutDepth="0" /><path d="M31.1,22.5 a1.4,1.4 0 1,1 2.8,0 a1.4,1.4 0 1,1 -2.8,0z" transform="matrix(1,0,0,-1,-0,50)" fill="rgb(255,255,255)" stroke="rgb(0,0,0)" stroke-width="0.0010cm" stroke-linecap="round" stroke-linejoin="round" shaper:cutDepth="0" /><path d="M16.1,7.5 a1.4,1.4 0 1,1 2.8,0 a1.4,1.4 0 1,1 -2.8,0z" transform="matrix(1,0,0,-1,-0,50)" fill="rgb(255,255,255)" stroke="rgb(0,0,0)" stroke-width="0.0010cm" stroke-linecap="round" stroke-linejoin="round" shaper:cutDepth="0" /><path d="M16.1,32.5 a1.4,1.4 0 1,1 2.8,0 a1.4,1.4 0 1,1 -2.8,0z" transform="matrix(1,0,0,-1,-0,50)" fill="rgb(255,255,255)" stroke="rgb(0,0,0)" stroke-width="0.0010cm" stroke-linecap="round" stroke-linejoin="round" shaper:cutDepth="0" /><path d="M26.1,37.5 a1.4,1.4 0 1,1 2.8,0 a1.4,1.4 0 1,1 -2.8,0z" transform="matrix(1,0,0,-1,-0,50)" fill="rgb(255,255,255)" stroke="rgb(0,0,0)" stroke-width="0.0010cm" stroke-linecap="round" stroke-linejoin="round" shaper:cutDepth="0" /><path d="M36.1,22.5 a1.4,1.4 0 1,1 2.8,0 a1.4,1.4 0 1,1 -2.8,0z" transform="matrix(1,0,0,-1,-0,50)" fill="rgb(255,255,255)" stroke="rgb(0,0,0)" stroke-width="0.0010cm" stroke-linecap="round" stroke-linejoin="round" shaper:cutDepth="0" /><path d="M26.1,12.5 a1.4,1.4 0 1,1 2.8,0 a1.4,1.4 0 1,1 -2.8,0z" transform="matrix(1,0,0,-1,-0,50)" fill="rgb(255,255,255)" stroke="rgb(0,0,0)" stroke-width="0.0010cm" stroke-linecap="round" stroke-linejoin="round" shaper:cutDepth="0" /><path d="M6.1,12.5 a1.4,1.4 0 1,1 2.8,0 a1.4,1.4 0 1,1 -2.8,0z" transform="matrix(1,0,0,-1,-0,50)" fill="rgb(255,255,255)" stroke="rgb(0,0,0)" stroke-width="0.0010cm" stroke-linecap="round" stroke-linejoin="round" shaper:cutDepth="0" /><path d="M21.1,32.5 a1.4,1.4 0 1,1 2.8,0 a1.4,1.4 0 1,1 -2.8,0z" transform="matrix(1,0,0,-1,-0,50)" fill="rgb(255,255,255)" stroke="rgb(0,0,0)" stroke-width="0.0010cm" stroke-linecap="round" stroke-linejoin="round" shaper:cutDepth="0" /><path d="M16.1,27.5 a1.4,1.4 0 1,1 2.8,0 a1.4,1.4 0 1,1 -2.8,0z" transform="matrix(1,0,0,-1,-0,50)" fill="rgb(255,255,255)" stroke="rgb(0,0,0)" stroke-width="0.0010cm" stroke-linecap="round" stroke-linejoin="round" shaper:cutDepth="0" /><path d="M11.1,42.5 a1.4,1.4 0 1,1 2.8,0 a1.4,1.4 0 1,1 -2.8,0z" transform="matrix(1,0,0,-1,-0,50)" fill="rgb(255,255,255)" stroke="rgb(0,0,0)" stroke-width="0.0010cm" stroke-linecap="round" stroke-linejoin="round" shaper:cutDepth="0" /><path d="M31.1,42.5 a1.4,1.4 0 1,1 2.8,0 a1.4,1.4 0 1,1 -2.8,0z" transform="matrix(1,0,0,-1,-0,50)" fill="rgb(255,255,255)" stroke="rgb(0,0,0)" stroke-width="0.0010cm" stroke-linecap="round" stroke-linejoin="round" shaper:cutDepth="0" /><path d="M16.1,22.5 a1.4,1.4 0 1,1 2.8,0 a1.4,1.4 0 1,1 -2.8,0z" transform="matrix(1,0,0,-1,-0,50)" fill="rgb(255,255,255)" stroke="rgb(0,0,0)" stroke-width="0.0010cm" stroke-linecap="round" stroke-linejoin="round" shaper:cutDepth="0" /><path d="M26.1,17.5 a1.4,1.4 0 1,1 2.8,0 a1.4,1.4 0 1,1 -2.8,0z" transform="matrix(1,0,0,-1,-0,50)" fill="rgb(255,255,255)" stroke="rgb(0,0,0)" stroke-width="0.0010cm" stroke-linecap="round" stroke-linejoin="round" shaper:cutDepth="0" /><path d="M6.1,42.5 a1.4,1.4 0 1,1 2.8,0 a1.4,1.4 0 1,1 -2.8,0z" transform="matrix(1,0,0,-1,-0,50)" fill="rgb(255,255,255)" stroke="rgb(0,0,0)" stroke-width="0.0010cm" stroke-linecap="round" stroke-linejoin="round" shaper:cutDepth="0" /><path d="M6.1,27.5 a1.4,1.4 0 1,1 2.8,0 a1.4,1.4 0 1,1 -2.8,0z" transform="matrix(1,0,0,-1,-0,50)" fill="rgb(255,255,255)" stroke="rgb(0,0,0)" stroke-width="0.0010cm" stroke-linecap="round" stroke-linejoin="round" shaper:cutDepth="0" /><path d="M6.1,37.5 a1.4,1.4 0 1,1 2.8,0 a1.4,1.4 0 1,1 -2.8,0z" transform="matrix(1,0,0,-1,-0,50)" fill="rgb(255,255,255)" stroke="rgb(0,0,0)" stroke-width="0.0010cm" stroke-linecap="round" stroke-linejoin="round" shaper:cutDepth="0" /><path d="M6.1,32.5 a1.4,1.4 0 1,1 2.8,0 a1.4,1.4 0 1,1 -2.8,0z" transform="matrix(1,0,0,-1,-0,50)" fill="rgb(255,255,255)" stroke="rgb(0,0,0)" stroke-width="0.0010cm" stroke-linecap="round" stroke-linejoin="round" shaper:cutDepth="0" /><path d="M6.1,22.5 a1.4,1.4 0 1,1 2.8,0 a1.4,1.4 0 1,1 -2.8,0z" transform="matrix(1,0,0,-1,-0,50)" fill="rgb(255,255,255)" stroke="rgb(0,0,0)" stroke-width="0.0010cm" stroke-linecap="round" stroke-linejoin="round" shaper:cutDepth="0" /><path d="M6.1,17.5 a1.4,1.4 0 1,1 2.8,0 a1.4,1.4 0 1,1 -2.8,0z" transform="matrix(1,0,0,-1,-0,50)" fill="rgb(255,255,255)" stroke="rgb(0,0,0)" stroke-width="0.0010cm" stroke-linecap="round" stroke-linejoin="round" shaper:cutDepth="0" /><path d="M41.1,22.5 a1.4,1.4 0 1,1 2.8,0 a1.4,1.4 0 1,1 -2.8,0z" transform="matrix(1,0,0,-1,-0,50)" fill="rgb(255,255,255)" stroke="rgb(0,0,0)" stroke-width="0.0010cm" stroke-linecap="round" stroke-linejoin="round" shaper:cutDepth="0" /><path d="M41.1,27.5 a1.4,1.4 0 1,1 2.8,0 a1.4,1.4 0 1,1 -2.8,0z" transform="matrix(1,0,0,-1,-0,50)" fill="rgb(255,255,255)" stroke="rgb(0,0,0)" stroke-width="0.0010cm" stroke-linecap="round" stroke-linejoin="round" shaper:cutDepth="0" /><path d="M41.1,32.5 a1.4,1.4 0 1,1 2.8,0 a1.4,1.4 0 1,1 -2.8,0z" transform="matrix(1,0,0,-1,-0,50)" fill="rgb(255,255,255)" stroke="rgb(0,0,0)" stroke-width="0.0010cm" stroke-linecap="round" stroke-linejoin="round" shaper:cutDepth="0" /><path d="M36.1,37.5 a1.4,1.4 0 1,1 2.8,0 a1.4,1.4 0 1,1 -2.8,0z" transform="matrix(1,0,0,-1,-0,50)" fill="rgb(255,255,255)" stroke="rgb(0,0,0)" stroke-width="0.0010cm" stroke-linecap="round" stroke-linejoin="round" shaper:cutDepth="0" /><path d="M36.1,27.5 a1.4,1.4 0 1,1 2.8,0 a1.4,1.4 0 1,1 -2.8,0z" transform="matrix(1,0,0,-1,-0,50)" fill="rgb(255,255,255)" stroke="rgb(0,0,0)" stroke-width="0.0010cm" stroke-linecap="round" stroke-linejoin="round" shaper:cutDepth="0" /><path d="M41.1,37.5 a1.4,1.4 0 1,1 2.8,0 a1.4,1.4 0 1,1 -2.8,0z" transform="matrix(1,0,0,-1,-0,50)" fill="rgb(255,255,255)" stroke="rgb(0,0,0)" stroke-width="0.0010cm" stroke-linecap="round" stroke-linejoin="round" shaper:cutDepth="0" /><path d="M36.1,42.5 a1.4,1.4 0 1,1 2.8,0 a1.4,1.4 0 1,1 -2.8,0z" transform="matrix(1,0,0,-1,-0,50)" fill="rgb(255,255,255)" stroke="rgb(0,0,0)" stroke-width="0.0010cm" stroke-linecap="round" stroke-linejoin="round" shaper:cutDepth="0" /><path d="M41.1,7.5 a1.4,1.4 0 1,1 2.8,0 a1.4,1.4 0 1,1 -2.8,0z" transform="matrix(1,0,0,-1,-0,50)" fill="rgb(255,255,255)" stroke="rgb(0,0,0)" stroke-width="0.0010cm" stroke-linecap="round" stroke-linejoin="round" shaper:cutDepth="0" /><path d="M41.1,12.5 a1.4,1.4 0 1,1 2.8,0 a1.4,1.4 0 1,1 -2.8,0z" transform="matrix(1,0,0,-1,-0,50)" fill="rgb(255,255,255)" stroke="rgb(0,0,0)" stroke-width="0.0010cm" stroke-linecap="round" stroke-linejoin="round" shaper:cutDepth="0" /><path d="M41.1,17.5 a1.4,1.4 0 1,1 2.8,0 a1.4,1.4 0 1,1 -2.8,0z" transform="matrix(1,0,0,-1,-0,50)" fill="rgb(255,255,255)" stroke="rgb(0,0,0)" stroke-width="0.0010cm" stroke-linecap="round" stroke-linejoin="round" shaper:cutDepth="0" /><path d="M36.1,32.5 a1.4,1.4 0 1,1 2.8,0 a1.4,1.4 0 1,1 -2.8,0z" transform="matrix(1,0,0,-1,-0,50)" fill="rgb(255,255,255)" stroke="rgb(0,0,0)" stroke-width="0.0010cm" stroke-linecap="round" stroke-linejoin="round" shaper:cutDepth="0" /><path d="M41.1,42.5 a1.4,1.4 0 1,1 2.8,0 a1.4,1.4 0 1,1 -2.8,0z" transform="matrix(1,0,0,-1,-0,50)" fill="rgb(255,255,255)" stroke="rgb(0,0,0)" stroke-width="0.0010cm" stroke-linecap="round" stroke-linejoin="round" shaper:cutDepth="0" /><path d="M43.9,9.05 L7.5,9.05 A0.95,0.95 270 0,0 7.5,10.95 L43.9,10.95 A2.0886599,2.0886599 312.0891622 0,1 43.9,14.05 L7.5,14.05 A0.95,0.95 270 0,0 7.5,15.95 L43.9,15.95 A2.0886599,2.0886599 312.0891622 0,1 43.9,19.05 L7.5,19.05 A0.95,0.95 270 0,0 7.5,20.95 L43.9,20.95 A2.0886599,2.0886599 312.0891622 0,1 43.9,24.05 L7.5,24.05 A0.95,0.95 270 0,0 7.5,25.95 L43.9,25.95 A2.0886599,2.0886599 312.0891622 0,1 43.9,29.05 L7.5,29.05 A0.95,0.95 270 0,0 7.5,30.95 L43.9,30.95 A2.0886599,2.0886599 312.0891622 0,1 43.9,34.05 L7.5,34.05 A0.95,0.95 270 0,0 7.5,35.95 L43.9,35.95 A2.0886599,2.0886599 312.0891622 0,1 43.9,39.05 L7.5,39.05 A0.95,0.95 270 0,0 7.5,40.95 L43.9,40.95 A2.0886599,2.0886599 312.0891622 0,1 43.9,44.05 L7.5,44.05 A0.95,0.95 270 0,0 7.5,45.95 L43.9,45.95 48.95,40.9 48.95,14.1 43.9,9.05z" transform="matrix(1,0,0,-1,-0,50)" fill="rgb(255,255,255)" stroke="rgb(0,0,0)" stroke-width="0.0010cm" stroke-linecap="round" stroke-linejoin="round" shaper:cutDepth="0" /></svg>