<?xml version="1.0" encoding="utf-8"?>
<!-- Generator: Fusion 360, Shaper Origin Export Add-In, Version 1.6.3  -->
<svg xmlns="http://www.w3.org/2000/svg" xmlns:xlink="http://www.w3.org/1999/xlink" xmlns:shaper="http://www.shapertools.com/namespaces/shaper" shaper:fusionaddin="version:1.6.3" width="50cm" height="35cm" version="1.1" x="0cm" y="0cm" viewBox="0 0 50 35" enable-background="new 0 0 50 35" xml:space="preserve"><path d="M50,35 L0,35 0,0 50,0 50,35z" transform="matrix(1,0,0,-1,-0,35)" fill="rgb(0,0,0)" shaper:cutDepth="0" stroke-linecap="round" stroke-linejoin="round" /><path d="M47.35,17.5 a0.15,0.15 0 1,1 0.3,0 a0.15,0.15 0 1,1 -0.3,0z" transform="matrix(1,0,0,-1,-0,35)" fill="rgb(255,255,255)" stroke="rgb(0,0,0)" stroke-width="0.0010cm" stroke-linecap="round" stroke-linejoin="round" shaper:cutDepth="0" /><path d="M47.35,2.5 a0.15,0.15 0 1,1 0.3,0 a0.15,0.15 0 1,1 -0.3,0z" transform="matrix(1,0,0,-1,-0,35)" fill="rgb(255,255,255)" stroke="rgb(0,0,0)" stroke-width="0.0010cm" stroke-linecap="round" stroke-linejoin="round" shaper:cutDepth="0" /><path d="M17.35,32.5 a0.15,0.15 0 1,1 0.3,0 a0.15,0.15 0 1,1 -0.3,0z" transform="matrix(1,0,0,-1,-0,35)" fill="rgb(255,255,255)" stroke="rgb(0,0,0)" stroke-width="0.0010cm" stroke-linecap="round" stroke-linejoin="round" shaper:cutDepth="0" /><path d="M2.35,32.5 a0.15,0.15 0 1,1 0.3,0 a0.15,0.15 0 1,1 -0.3,0z" transform="matrix(1,0,0,-1,-0,35)" fill="rgb(255,255,255)" stroke="rgb(0,0,0)" stroke-width="0.0010cm" stroke-linecap="round" stroke-linejoin="round" shaper:cutDepth="0" /><path d="M32.35,32.5 a0.15,0.15 0 1,1 0.3,0 a0.15,0.15 0 1,1 -0.3,0z" transform="matrix(1,0,0,-1,-0,35)" fill="rgb(255,255,255)" stroke="rgb(0,0,0)" stroke-width="0.0010cm" stroke-linecap="round" stroke-linejoin="round" shaper:cutDepth="0" /><path d="M2.35,2.5 a0.15,0.15 0 1,1 0.3,0 a0.15,0.15 0 1,1 -0.3,0z" transform="matrix(1,0,0,-1,-0,35)" fill="rgb(255,255,255)" stroke="rgb(0,0,0)" stroke-width="0.0010cm" stroke-linecap="round" stroke-linejoin="round" shaper:cutDepth="0" /><path d="M47.35,32.5 a0.15,0.15 0 1,1 0.3,0 a0.15,0.15 0 1,1 -0.3,0z" transform="matrix(1,0,0,-1,-0,35)" fill="rgb(255,255,255)" stroke="rgb(0,0,0)" stroke-width="0.0010cm" stroke-linecap="round" stroke-linejoin="round" shaper:cutDepth="0" /><path d="M2.35,17.5 a0.15,0.15 0 1,1 0.3,0 a0.15,0.15 0 1,1 -0.3,0z" transform="matrix(1,0,0,-1,-0,35)" fill="rgb(255,255,255)" stroke="rgb(0,0,0)" stroke-width="0.0010cm" stroke-linecap="round" stroke-linejoin="round" shaper:cutDepth="0" /><path d="M21.9,15 a0.6,0.6 0 1,1 1.2,0 a0.6,0.6 0 1,1 -1.2,0z" transform="matrix(1,0,0,-1,-0,35)" fill="rgb(255,255,255)" stroke="rgb(0,0,0)" stroke-width="0.0010cm" stroke-linecap="round" stroke-linejoin="round" shaper:cutDepth="0" /><path d="M16.9,15 a0.6,0.6 0 1,1 1.2,0 a0.6,0.6 0 1,1 -1.2,0z" transform="matrix(1,0,0,-1,-0,35)" fill="rgb(255,255,255)" stroke="rgb(0,0,0)" stroke-width="0.0010cm" stroke-linecap="round" stroke-linejoin="round" shaper:cutDepth="0" /><path d="M36.9,25 a0.6,0.6 0 1,1 1.2,0 a0.6,0.6 0 1,1 -1.2,0z" transform="matrix(1,0,0,-1,-0,35)" fill="rgb(255,255,255)" stroke="rgb(0,0,0)" stroke-width="0.0010cm" stroke-linecap="round" stroke-linejoin="round" shaper:cutDepth="0" /><path d="M16.9,5 a0.6,0.6 0 1,1 1.2,0 a0.6,0.6 0 1,1 -1.2,0z" transform="matrix(1,0,0,-1,-0,35)" fill="rgb(255,255,255)" stroke="rgb(0,0,0)" stroke-width="0.0010cm" stroke-linecap="round" stroke-linejoin="round" shaper:cutDepth="0" /><path d="M41.9,5 a0.6,0.6 0 1,1 1.2,0 a0.6,0.6 0 1,1 -1.2,0z" transform="matrix(1,0,0,-1,-0,35)" fill="rgb(255,255,255)" stroke="rgb(0,0,0)" stroke-width="0.0010cm" stroke-linecap="round" stroke-linejoin="round" shaper:cutDepth="0" /><path d="M21.9,5 a0.6,0.6 0 1,1 1.2,0 a0.6,0.6 0 1,1 -1.2,0z" transform="matrix(1,0,0,-1,-0,35)" fill="rgb(255,255,255)" stroke="rgb(0,0,0)" stroke-width="0.0010cm" stroke-linecap="round" stroke-linejoin="round" shaper:cutDepth="0" /><path d="M11.9,5 a0.6,0.6 0 1,1 1.2,0 a0.6,0.6 0 1,1 -1.2,0z" transform="matrix(1,0,0,-1,-0,35)" fill="rgb(255,255,255)" stroke="rgb(0,0,0)" stroke-width="0.0010cm" stroke-linecap="round" stroke-linejoin="round" shaper:cutDepth="0" /><path d="M36.9,5 a0.6,0.6 0 1,1 1.2,0 a0.6,0.6 0 1,1 -1.2,0z" transform="matrix(1,0,0,-1,-0,35)" fill="rgb(255,255,255)" stroke="rgb(0,0,0)" stroke-width="0.0010cm" stroke-linecap="round" stroke-linejoin="round" shaper:cutDepth="0" /><path d="M6.9,5 a0.6,0.6 0 1,1 1.2,0 a0.6,0.6 0 1,1 -1.2,0z" transform="matrix(1,0,0,-1,-0,35)" fill="rgb(255,255,255)" stroke="rgb(0,0,0)" stroke-width="0.0010cm" stroke-linecap="round" stroke-linejoin="round" shaper:cutDepth="0" /><path d="M31.9,25 a0.6,0.6 0 1,1 1.2,0 a0.6,0.6 0 1,1 -1.2,0z" transform="matrix(1,0,0,-1,-0,35)" fill="rgb(255,255,255)" stroke="rgb(0,0,0)" stroke-width="0.0010cm" stroke-linecap="round" stroke-linejoin="round" shaper:cutDepth="0" /><path d="M11.9,15 a0.6,0.6 0 1,1 1.2,0 a0.6,0.6 0 1,1 -1.2,0z" transform="matrix(1,0,0,-1,-0,35)" fill="rgb(255,255,255)" stroke="rgb(0,0,0)" stroke-width="0.0010cm" stroke-linecap="round" stroke-linejoin="round" shaper:cutDepth="0" /><path d="M26.9,25 a0.6,0.6 0 1,1 1.2,0 a0.6,0.6 0 1,1 -1.2,0z" transform="matrix(1,0,0,-1,-0,35)" fill="rgb(255,255,255)" stroke="rgb(0,0,0)" stroke-width="0.0010cm" stroke-linecap="round" stroke-linejoin="round" shaper:cutDepth="0" /><path d="M11.9,25 a0.6,0.6 0 1,1 1.2,0 a0.6,0.6 0 1,1 -1.2,0z" transform="matrix(1,0,0,-1,-0,35)" fill="rgb(255,255,255)" stroke="rgb(0,0,0)" stroke-width="0.0010cm" stroke-linecap="round" stroke-linejoin="round" shaper:cutDepth="0" /><path d="M21.9,25 a0.6,0.6 0 1,1 1.2,0 a0.6,0.6 0 1,1 -1.2,0z" transform="matrix(1,0,0,-1,-0,35)" fill="rgb(255,255,255)" stroke="rgb(0,0,0)" stroke-width="0.0010cm" stroke-linecap="round" stroke-linejoin="round" shaper:cutDepth="0" /><path d="M6.9,25 a0.6,0.6 0 1,1 1.2,0 a0.6,0.6 0 1,1 -1.2,0z" transform="matrix(1,0,0,-1,-0,35)" fill="rgb(255,255,255)" stroke="rgb(0,0,0)" stroke-width="0.0010cm" stroke-linecap="round" stroke-linejoin="round" shaper:cutDepth="0" /><path d="M31.9,15 a0.6,0.6 0 1,1 1.2,0 a0.6,0.6 0 1,1 -1.2,0z" transform="matrix(1,0,0,-1,-0,35)" fill="rgb(255,255,255)" stroke="rgb(0,0,0)" stroke-width="0.0010cm" stroke-linecap="round" stroke-linejoin="round" shaper:cutDepth="0" /><path d="M26.9,5 a0.6,0.6 0 1,1 1.2,0 a0.6,0.6 0 1,1 -1.2,0z" transform="matrix(1,0,0,-1,-0,35)" fill="rgb(255,255,255)" stroke="rgb(0,0,0)" stroke-width="0.0010cm" stroke-linecap="round" stroke-linejoin="round" shaper:cutDepth="0" /><path d="M41.9,25 a0.6,0.6 0 1,1 1.2,0 a0.6,0.6 0 1,1 -1.2,0z" transform="matrix(1,0,0,-1,-0,35)" fill="rgb(255,255,255)" stroke="rgb(0,0,0)" stroke-width="0.0010cm" stroke-linecap="round" stroke-linejoin="round" shaper:cutDepth="0" /><path d="M31.9,5 a0.6,0.6 0 1,1 1.2,0 a0.6,0.6 0 1,1 -1.2,0z" transform="matrix(1,0,0,-1,-0,35)" fill="rgb(255,255,255)" stroke="rgb(0,0,0)" stroke-width="0.0010cm" stroke-linecap="round" stroke-linejoin="round" shaper:cutDepth="0" /><path d="M41.9,15 a0.6,0.6 0 1,1 1.2,0 a0.6,0.6 0 1,1 -1.2,0z" transform="matrix(1,0,0,-1,-0,35)" fill="rgb(255,255,255)" stroke="rgb(0,0,0)" stroke-width="0.0010cm" stroke-linecap="round" stroke-linejoin="round" shaper:cutDepth="0" /><path d="M36.9,15 a0.6,0.6 0 1,1 1.2,0 a0.6,0.6 0 1,1 -1.2,0z" transform="matrix(1,0,0,-1,-0,35)" fill="rgb(255,255,255)" stroke="rgb(0,0,0)" stroke-width="0.0010cm" stroke-linecap="round" stroke-linejoin="round" shaper:cutDepth="0" /><path d="M26.9,15 a0.6,0.6 0 1,1 1.2,0 a0.6,0.6 0 1,1 -1.2,0z" transform="matrix(1,0,0,-1,-0,35)" fill="rgb(255,255,255)" stroke="rgb(0,0,0)" stroke-width="0.0010cm" stroke-linecap="round" stroke-linejoin="round" shaper:cutDepth="0" /><path d="M6.9,15 a0.6,0.6 0 1,1 1.2,0 a0.6,0.6 0 1,1 -1.2,0z" transform="matrix(1,0,0,-1,-0,35)" fill="rgb(255,255,255)" stroke="rgb(0,0,0)" stroke-width="0.0010cm" stroke-linecap="round" stroke-linejoin="round" shaper:cutDepth="0" /><path d="M16.9,25 a0.6,0.6 0 1,1 1.2,0 a0.6,0.6 0 1,1 -1.2,0z" transform="matrix(1,0,0,-1,-0,35)" fill="rgb(255,255,255)" stroke="rgb(0,0,0)" stroke-width="0.0010cm" stroke-linecap="round" stroke-linejoin="round" shaper:cutDepth="0" /><path d="M40.75,2.5 a1.75,1.75 0 1,1 3.5,0 a1.75,1.75 0 1,1 -3.5,0z" transform="matrix(1,0,0,-1,-0,35)" fill="rgb(255,255,255)" stroke="rgb(0,0,0)" stroke-width="0.0010cm" stroke-linecap="round" stroke-linejoin="round" shaper:cutDepth="0" /><path d="M35.75,2.5 a1.75,1.75 0 1,1 3.5,0 a1.75,1.75 0 1,1 -3.5,0z" transform="matrix(1,0,0,-1,-0,35)" fill="rgb(255,255,255)" stroke="rgb(0,0,0)" stroke-width="0.0010cm" stroke-linecap="round" stroke-linejoin="round" shaper:cutDepth="0" /><path d="M25.75,2.5 a1.75,1.75 0 1,1 3.5,0 a1.75,1.75 0 1,1 -3.5,0z" transform="matrix(1,0,0,-1,-0,35)" fill="rgb(255,255,255)" stroke="rgb(0,0,0)" stroke-width="0.0010cm" stroke-linecap="round" stroke-linejoin="round" shaper:cutDepth="0" /><path d="M30.75,2.5 a1.75,1.75 0 1,1 3.5,0 a1.75,1.75 0 1,1 -3.5,0z" transform="matrix(1,0,0,-1,-0,35)" fill="rgb(255,255,255)" stroke="rgb(0,0,0)" stroke-width="0.0010cm" stroke-linecap="round" stroke-linejoin="round" shaper:cutDepth="0" /><path d="M20.75,2.5 a1.75,1.75 0 1,1 3.5,0 a1.75,1.75 0 1,1 -3.5,0z" transform="matrix(1,0,0,-1,-0,35)" fill="rgb(255,255,255)" stroke="rgb(0,0,0)" stroke-width="0.0010cm" stroke-linecap="round" stroke-linejoin="round" shaper:cutDepth="0" /><path d="M15.75,2.5 a1.75,1.75 0 1,1 3.5,0 a1.75,1.75 0 1,1 -3.5,0z" transform="matrix(1,0,0,-1,-0,35)" fill="rgb(255,255,255)" stroke="rgb(0,0,0)" stroke-width="0.0010cm" stroke-linecap="round" stroke-linejoin="round" shaper:cutDepth="0" /><path d="M10.75,2.5 a1.75,1.75 0 1,1 3.5,0 a1.75,1.75 0 1,1 -3.5,0z" transform="matrix(1,0,0,-1,-0,35)" fill="rgb(255,255,255)" stroke="rgb(0,0,0)" stroke-width="0.0010cm" stroke-linecap="round" stroke-linejoin="round" shaper:cutDepth="0" /><path d="M5.75,2.5 a1.75,1.75 0 1,1 3.5,0 a1.75,1.75 0 1,1 -3.5,0z" transform="matrix(1,0,0,-1,-0,35)" fill="rgb(255,255,255)" stroke="rgb(0,0,0)" stroke-width="0.0010cm" stroke-linecap="round" stroke-linejoin="round" shaper:cutDepth="0" /><path d="M40.75,7.5 a1.75,1.75 0 1,1 3.5,0 a1.75,1.75 0 1,1 -3.5,0z" transform="matrix(1,0,0,-1,-0,35)" fill="rgb(255,255,255)" stroke="rgb(0,0,0)" stroke-width="0.0010cm" stroke-linecap="round" stroke-linejoin="round" shaper:cutDepth="0" /><path d="M35.75,7.5 a1.75,1.75 0 1,1 3.5,0 a1.75,1.75 0 1,1 -3.5,0z" transform="matrix(1,0,0,-1,-0,35)" fill="rgb(255,255,255)" stroke="rgb(0,0,0)" stroke-width="0.0010cm" stroke-linecap="round" stroke-linejoin="round" shaper:cutDepth="0" /><path d="M30.75,7.5 a1.75,1.75 0 1,1 3.5,0 a1.75,1.75 0 1,1 -3.5,0z" transform="matrix(1,0,0,-1,-0,35)" fill="rgb(255,255,255)" stroke="rgb(0,0,0)" stroke-width="0.0010cm" stroke-linecap="round" stroke-linejoin="round" shaper:cutDepth="0" /><path d="M25.75,7.5 a1.75,1.75 0 1,1 3.5,0 a1.75,1.75 0 1,1 -3.5,0z" transform="matrix(1,0,0,-1,-0,35)" fill="rgb(255,255,255)" stroke="rgb(0,0,0)" stroke-width="0.0010cm" stroke-linecap="round" stroke-linejoin="round" shaper:cutDepth="0" /><path d="M20.75,7.5 a1.75,1.75 0 1,1 3.5,0 a1.75,1.75 0 1,1 -3.5,0z" transform="matrix(1,0,0,-1,-0,35)" fill="rgb(255,255,255)" stroke="rgb(0,0,0)" stroke-width="0.0010cm" stroke-linecap="round" stroke-linejoin="round" shaper:cutDepth="0" /><path d="M15.75,7.5 a1.75,1.75 0 1,1 3.5,0 a1.75,1.75 0 1,1 -3.5,0z" transform="matrix(1,0,0,-1,-0,35)" fill="rgb(255,255,255)" stroke="rgb(0,0,0)" stroke-width="0.0010cm" stroke-linecap="round" stroke-linejoin="round" shaper:cutDepth="0" /><path d="M10.75,7.5 a1.75,1.75 0 1,1 3.5,0 a1.75,1.75 0 1,1 -3.5,0z" transform="matrix(1,0,0,-1,-0,35)" fill="rgb(255,255,255)" stroke="rgb(0,0,0)" stroke-width="0.0010cm" stroke-linecap="round" stroke-linejoin="round" shaper:cutDepth="0" /><path d="M5.75,7.5 a1.75,1.75 0 1,1 3.5,0 a1.75,1.75 0 1,1 -3.5,0z" transform="matrix(1,0,0,-1,-0,35)" fill="rgb(255,255,255)" stroke="rgb(0,0,0)" stroke-width="0.0010cm" stroke-linecap="round" stroke-linejoin="round" shaper:cutDepth="0" /><path d="M40.75,12.5 a1.75,1.75 0 1,1 3.5,0 a1.75,1.75 0 1,1 -3.5,0z" transform="matrix(1,0,0,-1,-0,35)" fill="rgb(255,255,255)" stroke="rgb(0,0,0)" stroke-width="0.0010cm" stroke-linecap="round" stroke-linejoin="round" shaper:cutDepth="0" /><path d="M35.75,12.5 a1.75,1.75 0 1,1 3.5,0 a1.75,1.75 0 1,1 -3.5,0z" transform="matrix(1,0,0,-1,-0,35)" fill="rgb(255,255,255)" stroke="rgb(0,0,0)" stroke-width="0.0010cm" stroke-linecap="round" stroke-linejoin="round" shaper:cutDepth="0" /><path d="M30.75,12.5 a1.75,1.75 0 1,1 3.5,0 a1.75,1.75 0 1,1 -3.5,0z" transform="matrix(1,0,0,-1,-0,35)" fill="rgb(255,255,255)" stroke="rgb(0,0,0)" stroke-width="0.0010cm" stroke-linecap="round" stroke-linejoin="round" shaper:cutDepth="0" /><path d="M25.75,12.5 a1.75,1.75 0 1,1 3.5,0 a1.75,1.75 0 1,1 -3.5,0z" transform="matrix(1,0,0,-1,-0,35)" fill="rgb(255,255,255)" stroke="rgb(0,0,0)" stroke-width="0.0010cm" stroke-linecap="round" stroke-linejoin="round" shaper:cutDepth="0" /><path d="M20.75,12.5 a1.75,1.75 0 1,1 3.5,0 a1.75,1.75 0 1,1 -3.5,0z" transform="matrix(1,0,0,-1,-0,35)" fill="rgb(255,255,255)" stroke="rgb(0,0,0)" stroke-width="0.0010cm" stroke-linecap="round" stroke-linejoin="round" shaper:cutDepth="0" /><path d="M15.75,12.5 a1.75,1.75 0 1,1 3.5,0 a1.75,1.75 0 1,1 -3.5,0z" transform="matrix(1,0,0,-1,-0,35)" fill="rgb(255,255,255)" stroke="rgb(0,0,0)" stroke-width="0.0010cm" stroke-linecap="round" stroke-linejoin="round" shaper:cutDepth="0" /><path d="M10.75,12.5 a1.75,1.75 0 1,1 3.5,0 a1.75,1.75 0 1,1 -3.5,0z" transform="matrix(1,0,0,-1,-0,35)" fill="rgb(255,255,255)" stroke="rgb(0,0,0)" stroke-width="0.0010cm" stroke-linecap="round" stroke-linejoin="round" shaper:cutDepth="0" /><path d="M5.75,12.5 a1.75,1.75 0 1,1 3.5,0 a1.75,1.75 0 1,1 -3.5,0z" transform="matrix(1,0,0,-1,-0,35)" fill="rgb(255,255,255)" stroke="rgb(0,0,0)" stroke-width="0.0010cm" stroke-linecap="round" stroke-linejoin="round" shaper:cutDepth="0" /><path d="M40.75,17.5 a1.75,1.75 0 1,1 3.5,0 a1.75,1.75 0 1,1 -3.5,0z" transform="matrix(1,0,0,-1,-0,35)" fill="rgb(255,255,255)" stroke="rgb(0,0,0)" stroke-width="0.0010cm" stroke-linecap="round" stroke-linejoin="round" shaper:cutDepth="0" /><path d="M35.75,17.5 a1.75,1.75 0 1,1 3.5,0 a1.75,1.75 0 1,1 -3.5,0z" transform="matrix(1,0,0,-1,-0,35)" fill="rgb(255,255,255)" stroke="rgb(0,0,0)" stroke-width="0.0010cm" stroke-linecap="round" stroke-linejoin="round" shaper:cutDepth="0" /><path d="M30.75,17.5 a1.75,1.75 0 1,1 3.5,0 a1.75,1.75 0 1,1 -3.5,0z" transform="matrix(1,0,0,-1,-0,35)" fill="rgb(255,255,255)" stroke="rgb(0,0,0)" stroke-width="0.0010cm" stroke-linecap="round" stroke-linejoin="round" shaper:cutDepth="0" /><path d="M25.75,17.5 a1.75,1.75 0 1,1 3.5,0 a1.75,1.75 0 1,1 -3.5,0z" transform="matrix(1,0,0,-1,-0,35)" fill="rgb(255,255,255)" stroke="rgb(0,0,0)" stroke-width="0.0010cm" stroke-linecap="round" stroke-linejoin="round" shaper:cutDepth="0" /><path d="M20.75,17.5 a1.75,1.75 0 1,1 3.5,0 a1.75,1.75 0 1,1 -3.5,0z" transform="matrix(1,0,0,-1,-0,35)" fill="rgb(255,255,255)" stroke="rgb(0,0,0)" stroke-width="0.0010cm" stroke-linecap="round" stroke-linejoin="round" shaper:cutDepth="0" /><path d="M15.75,17.5 a1.75,1.75 0 1,1 3.5,0 a1.75,1.75 0 1,1 -3.5,0z" transform="matrix(1,0,0,-1,-0,35)" fill="rgb(255,255,255)" stroke="rgb(0,0,0)" stroke-width="0.0010cm" stroke-linecap="round" stroke-linejoin="round" shaper:cutDepth="0" /><path d="M10.75,17.5 a1.75,1.75 0 1,1 3.5,0 a1.75,1.75 0 1,1 -3.5,0z" transform="matrix(1,0,0,-1,-0,35)" fill="rgb(255,255,255)" stroke="rgb(0,0,0)" stroke-width="0.0010cm" stroke-linecap="round" stroke-linejoin="round" shaper:cutDepth="0" /><path d="M5.75,17.5 a1.75,1.75 0 1,1 3.5,0 a1.75,1.75 0 1,1 -3.5,0z" transform="matrix(1,0,0,-1,-0,35)" fill="rgb(255,255,255)" stroke="rgb(0,0,0)" stroke-width="0.0010cm" stroke-linecap="round" stroke-linejoin="round" shaper:cutDepth="0" /><path d="M40.75,22.5 a1.75,1.75 0 1,1 3.5,0 a1.75,1.75 0 1,1 -3.5,0z" transform="matrix(1,0,0,-1,-0,35)" fill="rgb(255,255,255)" stroke="rgb(0,0,0)" stroke-width="0.0010cm" stroke-linecap="round" stroke-linejoin="round" shaper:cutDepth="0" /><path d="M35.75,22.5 a1.75,1.75 0 1,1 3.5,0 a1.75,1.75 0 1,1 -3.5,0z" transform="matrix(1,0,0,-1,-0,35)" fill="rgb(255,255,255)" stroke="rgb(0,0,0)" stroke-width="0.0010cm" stroke-linecap="round" stroke-linejoin="round" shaper:cutDepth="0" /><path d="M30.75,22.5 a1.75,1.75 0 1,1 3.5,0 a1.75,1.75 0 1,1 -3.5,0z" transform="matrix(1,0,0,-1,-0,35)" fill="rgb(255,255,255)" stroke="rgb(0,0,0)" stroke-width="0.0010cm" stroke-linecap="round" stroke-linejoin="round" shaper:cutDepth="0" /><path d="M25.75,22.5 a1.75,1.75 0 1,1 3.5,0 a1.75,1.75 0 1,1 -3.5,0z" transform="matrix(1,0,0,-1,-0,35)" fill="rgb(255,255,255)" stroke="rgb(0,0,0)" stroke-width="0.0010cm" stroke-linecap="round" stroke-linejoin="round" shaper:cutDepth="0" /><path d="M20.75,22.5 a1.75,1.75 0 1,1 3.5,0 a1.75,1.75 0 1,1 -3.5,0z" transform="matrix(1,0,0,-1,-0,35)" fill="rgb(255,255,255)" stroke="rgb(0,0,0)" stroke-width="0.0010cm" stroke-linecap="round" stroke-linejoin="round" shaper:cutDepth="0" /><path d="M15.75,22.5 a1.75,1.75 0 1,1 3.5,0 a1.75,1.75 0 1,1 -3.5,0z" transform="matrix(1,0,0,-1,-0,35)" fill="rgb(255,255,255)" stroke="rgb(0,0,0)" stroke-width="0.0010cm" stroke-linecap="round" stroke-linejoin="round" shaper:cutDepth="0" /><path d="M10.75,22.5 a1.75,1.75 0 1,1 3.5,0 a1.75,1.75 0 1,1 -3.5,0z" transform="matrix(1,0,0,-1,-0,35)" fill="rgb(255,255,255)" stroke="rgb(0,0,0)" stroke-width="0.0010cm" stroke-linecap="round" stroke-linejoin="round" shaper:cutDepth="0" /><path d="M5.75,22.5 a1.75,1.75 0 1,1 3.5,0 a1.75,1.75 0 1,1 -3.5,0z" transform="matrix(1,0,0,-1,-0,35)" fill="rgb(255,255,255)" stroke="rgb(0,0,0)" stroke-width="0.0010cm" stroke-linecap="round" stroke-linejoin="round" shaper:cutDepth="0" /><path d="M40.75,27.5 a1.75,1.75 0 1,1 3.5,0 a1.75,1.75 0 1,1 -3.5,0z" transform="matrix(1,0,0,-1,-0,35)" fill="rgb(255,255,255)" stroke="rgb(0,0,0)" stroke-width="0.0010cm" stroke-linecap="round" stroke-linejoin="round" shaper:cutDepth="0" /><path d="M35.75,27.5 a1.75,1.75 0 1,1 3.5,0 a1.75,1.75 0 1,1 -3.5,0z" transform="matrix(1,0,0,-1,-0,35)" fill="rgb(255,255,255)" stroke="rgb(0,0,0)" stroke-width="0.0010cm" stroke-linecap="round" stroke-linejoin="round" shaper:cutDepth="0" /><path d="M30.75,27.5 a1.75,1.75 0 1,1 3.5,0 a1.75,1.75 0 1,1 -3.5,0z" transform="matrix(1,0,0,-1,-0,35)" fill="rgb(255,255,255)" stroke="rgb(0,0,0)" stroke-width="0.0010cm" stroke-linecap="round" stroke-linejoin="round" shaper:cutDepth="0" /><path d="M25.75,27.5 a1.75,1.75 0 1,1 3.5,0 a1.75,1.75 0 1,1 -3.5,0z" transform="matrix(1,0,0,-1,-0,35)" fill="rgb(255,255,255)" stroke="rgb(0,0,0)" stroke-width="0.0010cm" stroke-linecap="round" stroke-linejoin="round" shaper:cutDepth="0" /><path d="M20.75,27.5 a1.75,1.75 0 1,1 3.5,0 a1.75,1.75 0 1,1 -3.5,0z" transform="matrix(1,0,0,-1,-0,35)" fill="rgb(255,255,255)" stroke="rgb(0,0,0)" stroke-width="0.0010cm" stroke-linecap="round" stroke-linejoin="round" shaper:cutDepth="0" /><path d="M15.75,27.5 a1.75,1.75 0 1,1 3.5,0 a1.75,1.75 0 1,1 -3.5,0z" transform="matrix(1,0,0,-1,-0,35)" fill="rgb(255,255,255)" stroke="rgb(0,0,0)" stroke-width="0.0010cm" stroke-linecap="round" stroke-linejoin="round" shaper:cutDepth="0" /><path d="M10.75,27.5 a1.75,1.75 0 1,1 3.5,0 a1.75,1.75 0 1,1 -3.5,0z" transform="matrix(1,0,0,-1,-0,35)" fill="rgb(255,255,255)" stroke="rgb(0,0,0)" stroke-width="0.0010cm" stroke-linecap="round" stroke-linejoin="round" shaper:cutDepth="0" /><path d="M5.75,27.5 a1.75,1.75 0 1,1 3.5,0 a1.75,1.75 0 1,1 -3.5,0z" transform="matrix(1,0,0,-1,-0,35)" fill="rgb(255,255,255)" stroke="rgb(0,0,0)" stroke-width="0.0010cm" stroke-linecap="round" stroke-linejoin="round" shaper:cutDepth="0" /></svg>